<svg id="Capa_1" data-name="Capa 1" xmlns="http://www.w3.org/2000/svg" viewBox="0 0 867.85 204.62"><defs><style>.cls-1{opacity:0.8;}.cls-2{fill:#d60d45;}.cls-3{fill:#fff;}.cls-4{fill:#182b7d;}</style></defs><title>texto_post_bus</title><g class="cls-1"><polygon class="cls-2" points="610.53 91.61 0 91.61 26.17 63.19 26.17 0 610.53 0 610.53 91.61"/></g><g class="cls-1"><polygon class="cls-3" points="407.81 204.62 867.85 204.62 841.68 176.21 841.68 113.02 407.81 113.02 407.81 204.62"/></g><path class="cls-4" d="M506.61,156.88h14.46l-.44,2.89H509.27L508,168.06h11l-.48,2.88h-11l-1.74,10.95h11.36l-.45,2.89H502.2Z" transform="translate(-66.07 -32.69)"/><path class="cls-4" d="M538.17,162.32a5.93,5.93,0,0,0-1.59-2.24,4.2,4.2,0,0,0-2.74-.79,5.34,5.34,0,0,0-1.81.31,5.49,5.49,0,0,0-1.61.89,5.34,5.34,0,0,0-1.22,1.37,4.46,4.46,0,0,0-.65,1.75,2.66,2.66,0,0,0,.16,1.58,3.93,3.93,0,0,0,.87,1.2,5.72,5.72,0,0,0,1.26.89l1.37.7,1.7.81a25.7,25.7,0,0,1,2.39,1.28,8.12,8.12,0,0,1,1.91,1.59,5.7,5.7,0,0,1,1.11,2.11,7,7,0,0,1,.07,2.87,9.56,9.56,0,0,1-1.24,3.42,10.66,10.66,0,0,1-2.31,2.72,10.9,10.9,0,0,1-3.07,1.81,9.49,9.49,0,0,1-3.52.67,8.38,8.38,0,0,1-3-.52,6.6,6.6,0,0,1-3.89-3.74,8.62,8.62,0,0,1-.63-3l3.15-.85a6.33,6.33,0,0,0,.31,2,4.78,4.78,0,0,0,.93,1.65A4.33,4.33,0,0,0,527.6,182a4.92,4.92,0,0,0,2,.4,6.43,6.43,0,0,0,2.22-.4,7.1,7.1,0,0,0,3.57-2.85,5.58,5.58,0,0,0,.83-2.18,4.26,4.26,0,0,0-.11-2.08,3.81,3.81,0,0,0-.92-1.48,6.29,6.29,0,0,0-1.5-1.09c-.58-.31-1.17-.61-1.76-.9l-1.55-.74a24.13,24.13,0,0,1-2.15-1.19,7.75,7.75,0,0,1-1.7-1.44,5,5,0,0,1-1-1.91,6.17,6.17,0,0,1-.09-2.61,7.48,7.48,0,0,1,1.11-2.94,9,9,0,0,1,2.07-2.24,9.69,9.69,0,0,1,2.7-1.42,9.54,9.54,0,0,1,3-.5,7.25,7.25,0,0,1,4,1.13,6.38,6.38,0,0,1,2.5,3.2Z" transform="translate(-66.07 -32.69)"/><path class="cls-4" d="M558.81,155.7,577,178.49l3.41-21.61h3.1L578.91,186l-18.17-22.76-3.41,21.5h-3.1Z" transform="translate(-66.07 -32.69)"/><path class="cls-4" d="M602.51,156.4a13,13,0,0,1,5.46,1.13,11.78,11.78,0,0,1,4.14,3.11,12.18,12.18,0,0,1,2.43,4.6,12.9,12.9,0,0,1,.25,5.63,15.68,15.68,0,0,1-2,5.62,18.31,18.31,0,0,1-3.86,4.57,18.59,18.59,0,0,1-5.11,3.07,15.53,15.53,0,0,1-5.81,1.13,13,13,0,0,1-5.46-1.13,11.67,11.67,0,0,1-6.53-7.64,13,13,0,0,1-.26-5.62,15.83,15.83,0,0,1,2-5.63,18.31,18.31,0,0,1,3.85-4.6,18,18,0,0,1,5.1-3.11A15.53,15.53,0,0,1,602.51,156.4Zm-.44,2.89a12.2,12.2,0,0,0-4.63.9,14.17,14.17,0,0,0-4,2.48,14.74,14.74,0,0,0-3,3.68,13,13,0,0,0-1.59,4.48,10.7,10.7,0,0,0,.19,4.46,9.46,9.46,0,0,0,1.85,3.66,9.33,9.33,0,0,0,3.23,2.5,9.89,9.89,0,0,0,4.31.92,11.89,11.89,0,0,0,4.61-.92,14.42,14.42,0,0,0,4-2.5,15.13,15.13,0,0,0,3-3.66,12.59,12.59,0,0,0,1.61-4.46,11,11,0,0,0-.19-4.48,9.61,9.61,0,0,0-1.85-3.68,9.11,9.11,0,0,0-3.24-2.48A10.18,10.18,0,0,0,602.07,159.29Z" transform="translate(-66.07 -32.69)"/><path class="cls-4" d="M631.3,184.78h-3.11l4.4-27.9h4.59a28.05,28.05,0,0,1,3.57.22,6.5,6.5,0,0,1,3.13,1.26,5.39,5.39,0,0,1,1.92,2.78,7.84,7.84,0,0,1,.22,3.59A9.93,9.93,0,0,1,644.8,168a8.57,8.57,0,0,1-2.4,2.68,8.24,8.24,0,0,1-3.37,1.52,19.38,19.38,0,0,1-3.55.33h-2.26Zm2.4-15.1h2.07a13.23,13.23,0,0,0,2.48-.22,6.58,6.58,0,0,0,2.15-.79,5.43,5.43,0,0,0,1.63-1.54,5.86,5.86,0,0,0,.89-2.48,4.7,4.7,0,0,0-.21-2.68,3.06,3.06,0,0,0-1.4-1.46,6.19,6.19,0,0,0-2.24-.61,25.81,25.81,0,0,0-2.67-.13h-1.14Z" transform="translate(-66.07 -32.69)"/><path class="cls-4" d="M664.41,156.4a13,13,0,0,1,5.46,1.13,11.78,11.78,0,0,1,4.14,3.11,12.18,12.18,0,0,1,2.43,4.6,13,13,0,0,1,.26,5.63,15.88,15.88,0,0,1-2.06,5.62,18.26,18.26,0,0,1-9,7.64,15.53,15.53,0,0,1-5.81,1.13,13,13,0,0,1-5.46-1.13,11.75,11.75,0,0,1-4.12-3.07,11.94,11.94,0,0,1-2.41-4.57,13,13,0,0,1-.26-5.62,15.83,15.83,0,0,1,2-5.63,18.31,18.31,0,0,1,3.85-4.6,18,18,0,0,1,5.1-3.11A15.53,15.53,0,0,1,664.41,156.4Zm-.44,2.89a12.2,12.2,0,0,0-4.63.9,14.17,14.17,0,0,0-4,2.48,14.74,14.74,0,0,0-3,3.68,13,13,0,0,0-1.59,4.48,10.7,10.7,0,0,0,.19,4.46,9.46,9.46,0,0,0,1.85,3.66,9.33,9.33,0,0,0,3.23,2.5,9.89,9.89,0,0,0,4.31.92,11.89,11.89,0,0,0,4.61-.92,14.42,14.42,0,0,0,4-2.5,15.13,15.13,0,0,0,3-3.66,12.59,12.59,0,0,0,1.61-4.46,11,11,0,0,0-.19-4.48,9.47,9.47,0,0,0-1.85-3.68,9.11,9.11,0,0,0-3.24-2.48A10.18,10.18,0,0,0,664,159.29Z" transform="translate(-66.07 -32.69)"/><path class="cls-4" d="M683.1,156.88h5.25c1,0,2,0,3,.13a14.35,14.35,0,0,1,2.7.5,11.12,11.12,0,0,1,4.68,2.74,10.24,10.24,0,0,1,2.76,4.77,14.77,14.77,0,0,1,.2,5.85,16.84,16.84,0,0,1-2,5.69,16.36,16.36,0,0,1-4.18,4.7,18.31,18.31,0,0,1-2.82,1.8,15.2,15.2,0,0,1-2.77,1.07,16.35,16.35,0,0,1-2.89.52c-1,.09-2,.13-3.11.13h-5.18Zm1.4,25c.84,0,1.66,0,2.46-.11a13.14,13.14,0,0,0,2.35-.42,11.66,11.66,0,0,0,2.26-.89,13.43,13.43,0,0,0,2.22-1.46,13.1,13.1,0,0,0,3.18-3.74,13.91,13.91,0,0,0,1.59-4.44,11.37,11.37,0,0,0-.18-4.59,8.26,8.26,0,0,0-2.11-3.77,7.65,7.65,0,0,0-3.72-2.2,18.82,18.82,0,0,0-4.53-.5h-2.26l-3.51,22.12Z" transform="translate(-66.07 -32.69)"/><path class="cls-4" d="M708.18,156.88h14.47l-.44,2.89H710.85l-1.3,8.29h11l-.48,2.88h-11l-1.74,10.95h11.36l-.44,2.89H703.78Z" transform="translate(-66.07 -32.69)"/><path class="cls-4" d="M726.65,184.78h-3.11l4.4-27.9h4a23,23,0,0,1,3.8.31,7.94,7.94,0,0,1,3.07,1.17,5,5,0,0,1,1.88,2.35,7.27,7.27,0,0,1,.24,3.87,9.74,9.74,0,0,1-1,3,8.74,8.74,0,0,1-1.75,2.34,8.33,8.33,0,0,1-2.45,1.61,9.52,9.52,0,0,1-3,.76l6.88,12.51h-3.81l-6.51-12.25h-.78Zm2.36-15h1a20.71,20.71,0,0,0,2.62-.16,7.27,7.27,0,0,0,2.37-.71,5.36,5.36,0,0,0,1.85-1.51,5.64,5.64,0,0,0,1-2.61,5.2,5.2,0,0,0-.17-2.72,3,3,0,0,0-1.33-1.52,6,6,0,0,0-2.17-.65,24.86,24.86,0,0,0-2.66-.14h-.93Z" transform="translate(-66.07 -32.69)"/><path class="cls-4" d="M759.8,173.49l-.24,1.59a11.36,11.36,0,0,0-.15,1.63,8.17,8.17,0,0,0,.11,1.58,3.9,3.9,0,0,0,.54,1.42,4.59,4.59,0,0,0,2.16,2,7,7,0,0,0,3,.68,8.19,8.19,0,0,0,3.1-.64,8.46,8.46,0,0,0,2.78-1.83,6.1,6.1,0,0,0,1.07-1.45,8.61,8.61,0,0,0,.65-1.61,15.76,15.76,0,0,0,.39-1.68c.1-.57.18-1.12.26-1.67l2.62-16.61h3.11l-2.74,17.47q-.18,1.14-.42,2.16a13.42,13.42,0,0,1-.63,2,9.09,9.09,0,0,1-1,1.85,10.54,10.54,0,0,1-1.59,1.74,12.19,12.19,0,0,1-3.81,2.37,11.7,11.7,0,0,1-4.22.81,10.1,10.1,0,0,1-3.79-.72,7.41,7.41,0,0,1-3-2.13,6.56,6.56,0,0,1-1.16-1.79,6.93,6.93,0,0,1-.52-1.91,9.66,9.66,0,0,1,0-2.09c.06-.73.15-1.49.28-2.27l2.74-17.47h3.1Z" transform="translate(-66.07 -32.69)"/><path class="cls-4" d="M796.54,162.32a5.93,5.93,0,0,0-1.59-2.24,4.22,4.22,0,0,0-2.74-.79,5.34,5.34,0,0,0-1.81.31,5.49,5.49,0,0,0-1.61.89,5.16,5.16,0,0,0-1.22,1.37,4.46,4.46,0,0,0-.65,1.75,2.66,2.66,0,0,0,.16,1.58,3.93,3.93,0,0,0,.87,1.2,5.72,5.72,0,0,0,1.26.89l1.37.7,1.7.81a25.7,25.7,0,0,1,2.39,1.28,7.87,7.87,0,0,1,1.9,1.59,5.42,5.42,0,0,1,1.11,2.11,6.76,6.76,0,0,1,.08,2.87,9.56,9.56,0,0,1-1.24,3.42,10.66,10.66,0,0,1-2.31,2.72,10.9,10.9,0,0,1-3.07,1.81,9.49,9.49,0,0,1-3.52.67,8.38,8.38,0,0,1-3-.52A6.6,6.6,0,0,1,780.7,181a8.62,8.62,0,0,1-.63-3l3.15-.85a6.33,6.33,0,0,0,.31,2,4.78,4.78,0,0,0,.93,1.65A4.24,4.24,0,0,0,786,182a4.92,4.92,0,0,0,2,.4,6.43,6.43,0,0,0,2.22-.4,7.1,7.1,0,0,0,3.57-2.85,5.58,5.58,0,0,0,.83-2.18,4.26,4.26,0,0,0-.11-2.08,3.93,3.93,0,0,0-.92-1.48,6.29,6.29,0,0,0-1.5-1.09c-.58-.31-1.17-.61-1.76-.9l-1.55-.74a24.13,24.13,0,0,1-2.15-1.19,7.75,7.75,0,0,1-1.7-1.44,5,5,0,0,1-1-1.91,6.17,6.17,0,0,1-.09-2.61,7.48,7.48,0,0,1,1.11-2.94,9,9,0,0,1,2.07-2.24,9.69,9.69,0,0,1,2.7-1.42,9.54,9.54,0,0,1,3-.5,7.25,7.25,0,0,1,4,1.13,6.43,6.43,0,0,1,2.5,3.2Z" transform="translate(-66.07 -32.69)"/><path class="cls-4" d="M806.45,176.86l-4.62,7.92h-3.41l17.5-29.23,7.92,29.23H820.4l-2-7.92Zm8.25-14.06L808.16,174h9.43Z" transform="translate(-66.07 -32.69)"/><path class="cls-4" d="M830,184.78h-3.11l4.4-27.9h4a23,23,0,0,1,3.8.31,7.94,7.94,0,0,1,3.07,1.17,5,5,0,0,1,1.88,2.35,7.27,7.27,0,0,1,.24,3.87,9.74,9.74,0,0,1-1,3,8.57,8.57,0,0,1-1.76,2.34,8.16,8.16,0,0,1-2.44,1.61,9.52,9.52,0,0,1-3,.76L843,184.78H839.2l-6.51-12.25h-.78Zm2.36-15h1a20.71,20.71,0,0,0,2.62-.16,7.27,7.27,0,0,0,2.37-.71,5.36,5.36,0,0,0,1.85-1.51,5.64,5.64,0,0,0,1-2.61,5.2,5.2,0,0,0-.17-2.72,3,3,0,0,0-1.33-1.52,6,6,0,0,0-2.17-.65,24.86,24.86,0,0,0-2.66-.14h-.93Z" transform="translate(-66.07 -32.69)"/><path class="cls-4" d="M850.48,181.89h7.7l-.44,2.89H846.93l4.4-27.9h3.11Z" transform="translate(-66.07 -32.69)"/><path class="cls-4" d="M878.42,156.4a13,13,0,0,1,5.46,1.13,11.78,11.78,0,0,1,4.14,3.11,12,12,0,0,1,2.42,4.6,12.89,12.89,0,0,1,.26,5.63,15.68,15.68,0,0,1-2.05,5.62,18.14,18.14,0,0,1-3.87,4.57,18.39,18.39,0,0,1-5.1,3.07,15.53,15.53,0,0,1-5.81,1.13,13,13,0,0,1-5.46-1.13,11.6,11.6,0,0,1-6.53-7.64,13,13,0,0,1-.26-5.62,15.83,15.83,0,0,1,2-5.63,18.27,18.27,0,0,1,3.84-4.6,18,18,0,0,1,5.11-3.11A15.49,15.49,0,0,1,878.42,156.4Zm-.45,2.89a12.18,12.18,0,0,0-4.62.9,14.36,14.36,0,0,0-4,2.48,14.71,14.71,0,0,0-3,3.68,12.6,12.6,0,0,0-1.59,4.48,10.7,10.7,0,0,0,.18,4.46,9.6,9.6,0,0,0,1.85,3.66,9.46,9.46,0,0,0,3.24,2.5,9.86,9.86,0,0,0,4.31.92,11.93,11.93,0,0,0,4.61-.92,14.56,14.56,0,0,0,4-2.5,14.87,14.87,0,0,0,3-3.66,12.21,12.21,0,0,0,1.61-4.46,10.81,10.81,0,0,0-.18-4.48,9.61,9.61,0,0,0-1.85-3.68,9.11,9.11,0,0,0-3.24-2.48A10.19,10.19,0,0,0,878,159.29Z" transform="translate(-66.07 -32.69)"/><path class="cls-4" d="M550.29,229.65h-3.11l4.4-27.9h4.59a28.05,28.05,0,0,1,3.57.22,6.5,6.5,0,0,1,3.13,1.26,5.42,5.42,0,0,1,1.92,2.77,7.85,7.85,0,0,1,.22,3.59,10,10,0,0,1-1.22,3.31,8.62,8.62,0,0,1-2.4,2.69A8.09,8.09,0,0,1,558,217.1a19.48,19.48,0,0,1-3.55.34h-2.26Zm2.4-15.1h2.07a13.23,13.23,0,0,0,2.48-.22,6.38,6.38,0,0,0,2.15-.8A5.27,5.27,0,0,0,561,212a5.73,5.73,0,0,0,.88-2.48,4.61,4.61,0,0,0-.2-2.68,3.05,3.05,0,0,0-1.41-1.47,6.28,6.28,0,0,0-2.23-.61c-.87-.08-1.76-.13-2.67-.13h-1.14Z" transform="translate(-66.07 -32.69)"/><path class="cls-4" d="M583.4,201.27a12.83,12.83,0,0,1,5.46,1.13,11.75,11.75,0,0,1,4.14,3.1,12.22,12.22,0,0,1,2.43,4.61,13,13,0,0,1,.25,5.62,15.66,15.66,0,0,1-2,5.63,18.31,18.31,0,0,1-3.87,4.57,18.63,18.63,0,0,1-5.1,3.07,15.53,15.53,0,0,1-5.81,1.13,13,13,0,0,1-5.46-1.13,11.67,11.67,0,0,1-6.53-7.64,13,13,0,0,1-.26-5.63,15.85,15.85,0,0,1,2-5.62,18.36,18.36,0,0,1,3.85-4.61,17.88,17.88,0,0,1,5.1-3.1A15.33,15.33,0,0,1,583.4,201.27Zm-.44,2.88a12.21,12.21,0,0,0-4.63.91,13.94,13.94,0,0,0-4,2.48,14.57,14.57,0,0,0-3,3.68,13,13,0,0,0-1.59,4.48,10.7,10.7,0,0,0,.19,4.46,9.46,9.46,0,0,0,1.85,3.66,9.33,9.33,0,0,0,3.23,2.5,10,10,0,0,0,4.31.92,12.08,12.08,0,0,0,4.61-.92,14.42,14.42,0,0,0,4-2.5,15.13,15.13,0,0,0,3-3.66,12.66,12.66,0,0,0,1.61-4.46,11,11,0,0,0-.19-4.48,9.54,9.54,0,0,0-1.85-3.68,9,9,0,0,0-3.24-2.48A10.18,10.18,0,0,0,583,204.15Z" transform="translate(-66.07 -32.69)"/><path class="cls-4" d="M600.79,229.65h-3.11l4.41-27.9h4a22,22,0,0,1,3.79.31,7.87,7.87,0,0,1,3.07,1.17,5.06,5.06,0,0,1,1.89,2.35,7.24,7.24,0,0,1,.24,3.86,9.56,9.56,0,0,1-1,3,8.82,8.82,0,0,1-1.76,2.35,8.49,8.49,0,0,1-2.44,1.61,9.58,9.58,0,0,1-3,.76l6.89,12.51H610l-6.51-12.25h-.78Zm2.37-15h1a19.15,19.15,0,0,0,2.63-.17,7.34,7.34,0,0,0,2.37-.7,5.49,5.49,0,0,0,1.85-1.52,5.55,5.55,0,0,0,1-2.6,5.21,5.21,0,0,0-.16-2.72,3,3,0,0,0-1.34-1.52,5.9,5.9,0,0,0-2.16-.65,22.61,22.61,0,0,0-2.67-.15h-.92Z" transform="translate(-66.07 -32.69)"/><path class="cls-4" d="M638.9,223l11.32-21.27h3.37l-16,29.56L631,201.75h3.36Z" transform="translate(-66.07 -32.69)"/><path class="cls-4" d="M654,221.73l-4.63,7.92h-3.4l17.5-29.23,7.92,29.23h-3.44l-2-7.92Zm8.25-14.06-6.55,11.17h9.44Z" transform="translate(-66.07 -32.69)"/><path class="cls-4" d="M677.49,229.65h-3.11l4.41-27.9h4a21.87,21.87,0,0,1,3.79.31,7.87,7.87,0,0,1,3.07,1.17,5.06,5.06,0,0,1,1.89,2.35,7.24,7.24,0,0,1,.24,3.86,9.56,9.56,0,0,1-1,3,8.82,8.82,0,0,1-1.76,2.35,8.49,8.49,0,0,1-2.44,1.61,9.58,9.58,0,0,1-3,.76l6.89,12.51H686.7l-6.51-12.25h-.77Zm2.37-15h1a19.15,19.15,0,0,0,2.63-.17,7.34,7.34,0,0,0,2.37-.7,5.49,5.49,0,0,0,1.85-1.52,5.55,5.55,0,0,0,1-2.6,5.11,5.11,0,0,0-.16-2.72,3,3,0,0,0-1.34-1.52,5.9,5.9,0,0,0-2.16-.65,22.56,22.56,0,0,0-2.66-.15h-.93Z" transform="translate(-66.07 -32.69)"/><path class="cls-4" d="M697.62,229.65h-3.11l4.4-27.9H702Z" transform="translate(-66.07 -32.69)"/><path class="cls-4" d="M720.89,201.27a12.83,12.83,0,0,1,5.46,1.13,11.75,11.75,0,0,1,4.14,3.1,12.09,12.09,0,0,1,2.43,4.61,13,13,0,0,1,.26,5.62,15.86,15.86,0,0,1-2.06,5.63,18.28,18.28,0,0,1-3.86,4.57,18.69,18.69,0,0,1-5.11,3.07,15.49,15.49,0,0,1-5.81,1.13,13,13,0,0,1-5.46-1.13,11.88,11.88,0,0,1-4.12-3.07,12,12,0,0,1-2.41-4.57,13,13,0,0,1-.26-5.63,15.85,15.85,0,0,1,2-5.62A18.57,18.57,0,0,1,710,205.5a18,18,0,0,1,5.1-3.1A15.33,15.33,0,0,1,720.89,201.27Zm-.44,2.88a12.21,12.21,0,0,0-4.63.91,13.94,13.94,0,0,0-4,2.48,14.57,14.57,0,0,0-3,3.68,13,13,0,0,0-1.59,4.48,10.87,10.87,0,0,0,.19,4.46,9.46,9.46,0,0,0,1.85,3.66,9.33,9.33,0,0,0,3.23,2.5,10,10,0,0,0,4.32.92,12.06,12.06,0,0,0,4.6-.92,14.42,14.42,0,0,0,4-2.5,15.13,15.13,0,0,0,3-3.66,12.66,12.66,0,0,0,1.61-4.46,11,11,0,0,0-.19-4.48,9.41,9.41,0,0,0-1.85-3.68,9,9,0,0,0-3.24-2.48A10.18,10.18,0,0,0,720.45,204.15Z" transform="translate(-66.07 -32.69)"/><path class="cls-4" d="M751.38,207.19a5.93,5.93,0,0,0-1.59-2.24,4.18,4.18,0,0,0-2.74-.8,5.6,5.6,0,0,0-3.42,1.21,5.29,5.29,0,0,0-1.22,1.36,4.73,4.73,0,0,0-.65,1.76,2.63,2.63,0,0,0,.17,1.57,3.85,3.85,0,0,0,.87,1.21,6,6,0,0,0,1.25.89l1.37.7,1.71.81a26.84,26.84,0,0,1,2.38,1.28,8.12,8.12,0,0,1,1.91,1.59,5.35,5.35,0,0,1,1.11,2.11,7,7,0,0,1,.07,2.87,9.56,9.56,0,0,1-1.24,3.42,10.83,10.83,0,0,1-2.31,2.72,11,11,0,0,1-3.07,1.81,9.69,9.69,0,0,1-3.52.67,8.6,8.6,0,0,1-3-.52,6.87,6.87,0,0,1-2.35-1.46,6.75,6.75,0,0,1-1.54-2.28,8.44,8.44,0,0,1-.62-3l3.14-.85a6.33,6.33,0,0,0,.32,2,4.47,4.47,0,0,0,.92,1.64,4.28,4.28,0,0,0,1.52,1.11,4.69,4.69,0,0,0,2,.41,6.22,6.22,0,0,0,2.22-.41,7.25,7.25,0,0,0,2-1.12,7.34,7.34,0,0,0,1.55-1.73,5.63,5.63,0,0,0,.84-2.18,4.48,4.48,0,0,0-.11-2.07,3.88,3.88,0,0,0-.93-1.48,6.29,6.29,0,0,0-1.5-1.09c-.58-.31-1.16-.61-1.76-.91l-1.55-.74a23,23,0,0,1-2.15-1.18,7.75,7.75,0,0,1-1.7-1.44,4.88,4.88,0,0,1-1-1.91,6.17,6.17,0,0,1-.1-2.61,7.48,7.48,0,0,1,1.11-2.94,8.86,8.86,0,0,1,2.07-2.24,9.36,9.36,0,0,1,2.71-1.42,9.17,9.17,0,0,1,3-.5,7.17,7.17,0,0,1,4,1.13,6.38,6.38,0,0,1,2.5,3.2Z" transform="translate(-66.07 -32.69)"/><path class="cls-4" d="M771.66,201.75h5.25c1,0,2,0,3,.13a13.59,13.59,0,0,1,2.7.5,11.1,11.1,0,0,1,2.44,1,11.62,11.62,0,0,1,2.24,1.7,10.32,10.32,0,0,1,2.76,4.78,14.73,14.73,0,0,1,.2,5.84,16.83,16.83,0,0,1-2,5.7,16.2,16.2,0,0,1-4.18,4.7,17.78,17.78,0,0,1-2.81,1.8,16,16,0,0,1-2.77,1.07,16.35,16.35,0,0,1-2.89.52c-1,.08-2,.13-3.11.13h-5.18Zm1.4,25c.84,0,1.66,0,2.46-.11a14.11,14.11,0,0,0,2.35-.43,11.61,11.61,0,0,0,2.26-.88,13.51,13.51,0,0,0,2.22-1.47,13.06,13.06,0,0,0,3.18-3.73,13.91,13.91,0,0,0,1.59-4.44,11.35,11.35,0,0,0-.18-4.59,8.21,8.21,0,0,0-2.11-3.77,7.75,7.75,0,0,0-3.72-2.21,19.34,19.34,0,0,0-4.53-.5h-2.26l-3.52,22.13Z" transform="translate(-66.07 -32.69)"/><path class="cls-4" d="M795.52,229.65h-3.11l4.41-27.9h3.1Zm8.81-35.71-6.59,5.7-1.66-1,5.36-6.07Z" transform="translate(-66.07 -32.69)"/><path class="cls-4" d="M806.62,221.73,802,229.65h-3.41l17.5-29.23L824,229.65h-3.44l-2-7.92Zm8.25-14.06-6.55,11.17h9.44Z" transform="translate(-66.07 -32.69)"/><path class="cls-4" d="M843.25,207.19a5.93,5.93,0,0,0-1.59-2.24,4.2,4.2,0,0,0-2.74-.8,5.6,5.6,0,0,0-3.42,1.21,5.29,5.29,0,0,0-1.22,1.36,4.57,4.57,0,0,0-.65,1.76,2.63,2.63,0,0,0,.17,1.57,3.7,3.7,0,0,0,.87,1.21,6,6,0,0,0,1.25.89l1.37.7,1.7.81a25.7,25.7,0,0,1,2.39,1.28,8.12,8.12,0,0,1,1.91,1.59,5.62,5.62,0,0,1,1.11,2.11,7,7,0,0,1,.07,2.87,9.56,9.56,0,0,1-1.24,3.42,10.83,10.83,0,0,1-2.31,2.72,11,11,0,0,1-3.07,1.81,9.69,9.69,0,0,1-3.52.67,8.6,8.6,0,0,1-3-.52,6.87,6.87,0,0,1-2.35-1.46,6.61,6.61,0,0,1-1.54-2.28,8.67,8.67,0,0,1-.63-3l3.15-.85a6.33,6.33,0,0,0,.31,2,4.64,4.64,0,0,0,.93,1.64,4.28,4.28,0,0,0,1.52,1.11,4.69,4.69,0,0,0,2,.41,6.22,6.22,0,0,0,2.22-.41,7.25,7.25,0,0,0,2-1.12,7.34,7.34,0,0,0,1.55-1.73,5.63,5.63,0,0,0,.84-2.18,4.33,4.33,0,0,0-.12-2.07,3.74,3.74,0,0,0-.92-1.48,6.29,6.29,0,0,0-1.5-1.09c-.58-.31-1.16-.61-1.76-.91l-1.55-.74a21.81,21.81,0,0,1-2.15-1.18,7.75,7.75,0,0,1-1.7-1.44,5,5,0,0,1-1-1.91,6.19,6.19,0,0,1-.09-2.61,7.48,7.48,0,0,1,1.11-2.94,8.86,8.86,0,0,1,2.07-2.24,9.43,9.43,0,0,1,2.7-1.42,9.27,9.27,0,0,1,3-.5,7.17,7.17,0,0,1,4,1.13,6.38,6.38,0,0,1,2.5,3.2Z" transform="translate(-66.07 -32.69)"/><path class="cls-3" d="M250.38,44.5h11.1a13.84,13.84,0,0,1,4,.54,7.15,7.15,0,0,1,2.94,1.64,5.94,5.94,0,0,1,1.63,2.85,10.13,10.13,0,0,1,.09,4.15c-.52,3.3-1.74,5.71-3.68,7.21a12.14,12.14,0,0,1-7.68,2.26h-4.1l-1.48,9.25H246Zm5.25,12.8h1.22c.67,0,1.32,0,1.94,0a5.54,5.54,0,0,0,1.73-.37,3.4,3.4,0,0,0,1.33-1,4.11,4.11,0,0,0,.74-2,3.85,3.85,0,0,0-.09-2.06,2,2,0,0,0-1-1.05,4.18,4.18,0,0,0-1.6-.39c-.63,0-1.29,0-2,0H256.7Z" transform="translate(-66.07 -32.69)"/><path class="cls-3" d="M281.12,50.64l-.74,4.66h8.18l-1,6.14h-8.18l-.77,4.82h8.62l-1,6.14H270.43l4.4-27.9h15.88l-1,6.14Z" transform="translate(-66.07 -32.69)"/><path class="cls-3" d="M309.36,43.57A15,15,0,0,1,315,44.63a12.84,12.84,0,0,1,4.48,3,11.56,11.56,0,0,1,2.7,4.55,12.62,12.62,0,0,1,.37,5.79,18.66,18.66,0,0,1-2.15,6.22,18.23,18.23,0,0,1-4,4.86,17.85,17.85,0,0,1-11.74,4.31,15.1,15.1,0,0,1-6-1.13A11.59,11.59,0,0,1,294.26,69a11.88,11.88,0,0,1-2.44-4.86,15.33,15.33,0,0,1-.15-6.22,14.73,14.73,0,0,1,1.22-4,17,17,0,0,1,2.18-3.47A18.57,18.57,0,0,1,298,47.59a20.17,20.17,0,0,1,3.5-2.17,19.36,19.36,0,0,1,3.85-1.36A16.53,16.53,0,0,1,309.36,43.57Zm-1.11,7a8.63,8.63,0,0,0-3.17.61,10.1,10.1,0,0,0-2.75,1.63,9.81,9.81,0,0,0-2.06,2.35,7.45,7.45,0,0,0-1,2.78,8,8,0,0,0,.09,3.33,6.76,6.76,0,0,0,1.28,2.62,6.15,6.15,0,0,0,2.22,1.74,6.8,6.8,0,0,0,3,.63,8.25,8.25,0,0,0,3.16-.63,9.52,9.52,0,0,0,2.77-1.74,10.43,10.43,0,0,0,2.11-2.62A9.85,9.85,0,0,0,315,58a6.19,6.19,0,0,0-1.52-5.13,6.89,6.89,0,0,0-2.25-1.63A7.15,7.15,0,0,0,308.25,50.6Z" transform="translate(-66.07 -32.69)"/><path class="cls-3" d="M346.8,72.4h-9l-5.14-10.73h-.08l-1.7,10.73H323.6L328,44.5h10.84a13.31,13.31,0,0,1,3.76.5,7.06,7.06,0,0,1,2.83,1.55,5.88,5.88,0,0,1,1.63,2.68,9,9,0,0,1,.15,3.85,10.14,10.14,0,0,1-.84,2.76,9.42,9.42,0,0,1-1.55,2.37,8.83,8.83,0,0,1-2.2,1.77,8.37,8.37,0,0,1-2.78,1ZM333.29,57H334a14.1,14.1,0,0,0,1.81-.12,5.23,5.23,0,0,0,1.7-.48,3.76,3.76,0,0,0,1.33-1,3.82,3.82,0,0,0,.74-1.83,2.94,2.94,0,0,0-.16-1.83,2.54,2.54,0,0,0-1-1.06,4.28,4.28,0,0,0-1.54-.48,14.55,14.55,0,0,0-1.75-.11h-.71Z" transform="translate(-66.07 -32.69)"/><path class="cls-3" d="M385.09,74.14l-1.81-2.63a14.28,14.28,0,0,1-3.74,1.39,20,20,0,0,1-4.21.42,15.1,15.1,0,0,1-6-1.13A11.59,11.59,0,0,1,364.93,69a11.75,11.75,0,0,1-2.44-4.86,15.33,15.33,0,0,1-.15-6.22,14.73,14.73,0,0,1,1.22-4,17,17,0,0,1,2.18-3.47,18.57,18.57,0,0,1,2.94-2.87,20.17,20.17,0,0,1,3.5-2.17A19.36,19.36,0,0,1,376,44.06a16.51,16.51,0,0,1,4-.49,15.94,15.94,0,0,1,5.91,1.06,11.82,11.82,0,0,1,4.42,3,11.41,11.41,0,0,1,2.53,4.72,14.15,14.15,0,0,1,.2,6.16,15.4,15.4,0,0,1-1.72,5.2,20.85,20.85,0,0,1-3.42,4.61l4,4.77Zm-1.48-11.47a7.86,7.86,0,0,0,1.26-2,9.27,9.27,0,0,0,.67-2.14A7,7,0,0,0,384.13,53a6.31,6.31,0,0,0-2.22-1.76,6.7,6.7,0,0,0-3-.65,8.62,8.62,0,0,0-3.16.61A10.42,10.42,0,0,0,373,52.84a9.85,9.85,0,0,0-2.07,2.35A7.28,7.28,0,0,0,369.89,58,8,8,0,0,0,370,61.3a6.78,6.78,0,0,0,1.29,2.62,6.4,6.4,0,0,0,2.24,1.74,6.86,6.86,0,0,0,3,.63,7.15,7.15,0,0,0,2.3-.37L375,61.48l7-.85Z" transform="translate(-66.07 -32.69)"/><path class="cls-3" d="M422.87,44.5l-2.48,15.69c-.15.88-.31,1.77-.48,2.66a14.52,14.52,0,0,1-.76,2.59,13,13,0,0,1-1.26,2.42,9.31,9.31,0,0,1-2,2.17,10.18,10.18,0,0,1-2.2,1.44,14.24,14.24,0,0,1-2.46,1,16.08,16.08,0,0,1-2.55.54,20,20,0,0,1-2.52.17,18.72,18.72,0,0,1-2.46-.17,13.7,13.7,0,0,1-2.4-.54,9.87,9.87,0,0,1-2.17-1A7.11,7.11,0,0,1,397.41,70a6.25,6.25,0,0,1-1.27-2.17,9.71,9.71,0,0,1-.48-2.42,15,15,0,0,1,0-2.59c.09-.89.21-1.78.35-2.66l2.48-15.69h7.26l-2.3,14.69c-.15.91-.26,1.82-.33,2.72a6.64,6.64,0,0,0,.2,2.44,3.29,3.29,0,0,0,1.2,1.76,4.4,4.4,0,0,0,2.63.66,5.41,5.41,0,0,0,2.83-.66,5.2,5.2,0,0,0,1.76-1.76,8.69,8.69,0,0,0,1-2.44c.22-.9.41-1.81.55-2.72l2.3-14.69Z" transform="translate(-66.07 -32.69)"/><path class="cls-3" d="M433.75,50.64,433,55.3h8.17l-1,6.14h-8.17l-.78,4.82h8.62l-1,6.14H423.05l4.41-27.9h15.87l-1,6.14Z" transform="translate(-66.07 -32.69)"/><path class="cls-3" d="M484.7,44.5l-2.48,15.69c-.15.88-.31,1.77-.48,2.66a15.4,15.4,0,0,1-.76,2.59,14.27,14.27,0,0,1-1.26,2.42,9.77,9.77,0,0,1-2,2.17,10.43,10.43,0,0,1-2.2,1.44,14.24,14.24,0,0,1-2.46,1,16,16,0,0,1-2.56.54,19.85,19.85,0,0,1-2.51.17,18.49,18.49,0,0,1-2.46-.17,13.81,13.81,0,0,1-2.41-.54,9.79,9.79,0,0,1-2.16-1A6.76,6.76,0,0,1,459.24,70,6.28,6.28,0,0,1,458,67.86a9.71,9.71,0,0,1-.48-2.42,15,15,0,0,1,0-2.59c.09-.89.2-1.78.35-2.66l2.48-15.69h7.25l-2.29,14.69c-.15.91-.26,1.82-.34,2.72a6.85,6.85,0,0,0,.21,2.44,3.29,3.29,0,0,0,1.2,1.76,4.38,4.38,0,0,0,2.63.66,5.41,5.41,0,0,0,2.83-.66,5.29,5.29,0,0,0,1.76-1.76,8.68,8.68,0,0,0,1-2.44c.23-.9.41-1.81.56-2.72l2.29-14.69Z" transform="translate(-66.07 -32.69)"/><path class="cls-3" d="M489.28,44.5h7.26l10.58,17.06h.07l2.7-17.06h7.25l-4.4,27.9h-7.25L494.91,55.3h-.08l-2.7,17.1h-7.25Z" transform="translate(-66.07 -32.69)"/><path class="cls-3" d="M136.35,98.73a5.57,5.57,0,0,0-2.43-2.3,7.81,7.81,0,0,0-3.46-.77,8.1,8.1,0,0,0-3.12.59,8.26,8.26,0,0,0-2.61,1.65,9.24,9.24,0,0,0-1.91,2.46,9.68,9.68,0,0,0-1,3,7.92,7.92,0,0,0,.08,3,5.53,5.53,0,0,0,3.29,4,7.37,7.37,0,0,0,3,.57,8.77,8.77,0,0,0,3.57-.79A10.29,10.29,0,0,0,134.9,108l-1.4,8.7c-1.26.37-2.39.68-3.39.92a13.18,13.18,0,0,1-3.2.37,14,14,0,0,1-5.44-1,12.76,12.76,0,0,1-4.4-3,10.47,10.47,0,0,1-2.65-4.76,14.5,14.5,0,0,1-.13-5.79,16.37,16.37,0,0,1,1.91-5.51,17.9,17.9,0,0,1,3.79-4.7,18.61,18.61,0,0,1,5.4-3.31,16,16,0,0,1,6-1.2,13.93,13.93,0,0,1,3.31.37,19,19,0,0,1,3.09,1Z" transform="translate(-66.07 -32.69)"/><path class="cls-3" d="M145.78,112.42l-2.7,4.84h-7.7l15.14-27.89h7.91l6.11,27.89h-7.73l-1-4.84ZM153.14,98h-.07l-4.4,8.88h6Z" transform="translate(-66.07 -32.69)"/><path class="cls-3" d="M174.27,89.37h7.14l3.33,14.91,8.33-14.91h7.21l-.18,27.89h-7.26l.52-16.05h-.07L184,117.26h-2.89l-3.85-16.05h-.07l-4.88,16.05h-7.22Z" transform="translate(-66.07 -32.69)"/><path class="cls-3" d="M211.05,112.42l-2.7,4.84h-7.7l15.13-27.89h7.92l6.11,27.89h-7.74l-1-4.84ZM218.41,98h-.07l-4.41,8.88h6Z" transform="translate(-66.07 -32.69)"/><path class="cls-3" d="M236.47,89.37h7.25l10.58,17h.07l2.7-17h7.26l-4.41,27.89h-7.25l-10.58-17.09H242l-2.71,17.09h-7.25Z" transform="translate(-66.07 -32.69)"/><path class="cls-3" d="M272.54,112.42l-2.7,4.84h-7.7l15.14-27.89h7.92l6.1,27.89h-7.73l-1-4.84ZM279.9,98h-.07l-4.4,8.88h6Z" transform="translate(-66.07 -32.69)"/><path class="cls-3" d="M298,89.37h7.25l10.58,17h.08l2.7-17h7.25l-4.4,27.89h-7.25l-10.59-17.09h-.07l-2.7,17.09h-7.25Z" transform="translate(-66.07 -32.69)"/><path class="cls-3" d="M349,98.73a5.6,5.6,0,0,0-2.42-2.3,7.84,7.84,0,0,0-3.46-.77,8.15,8.15,0,0,0-3.13.59,8.49,8.49,0,0,0-2.61,1.65,9.51,9.51,0,0,0-2.92,5.49,7.93,7.93,0,0,0,.07,3,5.59,5.59,0,0,0,3.29,4,7.43,7.43,0,0,0,3,.57,8.7,8.7,0,0,0,3.57-.79,10.34,10.34,0,0,0,3.17-2.17l-1.41,8.7c-1.26.37-2.39.68-3.39.92a13.06,13.06,0,0,1-3.2.37,13.94,13.94,0,0,1-5.43-1,12.8,12.8,0,0,1-4.41-3,10.45,10.45,0,0,1-2.64-4.76,14.32,14.32,0,0,1-.13-5.79,16.35,16.35,0,0,1,1.9-5.51,17.94,17.94,0,0,1,3.8-4.7,18.48,18.48,0,0,1,5.4-3.31,15.92,15.92,0,0,1,5.95-1.2,14,14,0,0,1,3.32.37,18.88,18.88,0,0,1,3.08,1Z" transform="translate(-66.07 -32.69)"/><path class="cls-3" d="M361.27,95.51l-.74,4.66h8.17l-1,6.14h-8.18l-.77,4.81h8.62l-1,6.14H350.57L355,89.37h15.87l-1,6.14Z" transform="translate(-66.07 -32.69)"/><path class="cls-3" d="M394.31,95.51l-.74,4.66h8.17l-1,6.14H392.6l-.77,4.81h8.62l-1,6.14H383.61L388,89.37h15.87l-1,6.14Z" transform="translate(-66.07 -32.69)"/><path class="cls-3" d="M408.37,89.37h7.25l10.58,17h.07l2.7-17h7.26l-4.41,27.89h-7.25L414,100.17h-.07l-2.71,17.09H404Z" transform="translate(-66.07 -32.69)"/><path class="cls-3" d="M467.86,96.54a7.2,7.2,0,0,0-2-1.35,6.24,6.24,0,0,0-2.48-.5,4.4,4.4,0,0,0-1.1.15,4.19,4.19,0,0,0-1.07.45,3.34,3.34,0,0,0-.87.72,1.9,1.9,0,0,0-.44,1,1.42,1.42,0,0,0,.15,1.06,2.45,2.45,0,0,0,.7.74,4.94,4.94,0,0,0,1,.52l1,.35,1.78.55A16.14,16.14,0,0,1,467,101.3a7.13,7.13,0,0,1,2,1.5,5,5,0,0,1,1.11,2.12,7.76,7.76,0,0,1,.05,3,15.29,15.29,0,0,1-1.26,4.1,8.75,8.75,0,0,1-2.81,3.41,12.39,12.39,0,0,1-4.05,2,15.57,15.57,0,0,1-4.27.61,15,15,0,0,1-5-.83,14.8,14.8,0,0,1-4.29-2.35l4-5.84a13.13,13.13,0,0,0,2.65,2,6.49,6.49,0,0,0,3.35.85,5.3,5.3,0,0,0,1.29-.16,4.81,4.81,0,0,0,1.23-.5,3.53,3.53,0,0,0,.94-.87,3,3,0,0,0,.5-1.28,1.76,1.76,0,0,0-.26-1.29,3.09,3.09,0,0,0-1-.89,6.31,6.31,0,0,0-1.35-.6c-.48-.14-.91-.28-1.28-.4q-1.62-.48-2.94-1a6.44,6.44,0,0,1-2.16-1.39,4.51,4.51,0,0,1-1.19-2.14,8.39,8.39,0,0,1,0-3.33,11.21,11.21,0,0,1,1.33-3.85,10.78,10.78,0,0,1,5.79-4.85,11.91,11.91,0,0,1,4-.66,16.81,16.81,0,0,1,4.39.61,14.05,14.05,0,0,1,4,1.68Z" transform="translate(-66.07 -32.69)"/><path class="cls-3" d="M500.64,89.37l-2.48,15.68q-.21,1.33-.48,2.67a13.74,13.74,0,0,1-.76,2.59,13.88,13.88,0,0,1-1.25,2.42,9.77,9.77,0,0,1-2,2.17,11.28,11.28,0,0,1-2.2,1.44,15.56,15.56,0,0,1-2.47,1,15.84,15.84,0,0,1-2.55.54A19.8,19.8,0,0,1,484,118a18.48,18.48,0,0,1-2.46-.16,13.81,13.81,0,0,1-2.41-.54,10.06,10.06,0,0,1-2.16-1,7.19,7.19,0,0,1-1.74-1.44,6.13,6.13,0,0,1-1.28-2.17,9.8,9.8,0,0,1-.48-2.42,15,15,0,0,1,0-2.59c.08-.89.2-1.78.35-2.67l2.48-15.68h7.25l-2.3,14.69c-.14.91-.25,1.81-.33,2.71a6.89,6.89,0,0,0,.21,2.45,3.22,3.22,0,0,0,1.2,1.75,4.28,4.28,0,0,0,2.63.67,5.34,5.34,0,0,0,2.83-.67,5.23,5.23,0,0,0,1.75-1.75,8.36,8.36,0,0,0,1-2.45c.22-.9.41-1.8.56-2.71l2.29-14.69Z" transform="translate(-66.07 -32.69)"/><path class="cls-3" d="M536.38,98.73a5.49,5.49,0,0,0-2.42-2.3,7.81,7.81,0,0,0-3.46-.77,8.1,8.1,0,0,0-3.12.59,8.26,8.26,0,0,0-2.61,1.65,9.24,9.24,0,0,0-1.91,2.46,9.68,9.68,0,0,0-1,3,7.92,7.92,0,0,0,.08,3,5.53,5.53,0,0,0,3.29,4,7.37,7.37,0,0,0,3,.57,8.77,8.77,0,0,0,3.57-.79,10.29,10.29,0,0,0,3.16-2.17l-1.4,8.7c-1.26.37-2.39.68-3.39.92a13.18,13.18,0,0,1-3.2.37,14,14,0,0,1-5.44-1,12.76,12.76,0,0,1-4.4-3,10.47,10.47,0,0,1-2.65-4.76,14.5,14.5,0,0,1-.13-5.79,16.37,16.37,0,0,1,1.91-5.51,17.9,17.9,0,0,1,3.79-4.7,18.48,18.48,0,0,1,5.4-3.31,16,16,0,0,1,6-1.2,13.93,13.93,0,0,1,3.31.37,19.31,19.31,0,0,1,3.09,1Z" transform="translate(-66.07 -32.69)"/><path class="cls-3" d="M545.82,112.42l-2.7,4.84h-7.7l15.13-27.89h7.92l6.11,27.89h-7.74l-1-4.84ZM553.18,98h-.07l-4.41,8.88h6Z" transform="translate(-66.07 -32.69)"/><path class="cls-3" d="M590,117.26h-9l-5.15-10.73h-.07l-1.7,10.73h-7.26l4.41-27.89h10.84a12.89,12.89,0,0,1,3.75.5,7.1,7.1,0,0,1,2.84,1.55,5.81,5.81,0,0,1,1.62,2.68,9,9,0,0,1,.15,3.85,10.23,10.23,0,0,1-.83,2.76,9.67,9.67,0,0,1-1.56,2.36,8.48,8.48,0,0,1-2.2,1.78,8.31,8.31,0,0,1-2.77,1Zm-13.5-15.39h.7a14,14,0,0,0,1.81-.11,5.28,5.28,0,0,0,1.71-.48,4,4,0,0,0,1.33-1,3.82,3.82,0,0,0,.74-1.84,3,3,0,0,0-.17-1.83,2.46,2.46,0,0,0-1-1A4,4,0,0,0,580.1,95a12.9,12.9,0,0,0-1.76-.11h-.7Z" transform="translate(-66.07 -32.69)"/><path class="cls-3" d="M615.19,117.26h-9L601,106.53H601l-1.7,10.73H592l4.41-27.89h10.84a12.89,12.89,0,0,1,3.75.5,7,7,0,0,1,2.83,1.55,5.74,5.74,0,0,1,1.63,2.68A9,9,0,0,1,615.6,98a10.6,10.6,0,0,1-.83,2.76,9.67,9.67,0,0,1-1.56,2.36,8.64,8.64,0,0,1-2.2,1.78,8.31,8.31,0,0,1-2.77,1Zm-13.5-15.39h.7a14,14,0,0,0,1.81-.11,5.28,5.28,0,0,0,1.71-.48,4,4,0,0,0,1.33-1,3.92,3.92,0,0,0,.74-1.84,3,3,0,0,0-.17-1.83,2.46,2.46,0,0,0-1-1,4,4,0,0,0-1.53-.48,12.9,12.9,0,0,0-1.76-.11h-.7Z" transform="translate(-66.07 -32.69)"/><path class="cls-3" d="M635.73,88.44a14.79,14.79,0,0,1,5.62,1.06,12.75,12.75,0,0,1,4.48,3,11.49,11.49,0,0,1,2.7,4.55,12.49,12.49,0,0,1,.37,5.79,18.53,18.53,0,0,1-2.15,6.21,18.09,18.09,0,0,1-4,4.87,17.73,17.73,0,0,1-5.39,3.18,17.93,17.93,0,0,1-6.36,1.13,15.19,15.19,0,0,1-6-1.13,11.55,11.55,0,0,1-4.39-3.18,11.85,11.85,0,0,1-2.44-4.87,15.27,15.27,0,0,1-.15-6.21,14.73,14.73,0,0,1,1.22-4,16.88,16.88,0,0,1,2.19-3.48,17.7,17.7,0,0,1,2.94-2.86,19.15,19.15,0,0,1,7.34-3.54A17.09,17.09,0,0,1,635.73,88.44Zm-1.11,7a8.38,8.38,0,0,0-3.16.61,10,10,0,0,0-2.76,1.63,9.81,9.81,0,0,0-2.06,2.35,7.41,7.41,0,0,0-1,2.77,8,8,0,0,0,.09,3.33,6.88,6.88,0,0,0,1.28,2.63,6.15,6.15,0,0,0,2.22,1.74,6.83,6.83,0,0,0,3,.63,8.25,8.25,0,0,0,3.16-.63,9.57,9.57,0,0,0,2.78-1.74,10.52,10.52,0,0,0,2.11-2.63,9.84,9.84,0,0,0,1.16-3.33,6.14,6.14,0,0,0-.18-2.77,6.05,6.05,0,0,0-1.34-2.35,6.79,6.79,0,0,0-2.25-1.63A7,7,0,0,0,634.62,95.47Z" transform="translate(-66.07 -32.69)"/></svg>