<svg id="Capa_1" data-name="Capa 1" xmlns="http://www.w3.org/2000/svg" viewBox="0 0 866.93 201.65"><defs><style>.cls-1{fill:#d70d45;}.cls-1,.cls-2{opacity:0.8;}.cls-2,.cls-4{fill:#fff;}.cls-3{fill:#182b7d;}</style></defs><title>ingles-corregido</title><polygon class="cls-1" points="610.85 91.65 0 91.65 26.19 63.22 26.19 0 610.85 0 610.85 91.65"/><polygon class="cls-2" points="406.65 201.65 866.93 201.65 840.74 173.22 840.74 110 406.65 110 406.65 201.65"/><path class="cls-3" d="M504.51,149.09h-3.27l4.63-29.34h3.27Z"/><path class="cls-3" d="M518.24,149.09H515l4.17-26.3h-7.09l.47-3H530l-.47,3H522.4Z"/><path class="cls-3" d="M539.21,120.3l-6,9.92-2-.82,5.26-10.15Z"/><path class="cls-3" d="M557,125.47a6.24,6.24,0,0,0-1.67-2.35,4.41,4.41,0,0,0-2.88-.84,5.69,5.69,0,0,0-1.91.33,5.6,5.6,0,0,0-1.69.94,5.68,5.68,0,0,0-1.29,1.43,5,5,0,0,0-.68,1.85,2.85,2.85,0,0,0,.18,1.66,3.91,3.91,0,0,0,.91,1.26,5.76,5.76,0,0,0,1.33.93l1.43.74,1.79.86a24.81,24.81,0,0,1,2.51,1.34,8.52,8.52,0,0,1,2,1.67,5.76,5.76,0,0,1,1.16,2.22,7.14,7.14,0,0,1,.08,3,10.17,10.17,0,0,1-1.3,3.6,11.35,11.35,0,0,1-2.43,2.86,11.5,11.5,0,0,1-3.23,1.9,10,10,0,0,1-3.7.7,9,9,0,0,1-3.19-.54,7.18,7.18,0,0,1-2.47-1.54,7,7,0,0,1-1.61-2.39,9.07,9.07,0,0,1-.66-3.11l3.3-.9a6.68,6.68,0,0,0,.33,2.12,5,5,0,0,0,1,1.73,4.48,4.48,0,0,0,1.59,1.17,5.05,5.05,0,0,0,2.12.43,6.67,6.67,0,0,0,2.34-.43,7.76,7.76,0,0,0,2.12-1.19,7.44,7.44,0,0,0,1.63-1.81,5.87,5.87,0,0,0,.88-2.29,4.53,4.53,0,0,0-.12-2.18,4.07,4.07,0,0,0-1-1.56,6.66,6.66,0,0,0-1.58-1.14c-.61-.33-1.22-.65-1.85-1l-1.63-.78A21,21,0,0,1,546.6,133a7.86,7.86,0,0,1-1.79-1.52,5.29,5.29,0,0,1-1.07-2,6.62,6.62,0,0,1-.1-2.74,8.12,8.12,0,0,1,1.17-3.1,9.4,9.4,0,0,1,2.18-2.35,10,10,0,0,1,6-2,7.57,7.57,0,0,1,4.26,1.18,6.75,6.75,0,0,1,2.63,3.37Z"/><path class="cls-3" d="M578.74,118.51l19.1,24,3.58-22.72h3.27l-4.83,30.66-19.1-23.93-3.58,22.61h-3.27Z"/><path class="cls-3" d="M624.68,119.25a13.58,13.58,0,0,1,5.74,1.18,12.37,12.37,0,0,1,4.36,3.27,12.72,12.72,0,0,1,2.55,4.84,13.6,13.6,0,0,1,.27,5.92,16.58,16.58,0,0,1-2.16,5.91,19.22,19.22,0,0,1-4.06,4.81,19.8,19.8,0,0,1-5.37,3.23,16.28,16.28,0,0,1-6.11,1.18,13.64,13.64,0,0,1-5.74-1.18,12.24,12.24,0,0,1-6.87-8,13.55,13.55,0,0,1-.27-5.91,16.86,16.86,0,0,1,2.14-5.92,19.44,19.44,0,0,1,4.05-4.84,19,19,0,0,1,5.37-3.27A16.23,16.23,0,0,1,624.68,119.25Zm-.46,3a12.88,12.88,0,0,0-4.87,1,15.19,15.19,0,0,0-4.22,2.61,15.48,15.48,0,0,0-3.17,3.87,13.62,13.62,0,0,0-1.67,4.71,11.46,11.46,0,0,0,.19,4.69,10,10,0,0,0,1.95,3.85,9.73,9.73,0,0,0,3.4,2.62,10.45,10.45,0,0,0,4.54,1,12.53,12.53,0,0,0,4.84-1,15,15,0,0,0,4.24-2.62,15.82,15.82,0,0,0,3.19-3.85,13.1,13.1,0,0,0,1.69-4.69,11.39,11.39,0,0,0-.19-4.71,10,10,0,0,0-1.95-3.87,9.61,9.61,0,0,0-3.4-2.61A10.77,10.77,0,0,0,624.22,122.28Z"/><path class="cls-3" d="M647.48,149.09h-3.26l4.16-26.3H641.3l.46-3h17.51l-.47,3h-7.15Z"/><path class="cls-3" d="M675,137.22c-.08.55-.16,1.1-.26,1.67a12.35,12.35,0,0,0-.15,1.72,8.12,8.12,0,0,0,.12,1.65,4.14,4.14,0,0,0,.56,1.5,4.83,4.83,0,0,0,2.28,2.08,7.37,7.37,0,0,0,3.17.72,8.66,8.66,0,0,0,3.26-.68,8.8,8.8,0,0,0,2.92-1.93,6,6,0,0,0,1.13-1.52,8.78,8.78,0,0,0,.68-1.69,15.15,15.15,0,0,0,.41-1.77c.1-.6.2-1.18.27-1.75l2.76-17.47h3.27l-2.88,18.36c-.13.81-.27,1.57-.44,2.28a14.39,14.39,0,0,1-.66,2.08,9.78,9.78,0,0,1-1.07,1.95,11.26,11.26,0,0,1-1.68,1.83,12.66,12.66,0,0,1-4,2.49,12.27,12.27,0,0,1-4.44.85,10.53,10.53,0,0,1-4-.76,7.81,7.81,0,0,1-3.13-2.23,6.94,6.94,0,0,1-1.77-3.89,10.71,10.71,0,0,1,0-2.2c.07-.77.16-1.56.29-2.4l2.88-18.36h3.27Z"/><path class="cls-3" d="M713.66,125.47a6.24,6.24,0,0,0-1.67-2.35,4.41,4.41,0,0,0-2.88-.84,5.78,5.78,0,0,0-3.6,1.27,5.64,5.64,0,0,0-1.28,1.43,4.8,4.8,0,0,0-.68,1.85,2.77,2.77,0,0,0,.17,1.66,3.94,3.94,0,0,0,.92,1.26,5.7,5.7,0,0,0,1.32.93c.49.26,1,.51,1.44.74l1.79.86a27.16,27.16,0,0,1,2.51,1.34,8.26,8.26,0,0,1,2,1.67,5.92,5.92,0,0,1,1.17,2.22,7.16,7.16,0,0,1,.07,3,10,10,0,0,1-1.3,3.6,11.35,11.35,0,0,1-2.43,2.86,11.5,11.5,0,0,1-3.23,1.9,10,10,0,0,1-3.7.7,9,9,0,0,1-3.18-.54,7.22,7.22,0,0,1-2.48-1.54,7.14,7.14,0,0,1-1.61-2.39,9.07,9.07,0,0,1-.66-3.11l3.3-.9a6.41,6.41,0,0,0,.34,2.12,5,5,0,0,0,1,1.73,4.57,4.57,0,0,0,1.59,1.17,5.09,5.09,0,0,0,2.12.43,6.67,6.67,0,0,0,2.34-.43,7.62,7.62,0,0,0,2.12-1.19,7.44,7.44,0,0,0,1.63-1.81,5.72,5.72,0,0,0,.88-2.29,4.53,4.53,0,0,0-.12-2.18,4.07,4.07,0,0,0-1-1.56A6.46,6.46,0,0,0,709,136c-.61-.33-1.22-.65-1.84-1l-1.64-.78a22,22,0,0,1-2.26-1.24,8.08,8.08,0,0,1-1.79-1.52,5.27,5.27,0,0,1-1.06-2,6.3,6.3,0,0,1-.1-2.74,8,8,0,0,1,1.16-3.1,9.4,9.4,0,0,1,2.18-2.35,10,10,0,0,1,2.84-1.5,9.92,9.92,0,0,1,3.19-.52,7.57,7.57,0,0,1,4.26,1.18,6.69,6.69,0,0,1,2.63,3.37Z"/><path class="cls-3" d="M721.71,149.09h-3.26l4.63-29.34h3.26Z"/><path class="cls-3" d="M732.68,118.51l19.11,24,3.58-22.72h3.27l-4.83,30.66-19.1-23.93-3.58,22.61h-3.27Z"/><path class="cls-3" d="M789.72,134.34c-.13,1-.3,1.93-.5,2.84a17.37,17.37,0,0,1-.84,2.65,14.92,14.92,0,0,1-1.32,2.49,14.73,14.73,0,0,1-2,2.37,17.67,17.67,0,0,1-5.48,3.62,16,16,0,0,1-6.15,1.28,13.11,13.11,0,0,1-5.66-1.2,12.63,12.63,0,0,1-4.28-3.25,12.25,12.25,0,0,1-2.49-4.79,13.91,13.91,0,0,1-.29-5.85,16.49,16.49,0,0,1,2.16-5.94,19.26,19.26,0,0,1,9.41-8.11,16.28,16.28,0,0,1,6.13-1.2,13.17,13.17,0,0,1,6.73,1.65,13.46,13.46,0,0,1,4.71,4.69l-2.73,2.22a11.13,11.13,0,0,0-3.69-4.07,10,10,0,0,0-5.53-1.46,12.35,12.35,0,0,0-4.86,1,15.57,15.57,0,0,0-7.39,6.56,13.23,13.23,0,0,0-1.67,4.71,11.15,11.15,0,0,0,.19,4.47,9.65,9.65,0,0,0,1.91,3.81,10.73,10.73,0,0,0,3.38,2.69,9.32,9.32,0,0,0,4.36,1.05,12.27,12.27,0,0,0,3.89-.66,13.25,13.25,0,0,0,3.66-1.89,12.9,12.9,0,0,0,2.86-2.9,8.9,8.9,0,0,0,1.53-3.73H777l.46-3Z"/><path class="cls-3" d="M807.34,149.09h-3.26l4.63-29.34H812Z"/><path class="cls-3" d="M821.08,149.09h-3.27l4.16-26.3h-7.08l.47-3h17.51l-.47,3h-7.16Z"/><path class="cls-3" d="M526.33,167.68,525,176.39h9.77l-.51,3h-9.76L522.17,194H518.9l4.63-29.34h13.35l-.47,3Z"/><path class="cls-3" d="M556,164.14a13.64,13.64,0,0,1,5.74,1.18,12.43,12.43,0,0,1,4.35,3.27,12.69,12.69,0,0,1,2.55,4.85,13.55,13.55,0,0,1,.27,5.91,16.21,16.21,0,0,1-2.16,5.91,19,19,0,0,1-4.06,4.81,19.55,19.55,0,0,1-5.37,3.23,16.28,16.28,0,0,1-6.11,1.18,13.64,13.64,0,0,1-5.74-1.18,12.19,12.19,0,0,1-6.86-8,13.7,13.7,0,0,1-.28-5.91,16.74,16.74,0,0,1,2.14-5.91,19.31,19.31,0,0,1,4-4.85,19,19,0,0,1,5.37-3.27A16.28,16.28,0,0,1,556,164.14Zm-.47,3a12.79,12.79,0,0,0-4.86,1,15.14,15.14,0,0,0-7.39,6.48,13.44,13.44,0,0,0-1.68,4.71,11.29,11.29,0,0,0,.2,4.69,10,10,0,0,0,1.94,3.85,9.82,9.82,0,0,0,3.41,2.63,10.51,10.51,0,0,0,4.53,1,12.71,12.71,0,0,0,4.84-1,15.31,15.31,0,0,0,4.24-2.63A15.82,15.82,0,0,0,564,184a13.12,13.12,0,0,0,1.7-4.69,11.56,11.56,0,0,0-.2-4.71,10.09,10.09,0,0,0-1.94-3.87,9.74,9.74,0,0,0-3.41-2.61A10.74,10.74,0,0,0,555.55,167.17Z"/><path class="cls-3" d="M574.3,194H571l4.63-29.34h4.24a23.1,23.1,0,0,1,4,.33,8.25,8.25,0,0,1,3.23,1.23,5.29,5.29,0,0,1,2,2.47,7.75,7.75,0,0,1,.25,4.06,10.24,10.24,0,0,1-1,3.14,9.51,9.51,0,0,1-1.85,2.47,9,9,0,0,1-2.57,1.69,10.19,10.19,0,0,1-3.17.8L588,194h-4l-6.85-12.88h-.81Zm2.49-15.76h1a23,23,0,0,0,2.77-.17,8.1,8.1,0,0,0,2.49-.74,5.49,5.49,0,0,0,3-4.34,5.52,5.52,0,0,0-.17-2.86,3.17,3.17,0,0,0-1.41-1.6,6.24,6.24,0,0,0-2.27-.68,24.92,24.92,0,0,0-2.8-.15h-1Z"/><path class="cls-3" d="M609.82,185.65,605,194h-3.58l18.4-30.74L628.11,194h-3.62l-2.14-8.33Zm8.68-14.78-6.89,11.75h9.92Z"/><path class="cls-3" d="M650.71,167.68l-1.36,8.71h9.77l-.51,3h-9.76L646.55,194h-3.27l4.63-29.34h13.35l-.47,3Z"/><path class="cls-3" d="M666.51,164.64h15.21l-.47,3H669.31L668,176.39h11.59l-.5,3h-11.6l-1.83,11.51h11.95l-.47,3H661.88Z"/><path class="cls-3" d="M692.61,186.62l13.23-23.5,5.76,23.5,11.16-22h3.54l-16.1,30.85-5.76-23.61-13.23,23.61-6.38-30.85h3.54Z"/><path class="cls-3" d="M741.71,164.64h5.53c1.09,0,2.13.05,3.13.14a15,15,0,0,1,2.84.52,11.53,11.53,0,0,1,4.92,2.88,10.81,10.81,0,0,1,2.9,5,15.34,15.34,0,0,1,.21,6.15,17.59,17.59,0,0,1-2.14,6,17.13,17.13,0,0,1-4.39,4.94,18.64,18.64,0,0,1-3,1.89,16.59,16.59,0,0,1-2.92,1.13,17,17,0,0,1-3,.54c-1,.09-2.13.14-3.27.14h-5.45Zm1.48,26.3c.88,0,1.74,0,2.59-.11a14.71,14.71,0,0,0,2.47-.45,11.81,11.81,0,0,0,2.37-.94,13.7,13.7,0,0,0,2.33-1.53A13.55,13.55,0,0,0,756.3,184a14.53,14.53,0,0,0,1.67-4.67,11.94,11.94,0,0,0-.19-4.82,8.6,8.6,0,0,0-2.22-4,8.09,8.09,0,0,0-3.91-2.32,20.18,20.18,0,0,0-4.76-.52h-2.38l-3.69,23.26Z"/><path class="cls-3" d="M769.18,185.65,764.31,194h-3.57l18.4-30.74L787.46,194h-3.61l-2.14-8.33Zm8.67-14.78L771,182.62h9.92Z"/><path class="cls-3" d="M788.75,164.64h3.77l5.41,13.07,9.53-13.07h3.77L799,181.37,797,194h-3.27l2-12.61Z"/><path class="cls-3" d="M826.87,170.36A6.14,6.14,0,0,0,825.2,168a4.38,4.38,0,0,0-2.88-.84,5.84,5.84,0,0,0-3.6,1.27,5.71,5.71,0,0,0-1.28,1.44,4.7,4.7,0,0,0-.68,1.84,2.76,2.76,0,0,0,.17,1.66,3.94,3.94,0,0,0,.92,1.26,5.92,5.92,0,0,0,1.32.93c.49.26,1,.51,1.44.74l1.79.86a28.32,28.32,0,0,1,2.51,1.34,8.07,8.07,0,0,1,2,1.68,5.54,5.54,0,0,1,1.17,2.21,7.31,7.31,0,0,1,.08,3,9.93,9.93,0,0,1-1.31,3.6,11.25,11.25,0,0,1-5.66,4.76,10,10,0,0,1-3.69.7,9,9,0,0,1-3.19-.54,7,7,0,0,1-4.09-3.93,9.07,9.07,0,0,1-.66-3.11l3.31-.9a6.68,6.68,0,0,0,.33,2.12,5,5,0,0,0,1,1.73,4.52,4.52,0,0,0,1.6,1.17,5,5,0,0,0,2.12.43,6.61,6.61,0,0,0,2.33-.43,7.63,7.63,0,0,0,3.76-3,6,6,0,0,0,.87-2.3,4.53,4.53,0,0,0-.12-2.18,4,4,0,0,0-1-1.56,6.4,6.4,0,0,0-1.57-1.14c-.61-.33-1.23-.65-1.85-1l-1.64-.78a21.84,21.84,0,0,1-2.25-1.24,7.86,7.86,0,0,1-1.79-1.52,5.29,5.29,0,0,1-1.07-2,6.62,6.62,0,0,1-.1-2.74,7.86,7.86,0,0,1,1.17-3.1,9,9,0,0,1,2.18-2.35,10,10,0,0,1,6-2,7.61,7.61,0,0,1,4.26,1.18,6.73,6.73,0,0,1,2.62,3.37Z"/><path class="cls-4" d="M47.64,28.18h.08L56.86,9.23h6.07l2.76,19h.08L74.29,9.23h7.94l-14,29.34H60.44L58,21.57h-.08l-8.44,17H41.73L37.6,9.23h7.94Z"/><path class="cls-4" d="M99,8.26A15.69,15.69,0,0,1,105,9.37a13.59,13.59,0,0,1,4.71,3.11,12.2,12.2,0,0,1,2.84,4.79,13.35,13.35,0,0,1,.39,6.09,19.69,19.69,0,0,1-2.26,6.53A19.27,19.27,0,0,1,106.45,35a18.82,18.82,0,0,1-12.36,4.53,15.83,15.83,0,0,1-6.32-1.19A12.22,12.22,0,0,1,83.16,35a12.57,12.57,0,0,1-2.57-5.12,16.13,16.13,0,0,1-.15-6.53,15.56,15.56,0,0,1,1.28-4.21A17.85,17.85,0,0,1,84,15.5a19.2,19.2,0,0,1,3.09-3,20.25,20.25,0,0,1,3.68-2.27,19.25,19.25,0,0,1,4-1.44A17.82,17.82,0,0,1,99,8.26Zm-1.17,7.39a9.12,9.12,0,0,0-3.33.64A10.69,10.69,0,0,0,91.64,18a10.4,10.4,0,0,0-2.16,2.47,7.56,7.56,0,0,0-1.1,2.92,8.5,8.5,0,0,0,.09,3.5,7.26,7.26,0,0,0,1.34,2.76,6.58,6.58,0,0,0,2.34,1.83,7.19,7.19,0,0,0,3.11.66,8.75,8.75,0,0,0,3.33-.66,10.11,10.11,0,0,0,2.92-1.83,11.33,11.33,0,0,0,2.21-2.76A10.42,10.42,0,0,0,105,23.4a6.5,6.5,0,0,0-.2-2.92,6.25,6.25,0,0,0-1.4-2.47A7.13,7.13,0,0,0,101,16.29,7.49,7.49,0,0,0,97.87,15.65Z"/><path class="cls-4" d="M138.41,38.57h-9.5l-5.4-11.28h-.08l-1.79,11.28H114l4.63-29.34H130a13.88,13.88,0,0,1,4,.53,7.49,7.49,0,0,1,3,1.63,6.14,6.14,0,0,1,1.71,2.82,9.41,9.41,0,0,1,.16,4.05,10.81,10.81,0,0,1-.88,2.9,10.2,10.2,0,0,1-1.63,2.49A9.58,9.58,0,0,1,134,25.52a9.05,9.05,0,0,1-2.92,1Zm-14.2-16.19H125a17.73,17.73,0,0,0,1.9-.11,5.72,5.72,0,0,0,1.79-.51,4,4,0,0,0,1.4-1.11,4,4,0,0,0,.78-1.92,3.18,3.18,0,0,0-.17-1.93,2.66,2.66,0,0,0-1.07-1.11,4.34,4.34,0,0,0-1.62-.5,14.14,14.14,0,0,0-1.85-.12h-.74Z"/><path class="cls-4" d="M160,16.78a7.2,7.2,0,0,0-2.14-1.42,6.47,6.47,0,0,0-2.61-.52,4.85,4.85,0,0,0-1.15.15,4.43,4.43,0,0,0-1.12.47,3.77,3.77,0,0,0-.92.76,1.93,1.93,0,0,0-.46,1.07,1.56,1.56,0,0,0,.15,1.11,2.7,2.7,0,0,0,.74.77,4.7,4.7,0,0,0,1,.55l1,.37,1.87.58a17,17,0,0,1,2.67,1.11,7.28,7.28,0,0,1,2.06,1.58,5.23,5.23,0,0,1,1.16,2.23,7.92,7.92,0,0,1,.06,3.1A16.12,16.12,0,0,1,161.05,33a9.23,9.23,0,0,1-3,3.58,12.7,12.7,0,0,1-4.26,2.12,16.36,16.36,0,0,1-4.49.65,15.91,15.91,0,0,1-5.29-.88A15.44,15.44,0,0,1,139.54,36l4.24-6.15A13.2,13.2,0,0,0,146.56,32a6.83,6.83,0,0,0,3.52.9,5.47,5.47,0,0,0,1.36-.18,4.41,4.41,0,0,0,1.28-.52,3.5,3.5,0,0,0,1-.92,3,3,0,0,0,.52-1.34,1.8,1.8,0,0,0-.27-1.36,3.41,3.41,0,0,0-1.05-.93A7,7,0,0,0,151.5,27l-1.34-.42c-1.15-.34-2.18-.7-3.1-1.07a6.89,6.89,0,0,1-2.27-1.46,4.86,4.86,0,0,1-1.25-2.26,8.85,8.85,0,0,1,0-3.5,11.87,11.87,0,0,1,1.4-4.05,11.55,11.55,0,0,1,2.59-3.11,11.07,11.07,0,0,1,3.5-2,12.31,12.31,0,0,1,4.18-.71,17.67,17.67,0,0,1,4.61.65A15.07,15.07,0,0,1,164,10.87Z"/><path class="cls-4" d="M176.11,38.57h-7.63l3.62-22.88h-6.3l1-6.46H187l-1,6.46h-6.31Z"/><path class="cls-4" d="M210.19,38.57h-7.63l3.62-22.88h-6.3l1-6.46h20.23l-1,6.46H213.8Z"/><path class="cls-4" d="M240.73,20.55l1.79-11.32h7.62l-4.63,29.34h-7.62l1.9-12h-11l-1.9,12h-7.63l4.63-29.34h7.63l-1.79,11.32Z"/><path class="cls-4" d="M258.78,33.47l-2.84,5.1h-8.09L263.76,9.23h8.32l6.42,29.34h-8.13l-1.09-5.1Zm7.74-15.17h-.08l-4.63,9.34h6.35Z"/><path class="cls-4" d="M285.51,9.23h7.62l11.13,17.94h.08l2.84-17.94h7.62l-4.63,29.34h-7.62l-11.13-18h-.08l-2.84,18h-7.62Z"/><path class="cls-4" d="M336.78,33.47l-2.84,5.1h-8.09L341.76,9.23h8.33l6.42,29.34h-8.13l-1.09-5.1Zm7.75-15.17h-.08l-4.63,9.34h6.34Z"/><path class="cls-4" d="M40.68,54.12H51.49a13.68,13.68,0,0,1,5.61,1.13,12.06,12.06,0,0,1,4.24,3.11A12.19,12.19,0,0,1,63.81,63a13.63,13.63,0,0,1,.29,5.76A16.17,16.17,0,0,1,62,74.57,18.82,18.82,0,0,1,58,79.22a18.3,18.3,0,0,1-5.23,3.11,16.31,16.31,0,0,1-5.94,1.13H36.05Zm4,22.88H46.4a11.21,11.21,0,0,0,3.32-.49,8.74,8.74,0,0,0,5.16-4,10.37,10.37,0,0,0,1.28-3.7,8.62,8.62,0,0,0-.08-3.5,6.11,6.11,0,0,0-1.32-2.57,5.84,5.84,0,0,0-2.39-1.59,9.19,9.19,0,0,0-3.29-.55H47.29Z"/><path class="cls-4" d="M76.55,60.58l-.78,4.9h8.6l-1,6.46h-8.6L73.94,77H83l-1,6.46H65.3l4.63-29.34H86.62l-1,6.46Z"/><path class="cls-4" d="M91.33,54.12H99l11.12,17.94h.08L113,54.12h7.63L116,83.46h-7.63l-11.12-18h-.08l-2.84,18H86.7Z"/><path class="cls-4" d="M132.65,83.46H125l3.62-22.88h-6.3l1-6.46h20.23l-1,6.46h-6.3Z"/><path class="cls-4" d="M174.59,53.15a15.69,15.69,0,0,1,5.91,1.11,13.59,13.59,0,0,1,4.71,3.11,12.08,12.08,0,0,1,2.84,4.79,13.08,13.08,0,0,1,.39,6.09,19.47,19.47,0,0,1-2.26,6.53A19.08,19.08,0,0,1,182,79.9a18.82,18.82,0,0,1-12.35,4.53,15.8,15.8,0,0,1-6.32-1.19,12.07,12.07,0,0,1-4.61-3.34,12.45,12.45,0,0,1-2.57-5.12,15.94,15.94,0,0,1-.16-6.53A15.58,15.58,0,0,1,157.28,64a17.39,17.39,0,0,1,2.29-3.65,19.2,19.2,0,0,1,3.09-3,20.6,20.6,0,0,1,3.68-2.27,19.54,19.54,0,0,1,4-1.44A17.74,17.74,0,0,1,174.59,53.15Zm-1.17,7.39a8.84,8.84,0,0,0-3.32.65,10.14,10.14,0,0,0-2.9,1.71A10,10,0,0,0,165,65.37a7.42,7.42,0,0,0-1.11,2.92,8.33,8.33,0,0,0,.1,3.5,7.26,7.26,0,0,0,1.34,2.76,6.46,6.46,0,0,0,2.33,1.83,7.22,7.22,0,0,0,3.11.66,8.71,8.71,0,0,0,3.33-.66,10,10,0,0,0,2.92-1.83,11.13,11.13,0,0,0,2.22-2.76,10.41,10.41,0,0,0,1.22-3.5,6.45,6.45,0,0,0-1.59-5.39,7,7,0,0,0-2.38-1.71A7.34,7.34,0,0,0,173.42,60.54Z"/><path class="cls-4" d="M194.2,54.12h7.62L213,72.06H213l2.84-17.94h7.62l-4.63,29.34h-7.62l-11.13-18H200l-2.84,18h-7.62Z"/><path class="cls-4" d="M238.59,54.12h9.14l4.24,8,6.73-8h9.14L254.62,69.37,252.4,83.46h-7.63L247,69.37Z"/><path class="cls-4" d="M284.5,53.15a15.69,15.69,0,0,1,5.91,1.11,13.59,13.59,0,0,1,4.71,3.11A12.2,12.2,0,0,1,298,62.16a13.35,13.35,0,0,1,.39,6.09,19.69,19.69,0,0,1-2.26,6.53,19.27,19.27,0,0,1-4.18,5.12,18.82,18.82,0,0,1-12.36,4.53,15.83,15.83,0,0,1-6.32-1.19,12.22,12.22,0,0,1-4.61-3.34,12.57,12.57,0,0,1-2.57-5.12,16.13,16.13,0,0,1-.15-6.53A15.56,15.56,0,0,1,267.18,64a17.43,17.43,0,0,1,2.3-3.65,19.2,19.2,0,0,1,3.09-3,20.25,20.25,0,0,1,3.68-2.27,19.25,19.25,0,0,1,4-1.44A17.82,17.82,0,0,1,284.5,53.15Zm-1.17,7.39a8.93,8.93,0,0,0-3.33.65,10.45,10.45,0,0,0-5.06,4.18,7.56,7.56,0,0,0-1.1,2.92,8.5,8.5,0,0,0,.09,3.5,7.26,7.26,0,0,0,1.34,2.76,6.58,6.58,0,0,0,2.34,1.83,7.19,7.19,0,0,0,3.11.66,8.75,8.75,0,0,0,3.33-.66A10.11,10.11,0,0,0,287,74.55a11.33,11.33,0,0,0,2.21-2.76,10.42,10.42,0,0,0,1.23-3.5,6.5,6.5,0,0,0-.2-2.92,6.25,6.25,0,0,0-1.4-2.47,7,7,0,0,0-2.37-1.71A7.34,7.34,0,0,0,283.33,60.54Z"/><path class="cls-4" d="M329.55,54.12l-2.61,16.5c-.15.93-.32,1.87-.5,2.8a15.75,15.75,0,0,1-.8,2.72,13.46,13.46,0,0,1-1.33,2.55A9.83,9.83,0,0,1,322.23,81a11.25,11.25,0,0,1-2.31,1.52,16.73,16.73,0,0,1-2.59,1,17.73,17.73,0,0,1-2.68.56,20.23,20.23,0,0,1-2.65.18,19,19,0,0,1-2.59-.18,14.87,14.87,0,0,1-2.52-.56,11.19,11.19,0,0,1-2.28-1A7.49,7.49,0,0,1,302.78,81a6.5,6.5,0,0,1-1.34-2.28,10.68,10.68,0,0,1-.51-2.55,16.57,16.57,0,0,1,0-2.72c.09-.93.22-1.87.37-2.8L304,54.12h7.62l-2.41,15.45c-.15,1-.27,1.91-.35,2.86A7.11,7.11,0,0,0,309,75a3.43,3.43,0,0,0,1.27,1.84,4.53,4.53,0,0,0,2.76.7,5.64,5.64,0,0,0,3-.7A5.52,5.52,0,0,0,317.88,75a9.5,9.5,0,0,0,1.05-2.57c.23-1,.42-1.9.58-2.86l2.41-15.45Z"/><path class="cls-4" d="M354.14,83.46h-9.5l-5.4-11.28h-.08l-1.79,11.28h-7.63l4.63-29.34h11.4a13.88,13.88,0,0,1,4,.53,7.49,7.49,0,0,1,3,1.63,6.14,6.14,0,0,1,1.71,2.82,9.42,9.42,0,0,1,.15,4,10.45,10.45,0,0,1-.87,2.9,10,10,0,0,1-1.64,2.49,9.34,9.34,0,0,1-2.31,1.87,8.82,8.82,0,0,1-2.92,1Zm-14.2-16.19h.73a17.76,17.76,0,0,0,1.91-.11,5.72,5.72,0,0,0,1.79-.51,4,4,0,0,0,1.4-1.11,4,4,0,0,0,.78-1.92,3.1,3.1,0,0,0-.18-1.93,2.55,2.55,0,0,0-1.07-1.11,4.23,4.23,0,0,0-1.61-.5,14.25,14.25,0,0,0-1.85-.12h-.74Z"/><path class="cls-4" d="M393.59,64A5.77,5.77,0,0,0,391,61.56a8.07,8.07,0,0,0-3.64-.82,8.79,8.79,0,0,0-3.29.62,9.09,9.09,0,0,0-2.74,1.73,10,10,0,0,0-3.07,5.78,8.16,8.16,0,0,0,.07,3.21,6.09,6.09,0,0,0,1.23,2.51,6,6,0,0,0,2.24,1.65,7.7,7.7,0,0,0,3.15.6,9.16,9.16,0,0,0,3.75-.83,11,11,0,0,0,3.33-2.28l-1.48,9.14c-1.32.39-2.51.72-3.56,1a14,14,0,0,1-3.37.39A14.61,14.61,0,0,1,378,83.13a13.4,13.4,0,0,1-4.63-3.21,11,11,0,0,1-2.79-5,15.08,15.08,0,0,1-.13-6.09,17.4,17.4,0,0,1,2-5.8,19,19,0,0,1,4-4.94,19.47,19.47,0,0,1,5.68-3.48,16.77,16.77,0,0,1,6.26-1.26,15.27,15.27,0,0,1,3.48.38,21,21,0,0,1,3.25,1.09Z"/><path class="cls-4" d="M403.51,78.36l-2.84,5.1h-8.1l15.92-29.34h8.32l6.42,29.34H415.1L414,78.36Zm7.74-15.17h-.08l-4.63,9.34h6.34Z"/><path class="cls-4" d="M450,83.46h-9.49L435.1,72.18H435l-1.79,11.28H425.6l4.63-29.34h11.4a13.83,13.83,0,0,1,3.95.53,7.49,7.49,0,0,1,3,1.63,6.14,6.14,0,0,1,1.71,2.82,9.41,9.41,0,0,1,.16,4,10.81,10.81,0,0,1-.88,2.9,10.2,10.2,0,0,1-1.63,2.49,9.39,9.39,0,0,1-2.32,1.87,8.82,8.82,0,0,1-2.92,1ZM435.8,67.27h.74a17.73,17.73,0,0,0,1.9-.11,5.72,5.72,0,0,0,1.79-.51,4,4,0,0,0,1.4-1.11,4,4,0,0,0,.78-1.92,3.18,3.18,0,0,0-.17-1.93,2.66,2.66,0,0,0-1.07-1.11,4.34,4.34,0,0,0-1.62-.5A14.14,14.14,0,0,0,437.7,60H437Z"/><path class="cls-4" d="M458.36,75.13a4.18,4.18,0,0,1,1.71.35,3.61,3.61,0,0,1,2.05,2.43,4.41,4.41,0,0,1,.06,1.78,5.13,5.13,0,0,1-.65,1.76,5.55,5.55,0,0,1-1.18,1.44,5.78,5.78,0,0,1-1.6,1,4.86,4.86,0,0,1-1.83.37,4,4,0,0,1-1.71-.37,3.88,3.88,0,0,1-1.3-1,3.56,3.56,0,0,1-.76-1.44,4,4,0,0,1-.08-1.76,5.21,5.21,0,0,1,.64-1.78,5.84,5.84,0,0,1,1.21-1.45,5.65,5.65,0,0,1,1.61-1A5.08,5.08,0,0,1,458.36,75.13Zm-.35-21h7.35l-3,19.38H455Z"/></svg>