<svg version="1" xmlns="http://www.w3.org/2000/svg" width="5149.333" height="5149.333" viewBox="0 0 3862.000000 3862.000000"><path d="M1836.4 555.2C1564.3 970.7 1228.7 1484.4 821.2 2109 707.6 2283.1 21.4 3335.2 7.3 3356.7L0 3368H1123.7l390.3-676.8c214.6-372.2 390.9-677.4 391.6-678.2 1.2-1.2 1.4-.7 1.4 3.5 0 11.6 5.3 35.3 11.6 52.4 17.6 47 52.6 87.9 115.9 135.1 24.5 18.3 70.7 47.3 127.5 79.9 60 34.5 120.1 58.6 166.1 66.5 37.1 6.4 75.6 3.1 108.7-9.4 20.3-7.7 31.8-16.6 42.6-32.9 6.2-9.3 20-32.5 66.6-111.8 12.4-21 22.7-37.7 22.8-37.2.2.5-155.4 272.4-345.8 604.2-190.5 331.7-346.5 603.5-346.7 604-.2.4 446.4.7 992.4.7h992.9l-284.3-1255.3C3249.9 667.2 3259.8 711.1 3231.8 587.2l-21.3-94.2H1877.2l-40.8 62.2zm834.4 393.3c16 3.8 22.5 12.3 15.7 20.4-10.6 12.5-69.8 21.5-93.6 14.2-8.2-2.6-14.9-7.2-14.9-10.4 0-4.2 4.5-9.2 11.7-12.9 8.3-4.4 23.1-9.2 33.3-10.8 4.1-.6 8.2-1.3 9-1.5 5.3-1 33.2-.3 38.8 1zm338 198.4c14.5 7.4 31 37.5 37.1 67.8 2.8 13.8 2.8 23.5-.1 29.3-3 5.9-6 6.3-12.8 2-5.9-3.8-10.8-9-16.1-17.3-10.4-16-21.3-45.1-23.8-63.2-2.3-16.7 4.3-24.4 15.7-18.6zM1967.2 2037c6.8 13.7 11.5 35.2 13.9 62.8 1.4 16.4.8 35.5-1.2 39.7-2.6 5.4-5.1 4.5-11.9-4.1-19.3-24.3-35.8-55.2-34.7-65.2.9-8.2 11.9-28.1 20.6-37.3 3.1-3.2 4.5-4 6.8-3.7 2.4.3 3.3 1.4 6.5 7.8zm440.1 256.9c3.5 1.3 3.8 4 1.3 11.3-3.8 11.3-16.7 31.2-22.9 35.3-5.6 3.6-32 4.6-56.2 2-18.3-1.9-25-3.3-27.1-5.6-1.5-1.7-1.5-2-.1-4.3 6.7-10.2 60.7-33.8 85.7-37.5 4.1-.6 8.6-1.3 10-1.5 4.8-.7 6.9-.6 9.3.3z"/><path d="M1956.3 2041.5c-3.2 2.2-13 17.3-15.8 24.4-1.4 3.3-2.5 7.5-2.5 9.3 0 7 18.9 40.2 30.2 53.2 6.9 7.9 9.3 1.8 8.5-20.9-1-26-4.9-46.7-11.7-61.3-3.1-6.6-4.7-7.5-8.7-4.7zM2385 2300.7c-20.9 3.8-59.8 20.3-68 28.8-3.3 3.4-3.4 3.7-1.7 5 6.5 4.8 55.4 7.2 65 3.1 6.9-2.9 20.8-24.8 21.1-33.2l.1-3.9-7-.1c-3.8-.1-8.1 0-9.5.3z"/></svg>