<svg xmlns="http://www.w3.org/2000/svg" viewBox="0 0 160.58 46.58"><title>tab_home_default</title><rect x="0.13" y="0.13" width="160.33" height="46.33" style="fill:#fff;stroke:#4d4d4d;stroke-miterlimit:10;stroke-width:0.25px"/><path d="M62,33.54a1,1,0,0,0,.25,0v.62a1.53,1.53,0,0,1-.54.09.77.77,0,0,1-.77-.44,2.22,2.22,0,0,1-1.44.49,1.48,1.48,0,0,1-1-.31,1,1,0,0,1-.39-.86,1.05,1.05,0,0,1,.51-1,2.19,2.19,0,0,1,1.2-.31,5.26,5.26,0,0,1,1,.11v-.14a.76.76,0,0,0-.26-.59A1.13,1.13,0,0,0,59.9,31a3.53,3.53,0,0,0-1.39.29v-.78A4.54,4.54,0,0,1,60,30.21a1.89,1.89,0,0,1,1.31.41,1.61,1.61,0,0,1,.47,1.26v1.38A.24.24,0,0,0,62,33.54Zm-2.68-1a.51.51,0,0,0-.29.48.49.49,0,0,0,.21.42.85.85,0,0,0,.51.15,1.52,1.52,0,0,0,1.11-.46v-.65a4.36,4.36,0,0,0-.83-.09A1.52,1.52,0,0,0,59.36,32.54Z" style="fill:#606060"/><path d="M66.93,30.31v3.84h-.76v-.53a1.69,1.69,0,0,1-1.34.63,1.52,1.52,0,0,1-1.16-.43,1.57,1.57,0,0,1-.42-1.14V30.31h.85v2.26a.81.81,0,0,0,.9.92,1.27,1.27,0,0,0,1.07-.64V30.31Z" style="fill:#606060"/><path d="M69.53,28.94v1.37h1.39v.75H69.53v1.76a.65.65,0,0,0,.17.52.82.82,0,0,0,.55.15,2.12,2.12,0,0,0,.78-.15v.73a2.82,2.82,0,0,1-1,.17,1.42,1.42,0,0,1-1-.31,1.19,1.19,0,0,1-.36-1V31.06H68v-.75h.69V29.15Z" style="fill:#606060"/><path d="M72.5,30.74a2.3,2.3,0,0,1,2.94,0,2.15,2.15,0,0,1,0,3,2.3,2.3,0,0,1-2.94,0,2.12,2.12,0,0,1,0-3Zm2.34.59A1.18,1.18,0,0,0,74,31a1.15,1.15,0,0,0-.88.34,1.2,1.2,0,0,0-.34.9,1.21,1.21,0,0,0,.34.9,1.19,1.19,0,0,0,.88.34,1.22,1.22,0,0,0,.87-.34,1.25,1.25,0,0,0,.33-.9A1.23,1.23,0,0,0,74.84,31.33Z" style="fill:#606060"/><path d="M77.52,30.48a2.07,2.07,0,0,1,1.09-.27,3,3,0,0,1,1.38.32v.75a2.33,2.33,0,0,0-.61-.26,2.38,2.38,0,0,0-.72-.11,1.12,1.12,0,0,0-.5.1.33.33,0,0,0-.21.31.39.39,0,0,0,.24.34,2.94,2.94,0,0,0,.58.22,6,6,0,0,1,.68.22,1.47,1.47,0,0,1,.57.38.89.89,0,0,1,.24.64.91.91,0,0,1-.46.86,2.36,2.36,0,0,1-1.19.27,2.79,2.79,0,0,1-1.51-.37v-.76a2.61,2.61,0,0,0,1.47.41c.55,0,.83-.13.83-.39a.36.36,0,0,0-.24-.32,2.42,2.42,0,0,0-.58-.23c-.23-.06-.45-.13-.68-.21a1.45,1.45,0,0,1-.58-.39.91.91,0,0,1-.24-.64A1,1,0,0,1,77.52,30.48Z" style="fill:#606060"/><path d="M82.57,28.94v1.37H84v.75H82.57v1.76a.65.65,0,0,0,.17.52.82.82,0,0,0,.55.15,2.12,2.12,0,0,0,.78-.15v.73a2.82,2.82,0,0,1-1,.17,1.42,1.42,0,0,1-1-.31,1.19,1.19,0,0,1-.36-1V31.06H81v-.75h.69V29.15Z" style="fill:#606060"/><path d="M88.81,30.31v3.84h-.76v-.53a1.69,1.69,0,0,1-1.34.63,1.52,1.52,0,0,1-1.16-.43,1.57,1.57,0,0,1-.42-1.14V30.31H86v2.26a.81.81,0,0,0,.9.92A1.27,1.27,0,0,0,88,32.85V30.31Z" style="fill:#606060"/><path d="M94.18,28.55v5.6h-.77v-.61a1.78,1.78,0,0,1-1.47.71,1.73,1.73,0,0,1-1.37-.59,2.21,2.21,0,0,1,0-2.87,1.75,1.75,0,0,1,1.37-.58,1.72,1.72,0,0,1,1.39.6V28.55Zm-1.34,2.64a1.19,1.19,0,0,0-.75-.23,1.14,1.14,0,0,0-.85.35,1.26,1.26,0,0,0-.34.92,1.24,1.24,0,0,0,.34.91,1.11,1.11,0,0,0,.85.36,1.26,1.26,0,0,0,.75-.23,1.4,1.4,0,0,0,.48-.58v-.93A1.32,1.32,0,0,0,92.84,31.19Z" style="fill:#606060"/><path d="M96.47,29.44a.51.51,0,0,1-.37.13.52.52,0,0,1-.37-.13.48.48,0,0,1-.15-.38.47.47,0,0,1,.15-.37.52.52,0,0,1,.37-.13.51.51,0,0,1,.37.13.47.47,0,0,1,.15.37A.48.48,0,0,1,96.47,29.44Zm-.8,4.71V30.31h.86v3.84Z" style="fill:#606060"/><path d="M98.39,30.74a2.1,2.1,0,0,1,1.46-.53,2.15,2.15,0,0,1,1.48.53,2.15,2.15,0,0,1,0,3,2.2,2.2,0,0,1-1.48.53,2.15,2.15,0,0,1-1.46-.53,2.12,2.12,0,0,1,0-3Zm2.34.59a1.31,1.31,0,0,0-1.76,0,1.23,1.23,0,0,0-.33.9,1.25,1.25,0,0,0,.33.9,1.31,1.31,0,0,0,1.76,0,1.25,1.25,0,0,0,.33-.9A1.23,1.23,0,0,0,100.73,31.33Z" style="fill:#606060"/><path d="M87.75,15.24,80.53,10a.41.41,0,0,0-.47,0l-7.22,5.29a.39.39,0,1,0,.46.64l7-5.12,7,5.12a.4.4,0,0,0,.23.08.37.37,0,0,0,.32-.17A.4.4,0,0,0,87.75,15.24Z" style="fill:#606060"/><path d="M85.83,16a.4.4,0,0,0-.39.4v6.3H82.27V19.23a2,2,0,1,0-4,0v3.44H75.14v-6.3a.39.39,0,0,0-.39-.4.4.4,0,0,0-.4.4v6.69a.4.4,0,0,0,.4.4h4a.39.39,0,0,0,.39-.37V19.23a1.19,1.19,0,1,1,2.38,0v3.86a.4.4,0,0,0,.4.37h4a.4.4,0,0,0,.4-.4V16.37A.4.4,0,0,0,85.83,16Z" style="fill:#606060"/></svg>