<svg id="Layer_1" data-name="Layer 1" xmlns="http://www.w3.org/2000/svg" viewBox="0 0 240.65 134.07"><title>text</title><path d="M9.94,8.15a3.59,3.59,0,0,0-3.3-2.07A3,3,0,0,0,3.51,9.21c0,1.82,1.26,2.42,3,3.26a23.56,23.56,0,0,1,3.36,1.76,3.72,3.72,0,0,1,1.79,3.26,5,5,0,0,1-5.25,4.92,4.81,4.81,0,0,1-3.91-1.77A5.39,5.39,0,0,1,1.36,18.8l1-.45A6,6,0,0,0,3.23,20,4,4,0,0,0,6.38,21.4a3.92,3.92,0,0,0,4.07-3.89,3,3,0,0,0-1.64-2.65c-.48-.27-1.47-.78-2.85-1.46-1.67-.81-2.5-1.26-3.08-2.22a3.6,3.6,0,0,1-.53-1.92A4.09,4.09,0,0,1,6.66,5.07a4.52,4.52,0,0,1,4.09,2.4Z" transform="translate(-0.48 -2.6)" style="fill:#fb0542"/><path d="M16.35,5.3V15.82a6.37,6.37,0,0,0,.71,3.64A4.56,4.56,0,0,0,21,21.4a4.55,4.55,0,0,0,3.91-1.94,6.37,6.37,0,0,0,.71-3.64V5.3H26.7V15.82c0,1.84-.1,3.06-1,4.32A5.55,5.55,0,0,1,21,22.41a5.56,5.56,0,0,1-4.77-2.27c-.86-1.26-1-2.48-1-4.32V5.3Z" transform="translate(-0.48 -2.6)" style="fill:#fb0542"/><path d="M45.83,16.6H38.66l-2.25,5.53H35.2L42.29,4.79l7,17.34H48.07Zm-.41-1-3.15-8-3.21,8Z" transform="translate(-0.48 -2.6)" style="fill:#fb0542"/><path d="M52.52,5.3V15.82a6.38,6.38,0,0,0,.7,3.64,4.92,4.92,0,0,0,7.83,0,6.38,6.38,0,0,0,.7-3.64V5.3h1.11V15.82c0,1.84-.1,3.06-1,4.32a6.15,6.15,0,0,1-9.54,0,7,7,0,0,1-1-4.32V5.3Z" transform="translate(-0.48 -2.6)" style="fill:#fb0542"/><path d="M71,6.31V22.13H69.85V6.31H65.49v-1h9.84v1Z" transform="translate(-0.48 -2.6)" style="fill:#fb0542"/><path d="M93.73,13.75A8.74,8.74,0,1,1,85,5.07,8.59,8.59,0,0,1,93.73,13.75Zm-1.16,0a7.58,7.58,0,1,0-15.15,0,7.58,7.58,0,1,0,15.15,0Z" transform="translate(-0.48 -2.6)" style="fill:#fb0542"/><path d="M110.3,7.29v3.18h5.58v4.19H110.3v3.28h5.88v4.19H105.36V3.1h10.82V7.29Z" transform="translate(-0.48 -2.6)" style="fill:#fb0542"/><path d="M119.24,3.1h4.94l9.06,11.64h0V3.1h5v19h-5l-9.06-11.66h0V22.13h-4.94Z" transform="translate(-0.48 -2.6)" style="fill:#fb0542"/><path d="M155.07,17.94H161v4.19H150.13V3.1h4.94Z" transform="translate(-0.48 -2.6)" style="fill:#fb0542"/><path d="M167.46,18.83l-1.31,3.3H160.9l7.32-19h5.4l7.17,19h-5.28l-1.23-3.3ZM170.92,9h0l-2,6.06h4.11Z" transform="translate(-0.48 -2.6)" style="fill:#fb0542"/><path d="M192.77,8a5.46,5.46,0,0,0-1.52-.92,4.63,4.63,0,0,0-1.76-.34,2.66,2.66,0,0,0-.72.1,2.76,2.76,0,0,0-.68.3,1.84,1.84,0,0,0-.51.49,1.18,1.18,0,0,0-.21.7,1.17,1.17,0,0,0,.23.72,2.25,2.25,0,0,0,.56.5,3.84,3.84,0,0,0,.7.36l.71.24,1.26.37a13.29,13.29,0,0,1,1.84.72,6,6,0,0,1,1.49,1,4.57,4.57,0,0,1,1,1.46,5.07,5.07,0,0,1,.36,2,9.52,9.52,0,0,1-.41,2.79,4.83,4.83,0,0,1-1.55,2.33A7,7,0,0,1,191,22.22a10,10,0,0,1-2.85.42,11.06,11.06,0,0,1-3.53-.57,12.05,12.05,0,0,1-3.16-1.6l2.12-4a10.81,10.81,0,0,0,2,1.39,5,5,0,0,0,2.37.58,3.24,3.24,0,0,0,.86-.12,2.55,2.55,0,0,0,.77-.34,1.83,1.83,0,0,0,.55-.59,1.7,1.7,0,0,0,.22-.87,1.27,1.27,0,0,0-.32-.88,2.82,2.82,0,0,0-.78-.61,4.77,4.77,0,0,0-1-.4l-.92-.28q-1.16-.33-2.1-.69a5.51,5.51,0,0,1-1.63-.95,3.78,3.78,0,0,1-1-1.46A6.1,6.1,0,0,1,182.22,9a6.72,6.72,0,0,1,.5-2.62,5.81,5.81,0,0,1,1.36-2,6.25,6.25,0,0,1,2.07-1.29,7.46,7.46,0,0,1,2.64-.45,11.53,11.53,0,0,1,1.5.11,14.57,14.57,0,0,1,3.08.81,11.58,11.58,0,0,1,1.37.64Z" transform="translate(-0.48 -2.6)" style="fill:#fb0542"/><path d="M3.71,30.14H8.58l3.86,10.17,4.09-10.17h4.92l2.88,19H19.38L18,38.22h0l-4.56,11h-2L7,38.22H7l-1.59,11H.48Z" transform="translate(-0.48 -2.6)" style="fill:#fb0542"/><path d="M31.37,34.33v3.18H37V41.7H31.37V45h5.88v4.19H26.42v-19H37.25v4.19Z" transform="translate(-0.48 -2.6)" style="fill:#fb0542"/><path d="M49.51,30.14V43a9,9,0,0,1-.39,2.74,5.72,5.72,0,0,1-1.19,2.1,5.3,5.3,0,0,1-2,1.37,7.54,7.54,0,0,1-2.77.47,5.27,5.27,0,0,1-2.81-.74,6.49,6.49,0,0,1-2.08-2.06l2.85-3a8.22,8.22,0,0,0,1,1.1,1.54,1.54,0,0,0,1,.52A1.18,1.18,0,0,0,44,45.2a1.72,1.72,0,0,0,.41-.72,3.39,3.39,0,0,0,.14-.91c0-.32,0-.62,0-.89V30.14Z" transform="translate(-0.48 -2.6)" style="fill:#fb0542"/><path d="M62.21,29.51a11.14,11.14,0,0,1,3.95.72,10.68,10.68,0,0,1,3.36,2,9.8,9.8,0,0,1,2.34,3.1,9,9,0,0,1,.87,3.95A11.15,11.15,0,0,1,72,43.54a10,10,0,0,1-2.19,3.32A9.7,9.7,0,0,1,66.43,49,12,12,0,0,1,58,49a9.7,9.7,0,0,1-3.33-2.17,10,10,0,0,1-2.19-3.32,11.15,11.15,0,0,1-.78-4.24,9,9,0,0,1,.87-3.95,9.8,9.8,0,0,1,2.34-3.1,10.62,10.62,0,0,1,3.37-2A11.06,11.06,0,0,1,62.21,29.51Zm0,4.8a5.2,5.2,0,0,0-2.09.41,6,6,0,0,0-1.7,1.11,5.42,5.42,0,0,0-1.16,1.61,4.29,4.29,0,0,0-.43,1.89,5.81,5.81,0,0,0,.43,2.27,5.64,5.64,0,0,0,1.16,1.79,5.44,5.44,0,0,0,1.7,1.19,5.27,5.27,0,0,0,4.17,0A5.33,5.33,0,0,0,66,43.39a5.48,5.48,0,0,0,1.16-1.79,5.81,5.81,0,0,0,.43-2.27,4.29,4.29,0,0,0-.43-1.89A5.25,5.25,0,0,0,66,35.83a5.81,5.81,0,0,0-1.7-1.11A5.18,5.18,0,0,0,62.21,34.31Z" transform="translate(-0.48 -2.6)" style="fill:#fb0542"/><path d="M90.85,49.17H84.69L80,41.85h0v7.32H75v-19h7.39a9.89,9.89,0,0,1,2.62.34,5.78,5.78,0,0,1,2.1,1.06,5,5,0,0,1,1.39,1.83A6.43,6.43,0,0,1,89,36a6.88,6.88,0,0,1-.26,1.88,5.39,5.39,0,0,1-.8,1.61,4.6,4.6,0,0,1-1.31,1.21,4.93,4.93,0,0,1-1.79.67ZM80,38.67h.48a9.82,9.82,0,0,0,1.21-.07,3.21,3.21,0,0,0,1.1-.33,2.16,2.16,0,0,0,.81-.72,2.68,2.68,0,0,0,0-2.5,2.16,2.16,0,0,0-.81-.72,3.21,3.21,0,0,0-1.1-.33,9.82,9.82,0,0,0-1.21-.07H80Z" transform="translate(-0.48 -2.6)" style="fill:#fb0542"/><path d="M97.13,34.33v3.18h5.58V41.7H97.13V45H103v4.19H92.19v-19H103v4.19Z" transform="translate(-0.48 -2.6)" style="fill:#fb0542"/><path d="M116.51,35a5.24,5.24,0,0,0-1.52-.92,4.63,4.63,0,0,0-1.76-.34,2.66,2.66,0,0,0-.72.1,2.43,2.43,0,0,0-.68.3,1.87,1.87,0,0,0-.52.49,1.25,1.25,0,0,0-.2.7,1.12,1.12,0,0,0,.23.71,2.06,2.06,0,0,0,.55.51,3.61,3.61,0,0,0,.71.35,6.61,6.61,0,0,0,.71.24l1.26.38a12.57,12.57,0,0,1,1.84.72,6,6,0,0,1,1.49,1,4.64,4.64,0,0,1,1,1.45,5.15,5.15,0,0,1,.36,2,9.87,9.87,0,0,1-.41,2.79,4.83,4.83,0,0,1-1.56,2.33,6.92,6.92,0,0,1-2.54,1.38,10,10,0,0,1-2.86.41,11,11,0,0,1-3.52-.56,12.08,12.08,0,0,1-3.16-1.61l2.12-4a11.08,11.08,0,0,0,2,1.39,5.08,5.08,0,0,0,2.38.58,3.24,3.24,0,0,0,.86-.12,2.39,2.39,0,0,0,.76-.34,1.65,1.65,0,0,0,.77-1.46,1.29,1.29,0,0,0-.31-.89,3,3,0,0,0-.78-.6,5.42,5.42,0,0,0-1-.41l-.92-.27c-.77-.22-1.48-.45-2.11-.7a5.56,5.56,0,0,1-1.62-.94,3.74,3.74,0,0,1-1-1.47A5.85,5.85,0,0,1,106,36a6.72,6.72,0,0,1,.5-2.62,5.72,5.72,0,0,1,1.36-2,6,6,0,0,1,2.07-1.29,7.45,7.45,0,0,1,2.63-.45,11.55,11.55,0,0,1,1.51.11,13.47,13.47,0,0,1,1.56.32,13.29,13.29,0,0,1,1.51.49,11,11,0,0,1,1.38.64Z" transform="translate(-0.48 -2.6)" style="fill:#fb0542"/><path d="M132.36,30.14h4.87l3.86,10.17,4.09-10.17h4.92l2.88,19H148l-1.39-11h0l-4.56,11h-2l-4.37-11h-.05l-1.59,11h-4.92Z" transform="translate(-0.48 -2.6)" style="fill:#fb0542"/><path d="M159.92,45.86l-1.31,3.31h-5.25l7.31-19h5.41l7.16,19H168l-1.24-3.31ZM163.38,36h-.06l-2,6.06h4.11Z" transform="translate(-0.48 -2.6)" style="fill:#fb0542"/><path d="M174.78,30.14h4.95l9.06,11.64h.05V30.14h4.94v19h-4.94l-9.06-11.66h-.05V49.17h-4.95Z" transform="translate(-0.48 -2.6)" style="fill:#fb0542"/><path d="M206.58,29.51a11.1,11.1,0,0,1,3.95.72,10.73,10.73,0,0,1,3.37,2,9.92,9.92,0,0,1,2.33,3.1,9,9,0,0,1,.87,3.95,11.15,11.15,0,0,1-.78,4.24A9.69,9.69,0,0,1,210.8,49a12,12,0,0,1-8.45,0A9.7,9.7,0,0,1,199,46.86a9.93,9.93,0,0,1-2.18-3.32,11.16,11.16,0,0,1-.79-4.24,9,9,0,0,1,.87-3.95,10,10,0,0,1,2.34-3.1,10.73,10.73,0,0,1,3.37-2A11.06,11.06,0,0,1,206.58,29.51Zm0,4.8a5.15,5.15,0,0,0-2.08.41,5.86,5.86,0,0,0-1.71,1.11,5.42,5.42,0,0,0-1.16,1.61,4.43,4.43,0,0,0-.43,1.89,6,6,0,0,0,.43,2.27,5.64,5.64,0,0,0,1.16,1.79,5.37,5.37,0,0,0,1.71,1.19,5.25,5.25,0,0,0,4.16,0,5.22,5.22,0,0,0,1.7-1.19,5.48,5.48,0,0,0,1.16-1.79,5.81,5.81,0,0,0,.43-2.27,4.29,4.29,0,0,0-.43-1.89,5.25,5.25,0,0,0-1.16-1.61,5.68,5.68,0,0,0-1.7-1.11A5.18,5.18,0,0,0,206.58,34.31Z" transform="translate(-0.48 -2.6)" style="fill:#fb0542"/><path d="M229.84,35a5.24,5.24,0,0,0-1.52-.92,4.63,4.63,0,0,0-1.76-.34,2.66,2.66,0,0,0-.72.1,2.43,2.43,0,0,0-.68.3,1.71,1.71,0,0,0-.51.49,1.18,1.18,0,0,0-.21.7,1.12,1.12,0,0,0,.23.71,2.11,2.11,0,0,0,.56.51,3.52,3.52,0,0,0,.7.35,7.45,7.45,0,0,0,.71.24l1.26.38a12.14,12.14,0,0,1,1.84.72,5.77,5.77,0,0,1,1.49,1,4.48,4.48,0,0,1,1,1.45,5.15,5.15,0,0,1,.37,2,9.53,9.53,0,0,1-.42,2.79,4.88,4.88,0,0,1-1.55,2.33,7,7,0,0,1-2.55,1.38,9.92,9.92,0,0,1-2.85.41,11,11,0,0,1-3.52-.56,12,12,0,0,1-3.17-1.61l2.12-4a10.81,10.81,0,0,0,2,1.39,5,5,0,0,0,2.37.58,3.19,3.19,0,0,0,.86-.12,2.55,2.55,0,0,0,.77-.34,1.73,1.73,0,0,0,.55-.59,1.66,1.66,0,0,0,.22-.87,1.3,1.3,0,0,0-.32-.89,3,3,0,0,0-.78-.6,5.63,5.63,0,0,0-1-.41l-.93-.27c-.77-.22-1.47-.45-2.1-.7a5.62,5.62,0,0,1-1.63-.94,3.84,3.84,0,0,1-1.05-1.47A6.06,6.06,0,0,1,219.3,36a6.72,6.72,0,0,1,.49-2.62,5.85,5.85,0,0,1,1.36-2,6,6,0,0,1,2.07-1.29,7.46,7.46,0,0,1,2.64-.45,11.53,11.53,0,0,1,1.5.11,14.57,14.57,0,0,1,3.08.81,11.58,11.58,0,0,1,1.37.64Z" transform="translate(-0.48 -2.6)" style="fill:#fb0542"/><path d="M238.17,43.77a3,3,0,0,1,1.15.23,2.92,2.92,0,0,1,1,.63,2.88,2.88,0,0,1,.63.94,3,3,0,0,1,.23,1.15,3,3,0,0,1-.23,1.15,2.73,2.73,0,0,1-.63.93,3.52,3.52,0,0,1-1,.64,3,3,0,0,1-1.15.23,3,3,0,0,1-1.15-.23,3.47,3.47,0,0,1-.94-.64,2.73,2.73,0,0,1-.63-.93,3,3,0,0,1-.23-1.15,3,3,0,0,1,.23-1.15A2.92,2.92,0,0,1,237,44,3,3,0,0,1,238.17,43.77ZM235.8,30.14h4.77V42.71H235.8Z" transform="translate(-0.48 -2.6)" style="fill:#fb0542"/><path d="M1,80.92l3.43-8.39H6.41l3.42,8.39H8l-.61-1.57H3.52L2.9,80.92Zm3-3.06H6.79l-1.17-3a4,4,0,0,1-.18-.66,3.46,3.46,0,0,1-.19.66Z" transform="translate(-0.48 -2.6)" style="fill:#333"/><path d="M16.11,75.17v5.75H14.63v-.73a2.44,2.44,0,0,1-1.92.9A2.22,2.22,0,0,1,11,80.43a2.4,2.4,0,0,1-.61-1.7V75.17H12v3.34a1.15,1.15,0,0,0,.29.85,1.1,1.1,0,0,0,.81.29,1.56,1.56,0,0,0,1.3-.73V75.17Z" transform="translate(-0.48 -2.6)" style="fill:#333"/><path d="M19.61,73.09v2.08h1.82v1.4H19.61v2.25c0,.58.31.87.92.87a2.84,2.84,0,0,0,1-.2v1.35a4.62,4.62,0,0,1-1.55.25,2.31,2.31,0,0,1-1.49-.47A1.76,1.76,0,0,1,18,79.15V76.57H17v-1.4h1V73.49Z" transform="translate(-0.48 -2.6)" style="fill:#333"/><path d="M23.14,75.8a3.59,3.59,0,0,1,4.52,0,3.22,3.22,0,0,1,0,4.49,3.59,3.59,0,0,1-4.52,0,3.2,3.2,0,0,1,0-4.49Zm3.35,1.12a1.42,1.42,0,0,0-1.09-.44,1.39,1.39,0,0,0-1.09.44A1.63,1.63,0,0,0,23.92,78a1.65,1.65,0,0,0,.39,1.13,1.38,1.38,0,0,0,1.09.43,1.41,1.41,0,0,0,1.09-.43A1.65,1.65,0,0,0,26.88,78,1.63,1.63,0,0,0,26.49,76.92Z" transform="translate(-0.48 -2.6)" style="fill:#333"/><path d="M30.1,75.42A3.25,3.25,0,0,1,31.82,75a4.74,4.74,0,0,1,2.12.49v1.37a3.28,3.28,0,0,0-.94-.42,3.56,3.56,0,0,0-1.08-.17c-.53,0-.8.15-.8.45s.11.32.34.44a4,4,0,0,0,.81.29,8.1,8.1,0,0,1,.95.31,1.93,1.93,0,0,1,.81.57,1.44,1.44,0,0,1,.34,1A1.5,1.5,0,0,1,34,80.37a1.93,1.93,0,0,1-.93.56,4.62,4.62,0,0,1-1.3.16,4.47,4.47,0,0,1-2.3-.54V79.17a3.93,3.93,0,0,0,2.2.61c.67,0,1-.14,1-.43s-.11-.31-.34-.42a4.63,4.63,0,0,0-.81-.3,9.65,9.65,0,0,1-.95-.32,2,2,0,0,1-.82-.57,1.44,1.44,0,0,1-.33-1A1.48,1.48,0,0,1,30.1,75.42Z" transform="translate(-0.48 -2.6)" style="fill:#333"/><path d="M37.48,73.09v2.08H39.3v1.4H37.48v2.25c0,.58.31.87.92.87a2.84,2.84,0,0,0,1.05-.2v1.35a4.62,4.62,0,0,1-1.55.25,2.29,2.29,0,0,1-1.49-.47,1.77,1.77,0,0,1-.59-1.47V76.57h-1v-1.4h1V73.49Z" transform="translate(-0.48 -2.6)" style="fill:#333"/><path d="M46.07,75.17v5.75H44.59v-.73a2.42,2.42,0,0,1-1.91.9,2.25,2.25,0,0,1-1.74-.66,2.44,2.44,0,0,1-.6-1.7V75.17H42v3.34a1.15,1.15,0,0,0,.29.85,1.12,1.12,0,0,0,.82.29,1.54,1.54,0,0,0,1.29-.73V75.17Z" transform="translate(-0.48 -2.6)" style="fill:#333"/><path d="M53.53,72.53v8.39H52.07v-.84a2.43,2.43,0,0,1-2.09,1,2.56,2.56,0,0,1-2.06-.89,3.47,3.47,0,0,1,0-4.31A2.53,2.53,0,0,1,50,75a2.44,2.44,0,0,1,1.9.78V72.53ZM51.3,76.68a1.56,1.56,0,0,0-.92-.28,1.39,1.39,0,0,0-1.1.47A1.71,1.71,0,0,0,48.87,78a1.67,1.67,0,0,0,.41,1.17,1.37,1.37,0,0,0,1.1.48,1.65,1.65,0,0,0,1.5-1V77.36A1.64,1.64,0,0,0,51.3,76.68Z" transform="translate(-0.48 -2.6)" style="fill:#333"/><path d="M56.5,74a1,1,0,0,1-.71.24A1,1,0,0,1,55.1,74a.88.88,0,0,1-.28-.71.86.86,0,0,1,.28-.7,1,1,0,0,1,.69-.24,1,1,0,0,1,.7.24.86.86,0,0,1,.29.7A.91.91,0,0,1,56.5,74Zm-1.54,7V75.17h1.67v5.75Z" transform="translate(-0.48 -2.6)" style="fill:#333"/><path d="M58.67,75.8a3.59,3.59,0,0,1,4.52,0,3.2,3.2,0,0,1,0,4.49,3.59,3.59,0,0,1-4.52,0,3.2,3.2,0,0,1,0-4.49ZM62,76.92a1.42,1.42,0,0,0-1.09-.44,1.39,1.39,0,0,0-1.09.44A1.63,1.63,0,0,0,59.45,78a1.65,1.65,0,0,0,.39,1.13,1.38,1.38,0,0,0,1.09.43A1.41,1.41,0,0,0,62,79.17,1.65,1.65,0,0,0,62.41,78,1.63,1.63,0,0,0,62,76.92Z" transform="translate(-0.48 -2.6)" style="fill:#333"/><path d="M69.23,72.17v8.75h-.68V72.17Z" transform="translate(-0.48 -2.6)" style="fill:#333"/><path d="M71.6,75.84a2.82,2.82,0,0,1,2-.81,3.17,3.17,0,0,1,1.14.2,2.24,2.24,0,0,1,.81.53,3.43,3.43,0,0,1,.51.77,2.38,2.38,0,0,1,.22.9,5,5,0,0,1-.06.93H71.43a1.93,1.93,0,0,0,.79,1.55,3,3,0,0,0,1.79.52A3.69,3.69,0,0,0,75.89,80v.67a4.15,4.15,0,0,1-2,.42,3.38,3.38,0,0,1-2.26-.76A2.81,2.81,0,0,1,70.74,78,2.87,2.87,0,0,1,71.6,75.84Zm3.61.49a1.8,1.8,0,0,0-1.57-.67,2.25,2.25,0,0,0-1.53.55,2.12,2.12,0,0,0-.68,1.55h4.18A2,2,0,0,0,75.21,76.33Z" transform="translate(-0.48 -2.6)" style="fill:#333"/><path d="M81.57,73.15v2H84v.63H81.57v3.33a1.31,1.31,0,0,0,.32,1,1.45,1.45,0,0,0,1,.3,3.11,3.11,0,0,0,1.26-.27v.63a3.7,3.7,0,0,1-1.44.27,1.91,1.91,0,0,1-1.34-.45,1.77,1.77,0,0,1-.48-1.34V75.8H79.82v-.63H80.9V73.33Z" transform="translate(-0.48 -2.6)" style="fill:#333"/><path d="M86.91,75.42A2.6,2.6,0,0,1,88.43,75v.69a2.26,2.26,0,0,0-1.57.41,2.45,2.45,0,0,0-.9,1.27v3.51h-.68V75.17h.61V76.5A2.51,2.51,0,0,1,86.91,75.42Z" transform="translate(-0.48 -2.6)" style="fill:#333"/><path d="M94.48,80.38a1.58,1.58,0,0,0,.44-.08v.55a1.75,1.75,0,0,1-.62.12.89.89,0,0,1-1-.89,3,3,0,0,1-2.36,1,2.34,2.34,0,0,1-1.42-.43,1.5,1.5,0,0,1-.58-1.27,1.54,1.54,0,0,1,.74-1.43,3.44,3.44,0,0,1,1.8-.45,6.53,6.53,0,0,1,1.81.25v-.38a1.62,1.62,0,0,0-.48-1.23,1.9,1.9,0,0,0-1.35-.45,5.27,5.27,0,0,0-2.07.4v-.67A6.37,6.37,0,0,1,91.53,75a2.46,2.46,0,0,1,1.79.63A2.32,2.32,0,0,1,94,77.42v2.46C94,80.21,94.13,80.38,94.48,80.38Zm-4.43-.21a1.71,1.71,0,0,0,1,.3,2.71,2.71,0,0,0,1.25-.3,2.58,2.58,0,0,0,1-.83V78.28A6.76,6.76,0,0,0,91.58,78a2.87,2.87,0,0,0-1.38.31,1,1,0,0,0-.57,1A1,1,0,0,0,90.05,80.17Z" transform="translate(-0.48 -2.6)" style="fill:#333"/><path d="M96.41,75.84a2.79,2.79,0,0,1,2-.81,3.17,3.17,0,0,1,1.14.2,2.08,2.08,0,0,1,.81.53,3.43,3.43,0,0,1,.51.77,2.21,2.21,0,0,1,.22.9,4.92,4.92,0,0,1,0,.93H96.23A2,2,0,0,0,97,79.91a3,3,0,0,0,1.79.52,3.67,3.67,0,0,0,1.88-.47v.67a4.15,4.15,0,0,1-2,.42,3.4,3.4,0,0,1-2.26-.76,2.8,2.8,0,0,1-.9-2.25A2.83,2.83,0,0,1,96.41,75.84Zm3.61.49a1.82,1.82,0,0,0-1.58-.67,2.22,2.22,0,0,0-1.52.55,2.09,2.09,0,0,0-.69,1.55h4.19A2,2,0,0,0,100,76.33Z" transform="translate(-0.48 -2.6)" style="fill:#333"/><path d="M106.07,75.84a2.79,2.79,0,0,1,2-.81,3.17,3.17,0,0,1,1.14.2,2.08,2.08,0,0,1,.81.53,3.43,3.43,0,0,1,.51.77,2.21,2.21,0,0,1,.22.9,4.92,4.92,0,0,1,0,.93h-4.79a2,2,0,0,0,.79,1.55,3,3,0,0,0,1.79.52,3.67,3.67,0,0,0,1.88-.47v.67a4.15,4.15,0,0,1-2,.42,3.4,3.4,0,0,1-2.26-.76,2.8,2.8,0,0,1-.9-2.25A2.83,2.83,0,0,1,106.07,75.84Zm3.61.49a1.82,1.82,0,0,0-1.58-.67,2.22,2.22,0,0,0-1.52.55,2.09,2.09,0,0,0-.69,1.55h4.19A2,2,0,0,0,109.68,76.33Z" transform="translate(-0.48 -2.6)" style="fill:#333"/><path d="M112.9,72.17v8.75h-.68V72.17Z" transform="translate(-0.48 -2.6)" style="fill:#333"/><path d="M118.18,75.42a2.76,2.76,0,0,1,1.49-.39,4.09,4.09,0,0,1,2,.49v.65a3.56,3.56,0,0,0-2-.52,2.13,2.13,0,0,0-1,.23.75.75,0,0,0-.43.71.78.78,0,0,0,.39.67,3.07,3.07,0,0,0,1,.42l1.12.32a2.36,2.36,0,0,1,1,.55,1.23,1.23,0,0,1,.39.94,1.27,1.27,0,0,1-.65,1.19,3.2,3.2,0,0,1-1.63.37,3.93,3.93,0,0,1-2.22-.56v-.67a3.83,3.83,0,0,0,2.19.61c1.08,0,1.63-.3,1.63-.91a.78.78,0,0,0-.39-.67,3.26,3.26,0,0,0-1-.4c-.37-.1-.75-.21-1.12-.33a2.41,2.41,0,0,1-.94-.56,1.27,1.27,0,0,1-.39-1A1.29,1.29,0,0,1,118.18,75.42Z" transform="translate(-0.48 -2.6)" style="fill:#333"/><path d="M124.12,73.75a.47.47,0,0,1-.32.12.53.53,0,0,1-.34-.11.43.43,0,0,1-.13-.35.42.42,0,0,1,.14-.33.48.48,0,0,1,.33-.12.47.47,0,0,1,.32.12.44.44,0,0,1,.13.33A.42.42,0,0,1,124.12,73.75Zm-.66,7.17V75.17h.68v5.75Z" transform="translate(-0.48 -2.6)" style="fill:#333"/><path d="M126.34,75.42a2.76,2.76,0,0,1,1.49-.39,4.09,4.09,0,0,1,2,.49v.65a3.56,3.56,0,0,0-2-.52,2.13,2.13,0,0,0-1,.23.75.75,0,0,0-.43.71.78.78,0,0,0,.39.67,3.07,3.07,0,0,0,.95.42l1.12.32a2.36,2.36,0,0,1,.95.55,1.23,1.23,0,0,1,.39.94,1.27,1.27,0,0,1-.65,1.19,3.2,3.2,0,0,1-1.63.37,3.93,3.93,0,0,1-2.22-.56v-.67a3.83,3.83,0,0,0,2.19.61c1.08,0,1.63-.3,1.63-.91a.78.78,0,0,0-.39-.67,3.26,3.26,0,0,0-1-.4c-.37-.1-.75-.21-1.12-.33a2.41,2.41,0,0,1-.94-.56,1.27,1.27,0,0,1-.39-1A1.29,1.29,0,0,1,126.34,75.42Z" transform="translate(-0.48 -2.6)" style="fill:#333"/><path d="M132.59,73.15v2H135v.63h-2.41v3.33a1.27,1.27,0,0,0,.33,1,1.42,1.42,0,0,0,1,.3,3.11,3.11,0,0,0,1.26-.27v.63a3.63,3.63,0,0,1-1.44.27,1.88,1.88,0,0,1-1.33-.45,1.74,1.74,0,0,1-.49-1.34V75.8h-1.08v-.63h1.08V73.33Z" transform="translate(-0.48 -2.6)" style="fill:#333"/><path d="M136.76,75.84a2.8,2.8,0,0,1,2-.81,3.17,3.17,0,0,1,1.14.2,2.24,2.24,0,0,1,.81.53,3.09,3.09,0,0,1,.5.77,2.4,2.4,0,0,1,.23.9,5,5,0,0,1-.06.93h-4.78a1.93,1.93,0,0,0,.79,1.55,3,3,0,0,0,1.79.52,3.69,3.69,0,0,0,1.88-.47v.67a4.15,4.15,0,0,1-2,.42,3.38,3.38,0,0,1-2.26-.76A2.81,2.81,0,0,1,135.9,78,2.87,2.87,0,0,1,136.76,75.84Zm3.61.49a1.81,1.81,0,0,0-1.58-.67,2.22,2.22,0,0,0-1.52.55,2.12,2.12,0,0,0-.68,1.55h4.18A2,2,0,0,0,140.37,76.33Z" transform="translate(-0.48 -2.6)" style="fill:#333"/><path d="M142.88,80.92V75.17h.61v1a3,3,0,0,1,.86-.75,2.33,2.33,0,0,1,1.24-.34,2.11,2.11,0,0,1,1.14.3,1.77,1.77,0,0,1,.73.82A2.82,2.82,0,0,1,149.64,75a2,2,0,0,1,1.55.63,2.33,2.33,0,0,1,.57,1.63v3.63h-.67V77.28a1.69,1.69,0,0,0-.41-1.17,1.45,1.45,0,0,0-1.11-.45,2.27,2.27,0,0,0-1.88,1.11,4.41,4.41,0,0,1,0,.52v3.63H147V77.28a1.65,1.65,0,0,0-.42-1.17,1.42,1.42,0,0,0-1.11-.45,2.31,2.31,0,0,0-1.95,1.22v4Z" transform="translate(-0.48 -2.6)" style="fill:#333"/><path d="M158.6,80.38a1.65,1.65,0,0,0,.45-.08v.55a1.8,1.8,0,0,1-.63.12.89.89,0,0,1-1-.89,3.06,3.06,0,0,1-2.36,1,2.3,2.3,0,0,1-1.42-.43,1.51,1.51,0,0,1-.59-1.27,1.55,1.55,0,0,1,.75-1.43,3.39,3.39,0,0,1,1.8-.45,6.53,6.53,0,0,1,1.81.25v-.38a1.62,1.62,0,0,0-.48-1.23,1.91,1.91,0,0,0-1.36-.45,5.25,5.25,0,0,0-2.06.4v-.67a6.35,6.35,0,0,1,2.13-.36,2.47,2.47,0,0,1,1.8.63,2.32,2.32,0,0,1,.64,1.76v2.46A.45.45,0,0,0,158.6,80.38Zm-4.42-.21a1.71,1.71,0,0,0,1,.3,2.74,2.74,0,0,0,1.25-.3,2.58,2.58,0,0,0,1-.83V78.28A6.77,6.77,0,0,0,155.7,78a2.93,2.93,0,0,0-1.38.31,1,1,0,0,0-.56,1A1,1,0,0,0,154.18,80.17Z" transform="translate(-0.48 -2.6)" style="fill:#333"/><path d="M162.86,80.92V75.17h.61v1a3,3,0,0,1,.86-.75,2.33,2.33,0,0,1,1.24-.34,2.11,2.11,0,0,1,1.14.3,1.77,1.77,0,0,1,.73.82A2.82,2.82,0,0,1,169.62,75a2,2,0,0,1,1.55.63,2.33,2.33,0,0,1,.57,1.63v3.63h-.67V77.28a1.69,1.69,0,0,0-.41-1.17,1.45,1.45,0,0,0-1.11-.45,2.27,2.27,0,0,0-1.88,1.11,4.41,4.41,0,0,1,0,.52v3.63H167V77.28a1.65,1.65,0,0,0-.42-1.17,1.42,1.42,0,0,0-1.11-.45,2.31,2.31,0,0,0-2,1.22v4Z" transform="translate(-0.48 -2.6)" style="fill:#333"/><path d="M178.58,80.38a1.65,1.65,0,0,0,.45-.08v.55a1.84,1.84,0,0,1-.63.12.88.88,0,0,1-1-.89,3.06,3.06,0,0,1-2.36,1,2.3,2.3,0,0,1-1.42-.43,1.51,1.51,0,0,1-.59-1.27,1.55,1.55,0,0,1,.75-1.43,3.39,3.39,0,0,1,1.8-.45,6.59,6.59,0,0,1,1.81.25v-.38a1.62,1.62,0,0,0-.48-1.23,1.91,1.91,0,0,0-1.36-.45,5.25,5.25,0,0,0-2.06.4v-.67a6.35,6.35,0,0,1,2.13-.36,2.47,2.47,0,0,1,1.8.63,2.36,2.36,0,0,1,.64,1.76v2.46A.45.45,0,0,0,178.58,80.38Zm-4.42-.21a1.71,1.71,0,0,0,1,.3,2.67,2.67,0,0,0,1.24-.3,2.54,2.54,0,0,0,1-.83V78.28a6.77,6.77,0,0,0-1.72-.24,2.93,2.93,0,0,0-1.38.31,1,1,0,0,0-.56,1A1,1,0,0,0,174.16,80.17Zm.77-5.88,1.08-1.7h.85l-1.19,1.7Z" transform="translate(-0.48 -2.6)" style="fill:#333"/><path d="M180.34,75.42a2.73,2.73,0,0,1,1.49-.39,4.09,4.09,0,0,1,2,.49v.65a3.56,3.56,0,0,0-2-.52,2.13,2.13,0,0,0-1,.23.75.75,0,0,0-.43.71.78.78,0,0,0,.39.67,3.07,3.07,0,0,0,1,.42l1.12.32a2.36,2.36,0,0,1,.95.55,1.23,1.23,0,0,1,.39.94,1.29,1.29,0,0,1-.65,1.19,3.2,3.2,0,0,1-1.63.37,3.93,3.93,0,0,1-2.22-.56v-.67a3.83,3.83,0,0,0,2.19.61c1.08,0,1.63-.3,1.63-.91a.78.78,0,0,0-.39-.67,3.26,3.26,0,0,0-1-.4c-.37-.1-.75-.21-1.12-.33a2.45,2.45,0,0,1-1-.56,1.27,1.27,0,0,1-.39-1A1.3,1.3,0,0,1,180.34,75.42Z" transform="translate(-0.48 -2.6)" style="fill:#333"/><path d="M7,93.66a1.65,1.65,0,0,0,.45-.08v.55a1.84,1.84,0,0,1-.63.12.88.88,0,0,1-1-.89,3.06,3.06,0,0,1-2.36,1A2.25,2.25,0,0,1,2,93.89a1.48,1.48,0,0,1-.59-1.26,1.54,1.54,0,0,1,.75-1.43A3.39,3.39,0,0,1,4,90.75,6.59,6.59,0,0,1,5.79,91v-.39a1.6,1.6,0,0,0-.48-1.22A1.93,1.93,0,0,0,4,88.93a5.26,5.26,0,0,0-2.06.41v-.67A6.35,6.35,0,0,1,4,88.31a2.51,2.51,0,0,1,1.8.62,2.4,2.4,0,0,1,.64,1.77v2.46A.45.45,0,0,0,7,93.66Zm-4.42-.21a1.7,1.7,0,0,0,1,.29,2.66,2.66,0,0,0,1.24-.29,2.63,2.63,0,0,0,1-.83V91.56a6.77,6.77,0,0,0-1.72-.24,2.81,2.81,0,0,0-1.38.31,1,1,0,0,0-.56,1A1,1,0,0,0,2.55,93.45Z" transform="translate(-0.48 -2.6)" style="fill:#333"/><path d="M13.39,88.44l-2.6,5.76h-.72L7.46,88.44h.75l2.22,5,2.21-5Z" transform="translate(-0.48 -2.6)" style="fill:#333"/><path d="M19.37,93.66a1.52,1.52,0,0,0,.44-.08v.55a1.75,1.75,0,0,1-.62.12.89.89,0,0,1-1-.89,3,3,0,0,1-2.36,1,2.24,2.24,0,0,1-1.41-.44,1.45,1.45,0,0,1-.59-1.26,1.55,1.55,0,0,1,.74-1.43,3.44,3.44,0,0,1,1.8-.45,6.48,6.48,0,0,1,1.81.25v-.39a1.6,1.6,0,0,0-.48-1.22,1.9,1.9,0,0,0-1.35-.46,5.27,5.27,0,0,0-2.07.41v-.67a6.41,6.41,0,0,1,2.14-.36,2.48,2.48,0,0,1,1.79.62,2.36,2.36,0,0,1,.64,1.77v2.46A.46.46,0,0,0,19.37,93.66Zm-4.43-.21a1.7,1.7,0,0,0,1,.29,2.7,2.7,0,0,0,1.25-.29,2.6,2.6,0,0,0,1-.83V91.56a6.76,6.76,0,0,0-1.71-.24,2.76,2.76,0,0,0-1.38.31,1,1,0,0,0-.57,1A1,1,0,0,0,14.94,93.45Z" transform="translate(-0.48 -2.6)" style="fill:#333"/><path d="M22.37,88.66a2.54,2.54,0,0,1,1.31-.35,2.3,2.3,0,0,1,1.68.64,2.27,2.27,0,0,1,.66,1.7V94.2h-.69V90.73a1.78,1.78,0,0,0-.48-1.33,1.71,1.71,0,0,0-1.24-.47,2,2,0,0,0-1.22.39,3.08,3.08,0,0,0-.87.93v4h-.68V88.44h.61v1A2.93,2.93,0,0,1,22.37,88.66Z" transform="translate(-0.48 -2.6)" style="fill:#333"/><path d="M31.77,88.44V89L28.11,93.6H32v.6H27.29v-.6L31,89H27.45v-.6Z" transform="translate(-0.48 -2.6)" style="fill:#333"/><path d="M38.33,93.66a1.58,1.58,0,0,0,.44-.08v.55a1.75,1.75,0,0,1-.62.12.89.89,0,0,1-1-.89,3,3,0,0,1-2.36,1,2.24,2.24,0,0,1-1.41-.44,1.45,1.45,0,0,1-.59-1.26,1.55,1.55,0,0,1,.74-1.43,3.44,3.44,0,0,1,1.8-.45,6.48,6.48,0,0,1,1.81.25v-.39a1.6,1.6,0,0,0-.48-1.22,1.9,1.9,0,0,0-1.35-.46,5.27,5.27,0,0,0-2.07.41v-.67a6.37,6.37,0,0,1,2.14-.36,2.48,2.48,0,0,1,1.79.62,2.36,2.36,0,0,1,.64,1.77v2.46C37.81,93.49,38,93.66,38.33,93.66Zm-4.43-.21a1.7,1.7,0,0,0,1,.29,2.7,2.7,0,0,0,1.25-.29,2.6,2.6,0,0,0,1-.83V91.56a6.76,6.76,0,0,0-1.71-.24,2.76,2.76,0,0,0-1.38.31,1,1,0,0,0-.57,1A1,1,0,0,0,33.9,93.45Z" transform="translate(-0.48 -2.6)" style="fill:#333"/><path d="M45.34,85.8v8.4h-.62V93a2.8,2.8,0,0,1-2.45,1.32,2.72,2.72,0,0,1-2.05-.84,3,3,0,0,1-.82-2.17,3,3,0,0,1,.82-2.16,2.69,2.69,0,0,1,2.05-.85,2.82,2.82,0,0,1,1.42.35,2.9,2.9,0,0,1,1,.9V85.8Zm-1.56,3.6a2.34,2.34,0,0,0-1.43-.47,2.21,2.21,0,0,0-1.63.65,2.39,2.39,0,0,0-.64,1.74,2.35,2.35,0,0,0,.65,1.73,2.17,2.17,0,0,0,1.62.66,2.39,2.39,0,0,0,1.43-.46,2.53,2.53,0,0,0,.88-1.15V90.54A2.51,2.51,0,0,0,43.78,89.4Z" transform="translate(-0.48 -2.6)" style="fill:#333"/><path d="M47.71,89.12a3,3,0,0,1,2.13-.81,3.09,3.09,0,0,1,2.14.81,3.16,3.16,0,0,1,0,4.4,3.09,3.09,0,0,1-2.14.81,3,3,0,0,1-2.13-.81,3.16,3.16,0,0,1,0-4.4Zm3.81.47a2.53,2.53,0,0,0-3.34,0,2.54,2.54,0,0,0,0,3.46,2.53,2.53,0,0,0,3.34,0,2.57,2.57,0,0,0,0-3.46Z" transform="translate(-0.48 -2.6)" style="fill:#333"/><path d="M63,85.8v8.4h-.62V93a2.8,2.8,0,0,1-2.45,1.32,2.76,2.76,0,0,1-2.06-.84A3,3,0,0,1,57,91.32a3,3,0,0,1,.81-2.16,2.73,2.73,0,0,1,2.06-.85,2.82,2.82,0,0,1,1.42.35,2.9,2.9,0,0,1,1,.9V85.8Zm-1.56,3.6A2.34,2.34,0,0,0,60,88.93a2.21,2.21,0,0,0-1.63.65,2.39,2.39,0,0,0-.64,1.74,2.35,2.35,0,0,0,.65,1.73,2.17,2.17,0,0,0,1.62.66,2.39,2.39,0,0,0,1.43-.46,2.53,2.53,0,0,0,.88-1.15V90.54A2.51,2.51,0,0,0,61.42,89.4Z" transform="translate(-0.48 -2.6)" style="fill:#333"/><path d="M65.31,89.11a2.85,2.85,0,0,1,2-.8,3.17,3.17,0,0,1,1.14.2,2.24,2.24,0,0,1,.81.53,3.43,3.43,0,0,1,.51.77,2.38,2.38,0,0,1,.22.89,4.85,4.85,0,0,1-.06.93H65.14a1.94,1.94,0,0,0,.79,1.56,3.05,3.05,0,0,0,1.79.52,3.69,3.69,0,0,0,1.88-.47v.67a4.15,4.15,0,0,1-2,.42,3.33,3.33,0,0,1-2.26-.77,2.78,2.78,0,0,1-.9-2.24A2.9,2.9,0,0,1,65.31,89.11Zm3.61.5a1.8,1.8,0,0,0-1.57-.68,2.26,2.26,0,0,0-1.53.56A2.1,2.1,0,0,0,65.14,91h4.18A1.92,1.92,0,0,0,68.92,89.61Z" transform="translate(-0.48 -2.6)" style="fill:#333"/><path d="M76.14,88.69a2.7,2.7,0,0,1,1.53-.37V89a2.29,2.29,0,0,0-1.58.41,2.41,2.41,0,0,0-.9,1.27V94.2h-.68V88.44h.61v1.33A2.64,2.64,0,0,1,76.14,88.69Z" transform="translate(-0.48 -2.6)" style="fill:#333"/><path d="M78.87,89.11a2.85,2.85,0,0,1,2-.8,3.17,3.17,0,0,1,1.14.2,2.24,2.24,0,0,1,.81.53,3.43,3.43,0,0,1,.51.77,2.38,2.38,0,0,1,.22.89,4.85,4.85,0,0,1-.06.93H78.7a1.94,1.94,0,0,0,.79,1.56,3.05,3.05,0,0,0,1.79.52,3.69,3.69,0,0,0,1.88-.47v.67a4.15,4.15,0,0,1-2,.42,3.33,3.33,0,0,1-2.26-.77A2.79,2.79,0,0,1,78,91.32,2.91,2.91,0,0,1,78.87,89.11Zm3.61.5a1.8,1.8,0,0,0-1.57-.68,2.26,2.26,0,0,0-1.53.56A2.1,2.1,0,0,0,78.7,91h4.18A1.92,1.92,0,0,0,82.48,89.61Z" transform="translate(-0.48 -2.6)" style="fill:#333"/><path d="M88.06,88.31a2.72,2.72,0,0,1,2,.85,3,3,0,0,1,.81,2.16,3,3,0,0,1-.81,2.17,2.75,2.75,0,0,1-2,.84A2.85,2.85,0,0,1,86.64,94a2.9,2.9,0,0,1-1-.9v3.76H85v-8.4h.61v1.19A2.84,2.84,0,0,1,88.06,88.31Zm1.53,1.28A2.17,2.17,0,0,0,88,88.93a2.31,2.31,0,0,0-1.42.47,2.46,2.46,0,0,0-.89,1.14V92.1a2.49,2.49,0,0,0,.89,1.15,2.36,2.36,0,0,0,1.42.46,2.21,2.21,0,0,0,1.63-.65,2.66,2.66,0,0,0,0-3.47Z" transform="translate(-0.48 -2.6)" style="fill:#333"/><path d="M97.44,93.66a1.52,1.52,0,0,0,.44-.08v.55a1.75,1.75,0,0,1-.62.12.89.89,0,0,1-1-.89,3,3,0,0,1-2.36,1,2.24,2.24,0,0,1-1.41-.44,1.45,1.45,0,0,1-.59-1.26,1.55,1.55,0,0,1,.74-1.43,3.44,3.44,0,0,1,1.8-.45,6.48,6.48,0,0,1,1.81.25v-.39a1.6,1.6,0,0,0-.48-1.22,1.9,1.9,0,0,0-1.35-.46,5.27,5.27,0,0,0-2.07.41v-.67a6.41,6.41,0,0,1,2.14-.36,2.48,2.48,0,0,1,1.79.62,2.36,2.36,0,0,1,.64,1.77v2.46A.46.46,0,0,0,97.44,93.66ZM93,93.45a1.7,1.7,0,0,0,1,.29,2.7,2.7,0,0,0,1.25-.29,2.6,2.6,0,0,0,1-.83V91.56a6.76,6.76,0,0,0-1.71-.24,2.76,2.76,0,0,0-1.38.31,1,1,0,0,0-.57,1A1,1,0,0,0,93,93.45Z" transform="translate(-0.48 -2.6)" style="fill:#333"/><path d="M100.54,88.69a2.67,2.67,0,0,1,1.52-.37V89a2.26,2.26,0,0,0-1.57.41,2.41,2.41,0,0,0-.9,1.27V94.2h-.68V88.44h.61v1.33A2.51,2.51,0,0,1,100.54,88.69Z" transform="translate(-0.48 -2.6)" style="fill:#333"/><path d="M108.11,93.66a1.58,1.58,0,0,0,.44-.08v.55a1.75,1.75,0,0,1-.62.12.89.89,0,0,1-1-.89,3,3,0,0,1-2.36,1,2.29,2.29,0,0,1-1.42-.44,1.47,1.47,0,0,1-.58-1.26,1.53,1.53,0,0,1,.74-1.43,3.44,3.44,0,0,1,1.8-.45,6.48,6.48,0,0,1,1.81.25v-.39a1.6,1.6,0,0,0-.48-1.22,1.9,1.9,0,0,0-1.35-.46,5.27,5.27,0,0,0-2.07.41v-.67a6.37,6.37,0,0,1,2.14-.36,2.48,2.48,0,0,1,1.79.62,2.36,2.36,0,0,1,.64,1.77v2.46C107.59,93.49,107.76,93.66,108.11,93.66Zm-4.43-.21a1.7,1.7,0,0,0,1,.29,2.69,2.69,0,0,0,2.22-1.12V91.56a6.76,6.76,0,0,0-1.71-.24,2.76,2.76,0,0,0-1.38.31,1,1,0,0,0-.57,1A1,1,0,0,0,103.68,93.45Z" transform="translate(-0.48 -2.6)" style="fill:#333"/><path d="M109.65,89.64a2.68,2.68,0,0,1,1.16-1,3.51,3.51,0,0,1,1.48-.31,3,3,0,0,1,1.73.47v.66a2.64,2.64,0,0,0-1.65-.51,2.67,2.67,0,0,0-1.77.62,2.52,2.52,0,0,0,0,3.55,2.58,2.58,0,0,0,1.72.61,3.43,3.43,0,0,0,1.78-.47v.68a4,4,0,0,1-1.88.41,3.13,3.13,0,0,1-2.12-.77,2.72,2.72,0,0,1-.9-2.2A3.07,3.07,0,0,1,109.65,89.64Z" transform="translate(-0.48 -2.6)" style="fill:#333"/><path d="M116.2,87a.51.51,0,0,1-.66,0,.41.41,0,0,1-.13-.34.44.44,0,0,1,.13-.33.52.52,0,0,1,.33-.12.48.48,0,0,1,.33.12.44.44,0,0,1,.13.33A.42.42,0,0,1,116.2,87Zm-.66,7.17V88.44h.68V94.2Z" transform="translate(-0.48 -2.6)" style="fill:#333"/><path d="M118.63,89.12a3,3,0,0,1,2.13-.81,3.09,3.09,0,0,1,2.14.81,3.16,3.16,0,0,1,0,4.4,3.09,3.09,0,0,1-2.14.81,3,3,0,0,1-2.13-.81,3.14,3.14,0,0,1,0-4.4Zm3.81.47a2.53,2.53,0,0,0-3.34,0,2.54,2.54,0,0,0,0,3.46,2.53,2.53,0,0,0,3.34,0,2.57,2.57,0,0,0,0-3.46Zm-2.33-2,1.08-1.7H122l-1.19,1.7Z" transform="translate(-0.48 -2.6)" style="fill:#333"/><path d="M126.81,88.66a2.51,2.51,0,0,1,1.3-.35,2.3,2.3,0,0,1,1.68.64,2.27,2.27,0,0,1,.66,1.7V94.2h-.68V90.73a1.78,1.78,0,0,0-.48-1.33,1.73,1.73,0,0,0-1.25-.47,2,2,0,0,0-1.22.39,3.35,3.35,0,0,0-.87.93v4h-.68V88.44h.61v1A3,3,0,0,1,126.81,88.66Z" transform="translate(-0.48 -2.6)" style="fill:#333"/><path d="M135.8,89.11a2.82,2.82,0,0,1,2-.8,3.09,3.09,0,0,1,1.14.2,2.08,2.08,0,0,1,.81.53,2.87,2.87,0,0,1,.51.77,2.39,2.39,0,0,1,.23.89,4.85,4.85,0,0,1-.06.93h-4.78a1.94,1.94,0,0,0,.79,1.56,3,3,0,0,0,1.78.52,3.73,3.73,0,0,0,1.89-.47v.67a4.15,4.15,0,0,1-2,.42,3.32,3.32,0,0,1-2.26-.77,2.76,2.76,0,0,1-.91-2.24A2.91,2.91,0,0,1,135.8,89.11Zm3.61.5a1.81,1.81,0,0,0-1.58-.68,2.23,2.23,0,0,0-1.52.56,2.1,2.1,0,0,0-.68,1.54h4.18A2,2,0,0,0,139.41,89.61Z" transform="translate(-0.48 -2.6)" style="fill:#333"/><path d="M146.42,88.44l-2.23,2.8,2.35,3h-.79l-1.95-2.47-2,2.47h-.79l2.36-3-2.24-2.8H142l1.84,2.32,1.83-2.32Z" transform="translate(-0.48 -2.6)" style="fill:#333"/><path d="M150.73,88.31a2.71,2.71,0,0,1,2.05.85,3,3,0,0,1,.82,2.16,3,3,0,0,1-.82,2.17,2.74,2.74,0,0,1-2.05.84,2.78,2.78,0,0,1-1.41-.35,2.94,2.94,0,0,1-1-.9v3.76h-.68v-8.4h.61v1.19A2.85,2.85,0,0,1,150.73,88.31Zm1.54,1.28a2.2,2.2,0,0,0-1.62-.66,2.34,2.34,0,0,0-1.43.47,2.53,2.53,0,0,0-.89,1.14V92.1a2.56,2.56,0,0,0,.89,1.15,2.39,2.39,0,0,0,1.43.46,2.2,2.2,0,0,0,1.62-.65,2.67,2.67,0,0,0,0-3.47Z" transform="translate(-0.48 -2.6)" style="fill:#333"/><path d="M156.71,88.69a2.67,2.67,0,0,1,1.52-.37V89a2.26,2.26,0,0,0-1.57.41,2.41,2.41,0,0,0-.9,1.27V94.2h-.68V88.44h.61v1.33A2.51,2.51,0,0,1,156.71,88.69Z" transform="translate(-0.48 -2.6)" style="fill:#333"/><path d="M159.44,89.11a2.82,2.82,0,0,1,2-.8,3.09,3.09,0,0,1,1.14.2,2.08,2.08,0,0,1,.81.53,2.87,2.87,0,0,1,.51.77,2.2,2.2,0,0,1,.22.89,4.15,4.15,0,0,1,0,.93h-4.78a1.94,1.94,0,0,0,.79,1.56,3,3,0,0,0,1.78.52,3.73,3.73,0,0,0,1.89-.47v.67a4.15,4.15,0,0,1-2,.42,3.32,3.32,0,0,1-2.26-.77,2.76,2.76,0,0,1-.91-2.24A2.91,2.91,0,0,1,159.44,89.11Zm3.61.5a1.81,1.81,0,0,0-1.58-.68,2.23,2.23,0,0,0-1.52.56,2.1,2.1,0,0,0-.68,1.54h4.18A2,2,0,0,0,163.05,89.61Zm-2.27-2,1.08-1.71h.85l-1.19,1.71Z" transform="translate(-0.48 -2.6)" style="fill:#333"/><path d="M165.84,88.7a2.76,2.76,0,0,1,1.49-.39,4.09,4.09,0,0,1,2,.49v.65a3.56,3.56,0,0,0-2-.53,2.14,2.14,0,0,0-1,.24.75.75,0,0,0-.43.71.78.78,0,0,0,.39.67,3,3,0,0,0,1,.42c.37.1.74.2,1.12.32a2.39,2.39,0,0,1,.94.55,1.23,1.23,0,0,1,.39.94,1.26,1.26,0,0,1-.64,1.18,3.16,3.16,0,0,1-1.64.38,4,4,0,0,1-2.21-.56V93.1a3.85,3.85,0,0,0,2.18.61c1.09,0,1.63-.31,1.63-.91a.77.77,0,0,0-.39-.67,3.32,3.32,0,0,0-.95-.41c-.38-.1-.75-.21-1.13-.33a2.39,2.39,0,0,1-.94-.55,1.29,1.29,0,0,1-.39-1A1.3,1.3,0,0,1,165.84,88.7Z" transform="translate(-0.48 -2.6)" style="fill:#333"/><path d="M179.71,85.8v8.4h-.61V93a2.8,2.8,0,0,1-2.46,1.32,2.74,2.74,0,0,1-2-.84,3,3,0,0,1-.82-2.17,3,3,0,0,1,.82-2.16,2.71,2.71,0,0,1,2-.85,2.78,2.78,0,0,1,2.4,1.25V85.8Zm-1.56,3.6a2.32,2.32,0,0,0-1.43-.47,2.2,2.2,0,0,0-1.62.65,2.35,2.35,0,0,0-.64,1.74,2.31,2.31,0,0,0,.65,1.73,2.16,2.16,0,0,0,1.61.66,2.37,2.37,0,0,0,1.43-.46A2.56,2.56,0,0,0,179,92.1V90.54A2.53,2.53,0,0,0,178.15,89.4Z" transform="translate(-0.48 -2.6)" style="fill:#333"/><path d="M182.05,89.11a2.82,2.82,0,0,1,2-.8,3.09,3.09,0,0,1,1.14.2A2.08,2.08,0,0,1,186,89a2.87,2.87,0,0,1,.51.77,2.2,2.2,0,0,1,.22.89,4.84,4.84,0,0,1-.05.93h-4.79a2,2,0,0,0,.8,1.56,3,3,0,0,0,1.78.52,3.67,3.67,0,0,0,1.88-.47v.67a4.08,4.08,0,0,1-2,.42,3.32,3.32,0,0,1-2.26-.77,2.76,2.76,0,0,1-.91-2.24A2.91,2.91,0,0,1,182.05,89.11Zm3.61.5a1.82,1.82,0,0,0-1.58-.68,2.23,2.23,0,0,0-1.52.56,2.1,2.1,0,0,0-.69,1.54h4.19A2,2,0,0,0,185.66,89.61Z" transform="translate(-0.48 -2.6)" style="fill:#333"/><path d="M191.53,88.7a2.78,2.78,0,0,1,1.49-.39,4.09,4.09,0,0,1,2,.49v.65a3.56,3.56,0,0,0-2-.53,2.08,2.08,0,0,0-1,.24.76.76,0,0,0-.44.71.78.78,0,0,0,.39.67,3,3,0,0,0,1,.42c.37.1.75.2,1.12.32a2.43,2.43,0,0,1,.95.55,1.23,1.23,0,0,1,.39.94,1.27,1.27,0,0,1-.65,1.18,3.12,3.12,0,0,1-1.63.38,4,4,0,0,1-2.22-.56V93.1a3.88,3.88,0,0,0,2.18.61c1.09,0,1.63-.31,1.63-.91a.77.77,0,0,0-.39-.67,3.2,3.2,0,0,0-.95-.41c-.38-.1-.75-.21-1.12-.33a2.43,2.43,0,0,1-.95-.55,1.29,1.29,0,0,1-.39-1A1.3,1.3,0,0,1,191.53,88.7Z" transform="translate(-0.48 -2.6)" style="fill:#333"/><path d="M201.89,88.44V94.2h-.63v-1a3,3,0,0,1-.91.81,2.46,2.46,0,0,1-1.32.35,2.31,2.31,0,0,1-1.69-.63,2.34,2.34,0,0,1-.63-1.71V88.44h.68v3.47a1.82,1.82,0,0,0,.46,1.34,1.7,1.7,0,0,0,1.25.46,2,2,0,0,0,1.23-.39,3,3,0,0,0,.87-.93v-4Z" transform="translate(-0.48 -2.6)" style="fill:#333"/><path d="M211.88,93.66a1.65,1.65,0,0,0,.45-.08v.55a1.84,1.84,0,0,1-.63.12.88.88,0,0,1-1-.89,3.07,3.07,0,0,1-2.37,1,2.24,2.24,0,0,1-1.41-.44,1.48,1.48,0,0,1-.59-1.26,1.54,1.54,0,0,1,.75-1.43,3.37,3.37,0,0,1,1.79-.45,6.61,6.61,0,0,1,1.82.25v-.39a1.6,1.6,0,0,0-.48-1.22,1.93,1.93,0,0,0-1.36-.46,5.26,5.26,0,0,0-2.06.41v-.67a6.35,6.35,0,0,1,2.13-.36,2.51,2.51,0,0,1,1.8.62,2.4,2.4,0,0,1,.64,1.77v2.46A.45.45,0,0,0,211.88,93.66Zm-4.42-.21a1.7,1.7,0,0,0,1,.29,2.66,2.66,0,0,0,1.24-.29,2.63,2.63,0,0,0,1-.83V91.56a6.77,6.77,0,0,0-1.72-.24,2.81,2.81,0,0,0-1.38.31,1,1,0,0,0-.56,1A1,1,0,0,0,207.46,93.45Z" transform="translate(-0.48 -2.6)" style="fill:#333"/><path d="M218.46,88.44V94.2h-.63v-1a2.89,2.89,0,0,1-.91.81,2.46,2.46,0,0,1-1.32.35,2.31,2.31,0,0,1-1.69-.63,2.34,2.34,0,0,1-.63-1.71V88.44H214v3.47a1.82,1.82,0,0,0,.46,1.34,1.71,1.71,0,0,0,1.26.46,2,2,0,0,0,1.23-.39,3.22,3.22,0,0,0,.87-.93v-4Z" transform="translate(-0.48 -2.6)" style="fill:#333"/><path d="M221.34,86.43v2h2.41v.64h-2.41v3.33a1.29,1.29,0,0,0,.32,1,1.47,1.47,0,0,0,1,.3,3.09,3.09,0,0,0,1.26-.26V94a3.46,3.46,0,0,1-1.44.28,1.86,1.86,0,0,1-1.34-.46,1.73,1.73,0,0,1-.48-1.33V89.08h-1.08v-.64h1.08V86.61Z" transform="translate(-0.48 -2.6)" style="fill:#333"/><path d="M225.55,89.12a3,3,0,0,1,2.13-.81,3.09,3.09,0,0,1,2.14.81,3.16,3.16,0,0,1,0,4.4,3.09,3.09,0,0,1-2.14.81,3,3,0,0,1-2.13-.81,3.14,3.14,0,0,1,0-4.4Zm3.8.47a2.32,2.32,0,0,0-1.66-.63,2.38,2.38,0,0,0-1.68.63,2.57,2.57,0,0,0,0,3.46,2.38,2.38,0,0,0,1.68.63,2.32,2.32,0,0,0,1.66-.63,2.54,2.54,0,0,0,0-3.46Z" transform="translate(-0.48 -2.6)" style="fill:#333"/><path d="M232.59,94.17a.51.51,0,0,1-.34.13.49.49,0,0,1-.34-.13.41.41,0,0,1-.14-.34.4.4,0,0,1,.14-.34.45.45,0,0,1,.34-.13.47.47,0,0,1,.34.13.43.43,0,0,1,.14.34A.44.44,0,0,1,232.59,94.17Z" transform="translate(-0.48 -2.6)" style="fill:#333"/><path d="M2,101.45a3.67,3.67,0,0,1,1-1.4A4.53,4.53,0,0,1,6,99a4.89,4.89,0,0,1,2.35.56v.72a4.11,4.11,0,0,0-2.25-.61,3.94,3.94,0,0,0-1.36.24,4.18,4.18,0,0,0-1.2.67,3.22,3.22,0,0,0-.87,1.18,4.15,4.15,0,0,0-.32,1.65,3.66,3.66,0,0,0,.33,1.58,3,3,0,0,0,.87,1.13,4.21,4.21,0,0,0,1.22.65,4.52,4.52,0,0,0,1.37.22,4.18,4.18,0,0,0,2.29-.61v.7a4.91,4.91,0,0,1-2.43.58,4.54,4.54,0,0,1-1.58-.28A4.65,4.65,0,0,1,3,106.55a3.76,3.76,0,0,1-1-1.34,4.43,4.43,0,0,1-.38-1.85A4.72,4.72,0,0,1,2,101.45Z" transform="translate(-0.48 -2.6)" style="fill:#333"/><path d="M10.11,102.4a3.22,3.22,0,0,1,4.27,0,3.14,3.14,0,0,1,0,4.4,3.22,3.22,0,0,1-4.27,0,3.16,3.16,0,0,1,0-4.4Zm3.81.47a2.34,2.34,0,0,0-1.67-.63,2.36,2.36,0,0,0-1.67.63,2.54,2.54,0,0,0,0,3.46,2.36,2.36,0,0,0,1.67.63,2.34,2.34,0,0,0,1.67-.63,2.57,2.57,0,0,0,0-3.46Z" transform="translate(-0.48 -2.6)" style="fill:#333"/><path d="M18.29,101.94a2.54,2.54,0,0,1,1.31-.35,2.3,2.3,0,0,1,1.68.64,2.26,2.26,0,0,1,.66,1.7v3.55h-.69V104a1.78,1.78,0,0,0-.48-1.33,1.71,1.71,0,0,0-1.24-.47,2,2,0,0,0-1.22.39,3,3,0,0,0-.87.93v4h-.68v-5.76h.61v1A2.93,2.93,0,0,1,18.29,101.94Z" transform="translate(-0.48 -2.6)" style="fill:#333"/><path d="M24.68,99.71v2h2.41v.64H24.68v3.33a1.25,1.25,0,0,0,.32,1,1.43,1.43,0,0,0,1,.3,3.27,3.27,0,0,0,1.26-.26v.62a3.52,3.52,0,0,1-1.44.28,1.85,1.85,0,0,1-1.34-.46,1.75,1.75,0,0,1-.49-1.33v-3.45H22.92v-.64H24V99.89Z" transform="translate(-0.48 -2.6)" style="fill:#333"/><path d="M33.42,106.94a1.28,1.28,0,0,0,.44-.09v.56a1.75,1.75,0,0,1-.62.12.88.88,0,0,1-1-.89,3.07,3.07,0,0,1-2.37,1,2.3,2.3,0,0,1-1.41-.44,1.48,1.48,0,0,1-.59-1.26,1.57,1.57,0,0,1,.74-1.44,3.44,3.44,0,0,1,1.8-.45,6.49,6.49,0,0,1,1.81.26v-.39a1.6,1.6,0,0,0-.48-1.22,1.86,1.86,0,0,0-1.35-.46,5.22,5.22,0,0,0-2.06.41V102a6.35,6.35,0,0,1,2.13-.36,2.46,2.46,0,0,1,1.79.62,2.36,2.36,0,0,1,.65,1.77v2.45A.45.45,0,0,0,33.42,106.94ZM29,106.73a1.77,1.77,0,0,0,1,.29,2.83,2.83,0,0,0,1.25-.29,2.69,2.69,0,0,0,1-.83v-1.06a6.7,6.7,0,0,0-1.71-.24,2.81,2.81,0,0,0-1.38.31,1,1,0,0,0-.56,1A1,1,0,0,0,29,106.73Z" transform="translate(-0.48 -2.6)" style="fill:#333"/><path d="M35,102.91a2.7,2.7,0,0,1,1.15-1,3.51,3.51,0,0,1,1.48-.31,3,3,0,0,1,1.74.47v.66a2.67,2.67,0,0,0-1.66-.51,2.72,2.72,0,0,0-1.77.61,2.21,2.21,0,0,0-.73,1.8,2.15,2.15,0,0,0,.71,1.75,2.54,2.54,0,0,0,1.72.62,3.49,3.49,0,0,0,1.79-.47v.68a4.21,4.21,0,0,1-1.89.41,3.18,3.18,0,0,1-2.12-.77,2.72,2.72,0,0,1-.9-2.2A3,3,0,0,1,35,102.91Z" transform="translate(-0.48 -2.6)" style="fill:#333"/><path d="M41.82,99.71v2h2.41v.64H41.82v3.33a1.25,1.25,0,0,0,.33,1,1.42,1.42,0,0,0,1,.3,3.19,3.19,0,0,0,1.26-.26v.62a3.46,3.46,0,0,1-1.44.28,1.84,1.84,0,0,1-1.33-.46,1.71,1.71,0,0,1-.49-1.33v-3.45H40.07v-.64h1.08V99.89Z" transform="translate(-0.48 -2.6)" style="fill:#333"/><path d="M46,102.39a2.85,2.85,0,0,1,2-.8,3.17,3.17,0,0,1,1.14.2,2.24,2.24,0,0,1,.81.53,3.22,3.22,0,0,1,.51.77,2.33,2.33,0,0,1,.22.89,4.85,4.85,0,0,1-.06.93H45.82a1.9,1.9,0,0,0,.79,1.55,3,3,0,0,0,1.79.53,3.69,3.69,0,0,0,1.88-.47v.67a4.15,4.15,0,0,1-2,.42,3.38,3.38,0,0,1-2.26-.77,2.78,2.78,0,0,1-.9-2.24A2.89,2.89,0,0,1,46,102.39Zm3.61.49a1.82,1.82,0,0,0-1.57-.67,2.26,2.26,0,0,0-1.53.56,2.1,2.1,0,0,0-.68,1.54H50A2,2,0,0,0,49.6,102.88Z" transform="translate(-0.48 -2.6)" style="fill:#333"/><path d="M60.3,101.72v5.76h-.62v-1a3,3,0,0,1-.92.81,2.54,2.54,0,0,1-1.31.35,2.19,2.19,0,0,1-2.33-2.34v-3.55h.68v3.47a1.78,1.78,0,0,0,.46,1.33,1.67,1.67,0,0,0,1.26.47,2,2,0,0,0,1.23-.39,3.35,3.35,0,0,0,.87-.93v-4Z" transform="translate(-0.48 -2.6)" style="fill:#333"/><path d="M63.71,101.94a2.54,2.54,0,0,1,1.31-.35,2.3,2.3,0,0,1,1.68.64,2.26,2.26,0,0,1,.66,1.7v3.55h-.69V104a1.78,1.78,0,0,0-.48-1.33,1.71,1.71,0,0,0-1.24-.47,2,2,0,0,0-1.22.39,3,3,0,0,0-.87.93v4h-.69v-5.76h.62v1A2.93,2.93,0,0,1,63.71,101.94Z" transform="translate(-0.48 -2.6)" style="fill:#333"/><path d="M69.66,102.4a3,3,0,0,1,2.13-.81,3.09,3.09,0,0,1,2.14.81,3.16,3.16,0,0,1,0,4.4,3.09,3.09,0,0,1-2.14.81,3,3,0,0,1-2.13-.81,3.14,3.14,0,0,1,0-4.4Zm3.8.47a2.32,2.32,0,0,0-1.66-.63,2.38,2.38,0,0,0-1.68.63,2.57,2.57,0,0,0,0,3.46,2.38,2.38,0,0,0,1.68.63,2.32,2.32,0,0,0,1.66-.63,2.54,2.54,0,0,0,0-3.46Z" transform="translate(-0.48 -2.6)" style="fill:#333"/><path d="M84.92,99.08v8.4h-.61v-1.19a2.8,2.8,0,0,1-2.46,1.32,2.72,2.72,0,0,1-2-.85A3,3,0,0,1,79,104.6a3,3,0,0,1,.81-2.17,2.75,2.75,0,0,1,2-.84,2.86,2.86,0,0,1,1.43.35,2.9,2.9,0,0,1,1,.9V99.08Zm-1.56,3.59a2.36,2.36,0,0,0-1.42-.46,2.21,2.21,0,0,0-1.63.65,2.66,2.66,0,0,0,0,3.47,2.17,2.17,0,0,0,1.62.66,2.31,2.31,0,0,0,1.42-.47,2.46,2.46,0,0,0,.89-1.14v-1.56A2.49,2.49,0,0,0,83.36,102.67Z" transform="translate(-0.48 -2.6)" style="fill:#333"/><path d="M87.26,102.39a2.83,2.83,0,0,1,2-.8,3.08,3.08,0,0,1,1.13.2,2.08,2.08,0,0,1,.81.53,2.72,2.72,0,0,1,.51.77,2.35,2.35,0,0,1,.23.89,4.85,4.85,0,0,1-.06.93H87.09a1.9,1.9,0,0,0,.79,1.55,3,3,0,0,0,1.78.53,3.73,3.73,0,0,0,1.89-.47v.67a4.15,4.15,0,0,1-2,.42,3.38,3.38,0,0,1-2.26-.77,2.76,2.76,0,0,1-.91-2.24A2.89,2.89,0,0,1,87.26,102.39Zm3.61.49a1.83,1.83,0,0,0-1.58-.67,2.23,2.23,0,0,0-1.52.56,2.1,2.1,0,0,0-.68,1.54h4.18A2,2,0,0,0,90.87,102.88Z" transform="translate(-0.48 -2.6)" style="fill:#333"/><path d="M98,101.94a2.54,2.54,0,0,1,1.31-.35,2.3,2.3,0,0,1,1.68.64,2.26,2.26,0,0,1,.66,1.7v3.55H101V104a1.78,1.78,0,0,0-.48-1.33,1.73,1.73,0,0,0-1.25-.47,2,2,0,0,0-1.22.39,3.22,3.22,0,0,0-.87.93v4h-.68v-5.76h.61v1A2.93,2.93,0,0,1,98,101.94Z" transform="translate(-0.48 -2.6)" style="fill:#333"/><path d="M108.55,101.72v5.76h-.62v-1a3,3,0,0,1-.92.81,2.54,2.54,0,0,1-1.31.35A2.25,2.25,0,0,1,104,107a2.27,2.27,0,0,1-.64-1.7v-3.55h.68v3.47a1.82,1.82,0,0,0,.46,1.33,1.67,1.67,0,0,0,1.26.47,2,2,0,0,0,1.23-.39,3.35,3.35,0,0,0,.87-.93v-4Z" transform="translate(-0.48 -2.6)" style="fill:#333"/><path d="M110.89,102.39a2.82,2.82,0,0,1,2-.8,3.09,3.09,0,0,1,1.14.2,2.08,2.08,0,0,1,.81.53,2.72,2.72,0,0,1,.51.77,2.16,2.16,0,0,1,.22.89,4.84,4.84,0,0,1,0,.93h-4.79a1.91,1.91,0,0,0,.8,1.55,3,3,0,0,0,1.78.53,3.73,3.73,0,0,0,1.89-.47v.67a4.15,4.15,0,0,1-2,.42,3.37,3.37,0,0,1-2.26-.77,2.76,2.76,0,0,1-.91-2.24A2.89,2.89,0,0,1,110.89,102.39Zm3.61.49a1.84,1.84,0,0,0-1.58-.67,2.23,2.23,0,0,0-1.52.56,2.1,2.1,0,0,0-.69,1.54h4.19A2,2,0,0,0,114.5,102.88Z" transform="translate(-0.48 -2.6)" style="fill:#333"/><path d="M117.29,102a2.76,2.76,0,0,1,1.49-.39,4,4,0,0,1,2,.49v.65a3.57,3.57,0,0,0-2-.53,2.25,2.25,0,0,0-1,.23.77.77,0,0,0-.43.72.79.79,0,0,0,.39.67,3.06,3.06,0,0,0,1,.41c.38.1.75.21,1.12.33a2.34,2.34,0,0,1,1,.54,1.27,1.27,0,0,1,.39,1,1.25,1.25,0,0,1-.65,1.18,3.2,3.2,0,0,1-1.63.38,4,4,0,0,1-2.22-.56v-.68a3.84,3.84,0,0,0,2.19.62c1.08,0,1.63-.31,1.63-.92a.76.76,0,0,0-.39-.66,3.27,3.27,0,0,0-1-.41c-.37-.1-.75-.21-1.12-.33a2.29,2.29,0,0,1-.94-.56,1.27,1.27,0,0,1-.39-1A1.28,1.28,0,0,1,117.29,102Z" transform="translate(-0.48 -2.6)" style="fill:#333"/><path d="M123.54,99.71v2H126v.64h-2.41v3.33a1.29,1.29,0,0,0,.32,1,1.47,1.47,0,0,0,1,.3,3.27,3.27,0,0,0,1.26-.26v.62a3.46,3.46,0,0,1-1.44.28,1.86,1.86,0,0,1-1.34-.46,1.75,1.75,0,0,1-.48-1.33v-3.45h-1.08v-.64h1.08V99.89Z" transform="translate(-0.48 -2.6)" style="fill:#333"/><path d="M128.88,102a2.59,2.59,0,0,1,1.52-.37v.68a2.33,2.33,0,0,0-1.57.42,2.39,2.39,0,0,0-.9,1.26v3.52h-.68v-5.76h.61v1.33A2.64,2.64,0,0,1,128.88,102Z" transform="translate(-0.48 -2.6)" style="fill:#333"/><path d="M131.65,102.4a3,3,0,0,1,2.13-.81,3.09,3.09,0,0,1,2.14.81,3.16,3.16,0,0,1,0,4.4,3.09,3.09,0,0,1-2.14.81,3,3,0,0,1-2.13-.81,3.14,3.14,0,0,1,0-4.4Zm3.81.47a2.36,2.36,0,0,0-1.67-.63,2.38,2.38,0,0,0-1.68.63,2.57,2.57,0,0,0,0,3.46,2.38,2.38,0,0,0,1.68.63,2.36,2.36,0,0,0,1.67-.63,2.57,2.57,0,0,0,0-3.46Z" transform="translate(-0.48 -2.6)" style="fill:#333"/><path d="M138.58,102a2.72,2.72,0,0,1,1.48-.39,4,4,0,0,1,2,.49v.65a3.59,3.59,0,0,0-2-.53,2.22,2.22,0,0,0-1,.23.77.77,0,0,0-.43.72.79.79,0,0,0,.39.67,3,3,0,0,0,.95.41c.38.1.75.21,1.12.33a2.41,2.41,0,0,1,1,.54,1.38,1.38,0,0,1-.26,2.13,3.2,3.2,0,0,1-1.63.38,4,4,0,0,1-2.22-.56v-.68a3.83,3.83,0,0,0,2.18.62c1.09,0,1.64-.31,1.64-.92a.76.76,0,0,0-.39-.66,3.39,3.39,0,0,0-1-.41c-.37-.1-.75-.21-1.12-.33a2.33,2.33,0,0,1-.95-.56,1.27,1.27,0,0,1-.39-1A1.29,1.29,0,0,1,138.58,102Z" transform="translate(-0.48 -2.6)" style="fill:#333"/><path d="M151.79,101.72l-2.61,5.76h-.72l-2.61-5.76h.76l2.21,5,2.21-5Z" transform="translate(-0.48 -2.6)" style="fill:#333"/><path d="M153.19,102.39a2.82,2.82,0,0,1,2-.8,3.09,3.09,0,0,1,1.14.2,2.08,2.08,0,0,1,.81.53,2.72,2.72,0,0,1,.51.77,2.16,2.16,0,0,1,.22.89,4.15,4.15,0,0,1,0,.93H153a1.91,1.91,0,0,0,.8,1.55,3,3,0,0,0,1.78.53,3.73,3.73,0,0,0,1.89-.47v.67a4.15,4.15,0,0,1-2,.42,3.37,3.37,0,0,1-2.26-.77,2.76,2.76,0,0,1-.91-2.24A2.89,2.89,0,0,1,153.19,102.39Zm3.61.49a1.84,1.84,0,0,0-1.58-.67,2.23,2.23,0,0,0-1.52.56,2.1,2.1,0,0,0-.69,1.54h4.19A2,2,0,0,0,156.8,102.88Z" transform="translate(-0.48 -2.6)" style="fill:#333"/><path d="M160,99.08v3.6a3,3,0,0,1,.91-.77,2.5,2.5,0,0,1,1.25-.32,2.23,2.23,0,0,1,2.33,2.34v3.55h-.68V104a1.78,1.78,0,0,0-.48-1.33,1.73,1.73,0,0,0-1.25-.47,2,2,0,0,0-1.21.39,3,3,0,0,0-.87.93v4h-.69v-8.4Z" transform="translate(-0.48 -2.6)" style="fill:#333"/><path d="M166,100.85l1.08-1.71h.85l-1.19,1.71Zm1,.87v5.76h-.69v-5.76Z" transform="translate(-0.48 -2.6)" style="fill:#333"/><path d="M169,102.91a2.72,2.72,0,0,1,1.16-1,3.49,3.49,0,0,1,1.47-.31,3,3,0,0,1,1.74.47v.66a2.64,2.64,0,0,0-1.65-.51,2.72,2.72,0,0,0-1.77.61,2.22,2.22,0,0,0-.74,1.8,2.16,2.16,0,0,0,.72,1.75,2.52,2.52,0,0,0,1.72.62,3.43,3.43,0,0,0,1.78-.47v.68a4.16,4.16,0,0,1-1.88.41,3.16,3.16,0,0,1-2.12-.77,2.72,2.72,0,0,1-.9-2.2A3.11,3.11,0,0,1,169,102.91Z" transform="translate(-0.48 -2.6)" style="fill:#333"/><path d="M180,101.72v5.76h-.62v-1a3,3,0,0,1-.92.81,2.54,2.54,0,0,1-1.31.35,2.25,2.25,0,0,1-1.69-.64,2.27,2.27,0,0,1-.64-1.7v-3.55h.68v3.47a1.82,1.82,0,0,0,.46,1.33,1.67,1.67,0,0,0,1.26.47,2,2,0,0,0,1.23-.39,3.35,3.35,0,0,0,.87-.93v-4Z" transform="translate(-0.48 -2.6)" style="fill:#333"/><path d="M182.54,98.72v8.76h-.68V98.72Z" transform="translate(-0.48 -2.6)" style="fill:#333"/><path d="M185,102.4a3.22,3.22,0,0,1,4.27,0,3.16,3.16,0,0,1,0,4.4,3.22,3.22,0,0,1-4.27,0,3.16,3.16,0,0,1,0-4.4Zm3.81.47a2.53,2.53,0,0,0-3.34,0,2.54,2.54,0,0,0,0,3.46,2.53,2.53,0,0,0,3.34,0,2.57,2.57,0,0,0,0-3.46Z" transform="translate(-0.48 -2.6)" style="fill:#333"/><path d="M191.88,102a2.76,2.76,0,0,1,1.49-.39,4,4,0,0,1,2,.49v.65a3.56,3.56,0,0,0-2-.53,2.26,2.26,0,0,0-1,.23.77.77,0,0,0-.43.72.79.79,0,0,0,.39.67,3.06,3.06,0,0,0,.95.41c.38.1.75.21,1.13.33a2.37,2.37,0,0,1,.94.54,1.27,1.27,0,0,1,.39,1,1.25,1.25,0,0,1-.65,1.18,3.2,3.2,0,0,1-1.63.38,4,4,0,0,1-2.21-.56v-.68a3.78,3.78,0,0,0,2.18.62c1.08,0,1.63-.31,1.63-.92a.76.76,0,0,0-.39-.66,3.32,3.32,0,0,0-.95-.41c-.38-.1-.75-.21-1.13-.33a2.29,2.29,0,0,1-.94-.56,1.27,1.27,0,0,1-.39-1A1.28,1.28,0,0,1,191.88,102Z" transform="translate(-0.48 -2.6)" style="fill:#333"/><path d="M204.43,101.72h.72l-2.91,6.71c-.54,1.21-1.23,1.82-2.07,1.82a3.46,3.46,0,0,1-.61-.07v-.6a1.93,1.93,0,0,0,.53.07,1.24,1.24,0,0,0,.88-.36,3.27,3.27,0,0,0,.69-1.12l.29-.67-2.83-5.78h.72l2.44,5Z" transform="translate(-0.48 -2.6)" style="fill:#333"/><path d="M7.48,112.36v8.4H6.87v-1.19a2.83,2.83,0,0,1-2.46,1.32A2.69,2.69,0,0,1,2.36,120a3,3,0,0,1-.82-2.16,3,3,0,0,1,.82-2.17,2.72,2.72,0,0,1,2.05-.84,2.72,2.72,0,0,1,1.42.35,2.91,2.91,0,0,1,1,.89v-3.75ZM5.92,116a2.33,2.33,0,0,0-1.43-.46,2.17,2.17,0,0,0-1.62.65,2.64,2.64,0,0,0,0,3.47,2.16,2.16,0,0,0,1.62.65,2.33,2.33,0,0,0,1.43-.46,2.66,2.66,0,0,0,.89-1.14V117.1A2.63,2.63,0,0,0,5.92,116Z" transform="translate(-0.48 -2.6)" style="fill:#333"/><path d="M9.81,115.67a2.82,2.82,0,0,1,2-.8,3.17,3.17,0,0,1,1.14.19,2.39,2.39,0,0,1,.81.54,3.22,3.22,0,0,1,.51.77,2.29,2.29,0,0,1,.22.89,5.8,5.8,0,0,1-.05.93H9.64a1.92,1.92,0,0,0,.79,1.55,3,3,0,0,0,1.79.52,3.66,3.66,0,0,0,1.88-.46v.67a4.15,4.15,0,0,1-2,.42,3.4,3.4,0,0,1-2.26-.77,2.78,2.78,0,0,1-.9-2.24A2.89,2.89,0,0,1,9.81,115.67Zm3.61.49a1.8,1.8,0,0,0-1.57-.67,2.26,2.26,0,0,0-1.53.56,2.08,2.08,0,0,0-.68,1.54h4.19A2,2,0,0,0,13.42,116.16Z" transform="translate(-0.48 -2.6)" style="fill:#333"/><path d="M16.22,115.26a2.72,2.72,0,0,1,1.48-.39,4,4,0,0,1,2,.49V116a3.53,3.53,0,0,0-2-.53,2.22,2.22,0,0,0-1,.23.77.77,0,0,0-.43.72.79.79,0,0,0,.39.67,3.2,3.2,0,0,0,.95.41c.37.1.75.21,1.12.33a2.29,2.29,0,0,1,1,.54,1.25,1.25,0,0,1,.39,1,1.28,1.28,0,0,1-.65,1.18,3.22,3.22,0,0,1-1.63.38,3.93,3.93,0,0,1-2.22-.57v-.67a3.82,3.82,0,0,0,2.18.61c1.09,0,1.63-.3,1.63-.91a.76.76,0,0,0-.39-.66,3.2,3.2,0,0,0-.95-.41c-.38-.1-.75-.21-1.12-.33a2.45,2.45,0,0,1-.95-.56,1.27,1.27,0,0,1-.39-1A1.29,1.29,0,0,1,16.22,115.26Z" transform="translate(-0.48 -2.6)" style="fill:#333"/><path d="M21.54,116.19a2.79,2.79,0,0,1,1.15-1,3.66,3.66,0,0,1,1.48-.3,3,3,0,0,1,1.74.46V116a2.93,2.93,0,0,0-3.43.11,2.55,2.55,0,0,0,0,3.55,2.55,2.55,0,0,0,1.72.61A3.46,3.46,0,0,0,26,119.8v.68a4.16,4.16,0,0,1-1.88.41,3.19,3.19,0,0,1-2.13-.77,2.74,2.74,0,0,1-.9-2.21A3,3,0,0,1,21.54,116.19Z" transform="translate(-0.48 -2.6)" style="fill:#333"/><path d="M32.5,115v5.76h-.63v-1a2.9,2.9,0,0,1-.91.82,2.55,2.55,0,0,1-1.32.35,2.26,2.26,0,0,1-1.69-.64,2.31,2.31,0,0,1-.64-1.7V115H28v3.47a1.83,1.83,0,0,0,.45,1.33,1.7,1.7,0,0,0,1.26.46,2,2,0,0,0,1.23-.38,3.11,3.11,0,0,0,.87-.94V115Z" transform="translate(-0.48 -2.6)" style="fill:#333"/><path d="M35.05,112.36v3.75a2.91,2.91,0,0,1,1-.89,3,3,0,0,1,3.46.49,3,3,0,0,1,.82,2.17,3,3,0,0,1-.82,2.16,2.69,2.69,0,0,1-2.05.85A2.85,2.85,0,0,1,35,119.57v1.19h-.61v-8.4ZM39,116.14a2.2,2.2,0,0,0-1.62-.65,2.33,2.33,0,0,0-1.43.46A2.56,2.56,0,0,0,35,117.1v1.56a2.58,2.58,0,0,0,.89,1.14,2.33,2.33,0,0,0,1.43.46,2.19,2.19,0,0,0,1.62-.65,2.67,2.67,0,0,0,0-3.47Z" transform="translate(-0.48 -2.6)" style="fill:#333"/><path d="M43.42,115.25a2.59,2.59,0,0,1,1.52-.37v.68a2.22,2.22,0,0,0-1.57.42,2.39,2.39,0,0,0-.9,1.26v3.52h-.68V115h.61v1.33A2.51,2.51,0,0,1,43.42,115.25Z" transform="translate(-0.48 -2.6)" style="fill:#333"/><path d="M51,120.22a1.32,1.32,0,0,0,.44-.09v.55a1.75,1.75,0,0,1-.62.12.88.88,0,0,1-1-.88,3.08,3.08,0,0,1-2.36,1,2.3,2.3,0,0,1-1.41-.44,1.46,1.46,0,0,1-.59-1.27,1.56,1.56,0,0,1,.74-1.43,3.44,3.44,0,0,1,1.8-.45,6.87,6.87,0,0,1,1.81.25v-.38a1.6,1.6,0,0,0-.48-1.22,1.86,1.86,0,0,0-1.35-.46,5.27,5.27,0,0,0-2.07.41v-.67a6.37,6.37,0,0,1,2.14-.36,2.48,2.48,0,0,1,1.79.62,2.33,2.33,0,0,1,.64,1.76v2.46A.45.45,0,0,0,51,120.22ZM46.56,120a1.78,1.78,0,0,0,1,.29,2.83,2.83,0,0,0,1.25-.29,2.7,2.7,0,0,0,1-.84v-1a6.76,6.76,0,0,0-1.71-.24,2.87,2.87,0,0,0-1.38.3,1,1,0,0,0-.57,1A1,1,0,0,0,46.56,120Z" transform="translate(-0.48 -2.6)" style="fill:#333"/><path d="M55.32,116.19a2.79,2.79,0,0,1,1.15-1,3.66,3.66,0,0,1,1.48-.3,3,3,0,0,1,1.74.46V116a2.93,2.93,0,0,0-3.43.11,2.55,2.55,0,0,0,0,3.55,2.55,2.55,0,0,0,1.72.61,3.46,3.46,0,0,0,1.79-.46v.68a4.16,4.16,0,0,1-1.88.41,3.19,3.19,0,0,1-2.13-.77,2.74,2.74,0,0,1-.9-2.21A3,3,0,0,1,55.32,116.19Z" transform="translate(-0.48 -2.6)" style="fill:#333"/><path d="M61.57,115.68a3,3,0,0,1,2.13-.81,3.09,3.09,0,0,1,2.14.81,3.16,3.16,0,0,1,0,4.4,3.09,3.09,0,0,1-2.14.81,3,3,0,0,1-2.13-.81,3.14,3.14,0,0,1,0-4.4Zm3.81.47a2.5,2.5,0,0,0-3.34,0,2.53,2.53,0,0,0,0,3.45,2.5,2.5,0,0,0,3.34,0,2.56,2.56,0,0,0,0-3.45Z" transform="translate(-0.48 -2.6)" style="fill:#333"/><path d="M68.21,120.76V115h.61v1a3.44,3.44,0,0,1,.87-.76,2.31,2.31,0,0,1,1.23-.33,2.16,2.16,0,0,1,1.15.29,1.85,1.85,0,0,1,.72.82A2.87,2.87,0,0,1,75,114.87a2,2,0,0,1,1.56.63,2.32,2.32,0,0,1,.57,1.62v3.64h-.67v-3.65a1.65,1.65,0,0,0-.42-1.17,1.42,1.42,0,0,0-1.11-.45A2.28,2.28,0,0,0,73,116.61a4.21,4.21,0,0,1,0,.51v3.64h-.69v-3.65a1.69,1.69,0,0,0-.41-1.17,1.45,1.45,0,0,0-1.11-.45,2.36,2.36,0,0,0-2,1.22v4.05Z" transform="translate(-0.48 -2.6)" style="fill:#333"/><path d="M79.4,115.68a3.22,3.22,0,0,1,4.27,0,3.16,3.16,0,0,1,0,4.4,3.22,3.22,0,0,1-4.27,0,3.16,3.16,0,0,1,0-4.4Zm3.81.47a2.5,2.5,0,0,0-3.34,0,2.53,2.53,0,0,0,0,3.45,2.5,2.5,0,0,0,3.34,0,2.56,2.56,0,0,0,0-3.45Z" transform="translate(-0.48 -2.6)" style="fill:#333"/><path d="M89.59,115.67a2.78,2.78,0,0,1,2-.8,3.1,3.1,0,0,1,1.14.19,2.21,2.21,0,0,1,.81.54,2.72,2.72,0,0,1,.51.77,2.13,2.13,0,0,1,.22.89,4.15,4.15,0,0,1,0,.93H89.41a1.93,1.93,0,0,0,.8,1.55,3,3,0,0,0,1.78.52,3.73,3.73,0,0,0,1.89-.46v.67a4.15,4.15,0,0,1-2,.42,3.37,3.37,0,0,1-2.26-.77,2.76,2.76,0,0,1-.91-2.24A2.89,2.89,0,0,1,89.59,115.67Zm3.61.49a1.82,1.82,0,0,0-1.58-.67,2.23,2.23,0,0,0-1.52.56,2.09,2.09,0,0,0-.69,1.54H93.6A2,2,0,0,0,93.2,116.16Z" transform="translate(-0.48 -2.6)" style="fill:#333"/><path d="M96,115.26a2.76,2.76,0,0,1,1.49-.39,4,4,0,0,1,2,.49V116a3.49,3.49,0,0,0-2-.53,2.25,2.25,0,0,0-1,.23.77.77,0,0,0-.43.72.79.79,0,0,0,.39.67,3.32,3.32,0,0,0,1,.41c.38.1.75.21,1.12.33a2.23,2.23,0,0,1,.95.54,1.38,1.38,0,0,1-.26,2.13,3.2,3.2,0,0,1-1.63.38,3.93,3.93,0,0,1-2.22-.57v-.67a3.83,3.83,0,0,0,2.19.61c1.08,0,1.63-.3,1.63-.91a.76.76,0,0,0-.39-.66,3.27,3.27,0,0,0-1-.41c-.37-.1-.75-.21-1.12-.33a2.41,2.41,0,0,1-.94-.56,1.27,1.27,0,0,1-.39-1A1.28,1.28,0,0,1,96,115.26Z" transform="translate(-0.48 -2.6)" style="fill:#333"/><path d="M102.24,113v2h2.41v.63h-2.41V119a1.29,1.29,0,0,0,.32,1,1.47,1.47,0,0,0,1,.3,3.27,3.27,0,0,0,1.26-.26v.62a3.62,3.62,0,0,1-1.44.28,1.87,1.87,0,0,1-1.33-.46,1.71,1.71,0,0,1-.49-1.33v-3.46h-1.08V115h1.08v-1.84Z" transform="translate(-0.48 -2.6)" style="fill:#333"/><path d="M111,120.22a1.37,1.37,0,0,0,.44-.09v.55a1.79,1.79,0,0,1-.62.12.88.88,0,0,1-1-.88,3.1,3.1,0,0,1-2.36,1,2.35,2.35,0,0,1-1.42-.44,1.48,1.48,0,0,1-.58-1.27,1.54,1.54,0,0,1,.74-1.43,3.41,3.41,0,0,1,1.8-.45,6.93,6.93,0,0,1,1.81.25v-.38a1.6,1.6,0,0,0-.48-1.22,1.87,1.87,0,0,0-1.36-.46,5.26,5.26,0,0,0-2.06.41v-.67a6.37,6.37,0,0,1,2.14-.36,2.5,2.5,0,0,1,1.79.62,2.33,2.33,0,0,1,.64,1.76v2.46A.45.45,0,0,0,111,120.22Zm-4.43-.21a1.78,1.78,0,0,0,1,.29,2.83,2.83,0,0,0,1.25-.29,2.7,2.7,0,0,0,1-.84v-1a6.77,6.77,0,0,0-1.72-.24,2.86,2.86,0,0,0-1.37.3,1,1,0,0,0-.57,1A1,1,0,0,0,106.56,120Zm.77-5.89,1.08-1.7h.85l-1.19,1.7Z" transform="translate(-0.48 -2.6)" style="fill:#333"/><path d="M120.78,112.36v8.4h-.61v-1.19a2.81,2.81,0,0,1-2.46,1.32,2.69,2.69,0,0,1-2-.85,3,3,0,0,1-.82-2.16,3,3,0,0,1,.82-2.17,2.72,2.72,0,0,1,2-.84,2.78,2.78,0,0,1,1.43.35,3,3,0,0,1,1,.89v-3.75ZM119.22,116a2.33,2.33,0,0,0-1.43-.46,2.19,2.19,0,0,0-1.62.65,2.64,2.64,0,0,0,0,3.47,2.16,2.16,0,0,0,1.62.65,2.33,2.33,0,0,0,1.43-.46,2.66,2.66,0,0,0,.89-1.14V117.1A2.63,2.63,0,0,0,119.22,116Z" transform="translate(-0.48 -2.6)" style="fill:#333"/><path d="M123.12,115.67a2.78,2.78,0,0,1,2-.8,3.17,3.17,0,0,1,1.14.19,2.3,2.3,0,0,1,.81.54,3.22,3.22,0,0,1,.51.77,2.29,2.29,0,0,1,.22.89,5.8,5.8,0,0,1,0,.93h-4.79a2,2,0,0,0,.79,1.55,3,3,0,0,0,1.79.52,3.66,3.66,0,0,0,1.88-.46v.67a4.15,4.15,0,0,1-2,.42,3.4,3.4,0,0,1-2.26-.77,2.78,2.78,0,0,1-.9-2.24A2.86,2.86,0,0,1,123.12,115.67Zm3.61.49a1.82,1.82,0,0,0-1.58-.67,2.27,2.27,0,0,0-1.53.56,2.08,2.08,0,0,0-.68,1.54h4.19A2.06,2.06,0,0,0,126.73,116.16Z" transform="translate(-0.48 -2.6)" style="fill:#333"/><path d="M133.94,115.25a2.64,2.64,0,0,1,1.53-.37v.68a2.22,2.22,0,0,0-1.57.42,2.39,2.39,0,0,0-.9,1.26v3.52h-.69V115h.61v1.33A2.64,2.64,0,0,1,133.94,115.25Z" transform="translate(-0.48 -2.6)" style="fill:#333"/><path d="M136.68,115.67a2.78,2.78,0,0,1,2-.8,3.17,3.17,0,0,1,1.14.19,2.3,2.3,0,0,1,.81.54,3.22,3.22,0,0,1,.51.77,2.29,2.29,0,0,1,.22.89,5.8,5.8,0,0,1-.05.93H136.5a2,2,0,0,0,.79,1.55,3,3,0,0,0,1.79.52,3.66,3.66,0,0,0,1.88-.46v.67a4.15,4.15,0,0,1-2,.42,3.4,3.4,0,0,1-2.26-.77,2.78,2.78,0,0,1-.9-2.24A2.86,2.86,0,0,1,136.68,115.67Zm3.6.49a1.79,1.79,0,0,0-1.57-.67,2.27,2.27,0,0,0-1.53.56,2.08,2.08,0,0,0-.68,1.54h4.19A2,2,0,0,0,140.28,116.16Z" transform="translate(-0.48 -2.6)" style="fill:#333"/><path d="M143.21,115.71a2.74,2.74,0,0,1,2-.84,2.8,2.8,0,0,1,2.46,1.32V115h.61v5.76a2.47,2.47,0,0,1-.89,2.07,3.5,3.5,0,0,1-2.19.7,5,5,0,0,1-2.31-.54v-.66a4.64,4.64,0,0,0,2.22.57,2.92,2.92,0,0,0,1.79-.52,1.89,1.89,0,0,0,.71-1.62v-1.14a2.66,2.66,0,0,1-1,.91,2.79,2.79,0,0,1-1.43.36,2.71,2.71,0,0,1-2-.85,3,3,0,0,1-.82-2.16A3,3,0,0,1,143.21,115.71Zm3.56.24a2.33,2.33,0,0,0-1.43-.46,2.2,2.2,0,0,0-1.62.65,2.67,2.67,0,0,0,0,3.47,2.19,2.19,0,0,0,1.62.65,2.44,2.44,0,0,0,1.43-.43,2.51,2.51,0,0,0,.89-1.09V117.1A2.56,2.56,0,0,0,146.77,116Z" transform="translate(-0.48 -2.6)" style="fill:#333"/><path d="M151.84,115.25a2.59,2.59,0,0,1,1.52-.37v.68a2.22,2.22,0,0,0-1.57.42,2.39,2.39,0,0,0-.9,1.26v3.52h-.69V115h.62v1.33A2.51,2.51,0,0,1,151.84,115.25Z" transform="translate(-0.48 -2.6)" style="fill:#333"/><path d="M154.57,115.67a2.78,2.78,0,0,1,2-.8,3.1,3.1,0,0,1,1.14.19,2.21,2.21,0,0,1,.81.54,2.72,2.72,0,0,1,.51.77,2.13,2.13,0,0,1,.22.89,4.84,4.84,0,0,1,0,.93h-4.79a2,2,0,0,0,.79,1.55,3,3,0,0,0,1.79.52,3.66,3.66,0,0,0,1.88-.46v.67a4.11,4.11,0,0,1-2,.42,3.41,3.41,0,0,1-2.27-.77,2.78,2.78,0,0,1-.9-2.24A2.86,2.86,0,0,1,154.57,115.67Zm3.61.49a1.82,1.82,0,0,0-1.58-.67,2.23,2.23,0,0,0-1.52.56,2,2,0,0,0-.69,1.54h4.19A2.06,2.06,0,0,0,158.18,116.16Z" transform="translate(-0.48 -2.6)" style="fill:#333"/><path d="M161,115.26a2.73,2.73,0,0,1,1.49-.39,4,4,0,0,1,2,.49V116a3.49,3.49,0,0,0-2-.53,2.25,2.25,0,0,0-1,.23.77.77,0,0,0-.43.72.79.79,0,0,0,.39.67,3.32,3.32,0,0,0,1,.41c.38.1.75.21,1.12.33a2.23,2.23,0,0,1,.95.54,1.38,1.38,0,0,1-.26,2.13,3.2,3.2,0,0,1-1.63.38,3.93,3.93,0,0,1-2.22-.57v-.67a3.83,3.83,0,0,0,2.19.61c1.08,0,1.63-.3,1.63-.91a.76.76,0,0,0-.39-.66,3.27,3.27,0,0,0-1-.41c-.37-.1-.75-.21-1.12-.33a2.41,2.41,0,0,1-.94-.56,1.27,1.27,0,0,1-.39-1A1.28,1.28,0,0,1,161,115.26Z" transform="translate(-0.48 -2.6)" style="fill:#333"/><path d="M166.71,115.68a3.22,3.22,0,0,1,4.27,0,3.14,3.14,0,0,1,0,4.4,3.22,3.22,0,0,1-4.27,0,3.16,3.16,0,0,1,0-4.4Zm3.81.47a2.5,2.5,0,0,0-3.34,0,2.53,2.53,0,0,0,0,3.45,2.5,2.5,0,0,0,3.34,0,2.56,2.56,0,0,0,0-3.45Z" transform="translate(-0.48 -2.6)" style="fill:#333"/><path d="M181.47,120.22a1.38,1.38,0,0,0,.45-.09v.55a1.8,1.8,0,0,1-.63.12.88.88,0,0,1-1-.88,3.1,3.1,0,0,1-2.36,1,2.31,2.31,0,0,1-1.42-.44,1.48,1.48,0,0,1-.59-1.27,1.55,1.55,0,0,1,.75-1.43,3.39,3.39,0,0,1,1.8-.45,6.93,6.93,0,0,1,1.81.25v-.38a1.6,1.6,0,0,0-.48-1.22,1.87,1.87,0,0,0-1.36-.46,5.26,5.26,0,0,0-2.06.41v-.67a6.35,6.35,0,0,1,2.13-.36,2.51,2.51,0,0,1,1.8.62,2.33,2.33,0,0,1,.64,1.76v2.46A.45.45,0,0,0,181.47,120.22Zm-4.42-.21a1.78,1.78,0,0,0,1,.29,2.86,2.86,0,0,0,1.25-.29,2.7,2.7,0,0,0,1-.84v-1a6.77,6.77,0,0,0-1.72-.24,2.93,2.93,0,0,0-1.38.3,1,1,0,0,0-.56,1A1,1,0,0,0,177.05,120Z" transform="translate(-0.48 -2.6)" style="fill:#333"/><path d="M186.45,112v8.76h-.69V112Z" transform="translate(-0.48 -2.6)" style="fill:#333"/><path d="M193.39,120.22a1.28,1.28,0,0,0,.44-.09v.55a1.75,1.75,0,0,1-.62.12.87.87,0,0,1-1-.88,3.1,3.1,0,0,1-2.37,1,2.3,2.3,0,0,1-1.41-.44,1.48,1.48,0,0,1-.59-1.27,1.56,1.56,0,0,1,.74-1.43,3.44,3.44,0,0,1,1.8-.45,6.87,6.87,0,0,1,1.81.25v-.38a1.6,1.6,0,0,0-.48-1.22,1.86,1.86,0,0,0-1.35-.46,5.22,5.22,0,0,0-2.06.41v-.67a6.35,6.35,0,0,1,2.13-.36,2.46,2.46,0,0,1,1.79.62,2.34,2.34,0,0,1,.65,1.76v2.46A.45.45,0,0,0,193.39,120.22ZM189,120a1.8,1.8,0,0,0,1,.29,2.83,2.83,0,0,0,1.25-.29,2.62,2.62,0,0,0,1-.84v-1a6.7,6.7,0,0,0-1.71-.24,2.87,2.87,0,0,0-1.38.3,1,1,0,0,0-.57,1A1,1,0,0,0,189,120Z" transform="translate(-0.48 -2.6)" style="fill:#333"/><path d="M197.72,116.19a2.82,2.82,0,0,1,1.16-1,3.58,3.58,0,0,1,1.47-.3,3,3,0,0,1,1.74.46V116a2.72,2.72,0,0,0-1.65-.5,2.66,2.66,0,0,0-1.77.61,2.54,2.54,0,0,0,0,3.55,2.55,2.55,0,0,0,1.72.61,3.46,3.46,0,0,0,1.79-.46v.68a4.16,4.16,0,0,1-1.88.41,3.16,3.16,0,0,1-2.12-.77,2.74,2.74,0,0,1-.9-2.21A3,3,0,0,1,197.72,116.19Z" transform="translate(-0.48 -2.6)" style="fill:#333"/><path d="M208.61,120.22a1.37,1.37,0,0,0,.44-.09v.55a1.79,1.79,0,0,1-.62.12.88.88,0,0,1-1-.88,3.1,3.1,0,0,1-2.36,1,2.33,2.33,0,0,1-1.42-.44,1.48,1.48,0,0,1-.58-1.27,1.54,1.54,0,0,1,.74-1.43,3.39,3.39,0,0,1,1.8-.45,6.93,6.93,0,0,1,1.81.25v-.38a1.6,1.6,0,0,0-.48-1.22,1.87,1.87,0,0,0-1.36-.46,5.26,5.26,0,0,0-2.06.41v-.67a6.37,6.37,0,0,1,2.14-.36,2.5,2.5,0,0,1,1.79.62,2.33,2.33,0,0,1,.64,1.76v2.46A.45.45,0,0,0,208.61,120.22Zm-4.43-.21a1.78,1.78,0,0,0,1,.29,2.83,2.83,0,0,0,1.25-.29,2.7,2.7,0,0,0,1-.84v-1a6.77,6.77,0,0,0-1.72-.24,2.86,2.86,0,0,0-1.37.3,1,1,0,0,0-.57,1A1,1,0,0,0,204.18,120Z" transform="translate(-0.48 -2.6)" style="fill:#333"/><path d="M210.79,112v8.76h-.68V112Z" transform="translate(-0.48 -2.6)" style="fill:#333"/><path d="M213.42,112v8.76h-.68V112Z" transform="translate(-0.48 -2.6)" style="fill:#333"/><path d="M215.79,115.67a2.79,2.79,0,0,1,2-.8,3.17,3.17,0,0,1,1.14.19,2.25,2.25,0,0,1,.8.54,2.72,2.72,0,0,1,.51.77,2.3,2.3,0,0,1,.23.89,4.85,4.85,0,0,1-.06.93h-4.78a1.92,1.92,0,0,0,.79,1.55,3,3,0,0,0,1.79.52,3.69,3.69,0,0,0,1.88-.46v.67a4.15,4.15,0,0,1-2,.42,3.38,3.38,0,0,1-2.26-.77,2.79,2.79,0,0,1-.91-2.24A2.89,2.89,0,0,1,215.79,115.67Zm3.61.49a1.81,1.81,0,0,0-1.58-.67,2.23,2.23,0,0,0-1.52.56,2.08,2.08,0,0,0-.68,1.54h4.18A2,2,0,0,0,219.4,116.16Z" transform="translate(-0.48 -2.6)" style="fill:#333"/><path d="M225.45,115.67a2.79,2.79,0,0,1,2-.8,3.17,3.17,0,0,1,1.14.19,2.25,2.25,0,0,1,.8.54,2.72,2.72,0,0,1,.51.77,2.3,2.3,0,0,1,.23.89,4.85,4.85,0,0,1-.06.93h-4.78a1.92,1.92,0,0,0,.79,1.55,3,3,0,0,0,1.79.52,3.69,3.69,0,0,0,1.88-.46v.67a4.15,4.15,0,0,1-2,.42,3.38,3.38,0,0,1-2.26-.77,2.79,2.79,0,0,1-.91-2.24A2.89,2.89,0,0,1,225.45,115.67Zm3.61.49a1.81,1.81,0,0,0-1.58-.67,2.23,2.23,0,0,0-1.52.56,2.08,2.08,0,0,0-.68,1.54h4.18A2,2,0,0,0,229.06,116.16Z" transform="translate(-0.48 -2.6)" style="fill:#333"/><path d="M233.1,115.21a2.54,2.54,0,0,1,1.31-.34,2.3,2.3,0,0,1,1.68.64,2.26,2.26,0,0,1,.66,1.7v3.55h-.69v-3.47a1.76,1.76,0,0,0-.48-1.33,1.71,1.71,0,0,0-1.24-.47,2.06,2.06,0,0,0-1.22.38,3.11,3.11,0,0,0-.87.94v4h-.68V115h.61v1A3.09,3.09,0,0,1,233.1,115.21Z" transform="translate(-0.48 -2.6)" style="fill:#333"/><path d="M2.94,126.26v2H5.35v.63H2.94v3.34a1.26,1.26,0,0,0,.33,1,1.42,1.42,0,0,0,1,.3,3,3,0,0,0,1.26-.27v.63a3.63,3.63,0,0,1-1.44.27,1.88,1.88,0,0,1-1.33-.45,1.71,1.71,0,0,1-.49-1.33v-3.46H1.19v-.63H2.27v-1.84Z" transform="translate(-0.48 -2.6)" style="fill:#333"/><path d="M7.35,126.86A.48.48,0,0,1,7,127a.52.52,0,0,1-.33-.11.42.42,0,0,1-.13-.34.42.42,0,0,1,.13-.33.48.48,0,0,1,.33-.13.44.44,0,0,1,.33.13.48.48,0,0,1,0,.66ZM6.69,134v-5.75h.68V134Z" transform="translate(-0.48 -2.6)" style="fill:#333"/><path d="M9.74,129a2.79,2.79,0,0,1,2-.8,3.17,3.17,0,0,1,1.14.19,2.26,2.26,0,0,1,.81.54,3.22,3.22,0,0,1,.51.77,2.29,2.29,0,0,1,.22.89,4.85,4.85,0,0,1-.06.93H9.57a1.92,1.92,0,0,0,.79,1.55,3,3,0,0,0,1.79.52,3.6,3.6,0,0,0,1.88-.47v.68a4.15,4.15,0,0,1-2,.42,3.38,3.38,0,0,1-2.26-.77,2.79,2.79,0,0,1-.91-2.24A2.88,2.88,0,0,1,9.74,129Zm3.61.49a1.81,1.81,0,0,0-1.58-.67,2.23,2.23,0,0,0-1.52.56,2.08,2.08,0,0,0-.68,1.54h4.18A2,2,0,0,0,13.35,129.44Z" transform="translate(-0.48 -2.6)" style="fill:#333"/><path d="M15.86,134v-5.75h.61v1a3.23,3.23,0,0,1,.86-.76,2.32,2.32,0,0,1,1.24-.33,2.1,2.1,0,0,1,1.14.29,1.81,1.81,0,0,1,.73.82,2.84,2.84,0,0,1,2.18-1.11,2,2,0,0,1,1.55.62,2.35,2.35,0,0,1,.57,1.63V134h-.67v-3.64a1.69,1.69,0,0,0-.41-1.17,1.45,1.45,0,0,0-1.11-.45,2.3,2.3,0,0,0-1.89,1.11,3,3,0,0,1,0,.52V134H20v-3.64a1.65,1.65,0,0,0-.42-1.17,1.42,1.42,0,0,0-1.11-.45A2.33,2.33,0,0,0,16.54,130v4Z" transform="translate(-0.48 -2.6)" style="fill:#333"/><path d="M29.62,128.15a2.74,2.74,0,0,1,2.05.84,3,3,0,0,1,.81,2.17,3,3,0,0,1-.81,2.16,2.93,2.93,0,0,1-3.47.49,2.78,2.78,0,0,1-1-.89v3.75h-.68v-8.39h.61v1.19A2.85,2.85,0,0,1,29.62,128.15Zm1.53,1.27a2.2,2.2,0,0,0-1.62-.65,2.3,2.3,0,0,0-1.42.46,2.56,2.56,0,0,0-.89,1.15v1.56a2.58,2.58,0,0,0,.89,1.14,2.3,2.3,0,0,0,1.42.46,2.2,2.2,0,0,0,1.63-.64,2.67,2.67,0,0,0,0-3.48Z" transform="translate(-0.48 -2.6)" style="fill:#333"/><path d="M34.46,129a3.22,3.22,0,0,1,4.27,0,2.79,2.79,0,0,1,.89,2.2,2.81,2.81,0,0,1-.89,2.2,3.22,3.22,0,0,1-4.27,0,2.85,2.85,0,0,1-.89-2.2A2.82,2.82,0,0,1,34.46,129Zm3.81.47a2.5,2.5,0,0,0-3.34,0,2.53,2.53,0,0,0,0,3.45,2.5,2.5,0,0,0,3.34,0,2.56,2.56,0,0,0,0-3.45Z" transform="translate(-0.48 -2.6)" style="fill:#333"/><path d="M45.82,128.53a2.59,2.59,0,0,1,1.52-.37v.68a2.22,2.22,0,0,0-1.57.42,2.39,2.39,0,0,0-.9,1.26V134h-.68v-5.75h.61v1.33A2.51,2.51,0,0,1,45.82,128.53Z" transform="translate(-0.48 -2.6)" style="fill:#333"/><path d="M48.55,129a2.78,2.78,0,0,1,2-.8,3.1,3.1,0,0,1,1.14.19,2.09,2.09,0,0,1,.81.54,2.72,2.72,0,0,1,.51.77,2.13,2.13,0,0,1,.22.89,4.15,4.15,0,0,1-.05.93H48.38a1.92,1.92,0,0,0,.79,1.55,3,3,0,0,0,1.78.52,3.63,3.63,0,0,0,1.89-.47v.68a4.15,4.15,0,0,1-2,.42,3.37,3.37,0,0,1-2.26-.77,2.76,2.76,0,0,1-.91-2.24A2.88,2.88,0,0,1,48.55,129Zm3.61.49a1.81,1.81,0,0,0-1.58-.67,2.23,2.23,0,0,0-1.52.56,2.08,2.08,0,0,0-.68,1.54h4.18A2,2,0,0,0,52.16,129.44Zm-2.27-2L51,125.7h.85l-1.19,1.7Z" transform="translate(-0.48 -2.6)" style="fill:#333"/><path d="M54.74,129.47a2.82,2.82,0,0,1,1.16-1,3.61,3.61,0,0,1,1.47-.3,3,3,0,0,1,1.74.46v.66a2.72,2.72,0,0,0-1.65-.5,2.66,2.66,0,0,0-1.77.61,2.54,2.54,0,0,0,0,3.55,2.56,2.56,0,0,0,1.73.61,3.36,3.36,0,0,0,1.78-.47v.69a4.16,4.16,0,0,1-1.88.41,3.16,3.16,0,0,1-2.12-.77,2.74,2.74,0,0,1-.9-2.21A3,3,0,0,1,54.74,129.47Z" transform="translate(-0.48 -2.6)" style="fill:#333"/><path d="M61,129a3.22,3.22,0,0,1,4.27,0,2.79,2.79,0,0,1,.9,2.2,2.82,2.82,0,0,1-.9,2.2,3.22,3.22,0,0,1-4.27,0,2.85,2.85,0,0,1-.89-2.2A2.82,2.82,0,0,1,61,129Zm3.81.47a2.5,2.5,0,0,0-3.34,0,2.53,2.53,0,0,0,0,3.45,2.5,2.5,0,0,0,3.34,0,2.56,2.56,0,0,0,0-3.45Z" transform="translate(-0.48 -2.6)" style="fill:#333"/><path d="M69.27,128.53a2.59,2.59,0,0,1,1.52-.37v.68a2.22,2.22,0,0,0-1.57.42,2.39,2.39,0,0,0-.9,1.26V134h-.69v-5.75h.62v1.33A2.51,2.51,0,0,1,69.27,128.53Z" transform="translate(-0.48 -2.6)" style="fill:#333"/><path d="M77.1,125.64V134h-.61v-1.18A2.8,2.8,0,0,1,74,134.17a2.75,2.75,0,0,1-2-.85,3,3,0,0,1-.82-2.16A3,3,0,0,1,72,129a2.74,2.74,0,0,1,2-.84,2.78,2.78,0,0,1,1.43.35,2.87,2.87,0,0,1,1,.89v-3.75Zm-1.56,3.59a2.33,2.33,0,0,0-1.43-.46,2.16,2.16,0,0,0-1.62.65,2.67,2.67,0,0,0,0,3.47,2.23,2.23,0,0,0,1.62.65,2.33,2.33,0,0,0,1.43-.46,2.58,2.58,0,0,0,.89-1.14v-1.56A2.56,2.56,0,0,0,75.54,129.23Z" transform="translate(-0.48 -2.6)" style="fill:#333"/><path d="M79.62,134a.49.49,0,0,1-.35.13.47.47,0,0,1-.34-.13.43.43,0,0,1-.14-.34.44.44,0,0,1,.14-.34.51.51,0,0,1,.34-.13.54.54,0,0,1,.35.13.44.44,0,0,1,.13.34A.42.42,0,0,1,79.62,134Z" transform="translate(-0.48 -2.6)" style="fill:#333"/></svg>