<?xml version="1.0" encoding="utf-8"?>
<!-- Generator: Adobe Illustrator 22.0.1, SVG Export Plug-In . SVG Version: 6.00 Build 0)  -->
<svg version="1.1" id="Capa_1" xmlns="http://www.w3.org/2000/svg" xmlns:xlink="http://www.w3.org/1999/xlink" x="0px" y="0px"
	 viewBox="0 0 1920 1080" style="enable-background:new 0 0 1920 1080;" xml:space="preserve">
<style type="text/css">
	.st0{fill:#FFFFFF;}
	.st1{fill-rule:evenodd;clip-rule:evenodd;fill:#FFFFFF;}
	.st2{fill-rule:evenodd;clip-rule:evenodd;fill:#E7B43F;}
	.st3{fill:#E7B43F;}
</style>
<g>
	<rect x="0.5" y="185.5" width="1919" height="722"/>
	<path class="st0" d="M1919,186v721H1V186H1919 M1920,185H0v723h1920V185L1920,185z"/>
</g>
<g>
	<g>
		<path class="st1" d="M264.4,372.6l0,179.3c0,3.5-0.2,25.8-2.6,30.9c-6.1,13.1-34.2,15.8-45.6,17l-1.8,0.2l-0.3-1.8l0-0.1l0-0.1
			l0-0.1l0-0.1l0-0.1l0-0.1l0-0.1l0-0.1l0-0.1l0-0.1l0-0.1l0-0.1l0-0.1l0-0.1l0-0.1l0-0.1l0-0.1l0-0.1l0-0.1l0-0.1l0-0.1l0-0.1
			l0-0.1l0-0.1l0-0.1l0-0.1l0-0.1l0-0.1l0-0.1l0-0.1l0-0.1l0-0.1l0-0.1l0-0.1l0-0.1l0-0.1l0-0.1l0-0.1l0-0.1l0-0.1l0-0.1l0-0.1
			l0-0.1l0-0.1l0-0.1l0-0.1l0-0.1l0-0.1l0-0.1l0-0.1l0-0.1l0-0.1l0-0.1l0-0.1l0-0.1l0-0.1l0-0.1l0-0.1l0-0.1l0-0.1l0-0.1l0-0.1
			l0-0.1l0-0.1l0-0.1l0-0.1l0-0.1l0-0.1l0-0.3l0-0.3l0-0.3l0-0.3l0-0.3l0-0.3l0-0.3l0-0.3l0-0.3l0-0.3l0-0.3l0-0.3l0-0.3l0-0.3
			l0-0.3l0-0.3l0-0.3l0-0.3l0-0.3l0-0.3l0-0.3l0-0.3l0-0.6l0-0.6l0-0.6l0-0.6l-0.1-0.8l-0.1-0.8l-0.1-0.8l-0.1-0.8l-0.1-0.8
			l-0.1-0.8l0-0.8l0-0.8l0-0.8l0-0.8l0-0.8l0-0.8l0-0.8l0-0.8l0-0.8l0-0.8l0-0.5l0-0.5l0-0.5l0-0.5l0-0.5l0-0.5l0-0.5l0-0.5l0-0.5
			l0-0.5l0-0.5l0-0.5l0-0.5l0-0.5l0-0.5l0-0.5l0-0.5l0-0.5l0-0.5l0-0.5l0-0.5l0-0.5l0-0.5l0-0.5l0-0.5l0-0.5l0-0.5l0-0.2l0-0.2
			l0-0.2l0-0.2v-0.2l0-0.2v-0.2v-0.2l0-0.2v-0.2v-129l0-47.8l-99.3,0.2l0-2l0-6.2l0-3.1l0-3.1l0-3.1l0-3.1l0-3.1l0-3.1l0-3.1l0-3.1
			l0-3.1l0-3.1l0-3.1l0-3.1l0-3.1l0-3.1l0-2H264L264.4,372.6z"/>
		<rect x="111.3" y="222.2" class="st1" width="351.7" height="53.7"/>
		<polygon class="st2" points="363.7,422.9 363.7,551.9 363.7,552.3 363.7,552.7 363.7,553 363.7,553.4 363.7,553.8 363.7,554.1 
			363.7,554.5 363.7,554.9 363.7,555.2 363.7,555.6 363.7,556 363.6,556.3 363.6,556.7 363.6,557.1 363.6,557.4 363.6,557.8 
			363.6,558.2 363.6,558.5 363.6,558.9 363.6,559.3 363.6,559.6 363.6,560 363.6,560.4 363.5,560.7 363.5,561.1 363.5,561.5 
			363.5,561.8 363.5,562.2 363.5,562.9 363.4,563.7 363.4,564.2 363.4,564.8 363.4,565.3 363.4,565.9 363.3,566.4 363.3,567 
			363.3,567.6 363.3,568.1 363.2,568.7 363.2,569.2 363.2,569.8 363.1,570.4 363.1,570.9 363.1,571.5 363,572 363,572.6 363,573.2 
			363,573.7 362.9,574.3 362.9,574.8 362.8,575.4 362.8,576 362.8,576.5 362.7,577.1 362.7,577.6 362.7,578.2 362.6,578.7 
			362.6,579.3 362.5,579.9 362.5,580.4 362.5,581 362.4,581.5 362.4,582 362.3,582.5 362.3,583 362.3,583.4 362.2,583.9 
			362.2,584.2 362.2,584.4 362.2,584.6 362.1,584.9 362.1,585.1 362.1,585.3 362.1,585.6 362.1,585.8 362,586.1 362,586.3 
			362,586.5 362,586.8 361.9,587 361.9,587.2 361.9,587.5 361.9,587.7 361.8,588 361.8,588.2 361.8,588.4 361.8,588.7 361.7,588.9 
			361.7,589.1 361.7,589.4 361.7,589.6 361.6,589.9 361.6,590.1 361.6,590.3 361.5,590.6 361.5,590.8 361.5,591 361.5,591.3 
			361.4,591.4 361.4,591.5 361.4,591.6 361.4,591.7 361.4,591.9 361.4,592 361.4,592.1 361.3,592.2 361.3,592.3 361.3,592.5 
			361.3,592.6 361.3,592.7 361.3,592.8 361.2,592.9 361.2,593 361.2,593.2 361.2,593.3 361.2,593.4 361.2,593.5 361.1,593.6 
			361.1,593.8 361.1,593.9 361.1,594 361.1,594.1 361.1,594.2 361,594.3 361,594.5 361,594.6 361,594.7 361,594.8 360.9,594.9 
			360.9,595.1 360.9,595.2 360.9,595.3 360.9,595.4 360.8,595.5 360.8,595.6 360.8,595.8 360.8,595.9 360.8,596 360.7,596.1 
			360.7,596.2 360.7,596.3 360.7,596.5 360.7,596.6 360.6,596.7 360.6,596.8 360.6,596.9 360.6,597 360.6,597.1 360.6,597.2 
			360.5,597.3 360.5,597.4 360.5,597.5 360.5,597.6 360.5,597.7 360.4,597.8 360.4,597.9 360.4,598 360.4,598.1 360.4,598.2 
			360.3,598.3 360.3,598.4 360.3,598.5 360.3,598.6 360.3,598.7 360.3,598.8 360.2,598.9 360.2,599 360.2,599.1 360.2,599.2 
			360.1,599.3 360.1,599.4 360.1,599.5 360.1,599.6 360.1,599.7 360,599.8 360,599.9 360,600 360,600.1 359.9,600.3 359.9,600.5 
			359.9,600.7 359.8,601 359.8,601.2 359.7,601.4 359.7,601.6 359.6,601.8 359.6,602 359.5,602.2 359.5,602.4 359.5,602.6 
			359.4,602.8 359.4,603 359.3,603.2 359.3,603.4 359.2,603.6 359.2,603.8 359.1,604 359.1,604.2 359,604.4 359,604.6 358.9,604.8 
			358.9,605 358.8,605.2 358.8,605.4 358.7,605.6 358.7,605.8 358.6,606 358.6,606.2 358.5,606.4 358.5,606.6 358.4,606.8 
			358.4,607 358.3,607.2 358.3,607.4 358.2,607.6 358.2,607.8 358.1,608 358.1,608.2 358,608.4 357.9,608.6 357.9,608.8 357.8,609 
			357.8,609.2 357.7,609.6 357.6,609.8 357.5,610.1 357.5,610.3 357.4,610.5 357.3,610.8 357.3,611 357.2,611.3 357.1,611.5 
			357.1,611.7 357,612 356.9,612.2 356.9,612.4 356.8,612.7 356.7,612.9 356.7,613.2 356.6,613.4 356.5,613.6 356.5,613.9 
			356.4,614.1 356.3,614.3 356.2,614.6 356.2,614.8 356.1,615 356,615.3 356,615.4 355.9,615.5 355.9,615.6 355.9,615.8 
			355.8,615.9 355.8,616 355.8,616.1 355.7,616.2 355.7,616.3 355.7,616.5 355.6,616.6 355.6,616.7 355.5,616.8 355.5,616.9 
			355.5,617 355.4,617.2 355.4,617.3 355.4,617.4 355.3,617.5 355.3,617.6 355.2,617.7 355.2,617.9 355.2,618 355.1,618.1 
			355.1,618.2 355,618.3 355,618.5 355,618.6 354.9,618.7 354.9,618.8 354.8,618.9 354.8,619 354.8,619.2 354.7,619.3 354.7,619.4 
			354.6,619.5 354.6,619.6 354.6,619.7 354.5,619.9 354.5,620 354.4,620.1 354.4,620.2 354.4,620.3 354.3,620.4 354.3,620.5 
			354.2,620.7 354.2,620.8 354.1,620.9 354.1,621 354.1,621.1 354,621.2 354,621.4 353.9,621.5 353.9,621.6 353.8,621.7 
			353.8,621.8 353.8,621.9 353.7,622.1 353.7,622.2 353.6,622.3 353.6,622.4 353.5,622.5 353.5,622.6 353.4,622.7 353.4,622.9 
			353.4,623 353.3,623.1 353.3,623.2 353.2,623.3 353.2,623.4 353.1,623.5 353.1,623.7 353,623.8 353,623.9 352.9,624 352.9,624.1 
			352.8,624.2 352.8,624.3 352.8,624.5 352.7,624.6 352.7,624.7 352.6,624.8 352.6,624.9 352.5,625 352.5,625.1 352.4,625.2 
			352.4,625.3 352.3,625.4 352.3,625.5 352.3,625.6 352.2,625.7 352.2,625.8 352.1,625.9 352.1,626.1 352,626.2 352,626.3 
			351.9,626.4 351.9,626.5 351.8,626.6 351.8,626.7 351.7,626.8 351.7,626.9 351.7,627 351.6,627.1 351.6,627.2 351.5,627.3 
			351.5,627.4 351.4,627.5 351.4,627.6 351.3,627.7 351.3,627.8 351.2,627.9 351.2,628 351.1,628.1 351.1,628.2 351,628.3 
			351,628.5 350.9,628.6 350.9,628.7 350.8,628.8 350.8,628.9 350.7,629 350.7,629.1 350.6,629.2 350.6,629.3 350.5,629.4 
			350.5,629.5 350.4,629.6 350.4,629.7 350.3,629.8 350.3,629.9 350.2,630 350.2,630.1 350.1,630.2 350.1,630.3 350,630.4 
			350,630.5 349.9,630.6 349.9,630.7 349.8,630.8 349.8,630.9 349.7,631 349.6,631.1 349.6,631.2 349.5,631.3 349.5,631.4 
			349.4,631.5 349.4,631.6 349.3,631.7 349.3,631.8 349.2,631.9 349.2,632 349.1,632.1 349.1,632.2 349,632.3 348.9,632.4 
			348.9,632.5 348.8,632.6 348.8,632.7 348.7,632.8 348.7,632.9 348.6,633 348.6,633.1 348.5,633.2 348.5,633.3 348.4,633.4 
			348.3,633.5 348.3,633.6 348.2,633.7 348.2,633.8 348.1,633.9 348.1,634 348,634.1 347.9,634.2 347.9,634.3 347.8,634.4 
			347.8,634.5 347.7,634.6 347.7,634.7 347.6,634.8 347.5,634.9 347.5,635 347.4,635.1 347.4,635.2 347.3,635.3 347.3,635.4 
			347.2,635.5 347.1,635.6 347.1,635.7 347,635.8 347,635.9 346.9,636 346.8,636.1 346.8,636.2 346.7,636.3 346.7,636.4 
			346.6,636.5 346.5,636.6 346.5,636.7 346.4,636.8 346.4,636.9 346.3,637 346.2,637.1 346.2,637.2 346.1,637.3 346.1,637.4 
			346,637.5 345.9,637.6 345.9,637.7 345.8,637.8 345.8,637.8 345.7,637.9 345.7,638 345.6,638.1 345.6,638.2 345.5,638.3 
			345.5,638.4 345.4,638.4 345.3,638.5 345.3,638.6 345.2,638.7 345.2,638.8 345.1,638.9 345.1,639 345,639 345,639.1 344.9,639.2 
			344.8,639.3 344.8,639.4 344.7,639.5 344.7,639.5 344.6,639.6 344.6,639.7 344.5,639.8 344.5,639.9 344.4,640 344.3,640 
			344.3,640.1 344.2,640.2 344.2,640.3 344.1,640.4 344.1,640.5 344,640.5 343.9,640.6 343.9,640.7 343.8,640.8 343.8,640.9 
			343.7,641 343.7,641 343.6,641.1 343.5,641.2 343.5,641.3 343.4,641.4 343.4,641.5 343.3,641.5 343.3,641.6 343.2,641.7 
			343.1,641.8 343.1,641.9 343,642 343,642 342.9,642.1 342.8,642.2 342.8,642.3 342.7,642.4 342.7,642.4 342.6,642.5 342.6,642.6 
			342.5,642.7 342.4,642.8 342.4,642.9 342.3,642.9 342.3,643 342.2,643.1 342.1,643.2 342.1,643.3 342,643.3 342,643.4 
			341.9,643.5 341.8,643.6 341.8,643.7 341.7,643.8 341.7,643.8 341.6,643.9 341.5,644 341.5,644.1 341.4,644.2 341.4,644.2 
			341.3,644.3 341.2,644.4 341.2,644.5 341.1,644.6 341.1,644.6 341,644.7 340.9,644.8 340.9,644.9 340.8,645 340.7,645 
			340.7,645.1 340.6,645.2 340.6,645.3 340.5,645.4 340.4,645.4 340.4,645.5 340.3,645.6 340.2,645.7 340.2,645.8 340.1,645.8 
			340.1,645.9 340,646 339.9,646.1 339.9,646.2 339.8,646.2 339.7,646.3 339.7,646.4 339.6,646.5 339.6,646.6 339.5,646.6 
			339.4,646.7 339.4,646.8 339.3,646.9 339.2,646.9 339.2,647 339.1,647.1 339.1,647.2 339,647.3 338.9,647.3 338.9,647.4 
			338.8,647.5 338.7,647.6 338.7,647.6 338.6,647.7 338.5,647.8 338.5,647.9 338.4,648 338.4,648 338.3,648.1 338.2,648.2 
			338.2,648.3 338.1,648.3 338,648.4 338,648.5 337.9,648.6 337.8,648.7 337.8,648.7 337.7,648.8 337.6,648.9 337.6,649 337.5,649 
			337.4,649.1 337.4,649.2 337.3,649.3 337.2,649.3 337.2,649.4 337.1,649.5 337,649.6 337,649.7 336.9,649.7 336.8,649.8 
			336.8,649.9 336.7,650 336.7,650 336.6,650.1 336.5,650.2 336.5,650.3 336.4,650.3 336.3,650.4 336.3,650.5 336.2,650.6 
			336.1,650.6 336,650.7 336,650.8 335.9,650.9 335.8,650.9 335.8,651 335.7,651.1 335.6,651.2 335.6,651.2 335.5,651.3 
			335.4,651.4 335.4,651.5 335.3,651.5 335.2,651.6 335.2,651.7 335.1,651.8 335,651.8 335,651.9 334.9,652 334.8,652.1 
			334.8,652.1 334.7,652.2 334.6,652.3 334.6,652.4 334.5,652.4 334.4,652.5 334.4,652.6 334.3,652.7 334.2,652.7 334.1,652.8 
			334.1,652.9 334,653 333.9,653 333.9,653.1 333.8,653.2 333.7,653.3 333.7,653.3 333.6,653.4 333.5,653.5 333.5,653.5 
			333.4,653.6 333.3,653.7 333.2,653.8 333.2,653.8 333.1,653.9 333,654 333,654.1 332.8,654.2 332.7,654.4 332.5,654.5 
			332.4,654.6 332.3,654.8 332.1,654.9 332,655.1 331.8,655.2 331.7,655.4 331.6,655.5 331.4,655.6 331.3,655.8 331.1,655.9 
			331,656.1 330.8,656.2 330.7,656.4 330.6,656.5 330.4,656.6 330.3,656.8 330.1,656.9 330,657.1 329.8,657.2 329.7,657.3 
			329.5,657.5 329.4,657.6 329.3,657.7 329.2,657.8 329.1,657.9 329,658 328.9,658.1 328.8,658.2 328.7,658.3 328.6,658.4 
			328.5,658.5 328.4,658.6 328.3,658.7 328.2,658.8 328.1,658.9 328,659 327.9,659.1 327.8,659.2 327.7,659.3 327.6,659.4 
			327.4,659.5 327.3,659.5 327.2,659.6 327.1,659.7 327,659.8 326.9,659.9 326.8,660 326.7,660.1 326.6,660.2 326.5,660.3 
			326.4,660.4 326.3,660.5 326.2,660.6 326.1,660.7 326,660.8 325.8,660.9 325.7,661 325.6,661.1 325.5,661.2 325.4,661.3 
			325.3,661.4 325.2,661.5 325.1,661.6 325,661.6 324.9,661.7 324.8,661.8 324.7,661.9 324.5,662 324.4,662.1 324.3,662.2 
			324.2,662.3 324.1,662.4 324,662.5 323.9,662.6 323.8,662.7 323.7,662.8 323.6,662.9 323.5,662.9 323.3,663 323.2,663.1 
			323.1,663.2 323,663.3 322.9,663.4 322.8,663.5 322.7,663.6 322.6,663.7 322.5,663.8 322.4,663.9 322.2,664 322.1,664 322,664.1 
			321.9,664.2 321.8,664.3 321.7,664.4 321.6,664.5 321.5,664.6 321.4,664.7 321.2,664.8 321.1,664.9 321,665 320.9,665 
			320.8,665.1 320.7,665.2 320.6,665.3 320.5,665.4 320.3,665.5 320.2,665.6 320.1,665.7 320,665.8 319.9,665.8 319.8,665.9 
			319.7,666 319.5,666.1 319.4,666.2 319.3,666.3 319.2,666.4 319.1,666.5 319,666.5 318.9,666.6 318.8,666.7 318.6,666.8 
			318.5,666.9 318.4,667 318.3,667.1 318.2,667.2 318.1,667.2 318,667.3 317.8,667.4 317.7,667.5 317.6,667.6 317.5,667.7 
			317.4,667.8 317.3,667.8 317.1,667.9 317,668 316.9,668.1 316.8,668.2 316.7,668.3 316.6,668.3 316.5,668.4 316.3,668.5 
			316.2,668.6 316.1,668.7 316,668.8 315.9,668.9 315.8,668.9 315.6,669 315.5,669.1 315.4,669.2 315.3,669.3 315.2,669.4 
			315.1,669.4 314.9,669.5 314.8,669.6 314.7,669.7 314.6,669.8 314.5,669.9 314.3,669.9 314.2,670 314.1,670.1 314,670.2 
			313.9,670.3 313.8,670.3 313.6,670.4 313.5,670.5 313.4,670.6 313.3,670.7 313.2,670.7 313.1,670.8 312.9,670.9 312.8,671 
			312.7,671.1 312.6,671.2 312.5,671.2 312.3,671.3 312.2,671.4 312.1,671.5 312,671.6 311.9,671.6 311.7,671.7 311.6,671.8 
			311.5,671.9 311.4,671.9 311.3,672 311.1,672.1 311,672.2 310.9,672.3 310.8,672.3 310.7,672.4 310.5,672.5 310.4,672.6 
			310.3,672.7 310.2,672.7 310.1,672.8 309.9,672.9 309.8,673 309.7,673 309.6,673.1 309.5,673.2 309.3,673.3 309.2,673.3 
			309.1,673.4 309,673.5 308.8,673.6 308.7,673.7 308.6,673.7 308.5,673.8 308.4,673.9 308.2,674 308.1,674 308,674.1 307.9,674.2 
			307.8,674.3 307.6,674.3 307.5,674.4 307.4,674.5 307.3,674.6 307.1,674.6 307,674.7 306.9,674.8 306.8,674.9 306.6,674.9 
			306.5,675 306.4,675.1 306.3,675.2 306.2,675.2 306,675.3 305.9,675.4 305.8,675.4 305.7,675.5 305.5,675.6 305.4,675.7 
			305.3,675.7 305.2,675.8 305,675.9 304.9,676 304.8,676 304.7,676.1 304.5,676.2 304.4,676.2 304.3,676.3 304.2,676.4 304,676.5 
			303.9,676.5 303.8,676.6 303.7,676.7 303.5,676.7 303.4,676.8 303.3,676.9 303.2,677 303,677 302.9,677.1 302.8,677.2 
			302.7,677.2 302.5,677.3 302.4,677.4 302.3,677.4 302.2,677.5 302,677.6 301.9,677.7 301.8,677.7 301.7,677.8 301.5,677.9 
			301.4,677.9 301.3,678 301.2,678.1 301,678.1 300.9,678.2 300.8,678.3 300.7,678.3 300.5,678.4 300.4,678.5 300.3,678.5 
			300.2,678.6 300,678.7 299.9,678.7 299.8,678.8 299.6,678.9 299.4,679 299.2,679.1 299,679.2 298.9,679.3 298.7,679.4 
			298.5,679.5 298.3,679.6 298.1,679.7 298,679.7 297.8,679.8 297.6,679.9 297.4,680 297.2,680.1 297,680.2 296.9,680.3 
			296.7,680.4 296.5,680.5 296.3,680.6 296.1,680.7 296,680.7 295.8,680.8 295.6,680.9 295.4,681 295.2,681.1 295,681.2 
			294.9,681.3 294.7,681.4 294.5,681.5 294.3,681.5 294.1,681.6 293.9,681.7 293.7,681.8 293.6,681.9 293.4,682 293.2,682.1 
			293,682.1 292.8,682.2 292.6,682.3 292.4,682.4 292.3,682.5 292.1,682.6 291.9,682.7 291.7,682.7 291.5,682.8 291.3,682.9 
			291.1,683 291,683.1 290.8,683.2 290.6,683.2 290.4,683.3 290.2,683.4 290,683.5 289.8,683.6 289.7,683.6 289.5,683.7 
			289.3,683.8 289.1,683.9 288.9,684 288.7,684 288.5,684.1 288.3,684.2 288.2,684.3 288,684.4 287.2,684.7 286.4,684.4 
			286.2,684.3 285.9,684.2 285.7,684.1 285.5,684 285.2,683.9 285,683.8 284.8,683.7 284.6,683.6 284.3,683.5 284.1,683.4 
			283.9,683.3 283.6,683.2 283.4,683.1 283.2,683 283,682.9 282.7,682.8 282.5,682.7 282.3,682.6 282.1,682.5 281.8,682.4 
			281.6,682.3 281.4,682.2 281.1,682.1 280.9,681.9 280.7,681.8 280.5,681.7 280.2,681.6 280,681.5 279.8,681.4 279.6,681.3 
			279.3,681.2 279.1,681.1 278.9,681 278.7,680.9 278.4,680.8 278.2,680.7 278,680.5 277.8,680.4 277.6,680.3 277.3,680.2 
			277.1,680.1 276.9,680 276.7,679.9 276.4,679.8 276.2,679.6 276,679.5 275.8,679.4 275.6,679.3 275.3,679.2 275.1,679.1 
			274.9,679 274.8,678.9 274.7,678.8 274.6,678.8 274.4,678.7 274.3,678.7 274.2,678.6 274.1,678.5 274,678.5 273.9,678.4 
			273.8,678.4 273.7,678.3 273.6,678.3 273.5,678.2 273.3,678.1 273.2,678.1 273.1,678 273,678 272.9,677.9 272.8,677.8 
			272.7,677.8 272.6,677.7 272.5,677.7 272.4,677.6 272.3,677.5 272.1,677.5 272,677.4 271.9,677.4 271.8,677.3 271.7,677.2 
			271.6,677.2 271.5,677.1 271.4,677.1 271.3,677 271.2,676.9 271.1,676.9 270.9,676.8 270.8,676.7 270.7,676.7 270.6,676.6 
			270.5,676.6 270.4,676.5 270.3,676.4 270.2,676.4 270.1,676.3 270,676.3 269.9,676.2 269.8,676.1 269.6,676.1 269.5,676 
			269.4,675.9 269.3,675.9 269.2,675.8 269.1,675.7 269,675.7 268.9,675.6 268.8,675.6 268.7,675.5 268.6,675.4 268.5,675.4 
			268.4,675.3 268.3,675.2 268.1,675.2 268,675.1 267.9,675.1 267.8,675 267.7,674.9 267.6,674.9 267.5,674.8 267.4,674.7 
			267.3,674.7 267.2,674.6 267.1,674.5 267,674.5 266.9,674.4 266.8,674.3 266.7,674.3 266.5,674.2 266.4,674.1 266.3,674.1 
			266.2,674 266.1,673.9 266,673.9 265.9,673.8 265.8,673.7 265.7,673.7 265.6,673.6 265.5,673.6 265.4,673.5 265.3,673.4 
			265.2,673.4 265.1,673.3 265,673.2 264.9,673.2 264.7,673.1 264.6,673 264.5,673 264.4,672.9 264.3,672.8 264.2,672.8 
			264.1,672.7 264,672.6 263.9,672.5 263.8,672.5 263.7,672.4 263.6,672.3 263.5,672.3 263.4,672.2 263.3,672.1 263.2,672.1 
			263.1,672 263,671.9 262.9,671.9 262.8,671.8 262.7,671.7 262.6,671.7 262.4,671.6 262.3,671.5 262.2,671.4 262.1,671.4 
			262,671.3 261.9,671.2 261.8,671.2 261.7,671.1 261.6,671 261.5,671 261.4,670.9 261.3,670.8 261.2,670.8 261.1,670.7 261,670.6 
			260.9,670.5 260.8,670.5 260.7,670.4 260.6,670.3 260.5,670.3 260.4,670.2 260.3,670.1 260.2,670 260.1,670 260,669.9 
			259.9,669.8 259.8,669.8 259.7,669.7 259.6,669.6 259.5,669.5 259.4,669.5 259.3,669.4 259.2,669.3 259.1,669.3 259,669.2 
			258.9,669.1 258.8,669 258.7,669 258.5,668.9 258.4,668.8 258.3,668.7 258.2,668.7 258.1,668.6 258,668.5 257.9,668.4 
			257.8,668.4 257.7,668.3 257.6,668.2 257.5,668.1 257.4,668.1 257.3,668 257.2,667.9 257.1,667.8 257,667.8 256.9,667.7 
			256.8,667.6 256.7,667.5 256.6,667.5 256.5,667.4 256.4,667.3 256.3,667.2 256.2,667.1 256.1,667.1 256,667 255.9,666.9 
			255.8,666.8 255.7,666.8 255.6,666.7 255.5,666.6 255.4,666.5 255.3,666.5 255.2,666.4 255.1,666.3 255,666.2 254.9,666.1 
			254.8,666.1 254.7,666 254.6,665.9 254.5,665.8 254.3,665.7 254.2,665.7 254.1,665.6 254,665.5 253.9,665.4 253.8,665.4 
			253.7,665.3 253.6,665.2 253.5,665.1 253.4,665 253.3,665 253.2,664.9 253.1,664.8 253,664.7 252.9,664.6 252.8,664.6 
			252.7,664.5 252.6,664.4 252.5,664.3 252.4,664.2 252.3,664.2 252.2,664.1 252.1,664 252,663.9 251.9,663.8 251.9,663.7 
			251.8,663.7 251.7,663.6 251.6,663.5 251.5,663.4 251.4,663.3 251.3,663.3 251.2,663.2 251.1,663.1 251,663 250.9,662.9 
			250.8,662.8 250.7,662.8 250.6,662.7 250.5,662.6 250.4,662.5 250.3,662.4 250.2,662.4 250.1,662.3 250,662.2 249.9,662.1 
			249.8,662 249.7,661.9 249.6,661.9 249.5,661.8 249.4,661.7 249.3,661.6 249.2,661.5 249.1,661.4 249,661.3 248.9,661.3 
			248.8,661.2 248.7,661.1 248.6,661 248.5,660.9 248.4,660.8 248.3,660.8 248.3,660.7 248.2,660.6 248.1,660.5 248,660.4 
			247.9,660.3 247.8,660.2 247.7,660.2 247.6,660.1 247.5,660 247.4,659.9 247.3,659.8 247.2,659.7 247.1,659.6 247,659.6 
			246.9,659.5 246.8,659.4 246.7,659.3 246.6,659.2 246.5,659.1 246.4,659 246.4,659 246.3,658.9 246.2,658.8 246.1,658.7 
			246,658.6 245.9,658.5 245.8,658.4 245.7,658.3 245.6,658.3 245.5,658.2 245.4,658.1 245.3,658 245.2,657.9 245.1,657.8 
			245,657.7 245,657.6 244.9,657.5 244.8,657.5 244.7,657.4 244.6,657.3 244.5,657.2 244.4,657.1 244.3,657 244.2,656.9 
			244.1,656.8 244,656.7 243.9,656.7 243.9,656.6 243.8,656.5 243.7,656.4 243.6,656.3 243.5,656.2 243.4,656.1 243.3,656 
			243.2,655.9 243.1,655.8 243,655.8 242.9,655.7 242.9,655.6 242.8,655.5 242.7,655.4 242.6,655.3 242.5,655.2 242.4,655.1 
			242.3,655 242.2,654.9 242.1,654.8 242,654.8 242,654.7 241.9,654.6 241.8,654.5 241.7,654.4 241.6,654.3 241.5,654.2 
			241.4,654.1 241.3,654 241.2,653.9 241.2,653.8 241.1,653.7 241,653.6 240.9,653.6 240.8,653.5 240.7,653.4 240.6,653.3 
			240.5,653.2 240.5,653.1 240.4,653 240.3,652.9 240.2,652.8 240.1,652.7 240,652.6 239.9,652.5 239.8,652.4 239.8,652.3 
			239.7,652.2 239.6,652.2 239.5,652.1 239.4,652 239.3,651.9 239.2,651.8 239.2,651.7 239.1,651.6 239,651.5 238.9,651.4 
			238.8,651.3 238.7,651.2 238.6,651.1 238.6,651 238.5,650.9 238.4,650.8 238.3,650.7 238.2,650.6 238.1,650.5 238.1,650.4 
			238,650.3 237.9,650.2 237.8,650.1 237.7,650.1 237.6,650 237.5,649.9 237.5,649.8 237.4,649.7 237.3,649.6 237.2,649.5 
			237.1,649.4 237,649.3 237,649.2 236.9,649.1 236.8,649 236.7,648.9 236.6,648.8 236.6,648.7 236.5,648.6 236.4,648.5 
			236.3,648.4 236.2,648.3 236.1,648.2 236.1,648.1 236,648 235.9,647.9 235.8,647.8 235.7,647.7 235.7,647.6 235.6,647.5 
			235.5,647.4 235.4,647.3 235.3,647.2 235.2,647.1 235.2,647 235.1,646.9 235,646.8 234.9,646.7 234.8,646.6 234.8,646.5 
			232.6,643.8 236,643.2 236.3,643.2 236.6,643.2 236.8,643.1 237.1,643.1 237.4,643 237.7,643 237.9,642.9 238.2,642.9 
			238.5,642.9 238.7,642.8 239,642.8 239.3,642.7 239.5,642.7 239.8,642.6 240.1,642.6 240.3,642.5 240.6,642.5 240.9,642.4 
			241.1,642.4 241.4,642.3 241.7,642.3 241.9,642.2 242.2,642.2 242.5,642.1 242.6,642.1 242.7,642.1 242.9,642 243,642 243.1,642 
			243.3,642 243.4,641.9 243.5,641.9 243.7,641.9 243.8,641.9 243.9,641.8 244.1,641.8 244.2,641.8 244.3,641.7 244.5,641.7 
			244.6,641.7 244.7,641.7 244.9,641.6 245,641.6 245.1,641.6 245.3,641.5 245.4,641.5 245.5,641.5 245.7,641.5 245.8,641.4 
			245.9,641.4 246.1,641.4 246.2,641.3 246.3,641.3 246.5,641.3 246.6,641.3 246.7,641.2 246.9,641.2 247,641.2 247.1,641.1 
			247.3,641.1 247.4,641.1 247.5,641 247.7,641 247.8,641 247.9,640.9 248,640.9 248.2,640.9 248.3,640.9 248.4,640.8 248.6,640.8 
			248.7,640.8 248.8,640.7 249,640.7 249.1,640.7 249.2,640.6 249.4,640.6 249.5,640.6 249.6,640.5 249.8,640.5 249.9,640.5 
			250,640.4 250.2,640.4 250.3,640.4 250.4,640.3 250.6,640.3 250.7,640.3 250.8,640.2 251,640.2 251.1,640.2 251.2,640.1 
			251.3,640.1 251.5,640.1 251.6,640 251.7,640 251.9,640 252,639.9 252.1,639.9 252.3,639.9 252.4,639.8 252.5,639.8 252.7,639.7 
			252.8,639.7 252.9,639.7 253.1,639.6 253.3,639.6 253.5,639.5 253.7,639.5 253.9,639.4 254.2,639.3 254.4,639.3 254.6,639.2 
			254.8,639.1 255,639.1 255.2,639 255.3,639 255.4,639 255.5,638.9 255.6,638.9 255.7,638.9 255.8,638.8 255.9,638.8 256,638.8 
			256.1,638.7 256.3,638.7 256.4,638.7 256.5,638.7 256.6,638.6 256.7,638.6 256.8,638.6 256.9,638.5 257,638.5 257.1,638.4 
			257.2,638.4 257.4,638.4 257.5,638.3 257.6,638.3 257.7,638.3 257.8,638.2 257.9,638.2 258,638.2 258.1,638.1 258.2,638.1 
			258.3,638.1 258.4,638 258.6,638 258.7,638 258.8,637.9 258.9,637.9 259,637.9 259.1,637.8 259.2,637.8 259.3,637.7 259.4,637.7 
			259.5,637.7 259.6,637.6 259.8,637.6 259.9,637.6 260,637.5 260.1,637.5 260.2,637.5 260.3,637.4 260.4,637.4 260.5,637.3 
			260.6,637.3 260.7,637.3 260.8,637.2 261,637.2 261.1,637.2 261.2,637.1 261.3,637.1 261.4,637 261.5,637 261.6,637 261.7,636.9 
			261.8,636.9 261.9,636.9 262,636.8 262.1,636.8 262.2,636.7 262.4,636.7 262.5,636.7 262.6,636.6 262.7,636.6 262.8,636.5 
			262.9,636.5 263,636.5 263.1,636.4 263.2,636.4 263.3,636.3 263.4,636.3 263.5,636.3 263.7,636.2 263.8,636.2 263.9,636.1 
			264,636.1 264.1,636.1 264.2,636 264.3,636 264.4,635.9 264.5,635.9 264.6,635.9 264.7,635.8 264.8,635.8 264.9,635.7 265,635.7 
			265.2,635.6 265.3,635.6 265.4,635.6 265.5,635.5 265.6,635.5 265.7,635.4 265.8,635.4 265.9,635.3 266,635.3 266.1,635.3 
			266.2,635.2 266.3,635.2 266.4,635.1 266.5,635.1 266.6,635 266.7,635 266.9,635 267,634.9 267.1,634.9 267.2,634.8 267.3,634.8 
			267.4,634.7 267.5,634.7 267.6,634.6 267.7,634.6 267.8,634.6 267.9,634.5 268,634.5 268.1,634.4 268.2,634.4 268.3,634.3 
			268.4,634.3 268.5,634.2 268.6,634.2 268.8,634.1 268.9,634.1 269,634.1 269.1,634 269.2,634 269.3,633.9 269.4,633.9 
			269.5,633.8 269.6,633.8 269.7,633.7 269.8,633.7 269.9,633.6 270,633.6 270.1,633.5 270.2,633.5 270.3,633.4 270.4,633.4 
			270.5,633.3 270.6,633.3 270.7,633.2 270.8,633.2 270.9,633.2 271.1,633.1 271.2,633.1 271.3,633 271.4,633 271.5,632.9 
			271.6,632.9 271.7,632.8 271.8,632.8 271.9,632.7 272,632.7 272.1,632.6 272.2,632.6 272.3,632.5 272.4,632.5 272.5,632.4 
			272.6,632.4 272.7,632.3 272.8,632.3 272.9,632.2 273,632.2 273.1,632.1 273.2,632.1 273.3,632 273.4,631.9 273.5,631.9 
			273.6,631.8 273.7,631.8 273.8,631.7 273.9,631.7 274,631.6 274.1,631.6 274.2,631.5 274.3,631.5 274.4,631.4 274.5,631.4 
			274.6,631.3 274.7,631.3 274.8,631.2 274.9,631.2 275,631.1 275.1,631 275.2,631 275.4,630.9 275.4,630.9 275.6,630.8 
			275.7,630.8 275.8,630.7 275.9,630.7 276,630.6 276.1,630.6 276.2,630.5 276.3,630.4 276.4,630.4 276.5,630.3 276.6,630.3 
			276.7,630.2 276.8,630.2 276.9,630.1 277,630.1 277.1,630 277.2,629.9 277.3,629.9 277.4,629.8 277.5,629.8 277.6,629.7 
			277.7,629.7 277.8,629.6 277.8,629.5 277.9,629.5 278,629.4 278.1,629.4 278.2,629.3 278.3,629.3 278.4,629.2 278.5,629.1 
			278.6,629.1 278.7,629 278.8,629 278.9,628.9 279,628.8 279.1,628.8 279.2,628.7 279.3,628.7 279.4,628.6 279.5,628.5 
			279.6,628.5 279.7,628.4 279.8,628.4 279.9,628.3 280,628.2 280.1,628.2 280.2,628.1 280.3,628.1 280.3,628 280.4,628 
			280.5,627.9 280.6,627.9 280.7,627.8 280.7,627.8 280.8,627.7 280.9,627.7 281,627.6 281.1,627.6 281.2,627.5 281.2,627.5 
			281.3,627.4 281.4,627.4 281.5,627.3 281.6,627.2 281.6,627.2 281.7,627.1 281.8,627.1 281.9,627 282,627 282,626.9 282.1,626.9 
			282.2,626.8 282.3,626.8 282.4,626.7 282.4,626.7 282.5,626.6 282.6,626.5 282.7,626.5 282.8,626.4 282.8,626.4 282.9,626.3 
			283,626.3 283.1,626.2 283.2,626.2 283.2,626.1 283.3,626.1 283.4,626 283.5,625.9 283.6,625.9 283.6,625.8 283.7,625.8 
			283.8,625.7 283.9,625.7 284,625.6 284,625.6 284.1,625.5 284.2,625.4 284.3,625.4 284.4,625.3 284.4,625.3 284.5,625.2 
			284.6,625.2 284.7,625.1 284.7,625 284.8,625 284.9,624.9 285,624.9 285.1,624.8 285.1,624.8 285.2,624.7 285.3,624.6 
			285.4,624.6 285.5,624.5 285.5,624.5 285.6,624.4 285.7,624.3 285.8,624.3 285.8,624.2 285.9,624.2 286,624.1 286.1,624.1 
			286.1,624 286.2,623.9 286.3,623.9 286.4,623.8 286.5,623.8 286.5,623.7 286.6,623.6 286.7,623.6 286.8,623.5 286.8,623.5 
			286.9,623.4 287,623.3 287.1,623.3 287.1,623.2 287.2,623.2 287.3,623.1 287.4,623 287.4,623 287.5,622.9 287.6,622.9 
			287.7,622.8 287.7,622.7 287.8,622.7 287.9,622.6 288,622.6 288,622.5 288.1,622.4 288.2,622.4 288.3,622.3 288.3,622.3 
			288.4,622.2 288.5,622.1 288.6,622.1 288.6,622 288.7,621.9 288.8,621.9 288.9,621.8 288.9,621.8 289,621.7 289.1,621.6 
			289.2,621.6 289.2,621.5 289.3,621.4 289.4,621.4 289.5,621.3 289.5,621.3 289.6,621.2 289.7,621.1 289.8,621.1 289.8,621 
			289.9,620.9 290,620.9 290,620.8 290.1,620.8 290.1,620.7 290.2,620.7 290.2,620.6 290.3,620.6 290.3,620.5 290.4,620.5 
			290.5,620.4 290.5,620.4 290.6,620.4 290.6,620.3 290.7,620.3 290.7,620.2 290.8,620.2 290.8,620.1 290.9,620.1 290.9,620 
			291,620 291,619.9 291.1,619.9 291.1,619.8 291.2,619.8 291.2,619.7 291.3,619.7 291.4,619.6 291.4,619.6 291.5,619.5 
			291.5,619.5 291.6,619.4 291.6,619.4 291.7,619.3 291.7,619.3 291.8,619.3 291.8,619.2 291.9,619.2 291.9,619.1 292,619.1 
			292,619 292.1,619 292.1,618.9 292.2,618.9 292.2,618.8 292.3,618.8 292.3,618.7 292.4,618.7 292.4,618.6 292.5,618.6 
			292.5,618.5 292.6,618.5 292.6,618.4 292.7,618.4 292.7,618.3 292.8,618.3 292.8,618.2 292.9,618.2 292.9,618.1 293,618.1 
			293.1,618 293.1,618 293.2,617.9 293.2,617.9 293.3,617.8 293.3,617.8 293.4,617.7 293.4,617.7 293.5,617.6 293.5,617.6 
			293.6,617.5 293.6,617.5 293.7,617.4 293.7,617.4 293.8,617.3 293.8,617.3 293.9,617.2 293.9,617.2 294,617.1 294,617.1 
			294.1,617 294.1,617 294.2,616.9 294.2,616.9 294.3,616.8 294.3,616.8 294.3,616.7 294.4,616.7 294.4,616.6 294.5,616.6 
			294.5,616.5 294.6,616.5 294.6,616.4 294.7,616.3 294.7,616.3 294.8,616.2 294.8,616.2 294.9,616.1 294.9,616.1 295,616 295,616 
			295.1,615.9 295.1,615.9 295.2,615.8 295.2,615.8 295.3,615.7 295.3,615.7 295.4,615.6 295.4,615.6 295.5,615.5 295.5,615.5 
			295.6,615.4 295.6,615.4 295.7,615.3 295.7,615.3 295.8,615.2 295.8,615.1 295.8,615.1 295.9,615 295.9,615 296,614.9 296,614.9 
			296.1,614.8 296.1,614.8 296.2,614.7 296.2,614.7 296.3,614.6 296.3,614.6 296.4,614.5 296.4,614.4 296.4,614.4 296.5,614.4 
			296.5,614.3 296.5,614.3 296.6,614.3 296.6,614.2 296.6,614.2 296.7,614.1 296.7,614.1 296.7,614.1 296.8,614 296.8,614 
			296.8,613.9 296.9,613.9 296.9,613.9 296.9,613.8 297,613.8 297,613.7 297,613.7 297.1,613.7 297.1,613.6 297.1,613.6 
			297.2,613.5 297.2,613.5 297.2,613.5 297.3,613.4 297.3,613.4 297.3,613.3 297.4,613.3 297.4,613.3 297.4,613.2 297.5,613.2 
			297.5,613.2 297.5,613.1 297.6,613.1 297.6,613 297.6,613 297.7,612.9 297.7,612.9 297.7,612.9 297.8,612.8 297.8,612.8 
			297.8,612.7 297.9,612.7 297.9,612.7 297.9,612.6 298,612.6 298,612.5 298,612.5 298,612.5 298.1,612.4 298.1,612.4 298.1,612.3 
			298.2,612.3 298.2,612.3 298.2,612.2 298.3,612.2 298.3,612.1 298.3,612.1 298.4,612.1 298.4,612 298.4,612 298.5,611.9 
			298.5,611.9 298.5,611.9 298.5,611.8 298.6,611.8 298.6,611.7 298.6,611.7 298.7,611.6 298.7,611.6 298.7,611.6 298.8,611.5 
			298.8,611.5 298.8,611.4 298.9,611.4 298.9,611.4 298.9,611.3 298.9,611.3 299,611.2 299,611.2 299,611.2 299.1,611.1 
			299.1,611.1 299.1,611 299.2,611 299.2,610.9 299.2,610.9 299.2,610.9 299.3,610.8 299.3,610.8 299.3,610.7 299.4,610.7 
			299.4,610.6 299.4,610.6 299.4,610.6 299.5,610.5 299.5,610.5 299.5,610.4 299.6,610.4 299.6,610.4 299.6,610.3 299.6,610.3 
			299.7,610.2 299.7,610.2 299.7,610.1 299.8,610.1 299.8,610.1 299.8,610 299.8,610 299.9,609.9 299.9,609.9 299.9,609.8 
			300,609.8 300,609.8 300,609.7 300,609.7 300.1,609.6 300.1,609.6 300.1,609.5 300.2,609.5 300.2,609.4 300.2,609.4 300.2,609.4 
			300.3,609.3 300.3,609.3 300.3,609.2 300.4,609.2 300.4,609.1 300.4,609.1 300.4,609.1 300.5,609 300.5,609 300.5,608.9 
			300.6,608.9 300.6,608.8 300.6,608.8 300.6,608.7 300.6,608.7 300.7,608.7 300.7,608.6 300.7,608.6 300.7,608.6 300.8,608.5 
			300.8,608.5 300.8,608.4 300.8,608.4 300.9,608.4 300.9,608.3 300.9,608.3 300.9,608.3 300.9,608.2 300.9,608.2 301,608.2 
			301,608.1 301,608.1 301,608.1 301,608 301.1,608 301.1,608 301.1,607.9 301.1,607.9 301.1,607.9 301.1,607.9 301.2,607.8 
			301.2,607.8 301.2,607.8 301.2,607.7 301.2,607.7 301.3,607.7 301.3,607.6 301.3,607.6 301.3,607.6 301.3,607.5 301.3,607.5 
			301.3,607.5 301.4,607.5 301.4,607.4 301.4,607.4 301.4,607.4 301.4,607.3 301.4,607.3 301.5,607.3 301.5,607.3 301.5,607.2 
			301.5,607.2 301.5,607.2 301.5,607.1 301.5,607.1 301.6,607.1 301.6,607.1 301.6,607 301.6,606.9 301.7,606.9 301.7,606.8 
			301.7,606.8 301.8,606.7 301.8,606.7 301.8,606.6 301.8,606.5 301.9,606.5 301.9,606.4 301.9,606.4 302,606.3 302,606.2 
			302,606.2 302,606.1 302.1,606.1 302.1,606 302.1,606 302.2,605.9 302.2,605.8 302.2,605.8 302.2,605.7 302.3,605.7 302.3,605.6 
			302.3,605.5 302.3,605.5 302.4,605.5 302.4,605.4 302.4,605.4 302.4,605.3 302.5,605.2 302.5,605.2 302.5,605.1 302.6,605 
			302.6,605 302.6,604.9 302.7,604.8 302.7,604.8 302.7,604.7 302.7,604.6 302.8,604.6 302.8,604.5 302.8,604.5 302.9,604.4 
			302.9,604.3 302.9,604.3 302.9,604.2 303,604.1 303,604.1 303,604 303.1,603.9 303.1,603.9 303.1,603.8 303.1,603.7 303.2,603.7 
			303.2,603.6 303.2,603.5 303.2,603.5 303.3,603.4 303.3,603.3 303.3,603.3 303.4,603.2 303.4,603.1 303.4,603.1 303.4,603 
			303.5,602.9 303.5,602.9 303.5,602.8 303.5,602.7 303.6,602.7 303.6,602.6 303.6,602.5 303.6,602.5 303.7,602.4 303.7,602.4 
			303.7,602.3 303.7,602.2 303.8,602.2 303.8,602.1 303.8,602 303.8,602 303.9,601.9 303.9,601.8 303.9,601.8 303.9,601.7 
			304,601.6 304,601.6 304,601.5 304,601.4 304.1,601.4 304.1,601.3 304.1,601.2 304.1,601.2 304.2,601.1 304.2,601 304.2,601 
			304.2,600.9 304.3,600.8 304.3,600.7 304.3,600.7 304.3,600.6 304.3,600.5 304.4,600.5 304.4,600.4 304.4,600.3 304.4,600.3 
			304.5,600.2 304.5,600.1 304.5,600.1 304.5,600 304.5,599.9 304.6,599.9 304.6,599.8 304.6,599.7 304.6,599.7 304.7,599.6 
			304.7,599.5 304.7,599.5 304.7,599.4 304.7,599.3 304.8,599.3 304.8,599.2 304.8,599.1 304.8,599.1 304.9,599 304.9,598.9 
			304.9,598.9 304.9,598.8 304.9,598.7 305,598.7 305,598.6 305,598.5 305,598.5 305,598.4 305.1,598.3 305.1,598.3 305.1,598.2 
			305.1,598.1 305.1,598 305.2,598 305.2,597.9 305.2,597.8 305.2,597.8 305.3,597.7 305.3,597.6 305.3,597.4 305.4,597.3 
			305.4,597.2 305.5,597 305.5,596.9 305.5,596.9 305.5,596.8 305.5,596.7 305.6,596.6 305.6,596.6 305.6,596.4 305.7,596.3 
			305.7,596.1 305.7,596 305.8,595.8 305.8,595.7 305.9,595.5 305.9,595.4 305.9,595.2 306,595.1 306,594.9 306.1,594.8 
			306.1,594.6 306.1,594.5 306.2,594.3 306.2,594.2 306.3,594 306.3,593.9 306.3,593.7 306.4,593.6 306.4,593.4 306.4,593.3 
			306.5,593.1 306.5,593 306.5,592.8 306.6,592.7 306.6,592.5 306.7,592.4 306.7,592.2 306.7,592.1 306.8,591.9 306.8,591.8 
			306.8,591.6 306.9,591.5 306.9,591.3 306.9,591.1 307,591 307,590.8 307,590.7 307.1,590.5 307.1,590.4 307.1,590.2 307.2,590.1 
			307.2,589.9 307.2,589.8 307.2,589.6 307.3,589.5 307.3,589.3 307.3,589.2 307.4,589 307.4,588.9 307.4,588.7 307.5,588.6 
			307.5,588.4 307.5,588.3 307.5,588.1 307.6,587.9 307.6,587.8 307.6,587.6 307.7,587.5 307.7,587.3 307.7,587.2 307.7,587 
			307.8,586.8 307.8,586.7 307.8,586.5 307.8,586.4 307.9,586.3 307.9,586.2 307.9,586.1 307.9,586.1 307.9,586 307.9,585.9 
			307.9,585.8 308,585.7 308,585.6 308,585.5 308,585.4 308,585.4 308,585.3 308,585.2 308,585.1 308.1,585 308.1,584.9 
			308.1,584.8 308.1,584.8 308.1,584.7 308.1,584.6 308.1,584.5 308.2,584.4 308.2,584.3 308.2,584.2 308.2,584.2 308.2,584.1 
			308.2,584 308.2,583.9 308.2,583.8 308.3,583.7 308.3,583.6 308.3,583.6 308.3,583.5 308.3,583.4 308.3,583.3 308.3,583.2 
			308.3,583.1 308.3,583 308.4,583 308.4,582.9 308.4,582.8 308.4,582.7 308.4,582.6 308.4,582.5 308.4,582.4 308.4,582.3 
			308.4,582.3 308.4,582.2 308.5,582.1 308.5,582 308.5,581.9 308.5,581.8 308.5,581.7 308.5,581.6 308.5,581.4 308.5,581.3 
			308.6,581.2 308.6,581.1 308.6,580.9 308.6,580.8 308.6,580.7 308.6,580.5 308.6,580.4 308.7,580.3 308.7,580.2 308.7,580 
			308.7,579.9 308.7,579.8 308.7,579.6 308.7,579.5 308.7,579.4 308.7,579.3 308.8,579.1 308.8,579 308.8,578.9 308.8,578.7 
			308.8,578.6 308.8,578.5 308.8,578.4 308.8,578.2 308.8,578.1 308.8,578 308.9,577.8 308.9,577.7 308.9,577.4 308.9,577.2 
			308.9,576.9 308.9,576.7 309,576.4 309,576.2 309,575.9 309,575.6 309,575.1 309.1,574.6 309.1,573.6 309.2,572.2 309.3,570.7 
			309.4,569.3 309.4,568.6 309.4,567.9 309.5,567.2 309.5,566.5 309.5,565.8 309.6,565.1 309.6,564.3 309.6,563.6 309.7,562.9 
			309.7,562.2 309.7,561.6 309.8,560.9 309.8,560.6 309.8,560.3 309.8,560 309.8,559.6 309.8,559.3 309.8,559 309.8,558.7 
			309.8,558.4 309.9,558 309.9,557.7 309.9,557.4 309.9,557.1 309.9,556.7 309.9,556.4 309.9,556.1 309.9,555.8 309.9,555.5 
			309.9,555.1 309.9,554.8 309.9,554.5 309.9,554.2 309.9,553.9 309.9,553.5 309.9,553.2 309.9,553 310,552.9 310,552.7 310,552.6 
			310,552.4 310,552.2 310,552.1 310,551.9 310,422.9 310,372.8 309.6,323.6 309.6,321.5 311.7,321.5 462.7,321.5 462.8,323.5 
			462.8,326.6 462.9,329.7 462.9,332.8 462.9,335.9 463,339 463,342.2 463,345.3 463,348.4 463,351.5 463.1,354.6 463.1,357.7 
			463.1,360.8 463.1,363.9 463.1,367 463.1,373.2 463.1,375.3 363.7,375.1 		"/>
		<path class="st1" d="M301.2,607.7"/>
		<path class="st1" d="M301,608"/>
		<path class="st1" d="M300.9,608.2"/>
		<path class="st1" d="M300.8,608.4"/>
		<path class="st1" d="M300.8,608.5"/>
		<path class="st1" d="M300.7,608.6"/>
		<path class="st1" d="M300.7,608.7"/>
		<path class="st1" d="M300.6,608.8"/>
		<path class="st1" d="M300.5,608.9"/>
		<path class="st1" d="M300.5,609"/>
		<path class="st1" d="M300.4,609.1"/>
		<polygon class="st1" points="409.3,420.9 463,420.9 463,551.9 463,552.3 463,552.7 463,553.1 463,553.6 463,554 463,554.4 
			463,554.8 463,555.3 463,555.7 463,556.2 463,556.6 463,557 463,557.5 463,558 463,558.4 463,558.9 463,559.3 463,559.8 
			462.9,560.3 462.9,560.8 462.9,561.2 462.9,561.7 462.9,562.2 462.9,562.7 462.9,563.2 462.8,563.7 462.8,564.2 462.8,564.7 
			462.8,565.2 462.8,565.7 462.8,566.2 462.8,566.7 462.7,567.2 462.7,567.7 462.7,568.2 462.7,568.8 462.7,569.3 462.6,569.8 
			462.6,570.3 462.6,570.8 462.6,571.4 462.5,571.9 462.5,572.4 462.5,572.9 462.5,573.5 462.4,574 462.4,574.5 462.4,575.1 
			462.4,575.6 462.3,576.2 462.3,576.7 462.3,577.2 462.2,577.8 462.2,578.3 462.2,578.9 462.1,579.4 462.1,579.9 462.1,580.5 
			462,581 462,581.6 462,582.1 461.9,582.7 461.9,583.2 461.9,583.7 461.8,584.3 461.8,584.8 461.8,585.4 461.7,585.9 461.7,586.5 
			461.6,587 461.6,587.5 461.6,588.1 461.5,588.6 461.5,589.2 461.4,589.7 461.4,590.2 461.3,590.8 461.3,591.3 461.2,591.9 
			461.2,592.4 461.2,592.9 461.1,593.5 461.1,594 461,594.5 461,595 460.9,595.6 460.9,596.1 460.8,596.6 460.8,597.1 460.7,597.7 
			460.6,598.2 460.6,598.7 460.5,599.2 460.5,599.7 460.4,600.2 460.4,600.7 460.3,601.2 460.3,601.5 460.3,601.7 460.2,602 
			460.2,602.2 460.2,602.5 460.1,602.7 460.1,603 460.1,603.2 460.1,603.5 460,603.7 460,604 460,604.2 459.9,604.4 459.9,604.7 
			459.9,604.9 459.8,605.2 459.8,605.4 459.8,605.7 459.7,605.9 459.7,606.1 459.7,606.4 459.7,606.6 459.6,606.8 459.6,607.1 
			459.6,607.3 459.5,607.5 459.5,607.8 459.5,608 459.4,608.2 459.4,608.5 459.4,608.7 459.3,608.9 459.3,609.2 459.3,609.4 
			459.2,609.6 459.2,609.8 459.2,610.1 459.1,610.3 459.1,610.5 459.1,610.7 459,610.9 459,611.2 458.9,611.4 458.9,611.6 
			458.9,611.8 458.8,612 458.8,612.2 458.8,612.5 458.7,612.7 458.7,612.9 458.7,613.1 458.6,613.3 458.6,613.5 458.5,613.7 
			458.5,613.9 458.5,614.1 458.4,614.3 458.4,614.5 458.4,614.7 458.3,614.9 458.3,615.1 458.2,615.3 458.2,615.7 458.1,616 
			458,616.3 458,616.7 457.9,617 457.8,617.3 457.8,617.7 457.7,618 457.6,618.4 457.6,618.7 457.5,619 457.4,619.4 457.4,619.7 
			457.3,620 457.2,620.4 457.2,620.7 457.1,621.1 457,621.4 456.9,621.7 456.9,622.1 456.8,622.4 456.7,622.7 456.6,623.1 
			456.6,623.4 456.5,623.7 456.4,624.1 456.3,624.4 456.3,624.8 456.2,625.1 456.1,625.4 456,625.8 456,626.1 455.9,626.4 
			455.8,626.8 455.7,627.1 455.7,627.4 455.6,627.8 455.5,628.1 455.4,628.4 455.3,628.8 455.2,629.1 455.2,629.4 455.1,629.8 
			455,630.1 454.9,630.4 454.8,630.8 454.8,631.1 454.7,631.5 454.6,631.8 454.5,632.1 454.4,632.5 454.3,632.8 454.2,633.1 
			454.2,633.5 454.1,633.8 454,634.1 453.9,634.4 453.8,634.8 453.7,635.1 453.6,635.4 453.5,635.8 453.5,636.1 453.4,636.4 
			453.3,636.8 453.2,637.1 453.1,637.4 453,637.8 452.9,638.1 452.8,638.4 452.7,638.8 452.6,639.1 452.5,639.4 452.4,639.8 
			452.3,640.1 452.2,640.4 452.1,640.7 452,641.1 452,641.4 451.9,641.7 451.8,642.1 451.7,642.4 451.6,642.7 451.5,643.1 
			451.4,643.4 451.3,643.7 451.2,644 451.1,644.4 451,644.7 450.8,645 450.7,645.4 450.6,645.7 450.5,646 450.4,646.3 450.3,646.7 
			450.2,647 450.1,647.3 450,647.6 449.9,648 449.8,648.3 449.7,648.6 449.6,649 449.5,649.3 449.4,649.6 449.2,649.9 449.1,650.3 
			449,650.6 448.9,650.9 448.8,651.2 448.7,651.6 448.6,651.9 448.5,652.2 448.3,652.5 448.2,652.9 448.1,653.2 448,653.5 
			447.9,653.8 447.8,654.2 447.6,654.5 447.5,654.8 447.4,655.1 447.3,655.4 447.2,655.8 447.1,656.1 446.9,656.4 446.8,656.7 
			446.7,657.1 446.6,657.4 446.5,657.5 446.4,657.7 446.4,657.9 446.3,658.1 446.2,658.4 446.1,658.6 446,658.8 445.9,659.1 
			445.8,659.3 445.7,659.5 445.6,659.7 445.6,660 445.5,660.2 445.4,660.4 445.3,660.6 445.2,660.9 445.1,661.1 445,661.3 
			444.9,661.5 444.8,661.8 444.7,662 444.6,662.2 444.5,662.4 444.4,662.7 444.4,662.9 444.3,663.1 444.2,663.3 444.1,663.6 
			444,663.8 443.9,664 443.8,664.2 443.7,664.5 443.6,664.7 443.5,664.9 443.4,665.1 443.3,665.3 443.2,665.6 443.1,665.8 443,666 
			442.9,666.2 442.8,666.5 442.7,666.7 442.6,666.9 442.5,667.1 442.4,667.3 442.3,667.6 442.2,667.8 442.1,668 442,668.2 
			441.9,668.5 441.8,668.7 441.7,668.9 441.6,669.1 441.5,669.3 441.4,669.6 441.3,669.8 441.2,670 441.1,670.2 441,670.4 
			440.9,670.7 440.8,670.9 440.7,671.1 440.6,671.3 440.5,671.5 440.4,671.8 440.3,672 440.2,672.2 440.1,672.4 440,672.6 
			439.8,672.9 439.7,673.1 439.6,673.3 439.5,673.5 439.4,673.7 439.3,673.9 439.2,674.2 439.1,674.4 439,674.6 438.9,674.8 
			438.8,675 438.7,675.3 438.6,675.5 438.4,675.7 438.3,675.9 438.2,676.1 438.1,676.3 438,676.6 437.9,676.8 437.8,677 
			437.7,677.2 437.6,677.4 437.4,677.6 437.3,677.8 437.2,678.1 437.1,678.3 437,678.5 436.9,678.7 436.8,678.9 436.6,679.1 
			436.5,679.4 436.4,679.6 436.3,679.8 436.2,680 436.1,680.2 436,680.4 435.8,680.6 435.7,680.8 435.6,681.1 435.5,681.3 
			435.4,681.5 435.2,681.7 435.1,681.9 435,682.1 434.9,682.3 434.8,682.5 434.7,682.8 434.5,683 434.4,683.2 434.3,683.4 
			434.2,683.6 434.1,683.8 433.9,684 433.8,684.2 433.7,684.5 433.6,684.7 433.4,684.9 433.3,685.1 433.2,685.3 433.1,685.5 
			433,685.7 432.9,685.9 432.8,686 432.7,686.2 432.6,686.4 432.5,686.6 432.4,686.7 432.3,686.9 432.2,687.1 432.1,687.2 
			432,687.4 431.9,687.6 431.8,687.7 431.7,687.9 431.6,688.1 431.4,688.2 431.3,688.4 431.2,688.6 431.1,688.7 431,688.9 
			430.9,689.1 430.8,689.2 430.7,689.4 430.6,689.6 430.5,689.7 430.4,689.9 430.3,690.1 430.2,690.2 430.1,690.4 430,690.6 
			429.9,690.7 429.8,690.9 429.7,691.1 429.6,691.2 429.5,691.4 429.4,691.6 429.3,691.7 429.2,691.9 429.1,692.1 429,692.2 
			428.8,692.4 428.7,692.6 428.6,692.7 428.5,692.9 428.4,693 428.3,693.2 428.2,693.4 428.1,693.5 428,693.7 427.9,693.9 
			427.8,694 427.7,694.2 427.6,694.4 427.4,694.5 427.3,694.7 427.2,694.8 427.1,695 427,695.2 426.9,695.3 426.8,695.5 
			426.7,695.7 426.6,695.8 426.5,696 426.4,696.1 426.2,696.3 426.1,696.5 426,696.6 425.9,696.8 425.8,697 425.7,697.1 
			425.6,697.3 425.5,697.4 425.4,697.6 425.2,697.8 425.1,697.9 425,698.1 424.9,698.2 424.8,698.4 424.7,698.6 424.6,698.7 
			424.5,698.9 424.3,699 424.2,699.2 424.1,699.4 424,699.5 423.9,699.7 423.8,699.8 423.7,700 423.5,700.2 423.4,700.3 
			423.3,700.5 423.2,700.6 423.1,700.8 423,701 422.9,701.1 422.7,701.3 422.6,701.4 422.5,701.6 422.4,701.8 422.3,701.9 
			422.2,702.1 422,702.2 421.9,702.4 421.8,702.5 421.7,702.7 421.6,702.9 421.5,703 421.3,703.2 421.2,703.3 421.1,703.5 
			421,703.6 420.9,703.8 420.8,704 420.6,704.1 420.5,704.3 420.4,704.4 420.3,704.6 420.2,704.7 420,704.9 419.9,705 419.8,705.2 
			419.7,705.4 419.6,705.5 419.4,705.7 419.3,705.8 419.2,706 419.1,706.1 419,706.3 418.8,706.4 418.7,706.6 418.6,706.8 
			418.5,706.9 418.4,707.1 418.2,707.2 418.1,707.4 418,707.5 417.9,707.7 417.8,707.8 417.6,708 417.5,708.1 417.4,708.3 
			417.3,708.4 417.1,708.6 417,708.8 416.9,708.9 416.8,709.1 416.6,709.2 416.5,709.4 416.4,709.5 416.3,709.7 416.2,709.8 
			416,710 415.9,710.1 415.8,710.3 415.7,710.4 415.5,710.6 415.4,710.7 415.3,710.9 415.2,711 415,711.2 414.9,711.3 414.8,711.5 
			414.7,711.6 414.5,711.8 414.4,711.9 414.3,712.1 414.2,712.2 414,712.4 413.9,712.5 413.8,712.7 413.6,712.8 413.5,713 
			413.4,713.1 413.3,713.3 413.1,713.4 413,713.6 412.9,713.7 412.8,713.9 412.6,714 412.5,714.2 412.4,714.3 412.2,714.5 
			412.1,714.6 412,714.8 411.9,714.9 411.7,715.1 411.6,715.2 411.5,715.4 411.3,715.5 411.2,715.7 411.1,715.8 411,716 
			410.8,716.1 410.7,716.3 410.6,716.4 410.4,716.5 410.3,716.7 410.2,716.8 410,717 409.9,717.1 409.8,717.3 409.7,717.4 
			409.5,717.6 409.4,717.7 409.3,717.9 409.1,718 409,718.2 408.9,718.3 408.7,718.4 408.6,718.6 408.5,718.7 408.3,718.9 
			408.2,719 408.1,719.2 407.9,719.3 407.8,719.5 407.7,719.6 407.5,719.7 407.4,719.9 407.3,720 407.1,720.2 407,720.3 
			406.9,720.5 406.7,720.6 406.6,720.8 406.5,720.9 406.3,721 406.2,721.2 406.1,721.3 405.9,721.5 405.8,721.6 405.7,721.8 
			405.5,721.9 405.4,722 405.3,722.2 405.1,722.3 405,722.5 404.9,722.6 404.7,722.7 404.6,722.9 404.4,723 404.3,723.2 
			404.2,723.3 404,723.5 403.9,723.6 403.8,723.7 403.6,723.9 403.5,724 403.4,724.2 403.2,724.3 403.1,724.4 402.9,724.6 
			402.8,724.7 402.7,724.9 402.5,725 402.4,725.1 402.3,725.3 402.1,725.4 402,725.6 401.8,725.7 401.7,725.8 401.5,726 
			401.4,726.1 401.3,726.3 401.1,726.4 401,726.6 400.8,726.7 400.7,726.8 400.5,727 400.4,727.1 400.3,727.3 400.1,727.4 
			400,727.5 399.8,727.7 399.7,727.8 399.5,728 399.4,728.1 399.3,728.2 399.1,728.4 399,728.5 398.8,728.7 398.7,728.8 
			398.5,728.9 398.4,729.1 398.2,729.2 398.1,729.4 398,729.5 397.8,729.6 397.7,729.8 397.5,729.9 397.4,730.1 397.2,730.2 
			397.1,730.3 396.9,730.5 396.8,730.6 396.6,730.7 396.5,730.9 396.4,731 396.2,731.2 396.1,731.3 395.9,731.4 395.8,731.6 
			395.6,731.7 395.5,731.8 395.3,732 395.2,732.1 395,732.2 394.9,732.4 394.7,732.5 394.6,732.7 394.4,732.8 394.3,732.9 
			394.1,733.1 394,733.2 393.8,733.3 393.7,733.5 393.6,733.6 393.4,733.7 393.3,733.9 393.1,734 393,734.1 392.8,734.3 
			392.7,734.4 392.5,734.5 392.4,734.7 392.2,734.8 392.1,734.9 391.9,735.1 391.8,735.2 391.6,735.3 391.5,735.5 391.3,735.6 
			391.2,735.7 391,735.9 390.9,736 390.7,736.1 390.6,736.3 390.4,736.4 390.3,736.5 390.1,736.7 390,736.8 389.8,736.9 
			389.6,737.1 389.5,737.2 389.3,737.3 389.2,737.4 389,737.6 388.9,737.7 388.7,737.8 388.6,738 388.4,738.1 388.3,738.2 
			388.1,738.4 388,738.5 387.8,738.6 387.7,738.7 387.5,738.9 387.4,739 387.2,739.1 387.1,739.3 386.9,739.4 386.7,739.5 
			386.6,739.6 386.4,739.8 386.3,739.9 386.1,740 386,740.2 385.8,740.3 385.7,740.4 385.5,740.5 385.4,740.7 385.2,740.8 
			385,740.9 384.9,741.1 384.7,741.2 384.6,741.3 384.4,741.4 384.3,741.6 384.1,741.7 384,741.8 383.8,741.9 383.6,742.1 
			383.5,742.2 383.3,742.3 383.2,742.4 383,742.6 382.9,742.7 382.7,742.8 382.5,742.9 382.4,743.1 382.2,743.2 382.1,743.3 
			381.9,743.4 381.8,743.6 381.6,743.7 381.4,743.8 381.3,743.9 381.1,744.1 381,744.2 380.8,744.3 380.7,744.4 380.5,744.6 
			380.3,744.7 380.2,744.8 380,744.9 379.9,745 379.7,745.2 379.5,745.3 379.4,745.4 379.2,745.5 379.1,745.7 378.9,745.8 
			378.8,745.9 378.6,746 378.4,746.1 378.3,746.3 378.1,746.4 378,746.5 377.8,746.6 377.6,746.7 377.5,746.9 377.3,747 
			377.2,747.1 377,747.2 376.8,747.3 376.7,747.5 376.5,747.6 376.3,747.7 376.2,747.8 376,747.9 375.9,748.1 375.7,748.2 
			375.5,748.3 375.4,748.4 375.2,748.5 375.1,748.7 374.9,748.8 374.7,748.9 374.6,749 374.4,749.1 374.2,749.2 374.1,749.4 
			373.9,749.5 373.8,749.6 373.6,749.7 373.4,749.8 373.3,750 373.1,750.1 372.9,750.2 372.8,750.3 372.6,750.4 372.5,750.5 
			372.3,750.6 372.1,750.8 372,750.9 371.8,751 371.6,751.1 371.5,751.2 371.3,751.3 371.1,751.5 371,751.6 370.8,751.7 
			370.6,751.8 370.3,752 370,752.3 369.7,752.5 369.3,752.7 369,752.9 368.7,753.2 368.3,753.4 368,753.6 367.7,753.8 367.3,754.1 
			367,754.3 366.7,754.5 366.3,754.7 366,755 365.7,755.2 365.3,755.4 365,755.6 364.7,755.8 364.3,756 364,756.3 363.6,756.5 
			363.3,756.7 363,756.9 362.6,757.1 362.3,757.3 362.1,757.5 361.9,757.6 361.6,757.8 361.4,757.9 361.2,758 361,758.2 
			360.8,758.3 360.5,758.4 360.3,758.6 360.1,758.7 359.9,758.9 359.7,759 359.4,759.1 359.2,759.3 359,759.4 358.8,759.5 
			358.5,759.7 358.3,759.8 358.1,759.9 357.9,760.1 357.7,760.2 357.4,760.3 357.2,760.5 357,760.6 356.8,760.7 356.6,760.9 
			356.3,761 356.1,761.1 355.9,761.3 355.7,761.4 355.4,761.5 355.2,761.6 355,761.8 354.8,761.9 354.5,762 354.3,762.2 
			354.1,762.3 353.9,762.4 353.6,762.6 353.4,762.7 353.2,762.8 353,762.9 352.7,763.1 352.5,763.2 352.3,763.3 352.1,763.5 
			351.8,763.6 351.6,763.7 351.4,763.8 351.2,764 350.9,764.1 350.7,764.2 350.5,764.3 350.3,764.5 350,764.6 349.8,764.7 
			349.6,764.8 349.4,765 349.1,765.1 348.9,765.2 348.7,765.3 348.4,765.5 348.2,765.6 348,765.7 347.8,765.8 347.5,765.9 
			347.3,766.1 347.1,766.2 346.8,766.3 346.6,766.4 346.4,766.5 346.2,766.7 345.9,766.8 345.7,766.9 345.5,767 345.2,767.2 
			345,767.3 344.8,767.4 344.6,767.5 344.3,767.6 344.1,767.7 343.9,767.9 343.6,768 343.4,768.1 343.2,768.2 342.9,768.3 
			342.7,768.5 342.5,768.6 342.2,768.7 342,768.8 341.8,768.9 341.6,769 341.3,769.1 341.1,769.3 340.9,769.4 340.6,769.5 
			340.4,769.6 340.2,769.7 339.9,769.8 339.7,770 339.5,770.1 339.2,770.2 339,770.3 338.8,770.4 338.5,770.5 338.3,770.6 
			338.1,770.7 337.8,770.9 337.6,771 337.4,771.1 337.1,771.2 336.9,771.3 336.7,771.4 336.4,771.5 336.2,771.6 336,771.7 
			335.7,771.9 335.5,772 335.3,772.1 335,772.2 334.8,772.3 334.6,772.4 334.3,772.5 334.1,772.6 333.8,772.7 333.6,772.8 
			333.4,772.9 333.1,773 332.8,773.2 332.5,773.4 332.1,773.5 331.8,773.7 331.4,773.8 331.1,774 330.7,774.1 330.4,774.3 
			330,774.4 329.7,774.6 329.4,774.7 329,774.9 328.7,775 328.3,775.2 328,775.3 327.6,775.5 327.3,775.6 326.9,775.8 326.6,775.9 
			326.2,776 325.9,776.2 325.5,776.3 325.2,776.5 324.8,776.6 324.5,776.8 324.2,776.9 323.8,777.1 323.5,777.2 323.1,777.3 
			322.8,777.5 322.4,777.6 322.1,777.8 321.7,777.9 321.4,778 321,778.2 320.7,778.3 320.3,778.4 320,778.6 319.6,778.7 
			319.3,778.8 318.9,779 318.5,779.1 318.2,779.3 317.8,779.4 317.5,779.5 317.1,779.6 316.8,779.8 316.4,779.9 316.1,780 
			315.7,780.2 315.4,780.3 315,780.4 314.7,780.6 314.3,780.7 314,780.8 313.6,780.9 313.3,781.1 312.9,781.2 312.5,781.3 
			312.2,781.4 311.8,781.6 311.5,781.7 311.1,781.8 310.8,781.9 310.4,782.1 310.1,782.2 309.7,782.3 309.3,782.4 309,782.6 
			308.6,782.7 308.3,782.8 307.9,782.9 307.6,783 307.2,783.1 306.8,783.3 306.5,783.4 306.1,783.5 305.8,783.6 305.4,783.7 
			305.1,783.8 304.7,784 304.3,784.1 304,784.2 303.6,784.3 303.3,784.4 302.9,784.5 302.5,784.6 302.2,784.8 301.8,784.9 
			301.5,785 301.1,785.1 300.7,785.2 300.4,785.3 300,785.4 299.7,785.5 299.3,785.6 298.9,785.7 298.6,785.8 298.2,785.9 
			297.8,786.1 297.5,786.2 297.1,786.3 296.8,786.4 296.4,786.5 296,786.6 295.7,786.7 295.3,786.8 295,786.9 294.6,787 
			294.2,787.1 293.9,787.2 293.5,787.3 293.1,787.4 292.8,787.5 292.4,787.6 292,787.7 291.7,787.8 291.3,787.9 291,788 
			290.6,788.1 290.2,788.2 289.9,788.3 289.5,788.3 289.1,788.4 288.8,788.5 288.4,788.6 288,788.7 287.7,788.8 287.2,788.9 
			286.7,788.8 286.2,788.7 285.7,788.6 285.2,788.4 284.7,788.3 284.3,788.2 283.8,788.1 283.3,787.9 282.8,787.8 282.3,787.7 
			281.8,787.6 281.6,787.5 281.4,787.4 281.1,787.4 280.9,787.3 280.6,787.2 280.4,787.2 280.2,787.1 279.9,787 279.7,787 
			279.4,786.9 279.2,786.8 279,786.8 278.7,786.7 278.5,786.6 278.2,786.5 278,786.5 277.8,786.4 277.5,786.3 277.3,786.3 
			277,786.2 276.8,786.1 276.5,786.1 276.3,786 276.1,785.9 275.8,785.9 275.6,785.8 275.3,785.7 275.1,785.6 274.9,785.6 
			274.6,785.5 274.4,785.4 274.1,785.3 273.9,785.3 273.7,785.2 273.4,785.1 273.2,785.1 273,785 272.7,784.9 272.5,784.8 
			272.2,784.8 272,784.7 271.8,784.6 271.5,784.5 271.3,784.5 271,784.4 270.8,784.3 270.6,784.2 270.3,784.2 270.1,784.1 
			269.9,784 269.6,783.9 269.4,783.9 269.1,783.8 268.9,783.7 268.7,783.6 268.4,783.6 268.2,783.5 267.9,783.4 267.7,783.3 
			267.5,783.2 267.2,783.2 267,783.1 266.8,783 266.5,782.9 266.3,782.9 266,782.8 265.8,782.7 265.6,782.6 265.3,782.5 
			265.1,782.5 264.9,782.4 264.6,782.3 264.4,782.2 264.2,782.1 263.9,782 263.7,782 263.4,781.9 263.2,781.8 263,781.7 
			262.7,781.6 262.5,781.6 262.3,781.5 262,781.4 261.8,781.3 261.6,781.2 261.3,781.1 261.1,781.1 260.8,781 260.6,780.9 
			260.4,780.8 260.1,780.7 259.9,780.6 259.7,780.5 259.4,780.5 259.2,780.4 259,780.3 258.7,780.2 258.5,780.1 258.3,780 
			258,779.9 257.8,779.9 257.6,779.8 257.3,779.7 257.1,779.6 256.9,779.5 256.6,779.4 256.4,779.3 256.2,779.2 255.9,779.1 
			255.7,779.1 255.5,779 255.2,778.9 255,778.8 254.8,778.7 254.5,778.6 254.3,778.5 254.1,778.4 253.8,778.3 253.6,778.3 
			253.4,778.2 253.1,778.1 252.9,778 252.7,777.9 252.4,777.8 252.2,777.7 252,777.6 251.7,777.5 251.5,777.4 251.3,777.3 
			251,777.2 250.8,777.1 250.6,777 250.3,777 250.1,776.9 249.9,776.8 249.6,776.7 249.4,776.6 249.2,776.5 249,776.4 248.7,776.3 
			248.5,776.2 248.3,776.1 248,776 247.8,775.9 247.6,775.8 247.3,775.7 247.1,775.6 246.9,775.5 246.6,775.4 246.4,775.3 
			246.2,775.2 246,775.1 245.7,775 245.5,774.9 245.3,774.8 245,774.7 244.8,774.6 244.6,774.5 244.3,774.4 244.1,774.3 
			243.9,774.2 243.7,774.1 243.4,774 243.2,773.9 243,773.8 242.7,773.7 242.5,773.6 242.3,773.5 242.1,773.4 241.8,773.3 
			241.6,773.2 241.4,773.1 241.2,773 240.9,772.9 240.7,772.8 240.5,772.7 240.2,772.6 240,772.5 239.8,772.4 239.6,772.3 
			239.3,772.2 239.1,772.1 238.9,772 238.7,771.9 238.4,771.7 238.2,771.6 238,771.5 237.7,771.4 237.5,771.3 237.3,771.2 
			237.1,771.1 236.8,771 236.6,770.9 236.4,770.8 236.2,770.7 235.9,770.6 235.7,770.5 235.5,770.4 235.3,770.2 235,770.1 
			234.8,770 234.6,769.9 234.4,769.8 234.1,769.7 233.9,769.6 233.7,769.5 233.5,769.4 233.3,769.3 233,769.1 232.8,769 
			232.6,768.9 232.4,768.8 232.1,768.7 231.9,768.6 231.7,768.5 231.5,768.4 231.2,768.2 231,768.1 230.8,768 230.6,767.9 
			230.4,767.8 230.1,767.7 229.9,767.6 229.7,767.4 229.5,767.3 229.2,767.2 229,767.1 228.8,767 228.6,766.9 228.4,766.7 
			228.1,766.6 227.9,766.5 227.7,766.4 227.5,766.3 227.2,766.2 227,766 226.8,765.9 226.6,765.8 226.3,765.7 226.1,765.5 
			225.8,765.4 225.6,765.3 225.4,765.2 225.1,765 224.9,764.9 224.7,764.8 224.4,764.6 224.2,764.5 224,764.4 223.7,764.3 
			223.5,764.1 223.3,764 223,763.9 222.8,763.7 222.6,763.6 222.3,763.5 222.1,763.3 221.9,763.2 221.6,763.1 221.4,762.9 
			221.2,762.8 220.9,762.7 220.7,762.5 220.5,762.4 220.2,762.3 220,762.1 219.8,762 219.5,761.9 219.3,761.7 219.1,761.6 
			218.8,761.5 218.6,761.3 218.4,761.2 218.1,761.1 217.9,760.9 217.7,760.8 217.5,760.6 217.2,760.5 217,760.4 216.8,760.2 
			216.5,760.1 216.3,760 216.1,759.8 215.8,759.7 215.6,759.5 215.4,759.4 215.2,759.3 214.9,759.1 214.7,759 214.5,758.8 
			214.2,758.7 214,758.6 213.8,758.4 213.6,758.3 213.3,758.1 213.1,758 212.9,757.9 212.7,757.7 212.4,757.6 212.2,757.4 
			212,757.3 211.7,757.1 211.5,757 211.3,756.8 211.1,756.7 210.8,756.6 210.6,756.4 210.4,756.3 210.2,756.1 209.9,756 
			209.7,755.8 209.5,755.7 209.3,755.5 209,755.4 208.8,755.2 208.6,755.1 208.4,755 208.1,754.8 207.9,754.7 207.7,754.5 
			207.5,754.4 207.2,754.2 207,754.1 206.8,753.9 206.6,753.8 206.4,753.6 206.1,753.5 205.9,753.3 205.7,753.2 205.5,753 
			205.2,752.9 205,752.7 204.8,752.6 204.6,752.4 204.4,752.3 204.1,752.1 203.9,751.9 203.7,751.8 203.5,751.6 203.3,751.5 
			203,751.3 202.8,751.2 202.6,751 202.4,750.9 202.2,750.7 201.9,750.6 201.7,750.4 201.5,750.3 201.3,750.1 201.1,749.9 
			200.9,749.8 200.6,749.6 200.4,749.5 200.2,749.3 200,749.2 199.8,749 199.5,748.8 199.3,748.7 199.1,748.5 198.9,748.4 
			198.7,748.2 198.5,748.1 198.2,747.9 198,747.7 197.8,747.6 197.6,747.4 197.4,747.3 197.2,747.1 197,746.9 196.7,746.8 
			196.5,746.6 196.3,746.5 196.1,746.3 195.9,746.1 195.7,746 195.5,745.8 195.2,745.6 195,745.5 194.8,745.3 194.6,745.1 
			194.4,745 194.2,744.8 194,744.7 193.8,744.5 193.5,744.3 193.3,744.2 193.1,744 192.9,743.8 192.7,743.7 192.5,743.5 
			192.3,743.3 192.1,743.2 191.9,743 191.7,742.8 191.4,742.7 191.2,742.5 191,742.3 190.8,742.2 190.6,742 190.4,741.8 
			190.2,741.7 190,741.5 189.8,741.3 189.6,741.2 189.4,741 189.1,740.8 188.9,740.6 188.7,740.5 188.5,740.3 188.3,740.1 
			188.1,740 187.9,739.8 187.7,739.6 187.5,739.4 187.3,739.3 187.1,739.1 186.9,738.9 186.7,738.8 186.5,738.6 186.3,738.4 
			186.1,738.2 185.9,738.1 185.7,737.9 185.4,737.7 185.2,737.5 185,737.4 184.8,737.2 184.6,737 184.4,736.8 184.2,736.7 
			184,736.5 183.8,736.3 183.6,736.1 183.4,736 183.2,735.8 183,735.6 182.8,735.4 182.6,735.2 182.4,735.1 182.2,734.9 182,734.7 
			181.8,734.5 181.6,734.4 181.4,734.2 181.2,734 181,733.8 180.8,733.6 180.6,733.5 180.4,733.3 180.2,733.1 180,732.9 
			179.8,732.7 179.6,732.6 179.4,732.4 179.2,732.2 179,732 178.8,731.8 178.6,731.6 178.4,731.5 178.3,731.3 178.1,731.1 
			177.9,730.9 177.7,730.7 177.5,730.5 177.3,730.4 177.1,730.2 176.9,730 176.7,729.8 176.5,729.6 176.3,729.4 176.1,729.2 
			175.9,729.1 175.7,728.9 175.5,728.7 175.3,728.5 175.1,728.3 175,728.1 174.8,727.9 174.6,727.8 174.4,727.6 174.2,727.4 
			174,727.2 173.8,727 173.6,726.8 173.4,726.6 173.2,726.4 173,726.2 172.9,726.1 172.7,725.9 172.5,725.7 172.3,725.5 
			172.1,725.3 171.9,725.1 171.7,724.9 171.5,724.7 171.4,724.5 171.2,724.4 171,724.2 170.8,724 170.6,723.8 170.5,723.6 
			170.3,723.4 170.1,723.2 169.9,723 169.7,722.9 169.6,722.7 169.4,722.5 169.2,722.3 169,722.1 168.8,721.9 168.7,721.7 
			168.5,721.5 168.3,721.3 168.1,721.2 167.9,721 167.8,720.8 167.6,720.6 167.4,720.4 167.2,720.2 167.1,720 166.9,719.8 
			166.7,719.6 166.5,719.4 166.4,719.2 166.2,719.1 166,718.9 165.8,718.7 165.6,718.5 165.5,718.3 165.3,718.1 165.1,717.9 
			164.9,717.7 164.8,717.5 164.6,717.3 164.4,717.1 164.3,716.9 164.1,716.7 163.9,716.5 163.7,716.3 163.6,716.1 163.4,715.9 
			163.2,715.7 163,715.5 162.9,715.4 162.7,715.2 162.5,715 162.4,714.8 162.2,714.6 162,714.4 161.9,714.2 161.7,714 161.5,713.8 
			161.3,713.6 161.2,713.4 161,713.2 160.8,713 160.7,712.8 160.5,712.6 160.3,712.4 160.2,712.2 160,712 159.8,711.8 159.7,711.6 
			159.5,711.4 159.3,711.2 159.2,711 159,710.8 158.8,710.6 158.7,710.4 158.5,710.2 158.3,710 158.2,709.8 158,709.6 157.9,709.4 
			157.7,709.2 157.5,709 157.4,708.7 157.2,708.5 157,708.3 156.9,708.1 156.7,707.9 156.6,707.7 156.4,707.5 156.2,707.3 
			156.1,707.1 155.9,706.9 155.7,706.7 155.6,706.5 155.4,706.3 155.3,706.1 155.1,705.9 154.9,705.7 154.8,705.5 154.6,705.3 
			154.5,705 154.3,704.8 154.2,704.6 154,704.4 153.8,704.2 153.7,704 153.5,703.8 153.4,703.6 153.2,703.4 153.1,703.2 152.9,703 
			152.8,702.8 152.6,702.5 152.4,702.3 152.3,702.1 152.1,701.9 152,701.7 151.8,701.5 151.7,701.3 151.5,701.1 151.4,700.9 
			151.2,700.7 151.1,700.4 150.9,700.2 150.8,700 150.6,699.8 150.5,699.6 150.3,699.4 150.2,699.2 150,699 149.9,698.7 
			149.7,698.5 149.6,698.3 149.4,698.1 149.3,697.9 149.1,697.7 149,697.5 148.8,697.2 148.7,697 148.5,696.8 148.4,696.6 
			148.2,696.4 148.1,696.2 147.9,696 147.8,695.7 147.6,695.5 147.5,695.3 147.3,695.1 147.2,694.9 147.1,694.7 146.9,694.4 
			146.8,694.2 146.6,694 146.5,693.8 146.3,693.6 146.2,693.4 146.1,693.1 145.9,692.9 145.8,692.7 145.6,692.5 145.5,692.3 
			145.3,692 145.2,691.8 145.1,691.6 144.9,691.4 144.8,691.2 144.6,691 144.5,690.7 144.4,690.5 144.2,690.3 144.1,690.1 
			143.9,689.9 143.8,689.6 143.7,689.4 143.5,689.2 143.4,689 143.3,688.7 143.1,688.5 143,688.3 142.9,688.1 142.7,687.9 
			142.6,687.6 142.5,687.4 142.3,687.2 142.2,687 142,686.7 141.9,686.5 141.8,686.3 141.6,686.1 141.5,685.8 141.4,685.6 
			141.3,685.4 141.1,685.2 141,684.9 140.9,684.7 140.7,684.5 140.6,684.3 140.5,684 140.3,683.8 140.2,683.6 140.1,683.4 
			139.9,683.1 139.8,682.9 139.7,682.7 139.6,682.5 139.4,682.2 139.3,682 139.2,681.8 139.1,681.6 138.9,681.3 138.8,681.1 
			138.7,680.9 138.5,680.6 138.4,680.4 138.3,680.2 138.2,680 138.1,679.7 137.9,679.5 137.8,679.3 137.7,679 137.6,678.8 
			137.4,678.6 137.3,678.4 137.2,678.1 137.1,677.9 136.9,677.7 136.8,677.4 136.7,677.2 136.6,677 136.5,676.7 136.3,676.5 
			136.2,676.3 136.1,676.1 136,675.8 135.9,675.6 135.8,675.4 135.6,675.1 135.5,674.9 135.4,674.7 135.3,674.4 135.2,674.2 
			135.1,674 134.9,673.7 134.8,673.5 134.7,673.3 134.6,673 134.5,672.8 134.4,672.6 134.2,672.3 134.1,672.1 134,671.9 
			133.9,671.6 133.8,671.4 133.7,671.2 133.6,670.9 133.5,670.7 133.4,670.5 133.3,670.3 133.2,670.1 133.1,669.9 133,669.7 
			132.9,669.5 132.8,669.3 132.7,669.1 132.6,668.9 132.5,668.7 132.4,668.5 132.3,668.2 132.2,668 132.1,667.8 132.1,667.6 
			132,667.4 131.9,667.2 131.8,667 131.7,666.8 131.6,666.6 131.5,666.4 131.4,666.2 131.3,665.9 131.2,665.7 131.1,665.5 
			131,665.3 130.9,665.1 130.8,664.9 130.8,664.7 130.7,664.5 130.6,664.3 130.5,664.1 130.4,663.8 130.3,663.6 130.2,663.4 
			130.1,663.2 130,663 130,662.8 129.9,662.6 129.8,662.4 129.7,662.2 129.6,661.9 129.5,661.7 129.4,661.5 129.3,661.3 
			129.3,661.1 129.2,660.9 129.1,660.7 129,660.5 128.9,660.2 128.8,660 128.7,659.8 128.7,659.6 128.6,659.4 128.5,659.2 
			128.4,659 128.3,658.8 128.2,658.5 128.2,658.3 128.1,658.1 128,657.9 127.9,657.7 127.8,657.5 127.7,657.3 127.7,657 
			127.6,656.8 127.5,656.6 127.4,656.4 127.3,656.2 127.3,656 127.2,655.8 127.1,655.5 127,655.3 126.9,655.1 126.9,654.9 
			126.8,654.7 126.7,654.5 126.6,654.2 126.5,654 126.5,653.8 126.4,653.6 126.3,653.4 126.2,653.2 126.2,653 126.1,652.7 
			126,652.5 125.9,652.3 125.8,652.1 125.8,651.9 125.7,651.7 125.6,651.4 125.5,651.2 125.5,651 125.4,650.8 125.3,650.6 
			125.2,650.4 125.2,650.1 125.1,649.9 125,649.7 125,649.5 124.9,649.3 124.8,649.1 124.7,648.8 124.7,648.6 124.6,648.4 
			124.5,648.2 124.4,648 124.4,647.7 124.3,647.5 124.2,647.3 124.2,647.1 124.1,646.9 124,646.7 123.9,646.4 123.9,646.2 
			123.8,646 123.7,645.8 123.7,645.6 123.6,645.3 123.5,645.1 123.5,644.9 123.4,644.7 123.3,644.5 123.3,644.2 123.2,644 
			123.1,643.8 123.1,643.6 123,643.4 122.9,643.2 122.8,642.9 122.8,642.7 122.7,642.5 122.7,642.3 122.6,642.1 122.5,641.8 
			122.5,641.6 122.4,641.4 122.3,641.2 122.3,641 122.2,640.7 122.1,640.5 122.1,640.3 122,640.1 121.9,639.8 121.9,639.6 
			121.8,639.4 121.7,639.2 121.7,639 121.6,638.7 121.6,638.5 121.5,638.3 121.4,638.1 121.4,637.9 121.3,637.6 121.3,637.4 
			121.2,637.2 121.1,637 121.1,636.8 121,636.5 120.9,636.3 120.9,636.1 120.8,635.9 120.8,635.6 120.7,635.4 120.6,635.2 
			120.6,635 120.5,634.8 120.5,634.5 120.4,634.3 120.4,634.1 120.3,633.9 120.2,633.6 120.2,633.4 120.1,633.2 120.1,633 
			120,632.8 120,632.5 119.9,632.3 119.8,632.1 119.8,631.9 119.7,631.6 119.7,631.4 119.6,631.2 119.6,631 119.5,630.8 
			119.5,630.5 119.4,630.3 119.3,630.1 119.3,629.9 119.2,629.6 119.2,629.4 119.1,629.2 119.1,629 119,628.7 119,628.5 
			118.9,628.3 118.9,628.1 118.8,627.9 118.8,627.6 118.7,627.4 118.7,627.2 118.6,627 118.6,626.7 118.5,626.5 118.4,626.3 
			118.4,626.1 118.3,625.6 118.2,625.2 118.1,624.7 118,624.3 117.9,623.8 117.8,623.4 117.7,622.9 117.6,622.5 117.5,622 
			117.4,621.6 117.3,621.1 117.2,620.7 117.1,620.2 117.1,619.8 117,619.3 116.9,618.9 116.8,618.4 116.7,618 116.6,617.5 
			116.5,617.1 116.4,616.6 116.3,616.2 116.3,615.7 116.2,615.3 116.1,614.8 116,614.4 115.9,613.9 115.9,613.5 115.8,613 
			115.7,612.8 115.7,612.6 115.7,612.4 115.6,612.1 115.6,611.9 115.5,611.7 115.5,611.4 115.5,611.2 115.4,611 115.4,610.8 
			115.3,610.5 115.3,610.3 115.3,610.1 115.2,609.9 115.2,609.6 115.2,609.4 115.1,609.2 115.1,608.9 115,608.7 115,608.5 
			115,608.3 114.9,608 114.9,607.8 114.9,607.6 114.8,607.4 114.8,607.1 114.8,606.9 114.7,606.7 114.7,606.4 114.7,606.2 
			114.6,606 114.6,605.8 114.6,605.5 114.5,605.3 114.5,605.1 114.5,604.9 114.4,604.6 114.4,604.4 114.4,604.2 114.3,603.9 
			114.3,603.7 114.3,603.5 114.3,603.3 114.2,603 114.2,602.8 114.2,602.6 114.1,602.3 114.1,602.1 114.1,601.9 114,601.7 
			114,601.4 114,601.2 114,601 113.9,600.7 113.9,600.5 113.9,600.2 113.8,600 113.8,599.7 113.8,599.4 113.8,599.2 113.7,598.9 
			113.7,598.6 113.7,598.4 113.6,598.1 113.6,597.8 113.6,597.6 113.6,597.3 113.5,597 113.5,596.8 113.5,596.5 113.5,596.2 
			113.4,596 113.4,595.7 113.4,595.5 113.4,595.2 113.3,594.9 113.3,594.7 113.3,594.4 113.3,594.1 113.2,593.9 113.2,593.6 
			113.2,593.3 113.2,593.1 113.2,592.8 113.1,592.3 113.1,591.7 113,591.2 113,590.7 112.9,590.1 112.9,589.6 112.9,589.1 
			112.8,588.5 112.8,588 112.8,587.5 112.7,586.9 112.7,586.4 112.6,585.9 112.6,584.8 112.5,583.7 112.4,582.7 112.4,581.7 
			112.3,580.8 112.3,579.8 112.2,578.8 112.1,577.8 112.1,576.8 112,575.8 112,574.8 111.9,573.8 111.9,572.8 111.8,571.8 
			111.8,571.3 111.8,570.8 111.8,570.3 111.7,569.8 111.7,569.3 111.7,568.8 111.7,568.3 111.7,567.8 111.6,567.3 111.6,566.8 
			111.6,566.3 111.6,565.8 111.6,565.3 111.6,564.8 111.5,564.4 111.5,563.9 111.5,563.4 111.5,562.9 111.5,562.4 111.5,561.9 
			111.4,561.4 111.4,560.9 111.4,560.4 111.4,559.9 111.4,559.4 111.4,558.9 111.4,558.4 111.4,557.9 111.4,557.4 111.4,556.9 
			111.4,556.4 111.3,555.9 111.3,555.4 111.3,554.9 111.3,554.4 111.3,553.9 111.3,553.4 111.3,552.9 111.3,552.4 111.3,551.9 
			111.3,420.9 165.1,420.9 165.1,551.9 165.1,552.3 165.1,552.7 165.1,553.1 165.1,553.5 165.1,554 165.1,554.4 165.1,554.8 
			165.1,555.2 165.1,555.6 165.1,556 165.1,556.4 165.1,556.8 165.1,557.2 165.1,557.6 165.1,558 165.1,558.4 165.1,558.9 
			165.1,559.3 165.2,559.7 165.2,560.1 165.2,560.5 165.2,560.9 165.2,561.3 165.2,561.7 165.2,562.1 165.2,562.5 165.3,562.9 
			165.3,563.3 165.3,564.2 165.3,565 165.3,565.6 165.4,566.2 165.4,566.9 165.4,567.5 165.4,568.2 165.5,568.8 165.5,569.4 
			165.5,570.1 165.6,570.7 165.6,571.4 165.6,572 165.7,572.6 165.7,573.3 165.7,573.9 165.8,574.5 165.8,575.2 165.8,575.8 
			165.9,576.5 165.9,577.1 165.9,577.7 166,578.4 166,579 166.1,579.6 166.1,580.3 166.2,580.9 166.2,581.6 166.2,582.2 
			166.3,582.8 166.3,583.5 166.4,584.1 166.4,584.7 166.5,585.4 166.5,586 166.6,586.5 166.6,587.1 166.7,587.7 166.7,588.2 
			166.8,588.5 166.8,588.8 166.8,589.1 166.8,589.4 166.9,589.7 166.9,589.9 166.9,590.2 166.9,590.5 167,590.8 167,591.1 
			167,591.4 167,591.7 167.1,591.9 167.1,592.2 167.1,592.5 167.2,592.8 167.2,593.1 167.2,593.4 167.3,593.6 167.3,593.9 
			167.3,594.2 167.3,594.5 167.4,594.8 167.4,595.1 167.4,595.3 167.5,595.6 167.5,595.9 167.5,596.2 167.6,596.5 167.6,596.8 
			167.6,597 167.7,597.3 167.7,597.6 167.8,597.9 167.8,598.2 167.8,598.5 167.9,598.7 167.9,599 168,599.3 168,599.6 168,599.7 
			168,599.9 168.1,600 168.1,600.2 168.1,600.3 168.1,600.4 168.1,600.6 168.2,600.7 168.2,600.9 168.2,601 168.2,601.2 
			168.2,601.3 168.3,601.4 168.3,601.6 168.3,601.7 168.3,601.9 168.3,602 168.4,602.1 168.4,602.3 168.4,602.4 168.4,602.6 
			168.5,602.7 168.5,602.8 168.5,603 168.5,603.1 168.6,603.3 168.6,603.4 168.6,603.5 168.6,603.7 168.6,603.8 168.7,604 
			168.7,604.1 168.7,604.2 168.7,604.4 168.8,604.5 168.8,604.6 168.8,604.8 168.8,604.9 168.9,605.1 168.9,605.2 168.9,605.3 
			168.9,605.5 169,605.6 169,605.7 169,605.9 169,606 169.1,606.2 169.1,606.3 169.1,606.4 169.1,606.6 169.2,606.7 169.2,606.8 
			169.2,607 169.2,607.1 169.3,607.2 169.3,607.4 169.3,607.5 169.4,607.7 169.4,607.8 169.4,607.9 169.4,608.1 169.5,608.2 
			169.5,608.5 169.6,608.8 169.6,609 169.7,609.3 169.7,609.6 169.8,609.8 169.9,610.1 169.9,610.4 170,610.7 170,610.9 
			170.1,611.2 170.2,611.5 170.2,611.7 170.3,612 170.3,612.3 170.4,612.6 170.5,612.8 170.5,613.1 170.6,613.4 170.6,613.6 
			170.7,613.9 170.8,614.2 170.8,614.5 170.9,614.7 171,615 171,615.3 171.1,615.5 171.2,615.8 171.2,616.1 171.3,616.4 
			171.4,616.6 171.4,616.9 171.5,617.2 171.6,617.4 171.6,617.7 171.7,618 171.8,618.2 171.9,618.5 171.9,618.8 172,619.1 
			172.1,619.3 172.1,619.6 172.2,619.9 172.3,620.1 172.4,620.4 172.4,620.7 172.5,620.9 172.6,621.3 172.7,621.6 172.8,621.9 
			172.9,622.3 172.9,622.6 173,622.9 173.1,623.2 173.2,623.6 173.3,623.9 173.4,624.2 173.5,624.5 173.6,624.9 173.7,625.2 
			173.8,625.5 173.9,625.8 174,626.2 174.1,626.5 174.2,626.8 174.3,627.1 174.4,627.5 174.5,627.8 174.6,628.1 174.6,628.3 
			174.7,628.4 174.7,628.6 174.8,628.8 174.8,628.9 174.9,629.1 174.9,629.3 175,629.4 175,629.6 175.1,629.7 175.1,629.9 
			175.2,630.1 175.2,630.2 175.3,630.4 175.3,630.5 175.4,630.7 175.4,630.9 175.5,631 175.5,631.2 175.6,631.4 175.6,631.5 
			175.7,631.7 175.7,631.8 175.8,632 175.8,632.2 175.9,632.3 176,632.5 176,632.6 176.1,632.8 176.1,633 176.2,633.1 176.2,633.3 
			176.3,633.4 176.3,633.6 176.4,633.8 176.4,633.9 176.5,634.1 176.6,634.2 176.6,634.4 176.7,634.6 176.7,634.7 176.8,634.9 
			176.8,635.1 176.9,635.2 176.9,635.4 177,635.5 177.1,635.7 177.1,635.8 177.2,636 177.2,636.2 177.3,636.3 177.3,636.5 
			177.4,636.6 177.5,636.8 177.5,637 177.6,637.1 177.6,637.3 177.7,637.4 177.8,637.6 177.8,637.8 177.9,637.9 177.9,638.1 
			178,638.2 178.1,638.4 178.1,638.6 178.2,638.7 178.2,638.9 178.3,639 178.4,639.2 178.4,639.3 178.5,639.5 178.5,639.7 
			178.6,639.8 178.7,640 178.7,640.1 178.8,640.3 178.9,640.4 178.9,640.6 179,640.8 179.1,640.9 179.1,641.1 179.2,641.2 
			179.2,641.4 179.3,641.5 179.4,641.7 179.4,641.9 179.5,642 179.6,642.2 179.6,642.3 179.7,642.5 179.8,642.7 179.8,642.8 
			179.9,643 180,643.1 180,643.3 180.1,643.4 180.2,643.6 180.2,643.8 180.3,643.9 180.4,644.1 180.4,644.2 180.5,644.4 
			180.6,644.5 180.6,644.7 180.7,644.9 180.8,645 180.9,645.2 180.9,645.3 181,645.5 181.1,645.6 181.1,645.8 181.2,645.9 
			181.3,646.1 181.4,646.3 181.4,646.4 181.5,646.6 181.6,646.7 181.6,646.9 181.7,647 181.8,647.2 181.9,647.3 181.9,647.5 
			182,647.7 182.1,647.8 182.1,648 182.2,648.1 182.3,648.3 182.4,648.4 182.4,648.6 182.5,648.7 182.6,648.9 182.7,649 
			182.7,649.2 182.8,649.4 182.9,649.5 183,649.7 183,649.8 183.1,650 183.2,650.1 183.3,650.3 183.4,650.4 183.4,650.6 
			183.5,650.7 183.6,650.9 183.7,651 183.7,651.2 183.8,651.3 183.9,651.5 184,651.7 184,651.8 184.1,652 184.2,652.1 184.3,652.3 
			184.4,652.4 184.4,652.6 184.5,652.7 184.6,652.9 184.7,653 184.8,653.2 184.8,653.3 184.9,653.5 185,653.6 185.1,653.8 
			185.2,653.9 185.2,654.1 185.3,654.2 185.4,654.4 185.5,654.5 185.6,654.7 185.7,654.8 185.7,655 185.8,655.1 185.9,655.3 
			186,655.4 186.1,655.6 186.2,655.7 186.2,655.9 186.3,656 186.4,656.2 186.5,656.3 186.6,656.5 186.7,656.6 186.7,656.8 
			186.8,656.9 186.9,657.1 187,657.2 187.1,657.4 187.2,657.5 187.3,657.7 187.3,657.8 187.4,658 187.5,658.1 187.6,658.3 
			187.7,658.4 187.8,658.6 187.9,658.7 187.9,658.9 188,659 188.1,659.1 188.2,659.3 188.3,659.4 188.4,659.6 188.5,659.7 
			188.6,659.9 188.7,660 188.7,660.2 188.8,660.3 188.9,660.5 189,660.6 189.1,660.8 189.2,660.9 189.3,661 189.4,661.2 
			189.4,661.3 189.5,661.4 189.6,661.5 189.7,661.7 189.7,661.8 189.8,661.9 189.9,662 190,662.2 190.1,662.3 190.1,662.4 
			190.2,662.5 190.3,662.6 190.4,662.8 190.4,662.9 190.5,663 190.6,663.1 190.7,663.3 190.8,663.4 190.8,663.5 190.9,663.6 
			191,663.7 191.1,663.9 191.2,664 191.2,664.1 191.3,664.2 191.4,664.3 191.5,664.5 191.6,664.6 191.6,664.7 191.7,664.8 
			191.8,665 191.9,665.1 192,665.2 192,665.3 192.1,665.4 192.2,665.6 192.3,665.7 192.4,665.8 192.4,665.9 192.5,666 192.6,666.2 
			192.7,666.3 192.8,666.4 192.8,666.5 192.9,666.6 193,666.8 193.1,666.9 193.2,667 193.3,667.1 193.3,667.2 193.4,667.4 
			193.5,667.5 193.6,667.6 193.7,667.7 193.8,667.8 193.8,667.9 193.9,668.1 194,668.2 194.1,668.3 194.2,668.4 194.3,668.5 
			194.3,668.7 194.4,668.8 194.5,668.9 194.6,669 194.7,669.1 194.8,669.2 194.9,669.4 194.9,669.5 195,669.6 195.1,669.7 
			195.2,669.8 195.3,670 195.4,670.1 195.5,670.2 195.5,670.3 195.6,670.4 195.7,670.5 195.8,670.7 195.9,670.8 196,670.9 
			196.1,671 196.1,671.1 196.2,671.2 196.3,671.3 196.4,671.5 196.5,671.6 196.6,671.7 196.7,671.8 196.8,671.9 196.8,672 
			196.9,672.2 197,672.3 197.1,672.4 197.2,672.5 197.3,672.6 197.4,672.7 197.5,672.9 197.5,673 197.6,673.1 197.7,673.2 
			197.8,673.3 197.9,673.4 198,673.5 198.1,673.7 198.2,673.8 198.3,673.9 198.3,674 198.4,674.1 198.5,674.2 198.6,674.3 
			198.7,674.5 198.8,674.6 198.9,674.7 199,674.8 199.1,674.9 199.2,675 199.2,675.1 199.3,675.2 199.4,675.4 199.5,675.5 
			199.6,675.6 199.7,675.7 199.8,675.8 199.9,675.9 200,676 200.1,676.2 200.2,676.3 200.3,676.4 200.3,676.5 200.4,676.6 
			200.5,676.7 200.6,676.8 200.7,676.9 200.8,677 200.9,677.2 201,677.3 201.1,677.4 201.2,677.5 201.3,677.6 201.4,677.7 
			201.5,677.8 201.5,677.9 201.6,678.1 201.7,678.2 201.8,678.3 201.9,678.4 202,678.5 202.1,678.6 202.2,678.7 202.3,678.8 
			202.4,678.9 202.5,679 202.6,679.2 202.7,679.3 202.8,679.4 202.9,679.5 203,679.6 203.1,679.7 203.1,679.8 203.2,679.9 
			203.3,680 203.4,680.1 203.5,680.3 203.6,680.4 203.7,680.5 203.8,680.6 203.9,680.7 204,680.8 204.1,680.9 204.2,681 
			204.3,681.1 204.4,681.2 204.5,681.3 204.6,681.5 204.7,681.6 204.8,681.7 204.9,681.8 205,681.9 205.1,682 205.2,682.1 
			205.3,682.2 205.4,682.3 205.5,682.4 205.6,682.5 205.7,682.6 205.8,682.7 205.9,682.9 206,683 206,683.1 206.1,683.2 
			206.2,683.3 206.3,683.4 206.4,683.5 206.5,683.6 206.6,683.7 206.7,683.8 206.8,683.9 206.9,684 207,684.1 207.1,684.2 
			207.2,684.3 207.3,684.4 207.4,684.6 207.5,684.7 207.6,684.8 207.7,684.9 207.8,685 207.9,685.1 208,685.2 208.1,685.3 
			208.2,685.4 208.3,685.5 208.4,685.6 208.5,685.7 208.6,685.8 208.7,685.9 208.8,686 208.9,686.1 209,686.2 209.1,686.3 
			209.2,686.4 209.3,686.5 209.4,686.6 209.5,686.8 209.6,686.9 209.7,687 209.8,687.1 209.9,687.2 210,687.3 210.2,687.4 
			210.3,687.5 210.4,687.6 210.5,687.7 210.6,687.8 210.7,687.9 210.8,688 210.9,688.1 211,688.2 211.1,688.3 211.2,688.4 
			211.3,688.5 211.4,688.6 211.5,688.7 211.6,688.8 211.7,688.9 211.8,689 211.9,689.1 212,689.2 212.1,689.3 212.2,689.4 
			212.3,689.5 212.4,689.6 212.5,689.7 212.6,689.8 212.8,690 212.9,690.1 213.1,690.2 213.2,690.4 213.3,690.5 213.5,690.6 
			213.6,690.8 213.8,690.9 213.9,691.1 214,691.2 214.2,691.3 214.3,691.5 214.5,691.6 214.6,691.7 214.8,691.9 214.9,692 
			215,692.1 215.2,692.3 215.3,692.4 215.5,692.5 215.6,692.7 215.8,692.8 215.9,692.9 216.1,693.1 216.2,693.2 216.3,693.3 
			216.5,693.5 216.6,693.6 216.8,693.7 216.9,693.9 217.1,694 217.2,694.1 217.4,694.2 217.5,694.4 217.7,694.5 217.8,694.6 
			217.9,694.8 218.1,694.9 218.2,695 218.4,695.2 218.5,695.3 218.7,695.4 218.8,695.6 219,695.7 219.1,695.8 219.3,695.9 
			219.4,696.1 219.6,696.2 219.7,696.3 219.9,696.5 220,696.6 220.2,696.7 220.3,696.8 220.5,697 220.6,697.1 220.8,697.2 
			220.9,697.3 221.1,697.5 221.2,697.6 221.4,697.7 221.5,697.8 221.7,698 221.8,698.1 222,698.2 222.1,698.4 222.3,698.5 
			222.4,698.6 222.6,698.7 222.7,698.9 222.9,699 223,699.1 223.2,699.2 223.3,699.4 223.5,699.5 223.6,699.6 223.8,699.7 
			223.9,699.9 224.1,700 224.2,700.1 224.4,700.2 224.5,700.3 224.7,700.5 224.9,700.6 225,700.7 225.2,700.8 225.3,701 
			225.5,701.1 225.6,701.2 225.8,701.3 225.9,701.4 226.1,701.6 226.2,701.7 226.4,701.8 226.6,701.9 226.7,702 226.9,702.2 
			227,702.3 227.2,702.4 227.3,702.5 227.5,702.6 227.6,702.8 227.8,702.9 228,703 228.1,703.1 228.3,703.2 228.4,703.4 
			228.6,703.5 228.7,703.6 228.9,703.7 229,703.8 229.2,704 229.4,704.1 229.5,704.2 229.7,704.3 229.8,704.4 230,704.5 
			230.2,704.7 230.3,704.8 230.5,704.9 230.6,705 230.8,705.1 230.9,705.2 231.1,705.4 231.3,705.5 231.4,705.6 231.6,705.7 
			231.7,705.8 231.9,705.9 232.1,706 232.2,706.2 232.4,706.3 232.5,706.4 232.7,706.5 232.9,706.6 233,706.7 233.2,706.8 
			233.3,707 233.5,707.1 233.7,707.2 233.8,707.3 234,707.4 234.1,707.5 234.3,707.6 234.5,707.7 234.6,707.9 234.8,708 
			234.9,708.1 235.1,708.2 235.3,708.3 235.4,708.4 235.6,708.5 235.8,708.6 235.9,708.7 236.1,708.8 236.2,709 236.4,709.1 
			236.6,709.2 236.7,709.3 236.9,709.4 237.1,709.5 237.2,709.6 237.4,709.7 237.6,709.8 237.7,709.9 237.9,710 238,710.2 
			238.2,710.3 238.4,710.4 238.5,710.5 238.7,710.6 238.9,710.7 239,710.8 239.2,710.9 239.4,711 239.5,711.1 239.7,711.2 
			239.9,711.3 240,711.4 240.2,711.5 240.4,711.7 240.5,711.8 240.7,711.9 240.8,712 241,712.1 241.2,712.2 241.3,712.3 
			241.5,712.4 241.7,712.5 241.8,712.6 242,712.7 242.2,712.8 242.3,712.9 242.5,713 242.7,713.1 242.8,713.2 243,713.3 
			243.2,713.4 243.4,713.5 243.5,713.6 243.7,713.7 243.9,713.8 244,713.9 244.2,714 244.4,714.1 244.5,714.2 244.7,714.3 
			244.9,714.4 245,714.5 245.2,714.6 245.4,714.7 245.5,714.8 245.7,714.9 245.9,715 246,715.1 246.2,715.2 246.4,715.3 
			246.6,715.4 246.7,715.5 246.9,715.6 247.1,715.7 247.2,715.8 247.4,715.9 247.6,716 247.7,716.1 247.9,716.2 248.1,716.3 
			248.3,716.4 248.4,716.5 248.6,716.6 248.8,716.7 248.9,716.8 249.1,716.9 249.3,717 249.5,717.1 249.6,717.2 249.8,717.3 
			250,717.4 250.1,717.5 250.3,717.6 250.5,717.6 250.7,717.7 250.8,717.8 251,717.9 251.2,718 251.4,718.1 251.5,718.2 
			251.7,718.3 251.9,718.4 252,718.5 252.2,718.6 252.4,718.7 252.6,718.8 252.7,718.9 252.9,719 253.1,719 253.3,719.1 
			253.5,719.3 253.8,719.4 254,719.5 254.3,719.7 254.5,719.8 254.8,719.9 255,720.1 255.3,720.2 255.6,720.3 255.8,720.5 
			256.1,720.6 256.3,720.7 256.6,720.8 256.8,721 257.1,721.1 257.3,721.2 257.6,721.4 257.9,721.5 258.1,721.6 258.4,721.7 
			258.6,721.9 258.9,722 259.2,722.1 259.4,722.2 259.7,722.4 259.9,722.5 260.2,722.6 260.4,722.7 260.7,722.9 261,723 
			261.2,723.1 261.5,723.2 261.7,723.3 262,723.5 262.3,723.6 262.5,723.7 262.8,723.8 263,723.9 263.3,724.1 263.6,724.2 
			263.8,724.3 264.1,724.4 264.4,724.5 264.6,724.7 264.9,724.8 265.1,724.9 265.4,725 265.7,725.1 265.9,725.2 266.2,725.3 
			266.5,725.5 266.7,725.6 267,725.7 267.3,725.8 267.5,725.9 267.8,726 268,726.1 268.3,726.2 268.6,726.4 268.8,726.5 
			269.1,726.6 269.4,726.7 269.6,726.8 269.9,726.9 270.2,727 270.4,727.1 270.7,727.2 271,727.3 271.2,727.5 271.5,727.6 
			271.8,727.7 272,727.8 272.3,727.9 272.6,728 272.8,728.1 273.1,728.2 273.4,728.3 273.6,728.4 273.9,728.5 274.2,728.6 
			274.4,728.7 274.7,728.8 275,728.9 275.2,729 275.5,729.1 275.8,729.2 276,729.3 276.3,729.4 276.6,729.5 276.9,729.6 
			277.1,729.7 277.4,729.8 277.7,729.9 277.9,730 278.2,730.1 278.5,730.2 278.7,730.3 279,730.4 279.3,730.5 279.6,730.6 
			279.8,730.7 280.1,730.8 280.4,730.9 280.6,731 280.9,731.1 281.2,731.2 281.5,731.3 281.7,731.4 282,731.5 282.3,731.5 
			282.5,731.6 282.8,731.7 283.1,731.8 283.4,731.9 283.6,732 283.9,732.1 284.2,732.2 284.4,732.3 284.7,732.4 285,732.4 
			285.3,732.5 285.5,732.6 285.8,732.7 286.1,732.8 286.4,732.9 286.6,733 286.9,733.1 287.2,733.1 287.5,733.1 287.7,733 
			288,732.9 288.3,732.8 288.6,732.7 288.8,732.6 289.1,732.5 289.4,732.4 289.6,732.4 289.9,732.3 290.2,732.2 290.5,732.1 
			290.7,732 291,731.9 291.3,731.8 291.5,731.7 291.8,731.6 292.1,731.5 292.4,731.5 292.6,731.4 292.9,731.3 293.2,731.2 
			293.5,731.1 293.7,731 294,730.9 294.3,730.8 294.5,730.7 294.8,730.6 295.1,730.5 295.3,730.4 295.6,730.3 295.9,730.2 
			296.2,730.1 296.4,730 296.7,729.9 297,729.8 297.2,729.7 297.5,729.6 297.8,729.5 298,729.4 298.3,729.3 298.6,729.2 
			298.9,729.1 299.1,729 299.4,728.9 299.7,728.8 299.9,728.7 300.2,728.6 300.5,728.5 300.7,728.4 301,728.3 301.3,728.2 
			301.5,728.1 301.8,728 302.1,727.9 302.3,727.8 302.6,727.7 302.9,727.6 303.1,727.5 303.4,727.3 303.7,727.2 303.9,727.1 
			304.2,727 304.5,726.9 304.7,726.8 305,726.7 305.3,726.6 305.5,726.5 305.8,726.4 306.1,726.2 306.3,726.1 306.6,726 
			306.8,725.9 307.1,725.8 307.4,725.7 307.6,725.6 307.9,725.5 308.2,725.3 308.4,725.2 308.7,725.1 309,725 309.2,724.9 
			309.5,724.8 309.7,724.6 310,724.5 310.3,724.4 310.5,724.3 310.8,724.2 311,724.1 311.3,723.9 311.6,723.8 311.8,723.7 
			312.1,723.6 312.4,723.5 312.6,723.3 312.9,723.2 313.1,723.1 313.4,723 313.7,722.9 313.9,722.7 314.2,722.6 314.4,722.5 
			314.7,722.4 314.9,722.2 315.2,722.1 315.5,722 315.7,721.9 316,721.7 316.2,721.6 316.5,721.5 316.8,721.4 317,721.2 
			317.3,721.1 317.5,721 317.8,720.8 318,720.7 318.3,720.6 318.6,720.5 318.8,720.3 319.1,720.2 319.3,720.1 319.6,719.9 
			319.8,719.8 320.1,719.7 320.3,719.5 320.6,719.4 320.8,719.3 321.1,719.1 321.3,719 321.5,719 321.6,718.9 321.8,718.8 
			322,718.7 322.1,718.6 322.3,718.5 322.5,718.4 322.7,718.3 322.8,718.2 323,718.1 323.2,718 323.4,717.9 323.5,717.8 
			323.7,717.7 323.9,717.6 324,717.6 324.2,717.5 324.4,717.4 324.6,717.3 324.7,717.2 324.9,717.1 325.1,717 325.2,716.9 
			325.4,716.8 325.6,716.7 325.8,716.6 325.9,716.5 326.1,716.4 326.3,716.3 326.4,716.2 326.6,716.1 326.8,716 327,715.9 
			327.1,715.8 327.3,715.7 327.5,715.6 327.6,715.5 327.8,715.4 328,715.3 328.1,715.2 328.3,715.1 328.5,715 328.7,714.9 
			328.8,714.8 329,714.7 329.2,714.6 329.3,714.5 329.5,714.4 329.7,714.3 329.8,714.2 330,714.1 330.2,714 330.3,713.9 
			330.5,713.8 330.7,713.7 330.8,713.6 331,713.5 331.2,713.4 331.3,713.3 331.5,713.2 331.7,713.1 331.8,713 332,712.9 
			332.2,712.8 332.3,712.7 332.5,712.6 332.7,712.5 332.8,712.4 333,712.3 333.2,712.2 333.3,712.1 333.5,712 333.7,711.9 
			333.8,711.8 334,711.7 334.2,711.5 334.3,711.4 334.5,711.3 334.7,711.2 334.8,711.1 335,711 335.2,710.9 335.3,710.8 
			335.5,710.7 335.7,710.6 335.8,710.5 336,710.4 336.2,710.3 336.3,710.2 336.5,710 336.6,709.9 336.8,709.8 337,709.7 
			337.1,709.6 337.3,709.5 337.5,709.4 337.6,709.3 337.8,709.2 338,709.1 338.1,709 338.3,708.8 338.4,708.7 338.6,708.6 
			338.8,708.5 338.9,708.4 339.1,708.3 339.3,708.2 339.4,708.1 339.6,708 339.7,707.9 339.9,707.7 340.1,707.6 340.2,707.5 
			340.4,707.4 340.5,707.3 340.7,707.2 340.9,707.1 341,707 341.2,706.8 341.3,706.7 341.5,706.6 341.7,706.5 341.8,706.4 
			342,706.3 342.1,706.2 342.3,706 342.5,705.9 342.6,705.8 342.8,705.7 342.9,705.6 343.1,705.5 343.3,705.4 343.4,705.2 
			343.6,705.1 343.7,705 343.9,704.9 344.1,704.8 344.2,704.7 344.4,704.5 344.5,704.4 344.7,704.3 344.8,704.2 345,704.1 
			345.2,704 345.3,703.8 345.5,703.7 345.6,703.6 345.8,703.5 345.9,703.4 346.1,703.2 346.3,703.1 346.4,703 346.6,702.9 
			346.7,702.8 346.9,702.6 347,702.5 347.2,702.4 347.3,702.3 347.5,702.2 347.7,702 347.8,701.9 348,701.8 348.1,701.7 
			348.3,701.6 348.4,701.4 348.6,701.3 348.7,701.2 348.9,701.1 349,701 349.2,700.8 349.4,700.7 349.5,700.6 349.7,700.5 
			349.8,700.3 350,700.2 350.1,700.1 350.3,700 350.4,699.9 350.6,699.7 350.7,699.6 350.9,699.5 351,699.4 351.2,699.2 
			351.3,699.1 351.5,699 351.6,698.9 351.8,698.7 351.9,698.6 352.1,698.5 352.2,698.4 352.4,698.2 352.5,698.1 352.7,698 
			352.8,697.9 353,697.7 353.1,697.6 353.3,697.5 353.4,697.3 353.6,697.2 353.7,697.1 353.9,697 354,696.8 354.2,696.7 
			354.3,696.6 354.5,696.5 354.6,696.3 354.8,696.2 354.9,696.1 355.1,695.9 355.2,695.8 355.4,695.7 355.5,695.6 355.7,695.4 
			355.8,695.3 356,695.2 356.1,695 356.3,694.9 356.4,694.8 356.6,694.6 356.7,694.5 356.9,694.4 357,694.2 357.1,694.1 357.3,694 
			357.4,693.9 357.6,693.7 357.7,693.6 357.9,693.5 358,693.3 358.2,693.2 358.3,693.1 358.5,692.9 358.6,692.8 358.7,692.7 
			358.9,692.5 359,692.4 359.2,692.3 359.3,692.1 359.5,692 359.6,691.9 359.7,691.7 359.9,691.6 360,691.5 360.2,691.3 
			360.3,691.2 360.5,691.1 360.6,690.9 360.7,690.8 360.9,690.6 361,690.5 361.2,690.4 361.3,690.2 361.5,690.1 361.6,690 
			361.7,689.8 361.9,689.7 362,689.6 362.1,689.4 362.3,689.3 362.4,689.2 362.6,689 362.7,688.9 362.8,688.8 363,688.6 
			363.1,688.5 363.2,688.3 363.4,688.2 363.5,688.1 363.6,687.9 363.8,687.8 363.9,687.7 364,687.5 364.2,687.4 364.3,687.3 
			364.5,687.1 364.6,687 364.7,686.9 364.9,686.7 365,686.6 365.1,686.4 365.3,686.3 365.4,686.2 365.5,686 365.7,685.9 
			365.8,685.8 365.9,685.6 366.1,685.5 366.2,685.3 366.3,685.2 366.4,685.1 366.6,684.9 366.7,684.8 366.8,684.6 367,684.5 
			367.1,684.4 367.2,684.2 367.4,684.1 367.5,683.9 367.6,683.8 367.8,683.7 367.9,683.5 368,683.4 368.2,683.2 368.3,683.1 
			368.4,683 368.5,682.8 368.7,682.7 368.8,682.5 368.9,682.4 369.1,682.3 369.2,682.1 369.3,682 369.4,681.8 369.6,681.7 
			369.7,681.5 369.8,681.4 369.9,681.3 370.1,681.1 370.2,681 370.3,680.8 370.5,680.7 370.6,680.5 370.7,680.4 370.8,680.2 
			371,680.1 371.1,680 371.2,679.8 371.3,679.7 371.5,679.5 371.6,679.4 371.7,679.2 371.8,679.1 372,678.9 372.1,678.8 
			372.2,678.7 372.3,678.5 372.5,678.4 372.6,678.2 372.7,678.1 372.8,677.9 373,677.8 373.1,677.6 373.2,677.5 373.3,677.3 
			373.4,677.2 373.6,677 373.7,676.9 373.8,676.7 373.9,676.6 374.1,676.4 374.2,676.3 374.3,676.2 374.4,676 374.5,675.9 
			374.7,675.7 374.8,675.6 374.9,675.4 375,675.3 375.1,675.1 375.3,675 375.4,674.8 375.5,674.7 375.6,674.5 375.7,674.4 
			375.8,674.2 376,674.1 376.1,673.9 376.2,673.8 376.3,673.6 376.4,673.5 376.6,673.3 376.7,673.2 376.8,673 376.9,672.8 
			377,672.7 377.1,672.5 377.3,672.4 377.4,672.2 377.5,672.1 377.6,671.9 377.7,671.8 377.8,671.6 378,671.5 378.1,671.3 
			378.2,671.2 378.3,671 378.4,670.8 378.5,670.7 378.7,670.5 378.8,670.4 378.9,670.2 379,670 379.1,669.9 379.2,669.7 
			379.4,669.6 379.5,669.4 379.6,669.3 379.7,669.1 379.8,668.9 379.9,668.8 380,668.6 380.2,668.4 380.3,668.3 380.4,668.1 
			380.5,668 380.6,667.8 380.7,667.6 380.8,667.5 381,667.3 381.1,667.2 381.2,667 381.3,666.8 381.4,666.7 381.5,666.5 
			381.6,666.3 381.7,666.2 381.9,666 382,665.9 382.1,665.7 382.2,665.5 382.3,665.4 382.4,665.2 382.5,665 382.6,664.9 
			382.7,664.7 382.8,664.5 383,664.4 383.1,664.2 383.2,664 383.3,663.9 383.4,663.7 383.5,663.6 383.6,663.4 383.7,663.2 
			383.8,663.1 383.9,662.9 384,662.7 384.1,662.6 384.2,662.4 384.3,662.2 384.5,662.1 384.6,661.9 384.7,661.7 384.8,661.6 
			384.9,661.4 385,661.2 385.1,661 385.2,660.9 385.3,660.8 385.4,660.6 385.4,660.5 385.5,660.3 385.6,660.2 385.7,660 
			385.8,659.9 385.9,659.7 386,659.6 386.1,659.4 386.1,659.3 386.2,659.1 386.3,659 386.4,658.9 386.5,658.7 386.6,658.6 
			386.7,658.4 386.8,658.3 386.8,658.1 386.9,658 387,657.8 387.1,657.7 387.2,657.5 387.3,657.4 387.4,657.2 387.4,657.1 
			387.5,656.9 387.6,656.8 387.7,656.6 387.8,656.5 387.9,656.3 388,656.2 388,656 388.1,655.9 388.2,655.7 388.3,655.6 
			388.4,655.4 388.5,655.3 388.5,655.1 388.6,655 388.7,654.8 388.8,654.7 388.9,654.5 389,654.4 389,654.2 389.1,654.1 
			389.2,653.9 389.3,653.8 389.4,653.6 389.4,653.5 389.5,653.3 389.6,653.2 389.7,653 389.8,652.9 389.8,652.7 389.9,652.6 
			390,652.4 390.1,652.3 390.2,652.1 390.2,652 390.3,651.8 390.4,651.7 390.5,651.5 390.5,651.3 390.6,651.2 390.7,651 
			390.8,650.9 390.9,650.7 390.9,650.6 391,650.4 391.1,650.3 391.2,650.1 391.2,650 391.3,649.8 391.4,649.7 391.5,649.5 
			391.5,649.4 391.6,649.2 391.7,649 391.8,648.9 391.8,648.7 391.9,648.6 392,648.4 392.1,648.3 392.1,648.1 392.2,648 
			392.3,647.8 392.4,647.7 392.4,647.5 392.5,647.3 392.6,647.2 392.7,647 392.7,646.9 392.8,646.7 392.9,646.6 392.9,646.4 
			393,646.3 393.1,646.1 393.2,645.9 393.2,645.8 393.3,645.6 393.4,645.5 393.4,645.3 393.5,645.2 393.6,645 393.6,644.9 
			393.7,644.7 393.8,644.5 393.8,644.4 393.9,644.2 394,644.1 394.1,643.9 394.1,643.8 394.2,643.6 394.3,643.4 394.3,643.3 
			394.4,643.1 394.5,643 394.5,642.8 394.6,642.7 394.7,642.5 394.7,642.3 394.8,642.2 394.9,642 394.9,641.9 395,641.7 
			395.1,641.5 395.1,641.4 395.2,641.2 395.2,641.1 395.3,640.9 395.4,640.8 395.4,640.6 395.5,640.4 395.6,640.3 395.6,640.1 
			395.7,640 395.7,639.8 395.8,639.7 395.9,639.5 395.9,639.3 396,639.2 396.1,639 396.1,638.9 396.2,638.7 396.2,638.6 
			396.3,638.4 396.4,638.2 396.4,638.1 396.5,637.9 396.5,637.8 396.6,637.6 396.7,637.4 396.7,637.3 396.8,637.1 396.8,637 
			396.9,636.8 397,636.6 397,636.5 397.1,636.3 397.1,636.2 397.2,636 397.2,635.8 397.3,635.7 397.4,635.5 397.4,635.4 
			397.5,635.2 397.5,635 397.6,634.9 397.6,634.7 397.7,634.6 397.8,634.4 397.8,634.2 397.9,634.1 397.9,633.9 398,633.8 
			398,633.6 398.1,633.4 398.1,633.3 398.2,633.1 398.2,633 398.3,632.8 398.4,632.6 398.4,632.5 398.5,632.3 398.5,632.2 
			398.6,632 398.6,631.8 398.7,631.7 398.7,631.5 398.8,631.4 398.8,631.2 398.9,631 398.9,630.9 399,630.7 399,630.5 399.1,630.4 
			399.1,630.2 399.2,630.1 399.2,629.9 399.3,629.7 399.3,629.6 399.4,629.4 399.5,629.3 399.5,629.1 399.6,628.9 399.6,628.8 
			399.7,628.6 399.7,628.4 399.8,628.3 399.8,628.1 399.9,627.8 400,627.5 400.1,627.1 400.2,626.8 400.3,626.5 400.4,626.2 
			400.5,625.8 400.6,625.5 400.7,625.2 400.8,624.9 400.9,624.5 401,624.2 401,623.9 401.1,623.6 401.2,623.2 401.3,622.9 
			401.4,622.6 401.5,622.3 401.6,621.9 401.7,621.6 401.8,621.3 401.9,620.9 401.9,620.7 402,620.4 402.1,620.1 402.2,619.9 
			402.2,619.6 402.3,619.3 402.4,619.1 402.4,618.8 402.5,618.5 402.6,618.3 402.6,618 402.7,617.7 402.8,617.4 402.9,617.2 
			402.9,616.9 403,616.6 403.1,616.4 403.1,616.1 403.2,615.8 403.3,615.5 403.3,615.3 403.4,615 403.5,614.7 403.5,614.5 
			403.6,614.2 403.6,613.9 403.7,613.6 403.8,613.4 403.8,613.1 403.9,612.8 404,612.6 404,612.3 404.1,612 404.1,611.7 
			404.2,611.5 404.3,611.2 404.3,610.9 404.4,610.7 404.4,610.4 404.5,610.1 404.6,609.8 404.6,609.6 404.7,609.3 404.7,609 
			404.8,608.8 404.8,608.5 404.9,608.2 404.9,608.1 405,607.9 405,607.8 405,607.7 405,607.5 405.1,607.4 405.1,607.2 405.1,607.1 
			405.1,607 405.2,606.8 405.2,606.7 405.2,606.6 405.2,606.4 405.3,606.3 405.3,606.2 405.3,606 405.3,605.9 405.4,605.7 
			405.4,605.6 405.4,605.5 405.4,605.3 405.5,605.2 405.5,605.1 405.5,604.9 405.5,604.8 405.6,604.6 405.6,604.5 405.6,604.4 
			405.6,604.2 405.7,604.1 405.7,604 405.7,603.8 405.7,603.7 405.8,603.5 405.8,603.4 405.8,603.3 405.8,603.1 405.9,603 
			405.9,602.8 405.9,602.7 405.9,602.6 405.9,602.4 406,602.3 406,602.1 406,602 406,601.9 406.1,601.7 406.1,601.6 406.1,601.4 
			406.1,601.3 406.1,601.2 406.2,601 406.2,600.9 406.2,600.7 406.2,600.6 406.2,600.4 406.3,600.3 406.3,600.2 406.3,600 
			406.3,599.9 406.4,599.7 406.4,599.6 406.4,599.3 406.4,599 406.5,598.7 406.5,598.5 406.6,598.2 406.6,597.9 406.6,597.6 
			406.7,597.3 406.7,597 406.7,596.8 406.8,596.5 406.8,596.2 406.8,595.9 406.9,595.6 406.9,595.3 406.9,595.1 407,594.8 
			407,594.5 407,594.2 407.1,593.9 407.1,593.6 407.1,593.4 407.2,593.1 407.2,592.8 407.2,592.5 407.3,592.2 407.3,591.9 
			407.3,591.7 407.3,591.4 407.4,591.1 407.4,590.8 407.4,590.5 407.5,590.2 407.5,589.9 407.5,589.7 407.5,589.4 407.6,589.1 
			407.6,588.8 407.6,588.5 407.6,588.2 407.7,587.7 407.7,587.1 407.8,586.5 407.8,586 407.9,585.4 407.9,584.7 408,584.1 
			408,583.5 408.1,582.8 408.1,582.2 408.2,581.6 408.2,580.9 408.2,580.3 408.3,579.6 408.3,579 408.4,578.4 408.4,577.7 
			408.5,577.1 408.5,576.5 408.5,575.8 408.6,575.2 408.6,574.5 408.6,573.9 408.7,573.3 408.7,572.6 408.7,572 408.8,571.4 
			408.8,570.7 408.8,570.1 408.9,569.4 408.9,568.8 408.9,568.2 408.9,567.5 409,566.9 409,566.2 409,565.6 409,565 409.1,564.2 
			409.1,563.3 409.1,562.9 409.1,562.5 409.1,562.1 409.1,561.7 409.2,561.3 409.2,560.9 409.2,560.5 409.2,560.1 409.2,559.7 
			409.2,559.3 409.2,558.9 409.2,558.4 409.2,558 409.3,557.6 409.3,557.2 409.3,556.8 409.3,556.4 409.3,556 409.3,555.6 
			409.3,555.2 409.3,554.8 409.3,554.4 409.3,554 409.3,553.5 409.3,553.1 409.3,552.7 409.3,552.3 409.3,551.9 		"/>
		<path class="st1" d="M300.4,609.2"/>
		<g>
			<path class="st0" d="M304.4,837.4H293v11.5h9.1v2.5H293v11.5h11.9l0.4-4.4h2.2v7H287v-2.1l3.1-0.4v-25.8l-3.1-0.4v-2.1h20v7h-2.2
				L304.4,837.4z"/>
			<path class="st0" d="M316.3,862.9h7.6c3.7,0,5.3-1.5,5.3-5.3v-1c0-3.7-1.6-5.3-5.3-5.3h-2.6c-5.3,0-7.9-2.7-7.9-8v-0.4
				c0-5.3,2.6-8.1,7.9-8.1h9.9v7h-2.3l-0.4-4.3h-6.9c-3.8,0-5.3,1.6-5.3,5.3v0.6c0,3.7,1.5,5.3,5.3,5.3h2.6c5.2,0,7.8,2.8,7.8,8.1
				v0.8c0,5.5-2.6,8.1-8.3,8.1h-10.1v-7h2.3L316.3,862.9z"/>
			<path class="st0" d="M345.6,837.4h-6.6l-0.4,4.2h-2v-6.9h21.1v6.9h-2l-0.4-4.2h-6.7v25.7l3.1,0.4v2.1h-9v-2.1l3.1-0.4V837.4z"/>
		</g>
		<g>
			<path class="st0" d="M360.3,862.6c0.9,0,1.6,0.7,1.6,1.6c0,0.9-0.7,1.6-1.6,1.6c-0.9,0-1.6-0.7-1.6-1.6
				C358.6,863.3,359.3,862.6,360.3,862.6z"/>
			<path class="st0" d="M380.2,863.1V838l-4.8,1.7v-1.9l5.6-3h2v28.3l3.1,0.4v2.1h-9v-2.1L380.2,863.1z"/>
			<path class="st0" d="M408.1,852.5h-8.6c-5.3,0-7.9-2.6-7.9-7.9v-2.1c0-5.2,2.7-7.9,7.9-7.9h3.5c5.2,0,7.9,2.7,7.9,7.8v15.3
				c0,5.2-2.7,7.9-7.9,7.9h-10v-7h2.3l0.4,4.3h7c3.8,0,5.4-1.5,5.4-5.3V852.5z M408.1,849.9v-7.4c0-3.7-1.6-5.3-5.4-5.3h-2.9
				c-3.8,0-5.4,1.5-5.4,5.3v2.1c0,3.7,1.6,5.3,5.4,5.3H408.1z"/>
			<path class="st0" d="M429.4,834.5c5.2,0,7.9,2.7,7.9,7.9v0.6c0,5.7-3.8,6.5-3.8,6.5v0.3c0,0,4.3,0.8,4.3,6.8v1.4
				c0,5.2-2.6,7.8-7.9,7.8h-4.4c-5.6,0-7.9-2.8-7.9-8.4v-0.8c0-6,4.3-6.8,4.3-6.8v-0.3c0,0-3.8-0.8-3.8-6.5v-0.6
				c0-5.2,2.7-7.9,7.9-7.9H429.4z M420.4,857.9c0,3.7,1.5,5.3,5.3,5.3h3.8c3.8,0,5.3-1.5,5.3-5.3v-1.4c0-3.8-1.5-5.3-5.3-5.3h-3.8
				c-3.8,0-5.3,1.5-5.3,5.3V857.9z M420.9,843.2c0,3.7,1.5,5.3,5.2,5.3h3c3.7,0,5.2-1.6,5.2-5.3v-0.7c0-3.7-1.5-5.3-5.3-5.3h-2.8
				c-3.7,0-5.3,1.6-5.3,5.3V843.2z"/>
			<path class="st0" d="M462.9,844c0,5.2-2.7,7.9-7.8,7.9h-3.2c-3.9,0-5.4,1.5-5.4,5.3v5.8h13.3l0.4-4.3h2.2v7h-18.8v-8.5
				c0-5.2,2.6-7.9,7.9-7.9h3.2c3.7,0,5.3-1.5,5.3-5.3v-1.1c0-3.8-1.6-5.3-5.3-5.3h-8l-0.5,4.4h-2.2v-7h10.9c5.2,0,7.8,2.7,7.8,7.9
				V844z"/>
		</g>
		<g>
			<path class="st0" d="M683.2,301.6h-19.4c-8.4,0-11.7,3.2-11.7,11.7v52.8c0,8.4,3.2,11.7,11.7,11.7h44v24.8h-49.2
				c-22.6,0-35.2-12.6-35.2-35V312c0-22.6,12.6-35.2,35-35.2h49.4v38.8h-21.9L683.2,301.6z"/>
			<path class="st0" d="M827.2,368.4c0,22.4-12.6,35-35.2,35h-25.7c-22.6,0-35.2-12.6-35.2-35v-57.3c0-22.6,12.6-35.2,35.2-35.2H792
				c22.6,0,35.2,12.6,35.2,35.2V368.4z M759.9,366.4c0,8.3,3.6,12.2,11.7,12.2h15.3c8.1,0,11.7-3.2,11.7-12.2v-54
				c0-8.3-3.2-11.7-11.7-11.7h-15.3c-8.4,0-11.7,3.4-11.7,11.7V366.4z"/>
			<path class="st0" d="M859.6,299.6l-10.8-1.8v-21h50.3v21l-10.8,1.8v78.1h26.2l2.7-14h21.9v38.8h-90.3v-21l10.8-1.8V299.6z"/>
			<path class="st0" d="M1021.4,301.6H993v26.6h28v23h-28v26.6h30.2l2.7-14h21.9v38.8h-94.3v-21l10.8-1.8v-80.1l-10.8-1.8v-21h92.5
				v38.8h-21.9L1021.4,301.6z"/>
			<path class="st0" d="M1105.4,402.5c-22.6,0-35.2-12.6-35.2-35V312c0-22.6,12.6-35.2,35.2-35.2h49.2v38.8h-21.9l-2.7-14h-19.4
				c-8.4,0-11.7,3.2-11.7,11.7v52.8c0,8.4,3.2,11.7,11.7,11.7h21.6v-21.9h-11.9v-24.6h39.7v71.3H1105.4z"/>
			<path class="st0" d="M1221.1,379.7l10.8,1.8v21h-50.3v-21l10.8-1.8v-80.1l-10.8-1.8v-21h50.3v21l-10.8,1.8V379.7z"/>
			<path class="st0" d="M1349.5,368.4c0,22.4-12.6,35-35.2,35h-25.7c-22.6,0-35.2-12.6-35.2-35v-57.3c0-22.6,12.6-35.2,35.2-35.2
				h25.7c22.6,0,35.2,12.6,35.2,35.2V368.4z M1282.1,366.4c0,8.3,3.6,12.2,11.7,12.2h15.3c8.1,0,11.7-3.2,11.7-12.2v-54
				c0-8.3-3.2-11.7-11.7-11.7h-15.3c-8.4,0-11.7,3.4-11.7,11.7V366.4z"/>
		</g>
		<g>
			<path class="st0" d="M652.1,466.5h-14.4l-2.2,12h-19.4v-36.8h100.6v36.8h-19.4l-2.2-12h-14.4v78.1l10.8,1.8v21h-50.3v-21
				l10.8-1.8V466.5z"/>
			<path class="st0" d="M799,466.5h-28.4V493h28v23h-28v26.6h30.2l2.7-14h21.9v38.8h-94.3v-21l10.8-1.8v-80.1l-10.8-1.8v-21h92.5
				v38.8h-21.9L799,466.5z"/>
			<path class="st0" d="M907.7,466.5h-19.4c-8.4,0-11.7,3.2-11.7,11.7v52.8c0,8.4,3.2,11.7,11.7,11.7h44v24.8h-49.2
				c-22.6,0-35.2-12.6-35.2-35v-55.5c0-22.6,12.6-35.2,35-35.2h49.4v38.8h-21.9L907.7,466.5z"/>
			<path class="st0" d="M1066.1,441.7v21l-10.8,1.8v102.9h-28.7l-33.2-66.1h-1.8v66.1h-39.5v-21l10.8-1.8v-80.1l-10.8-1.8v-21h39.5
				l33.2,66.1h1.8v-66.1H1066.1z"/>
			<path class="st0" d="M1181.9,533.3c0,22.4-12.6,35-35.2,35H1121c-22.6,0-35.2-12.6-35.2-35V476c0-22.6,12.6-35.2,35.2-35.2h25.7
				c22.6,0,35.2,12.6,35.2,35.2V533.3z M1114.6,531.3c0,8.3,3.6,12.2,11.7,12.2h15.3c8.1,0,11.7-3.2,11.7-12.2v-54
				c0-8.3-3.2-11.7-11.7-11.7h-15.3c-8.4,0-11.7,3.4-11.7,11.7V531.3z"/>
			<path class="st0" d="M1214.3,464.5l-10.8-1.8v-21h50.3v21l-10.8,1.8v78.1h26.2l2.7-14h21.9v38.8h-90.3v-21l10.8-1.8V464.5z"/>
			<path class="st0" d="M1407.8,533.3c0,22.4-12.6,35-35.2,35H1347c-22.6,0-35.2-12.6-35.2-35V476c0-22.6,12.6-35.2,35.2-35.2h25.7
				c22.6,0,35.2,12.6,35.2,35.2V533.3z M1340.5,531.3c0,8.3,3.6,12.2,11.7,12.2h15.3c8.1,0,11.7-3.2,11.7-12.2v-54
				c0-8.3-3.2-11.7-11.7-11.7h-15.3c-8.4,0-11.7,3.4-11.7,11.7V531.3z M1388.6,415.3l-30.7,16.2l-8.8-12.6l27.1-21.4L1388.6,415.3z"
				/>
			<path class="st0" d="M1468.2,567.4c-22.6,0-35.2-12.6-35.2-35v-55.5c0-22.6,12.6-35.2,35.2-35.2h49.2v38.8h-21.9l-2.7-14h-19.4
				c-8.4,0-11.7,3.2-11.7,11.7v52.8c0,8.4,3.2,11.7,11.7,11.7h21.6v-21.9h-11.9v-24.6h39.7v71.3H1468.2z"/>
			<path class="st0" d="M1583.9,544.6l10.8,1.8v21h-50.3v-21l10.8-1.8v-80.1l-10.8-1.8v-21h50.3v21l-10.8,1.8V544.6z"/>
			<path class="st0" d="M1676,466.5h-19.4c-8.4,0-11.7,3.2-11.7,11.7v52.8c0,8.4,3.2,11.7,11.7,11.7h44v24.8h-49.2
				c-22.6,0-35.2-12.6-35.2-35v-55.5c0-22.6,12.6-35.2,35-35.2h49.4v38.8h-21.9L1676,466.5z"/>
			<path class="st0" d="M1820,533.3c0,22.4-12.6,35-35.2,35h-25.7c-22.6,0-35.2-12.6-35.2-35V476c0-22.6,12.6-35.2,35.2-35.2h25.7
				c22.6,0,35.2,12.6,35.2,35.2V533.3z M1752.7,531.3c0,8.3,3.6,12.2,11.7,12.2h15.3c8.1,0,11.7-3.2,11.7-12.2v-54
				c0-8.3-3.2-11.7-11.7-11.7h-15.3c-8.4,0-11.7,3.4-11.7,11.7V531.3z"/>
		</g>
		<g>
			<path class="st3" d="M647.8,707.5h22.3c8.4,0,11.7-3.2,11.7-11.7v-2.3c0-8.4-3.2-11.7-11.7-11.7h-13.3
				c-24.1,0-35.2-13.5-35.2-37.5v-2.5c0-22.6,12.4-35.2,35.2-35.2h48.5v37.7h-21.9l-2.7-12.9H662c-8.4,0-11.7,3.2-11.7,11.7v2.3
				c0,8.4,3.2,11.7,11.7,11.7h13.5c23.9,0,35,13.5,35,37.7v2.5c0,27.7-16.2,35-42.6,35h-44.5v-37.7h21.7L647.8,707.5z"/>
			<path class="st3" d="M789.3,627.6v-21h50.5v21l-11,1.8v68.8c0,22.4-12.6,35-35,35h-20.3c-22.6,0-35.2-12.6-35.2-35v-68.8
				l-10.8-1.8v-21h39.5v90.1c0,8.3,3.2,11.7,11.7,11.7h9.7c8.4,0,11.7-3.4,11.7-11.7v-67.3L789.3,627.6z"/>
			<path class="st3" d="M856,732.2v-21l10.8-1.8v-80.1l-10.8-1.8v-21H917c22.6,0,35.2,12.6,35.2,35.2v1.6
				c0,18.7-13.3,22.5-13.3,22.5v1.8c0,0,19.4,4,19.4,26.2v3.4c0,22.4-12.6,35-35.2,35H856z M911.8,656.1c8.4,0,11.7-3.2,11.7-11.7
				V643c0-8.3-3.2-11.7-11.7-11.7h-16.3v24.8H911.8z M917.9,707.5c8.4,0,11.7-3.4,11.7-11.7v-3.2c0-10.8-4.7-11.7-17.2-11.7h-16.9
				v26.6H917.9z"/>
			<path class="st3" d="M1039.7,697.4H1009l-3.4,12l10.8,1.8v21h-50.8v-21l10.8-1.8l25.9-80.1l-10.8-1.8v-21h48.1l33,102.9l10.8,1.8
				v21h-50.8v-21l10.8-1.8L1039.7,697.4z M1015.3,675.7h18.1l-8.1-28.4h-1.8L1015.3,675.7z"/>
		</g>
	</g>
</g>
</svg>
