<?xml version="1.0" standalone="no"?>
<!DOCTYPE svg PUBLIC "-//W3C//DTD SVG 20010904//EN"
 "http://www.w3.org/TR/2001/REC-SVG-20010904/DTD/svg10.dtd">
<svg version="1.0" xmlns="http://www.w3.org/2000/svg"
 width="3334.000000pt" height="3334.000000pt" viewBox="0 0 3334.000000 3334.000000"
 preserveAspectRatio="xMidYMid meet">
<metadata>
Created by potrace 1.11, written by Peter Selinger 2001-2013
</metadata>
<g transform="translate(0.000000,3334.000000) scale(0.100000,-0.100000)"
fill="#000000" stroke="none">
<path d="M17330 28775 c0 -18 -5 -25 -20 -25 -13 0 -20 -7 -20 -20 0 -13 -7
-20 -20 -20 -17 0 -20 -7 -20 -40 0 -36 -2 -40 -25 -40 -20 0 -25 -5 -25 -25
0 -15 -6 -25 -14 -25 -9 0 -17 -15 -21 -40 -5 -30 -11 -40 -26 -40 -14 0 -19
-7 -19 -25 0 -18 -5 -25 -20 -25 -17 0 -20 -7 -20 -40 0 -36 -2 -40 -25 -40
-20 0 -25 -5 -25 -25 0 -15 -6 -25 -14 -25 -9 0 -17 -15 -21 -40 -5 -30 -11
-40 -26 -40 -14 0 -19 -7 -19 -25 0 -18 -5 -25 -20 -25 -17 0 -20 -7 -20 -40
0 -36 -2 -40 -25 -40 -20 0 -25 -5 -25 -25 0 -18 -5 -25 -20 -25 -17 0 -20 -7
-20 -40 0 -33 -3 -40 -20 -40 -17 0 -20 -7 -20 -40 0 -36 -2 -40 -25 -40 -18
0 -25 -5 -25 -19 0 -10 -9 -21 -20 -24 -16 -4 -20 -14 -20 -46 0 -34 -3 -41
-20 -41 -13 0 -20 -7 -20 -20 0 -13 -7 -20 -20 -20 -17 0 -20 -7 -20 -45 0
-41 -2 -45 -25 -45 -18 0 -25 -5 -25 -19 0 -10 -9 -21 -20 -24 -16 -4 -20 -14
-20 -46 0 -34 -3 -41 -20 -41 -13 0 -20 -7 -20 -20 0 -13 -7 -20 -20 -20 -17
0 -20 -7 -20 -45 0 -41 -2 -45 -25 -45 -18 0 -25 -5 -25 -20 0 -13 -7 -20 -20
-20 -17 0 -20 -7 -20 -40 0 -33 -3 -40 -20 -40 -15 0 -20 -7 -20 -25 0 -18 -5
-25 -19 -25 -15 0 -21 -10 -26 -40 -5 -30 -11 -40 -26 -40 -14 0 -19 -7 -19
-25 0 -18 -5 -25 -20 -25 -17 0 -20 -7 -20 -40 0 -33 -3 -40 -20 -40 -15 0
-20 -7 -20 -25 0 -18 -5 -25 -19 -25 -15 0 -21 -10 -26 -40 -5 -30 -11 -40
-26 -40 -14 0 -19 -7 -19 -25 0 -18 -5 -25 -20 -25 -17 0 -20 -7 -20 -40 0
-36 -2 -40 -25 -40 -22 0 -25 -4 -25 -40 0 -33 -3 -40 -20 -40 -13 0 -20 -7
-20 -20 0 -13 -7 -20 -20 -20 -17 0 -20 -7 -20 -45 0 -38 -3 -45 -20 -45 -13
0 -20 -7 -20 -19 0 -13 -8 -21 -22 -23 -19 -2 -24 -10 -26 -45 -3 -35 -7 -43
-23 -43 -12 0 -19 -7 -19 -20 0 -13 -7 -20 -20 -20 -17 0 -20 -7 -20 -45 0
-38 -3 -45 -20 -45 -13 0 -20 -7 -20 -20 0 -13 -7 -20 -19 -20 -16 0 -21 -9
-27 -45 -5 -35 -10 -45 -25 -45 -12 0 -19 -7 -19 -20 0 -13 -7 -20 -20 -20
-17 0 -20 -7 -20 -40 0 -36 -2 -40 -25 -40 -20 0 -25 -5 -25 -25 0 -15 -6 -25
-14 -25 -9 0 -17 -15 -21 -40 -5 -30 -11 -40 -26 -40 -14 0 -19 -7 -19 -25 0
-18 -5 -25 -20 -25 -17 0 -20 -7 -20 -40 0 -36 -2 -40 -25 -40 -20 0 -25 -5
-25 -25 0 -15 -6 -25 -14 -25 -9 0 -17 -15 -21 -40 -5 -30 -11 -40 -26 -40
-16 0 -19 -7 -19 -40 0 -36 -2 -40 -25 -40 -20 0 -25 -5 -25 -25 0 -18 -5 -25
-20 -25 -17 0 -20 -7 -20 -40 0 -33 -3 -40 -20 -40 -15 0 -20 -7 -20 -25 0
-18 -5 -25 -20 -25 -17 0 -20 -7 -20 -40 0 -36 -2 -40 -25 -40 -18 0 -25 -5
-25 -19 0 -10 -9 -21 -20 -24 -16 -4 -20 -14 -20 -46 0 -34 -3 -41 -20 -41
-15 0 -20 -7 -20 -25 0 -18 -5 -25 -20 -25 -17 0 -20 -7 -20 -40 0 -36 -2 -40
-25 -40 -20 0 -25 -5 -25 -25 0 -18 -5 -25 -20 -25 -17 0 -20 -7 -20 -40 0
-33 -3 -40 -20 -40 -13 0 -20 -7 -20 -20 0 -13 -7 -20 -19 -20 -15 0 -21 -10
-26 -40 -5 -30 -11 -40 -26 -40 -14 0 -19 -7 -19 -25 0 -18 -5 -25 -20 -25
-17 0 -20 -7 -20 -40 0 -33 -3 -40 -20 -40 -15 0 -20 -7 -20 -25 0 -18 -5 -25
-19 -25 -15 0 -21 -10 -26 -39 -4 -27 -13 -41 -26 -44 -15 -4 -19 -14 -19 -46
0 -34 -3 -41 -20 -41 -13 0 -20 -7 -20 -20 0 -15 -7 -20 -25 -20 -22 0 -25 -4
-25 -40 0 -33 -3 -40 -20 -40 -15 0 -20 -7 -20 -25 0 -18 -5 -25 -20 -25 -17
0 -20 -7 -20 -40 0 -33 -3 -40 -20 -40 -15 0 -20 -7 -20 -25 0 -20 -5 -25 -25
-25 -22 0 -25 -4 -25 -40 0 -33 -3 -40 -20 -40 -15 0 -20 -7 -20 -25 0 -18 -5
-25 -20 -25 -17 0 -20 -7 -20 -40 0 -33 -3 -40 -20 -40 -15 0 -20 -7 -20 -25
0 -18 -5 -25 -19 -25 -15 0 -21 -10 -26 -40 -5 -30 -11 -40 -26 -40 -14 0 -19
-7 -19 -25 0 -18 -5 -25 -20 -25 -17 0 -20 -7 -20 -40 0 -36 -2 -40 -25 -40
-18 0 -25 -5 -25 -20 0 -11 -6 -20 -14 -20 -9 0 -17 -15 -21 -40 -5 -30 -11
-40 -26 -40 -16 0 -19 -7 -19 -45 0 -38 -3 -45 -20 -45 -13 0 -20 -7 -20 -19
0 -13 -8 -21 -22 -23 -19 -2 -24 -10 -26 -45 -3 -35 -7 -43 -23 -43 -12 0 -19
-7 -19 -20 0 -13 -7 -20 -20 -20 -17 0 -20 -7 -20 -45 0 -41 -2 -45 -25 -45
-18 0 -25 -5 -25 -20 0 -13 -7 -20 -20 -20 -17 0 -20 -7 -20 -45 0 -38 -3 -45
-20 -45 -13 0 -20 -7 -20 -20 0 -13 -7 -20 -20 -20 -17 0 -20 -7 -20 -40 0
-36 -2 -40 -25 -40 -20 0 -25 -5 -25 -25 0 -15 -6 -25 -14 -25 -9 0 -17 -15
-21 -40 -5 -30 -11 -40 -26 -40 -14 0 -19 -7 -19 -25 0 -18 -5 -25 -20 -25
-17 0 -20 -7 -20 -40 0 -36 -2 -40 -25 -40 -20 0 -25 -5 -25 -25 0 -18 -5 -25
-20 -25 -17 0 -20 -7 -20 -40 0 -33 -3 -40 -20 -40 -15 0 -20 -7 -20 -25 0
-18 -5 -25 -20 -25 -15 0 -21 -9 -26 -40 -5 -30 -11 -40 -25 -40 -15 0 -19 -8
-19 -40 0 -33 -3 -40 -20 -40 -13 0 -20 -7 -20 -20 0 -13 -7 -20 -20 -20 -17
0 -20 -7 -20 -45 0 -41 -2 -45 -25 -45 -18 0 -25 -5 -25 -19 0 -10 -9 -21 -20
-24 -16 -4 -20 -14 -20 -46 0 -34 -3 -41 -20 -41 -13 0 -20 -7 -20 -19 0 -13
-8 -21 -22 -23 -19 -2 -24 -10 -26 -45 -3 -35 -7 -43 -23 -43 -12 0 -19 -7
-19 -20 0 -13 -7 -20 -20 -20 -17 0 -20 -7 -20 -45 0 -38 -3 -45 -20 -45 -13
0 -20 -7 -20 -20 0 -13 -7 -20 -19 -20 -15 0 -21 -10 -26 -40 -5 -30 -11 -40
-26 -40 -14 0 -19 -7 -19 -25 0 -18 -5 -25 -20 -25 -17 0 -20 -7 -20 -40 0
-33 -3 -40 -20 -40 -15 0 -20 -7 -20 -25 0 -18 -5 -25 -19 -25 -15 0 -21 -10
-26 -40 -5 -30 -11 -40 -26 -40 -16 0 -19 -7 -19 -45 0 -38 -3 -45 -20 -45
-13 0 -20 -7 -20 -20 0 -15 -7 -20 -25 -20 -22 0 -25 -4 -25 -40 0 -33 -3 -40
-20 -40 -15 0 -20 -7 -20 -25 0 -18 -5 -25 -20 -25 -17 0 -20 -7 -20 -40 0
-33 -3 -40 -20 -40 -15 0 -20 -7 -20 -25 0 -20 -5 -25 -25 -25 -22 0 -25 -4
-25 -40 0 -33 -3 -40 -20 -40 -13 0 -20 -7 -20 -20 0 -13 -7 -20 -20 -20 -17
0 -20 -7 -20 -45 0 -41 -2 -45 -25 -45 -20 0 -25 -5 -25 -25 0 -15 -6 -25 -15
-25 -10 0 -17 -14 -21 -40 -5 -30 -11 -40 -25 -40 -14 0 -19 -7 -19 -25 0 -18
-5 -25 -20 -25 -17 0 -20 -7 -20 -40 0 -36 -2 -40 -25 -40 -18 0 -25 -5 -25
-20 0 -11 -6 -20 -14 -20 -9 0 -17 -15 -21 -40 -5 -30 -11 -40 -26 -40 -14 0
-19 -7 -19 -25 0 -18 -5 -25 -20 -25 -17 0 -20 -7 -20 -39 0 -33 -4 -40 -22
-43 -19 -2 -24 -10 -26 -45 -3 -35 -7 -43 -23 -43 -12 0 -19 -7 -19 -20 0 -13
-7 -20 -20 -20 -17 0 -20 -7 -20 -45 0 -41 -2 -45 -25 -45 -18 0 -25 -5 -25
-20 0 -13 -7 -20 -20 -20 -17 0 -20 -7 -20 -40 0 -33 -3 -40 -20 -40 -15 0
-20 -7 -20 -25 0 -18 -5 -25 -20 -25 -17 0 -20 -7 -20 -40 0 -36 -2 -40 -25
-40 -20 0 -25 -5 -25 -25 0 -15 -6 -25 -14 -25 -9 0 -17 -15 -21 -40 -5 -30
-11 -40 -26 -40 -14 0 -19 -7 -19 -25 0 -18 -5 -25 -20 -25 -17 0 -20 -7 -20
-40 0 -36 -2 -40 -25 -40 -20 0 -25 -5 -25 -25 0 -18 -5 -25 -20 -25 -17 0
-20 -7 -20 -40 0 -33 -3 -40 -20 -40 -15 0 -20 -7 -20 -25 0 -18 -5 -25 -20
-25 -15 0 -21 -9 -26 -40 -5 -30 -11 -40 -25 -40 -15 0 -19 -8 -19 -40 0 -33
-3 -40 -20 -40 -13 0 -20 -7 -20 -20 0 -13 -7 -20 -20 -20 -17 0 -20 -7 -20
-45 0 -41 -2 -45 -25 -45 -18 0 -25 -5 -25 -19 0 -10 -9 -21 -20 -24 -16 -4
-20 -14 -20 -46 0 -34 -3 -41 -20 -41 -13 0 -20 -7 -20 -19 0 -13 -8 -21 -22
-23 -19 -2 -24 -10 -26 -45 -3 -35 -7 -43 -23 -43 -12 0 -19 -7 -19 -20 0 -13
-7 -20 -20 -20 -17 0 -20 -7 -20 -45 0 -38 -3 -45 -20 -45 -13 0 -20 -7 -20
-20 0 -13 -7 -20 -19 -20 -15 0 -21 -10 -26 -40 -5 -30 -11 -40 -26 -40 -14 0
-19 -7 -19 -25 0 -18 -5 -25 -20 -25 -17 0 -20 -7 -20 -40 0 -33 -3 -40 -20
-40 -15 0 -20 -7 -20 -25 0 -18 -5 -25 -19 -25 -15 0 -21 -10 -26 -40 -5 -30
-11 -40 -26 -40 -16 0 -19 -7 -19 -45 0 -38 -3 -45 -20 -45 -13 0 -20 -7 -20
-20 0 -15 -7 -20 -25 -20 -22 0 -25 -4 -25 -40 0 -33 -3 -40 -20 -40 -15 0
-20 -7 -20 -25 0 -18 -5 -25 -20 -25 -17 0 -20 -7 -20 -40 0 -33 -3 -40 -20
-40 -13 0 -20 -7 -20 -19 0 -13 -8 -21 -22 -23 -19 -2 -24 -10 -26 -46 -3 -34
-7 -42 -23 -42 -14 0 -19 -7 -19 -25 0 -18 -5 -25 -20 -25 -17 0 -20 -7 -20
-40 0 -36 -2 -40 -25 -40 -20 0 -25 -5 -25 -25 0 -15 -6 -25 -15 -25 -10 0
-17 -14 -21 -40 -5 -30 -11 -40 -25 -40 -12 0 -19 -7 -19 -20 0 -13 -7 -20
-20 -20 -17 0 -20 -7 -20 -45 0 -41 -2 -45 -25 -45 -18 0 -25 -5 -25 -20 0
-11 -6 -20 -14 -20 -9 0 -17 -15 -21 -40 -5 -30 -11 -40 -26 -40 -16 0 -19 -7
-19 -45 0 -38 -3 -45 -20 -45 -13 0 -20 -7 -20 -19 0 -13 -8 -21 -22 -23 -19
-2 -24 -10 -26 -45 -3 -35 -7 -43 -23 -43 -12 0 -19 -7 -19 -20 0 -13 -7 -20
-20 -20 -17 0 -20 -7 -20 -45 0 -41 -2 -45 -25 -45 -18 0 -25 -5 -25 -20 0
-13 -7 -20 -20 -20 -17 0 -20 -7 -20 -40 0 -33 -3 -40 -20 -40 -15 0 -20 -7
-20 -25 0 -18 -5 -25 -20 -25 -17 0 -20 -7 -20 -40 0 -36 -2 -40 -25 -40 -20
0 -25 -5 -25 -25 0 -15 -6 -25 -14 -25 -9 0 -17 -15 -21 -40 -5 -30 -11 -40
-26 -40 -14 0 -19 -7 -19 -25 0 -18 -5 -25 -19 -25 -15 0 -21 -10 -26 -40 -5
-30 -11 -40 -26 -40 -14 0 -19 -7 -19 -25 0 -18 -5 -25 -20 -25 -17 0 -20 -7
-20 -40 0 -33 -3 -40 -20 -40 -17 0 -20 -7 -20 -40 0 -36 -2 -40 -25 -40 -20
0 -25 -5 -25 -25 0 -18 -5 -25 -20 -25 -17 0 -20 -7 -20 -40 0 -33 -3 -40 -20
-40 -13 0 -20 -7 -20 -20 0 -13 -7 -20 -20 -20 -17 0 -20 -7 -20 -45 0 -41 -2
-45 -25 -45 -18 0 -25 -5 -25 -20 0 -13 -7 -20 -20 -20 -17 0 -20 -7 -20 -45
0 -38 -3 -45 -20 -45 -15 0 -20 -7 -20 -25 0 -18 -5 -25 -20 -25 -15 0 -21 -9
-26 -40 -5 -30 -11 -40 -25 -40 -12 0 -19 -7 -19 -20 0 -13 -7 -20 -20 -20
-17 0 -20 -7 -20 -40 0 -33 -3 -40 -20 -40 -15 0 -20 -7 -20 -25 0 -18 -5 -25
-19 -25 -15 0 -21 -10 -26 -40 -5 -30 -11 -40 -26 -40 -14 0 -19 -7 -19 -25 0
-18 -5 -25 -20 -25 -17 0 -20 -7 -20 -39 0 -33 -4 -40 -22 -43 -19 -2 -24 -10
-26 -45 -3 -35 -7 -43 -23 -43 -12 0 -19 -7 -19 -20 0 -13 -7 -20 -20 -20 -17
0 -20 -7 -20 -45 0 -38 -3 -45 -20 -45 -13 0 -20 -7 -20 -20 0 -15 -7 -20 -25
-20 -22 0 -25 -4 -25 -40 0 -33 -3 -40 -20 -40 -15 0 -20 -7 -20 -25 0 -18 -5
-25 -20 -25 -17 0 -20 -7 -20 -40 0 -33 -3 -40 -20 -40 -15 0 -20 -7 -20 -25
0 -18 -5 -25 -19 -25 -15 0 -21 -10 -26 -40 -5 -30 -11 -40 -26 -40 -14 0 -19
-7 -19 -25 0 -18 -5 -25 -20 -25 -17 0 -20 -7 -20 -40 0 -36 -2 -40 -25 -40
-20 0 -25 -5 -25 -25 0 -15 -6 -25 -15 -25 -10 0 -17 -14 -21 -40 -5 -30 -11
-40 -25 -40 -12 0 -19 -7 -19 -20 0 -13 -7 -20 -20 -20 -17 0 -20 -7 -20 -45
0 -41 -2 -45 -25 -45 -22 0 -25 -4 -25 -40 0 -33 -3 -40 -20 -40 -13 0 -20 -7
-20 -20 0 -13 -7 -20 -20 -20 -17 0 -20 -7 -20 -45 0 -41 -2 -45 -25 -45 -18
0 -25 -5 -25 -19 0 -10 -9 -21 -20 -24 -16 -4 -20 -14 -20 -46 0 -34 -3 -41
-20 -41 -13 0 -20 -7 -20 -20 0 -13 -7 -20 -20 -20 -17 0 -20 -7 -20 -45 0
-41 -2 -45 -25 -45 -18 0 -25 -5 -25 -20 0 -11 -6 -20 -14 -20 -9 0 -17 -15
-21 -40 -5 -30 -11 -40 -26 -40 -14 0 -19 -7 -19 -25 0 -18 -5 -25 -20 -25
-17 0 -20 -7 -20 -40 0 -36 -2 -40 -25 -40 -20 0 -25 -5 -25 -25 0 -15 -6 -25
-14 -25 -9 0 -17 -15 -21 -40 -5 -30 -11 -40 -26 -40 -14 0 -19 -7 -19 -25 0
-18 -5 -25 -19 -25 -15 0 -21 -10 -26 -40 -5 -30 -11 -40 -26 -40 -16 0 -19
-7 -19 -40 0 -33 -3 -40 -20 -40 -15 0 -20 -7 -20 -25 0 -18 -5 -25 -20 -25
-17 0 -20 -7 -20 -40 0 -36 -2 -40 -25 -40 -20 0 -25 -5 -25 -25 0 -18 -5 -25
-20 -25 -17 0 -20 -7 -20 -40 0 -33 -3 -40 -20 -40 -13 0 -20 -7 -20 -20 0
-13 -7 -20 -20 -20 -17 0 -20 -7 -20 -45 0 -41 -2 -45 -25 -45 -20 0 -25 -5
-25 -25 0 -18 -5 -25 -20 -25 -17 0 -20 -7 -20 -40 0 -33 -3 -40 -20 -40 -15
0 -20 -7 -20 -25 0 -18 -5 -25 -20 -25 -15 0 -21 -9 -26 -40 -5 -30 -11 -40
-25 -40 -12 0 -19 -7 -19 -20 0 -13 -7 -20 -20 -20 -17 0 -20 -7 -20 -40 0
-33 -3 -40 -20 -40 -15 0 -20 -7 -20 -25 0 -18 -5 -25 -19 -25 -15 0 -21 -10
-26 -39 -4 -27 -13 -41 -26 -44 -15 -4 -19 -14 -19 -46 0 -34 -3 -41 -20 -41
-13 0 -20 -7 -20 -19 0 -13 -8 -21 -22 -23 -19 -2 -24 -10 -26 -45 -3 -35 -7
-43 -23 -43 -12 0 -19 -7 -19 -20 0 -13 -7 -20 -20 -20 -17 0 -20 -7 -20 -40
0 -33 -3 -40 -20 -40 -15 0 -20 -7 -20 -25 0 -20 -5 -25 -25 -25 -22 0 -25 -4
-25 -40 0 -33 -3 -40 -20 -40 -15 0 -20 -7 -20 -25 0 -18 -5 -25 -20 -25 -17
0 -20 -7 -20 -40 0 -33 -3 -40 -20 -40 -15 0 -20 -7 -20 -25 0 -18 -5 -25 -19
-25 -15 0 -21 -10 -26 -40 -5 -30 -11 -40 -26 -40 -14 0 -19 -7 -19 -25 0 -18
-5 -25 -20 -25 -17 0 -20 -7 -20 -40 0 -36 -2 -40 -25 -40 -20 0 -25 -5 -25
-25 0 -15 -6 -25 -15 -25 -10 0 -17 -14 -21 -40 -5 -30 -11 -40 -25 -40 -15 0
-19 -8 -19 -40 0 -33 -3 -40 -20 -40 -13 0 -20 -7 -20 -19 0 -13 -8 -21 -23
-23 -18 -2 -23 -10 -25 -45 -3 -35 -7 -43 -23 -43 -12 0 -19 -7 -19 -20 0 -13
-7 -20 -20 -20 -17 0 -20 -7 -20 -45 0 -41 -2 -45 -25 -45 -20 0 -25 -5 -25
-25 0 -16 -6 -25 -15 -25 -24 0 -18 -27 8 -34 12 -3 1580 -6 3485 -6 3455 0
3462 0 3462 20 0 13 7 20 20 20 15 0 20 7 20 25 0 18 5 25 20 25 17 0 20 7 20
39 0 33 4 40 23 43 18 2 23 10 25 45 3 35 7 43 23 43 16 0 19 7 19 40 0 33 3
40 20 40 15 0 20 7 20 25 0 18 5 25 19 25 15 0 21 10 26 39 4 27 13 41 26 44
15 4 19 14 19 46 0 34 3 41 20 41 13 0 20 7 20 20 0 13 7 20 20 20 17 0 20 7
20 45 0 41 2 45 25 45 22 0 25 4 25 39 0 30 4 40 20 44 16 4 20 14 20 46 0 34
3 41 20 41 13 0 20 7 20 20 0 13 7 20 20 20 17 0 20 7 20 39 0 33 4 40 23 43
18 2 23 10 25 46 3 34 7 42 23 42 16 0 19 7 19 45 0 38 3 45 20 45 13 0 20 7
20 20 0 13 7 20 19 20 15 0 21 10 26 39 4 27 13 41 26 44 15 4 19 14 19 46 0
34 3 41 20 41 17 0 20 7 20 45 0 38 3 45 20 45 13 0 20 7 20 20 0 13 7 20 19
20 15 0 21 10 26 39 4 27 13 41 26 44 15 4 19 14 19 46 0 34 3 41 20 41 15 0
20 7 20 25 0 18 5 25 20 25 15 0 21 9 26 40 5 30 11 40 25 40 15 0 19 8 19 40
0 33 3 40 20 40 17 0 20 7 20 45 0 38 3 45 20 45 15 0 20 7 20 25 0 18 5 25
20 25 15 0 21 9 26 40 5 30 11 40 25 40 15 0 19 8 19 40 0 33 3 40 20 40 17 0
20 7 20 45 0 38 3 45 20 45 15 0 20 7 20 25 0 18 5 25 20 25 15 0 21 9 26 40
5 30 11 40 25 40 15 0 19 8 19 40 0 33 3 40 20 40 17 0 20 7 20 45 0 41 2 45
25 45 18 0 25 5 25 20 0 11 6 20 14 20 10 0 17 16 22 45 5 35 10 45 25 45 15
0 19 7 19 40 0 33 3 40 20 40 15 0 20 7 20 25 0 18 5 25 19 25 15 0 21 10 26
40 5 30 11 40 26 40 16 0 19 7 19 40 0 33 3 40 20 40 17 0 20 7 20 45 0 41 2
45 25 45 20 0 25 5 25 25 0 15 6 25 14 25 9 0 17 15 21 40 5 30 11 40 26 40
16 0 19 7 19 40 0 33 3 40 20 40 17 0 20 7 20 45 0 41 2 45 25 45 20 0 25 5
25 25 0 15 6 25 14 25 9 0 17 15 21 40 5 30 11 40 26 40 16 0 19 7 19 40 0 33
3 40 20 40 17 0 20 7 20 45 0 41 2 45 25 45 20 0 25 5 25 25 0 18 5 25 20 25
17 0 20 7 20 40 0 33 3 40 20 40 17 0 20 7 20 40 0 36 3 40 25 40 20 0 25 5
25 25 0 15 6 25 14 25 9 0 17 15 21 40 5 30 11 40 26 40 16 0 19 7 19 45 0 38
3 45 20 45 17 0 20 7 20 40 0 36 3 40 25 40 20 0 25 5 25 25 0 15 6 25 14 25
9 0 17 15 21 40 5 30 11 40 26 40 16 0 19 7 19 45 0 41 2 45 25 45 23 0 25 4
25 40 0 33 3 40 20 40 15 0 20 7 20 25 0 18 5 25 20 25 17 0 20 7 20 40 0 33
3 40 20 40 17 0 20 7 20 45 0 41 2 45 25 45 23 0 25 4 25 40 0 33 3 40 20 40
15 0 20 7 20 25 0 18 5 25 20 25 17 0 20 7 20 40 0 33 3 40 20 40 17 0 20 7
20 45 0 41 2 45 25 45 23 0 25 4 25 40 0 33 3 40 20 40 13 0 20 7 20 20 0 13
7 20 20 20 17 0 20 7 20 45 0 41 2 45 25 45 23 0 25 4 25 40 0 33 3 40 20 40
15 0 20 7 20 25 0 18 5 25 20 25 17 0 20 7 20 40 0 33 3 40 20 40 17 0 20 7
20 45 0 41 2 45 25 45 23 0 25 4 25 40 0 33 3 40 20 40 15 0 20 7 20 25 0 18
5 25 20 25 17 0 20 7 20 39 0 33 4 40 23 43 18 2 23 10 25 46 3 34 7 42 23 42
16 0 19 7 19 40 0 33 3 40 20 40 15 0 20 7 20 25 0 18 5 25 20 25 17 0 20 7
20 39 0 33 4 40 23 43 18 2 23 10 25 46 3 34 7 42 23 42 16 0 19 7 19 40 0 33
3 40 20 40 15 0 20 7 20 25 0 18 5 25 20 25 17 0 20 7 20 39 0 33 4 40 23 43
18 2 23 10 25 46 3 34 7 42 23 42 12 0 19 7 19 20 0 13 7 20 20 20 17 0 20 7
20 45 0 41 2 45 25 45 22 0 25 4 25 39 0 30 4 40 20 44 16 4 20 14 20 46 0 34
3 41 20 41 13 0 20 7 20 20 0 13 7 20 20 20 17 0 20 7 20 39 0 33 4 40 23 43
18 2 23 10 25 46 3 34 7 42 23 42 16 0 19 7 19 45 0 38 3 45 20 45 13 0 20 7
20 20 0 13 7 20 20 20 17 0 20 7 20 39 0 33 4 40 23 43 18 2 23 10 25 46 3 34
7 42 23 42 16 0 19 7 19 40 0 33 3 40 20 40 15 0 20 7 20 25 0 18 5 25 19 25
15 0 21 10 26 39 4 27 13 41 26 44 15 4 19 14 19 46 0 34 3 41 20 41 15 0 20
7 20 25 0 18 5 25 20 25 17 0 20 7 20 40 0 36 3 40 25 40 22 0 25 4 25 39 0
30 4 40 20 44 16 4 20 14 20 46 0 34 3 41 20 41 15 0 20 7 20 25 0 18 5 25 20
25 15 0 21 9 26 40 5 30 11 40 25 40 15 0 19 8 19 40 0 33 3 40 20 40 17 0 20
7 20 45 0 38 3 45 20 45 15 0 20 7 20 25 0 18 5 25 20 25 15 0 21 9 26 40 7
43 31 55 36 18 2 -15 11 -24 26 -26 21 -3 22 -8 22 -83 0 -72 2 -79 20 -79 17
0 20 -7 20 -45 0 -38 3 -45 20 -45 17 0 20 -7 20 -45 0 -41 2 -45 25 -45 23 0
25 -4 25 -40 0 -33 3 -40 20 -40 17 0 20 -7 20 -45 0 -38 3 -45 20 -45 13 0
20 -7 20 -20 0 -13 7 -20 20 -20 15 0 20 -7 20 -25 0 -20 5 -25 25 -25 18 0
25 -5 25 -20 0 -13 7 -20 20 -20 13 0 20 -7 20 -20 0 -13 7 -20 20 -20 13 0
20 -7 20 -20 0 -13 7 -20 20 -20 15 0 20 -7 20 -25 0 -20 5 -25 25 -25 18 0
25 -5 25 -20 0 -13 7 -20 20 -20 13 0 20 -7 20 -20 0 -13 7 -20 20 -20 15 0
20 -7 20 -25 0 -20 5 -25 25 -25 18 0 25 -5 25 -20 0 -13 7 -20 20 -20 13 0
20 -7 20 -20 0 -17 7 -20 40 -20 33 0 40 -3 40 -20 0 -15 7 -20 25 -20 20 0
25 -5 25 -25 0 -18 5 -25 20 -25 11 0 20 -6 20 -14 0 -10 16 -17 45 -22 35 -5
45 -10 45 -25 0 -12 7 -19 20 -19 13 0 20 -7 20 -20 0 -17 7 -20 40 -20 36 0
40 -2 40 -25 0 -20 5 -25 25 -25 15 0 25 -6 25 -14 0 -9 15 -17 40 -21 30 -5
40 -11 40 -26 0 -16 7 -19 45 -19 41 0 45 -2 45 -25 0 -20 5 -25 25 -25 15 0
25 -6 25 -15 0 -10 14 -17 40 -21 30 -5 40 -11 40 -25 0 -15 8 -19 40 -19 33
0 40 -3 40 -20 0 -15 7 -20 25 -20 18 0 25 -5 25 -19 0 -15 10 -21 40 -26 30
-5 40 -11 40 -26 0 -16 7 -19 45 -19 38 0 45 -3 45 -20 0 -17 7 -20 40 -20 33
0 40 -3 40 -20 0 -17 7 -20 45 -20 41 0 45 -2 45 -25 0 -22 4 -25 40 -25 33 0
40 -3 40 -20 0 -17 7 -20 45 -20 38 0 45 -3 45 -20 0 -18 7 -20 65 -20 63 0
65 -1 65 -25 0 -23 4 -25 45 -25 32 0 45 -4 45 -14 0 -18 31 -26 103 -26 50 0
57 -2 57 -20 0 -18 7 -20 85 -20 78 0 85 -2 85 -20 0 -19 7 -20 240 -20 233 0
240 1 240 20 0 18 7 20 85 20 78 0 85 2 85 20 0 16 7 20 38 20 52 0 82 10 82
26 0 8 10 14 25 14 20 0 25 5 25 25 0 18 5 25 20 25 17 0 20 -7 20 -40 0 -33
-3 -40 -20 -40 -15 0 -20 -7 -20 -25 0 -18 -5 -25 -19 -25 -15 0 -21 -10 -26
-39 -4 -27 -13 -41 -26 -44 -15 -4 -19 -14 -19 -46 0 -34 -3 -41 -20 -41 -17
0 -20 -7 -20 -40 0 -33 -3 -40 -20 -40 -15 0 -20 -7 -20 -25 0 -18 -5 -25 -19
-25 -15 0 -21 -10 -26 -40 -5 -30 -11 -40 -26 -40 -16 0 -19 -7 -19 -45 0 -38
-3 -45 -20 -45 -17 0 -20 -7 -20 -40 0 -36 -2 -40 -25 -40 -20 0 -25 -5 -25
-25 0 -15 -6 -25 -14 -25 -9 0 -17 -15 -21 -40 -5 -30 -11 -40 -26 -40 -16 0
-19 -7 -19 -45 0 -38 -3 -45 -20 -45 -17 0 -20 -7 -20 -40 0 -36 -2 -40 -25
-40 -20 0 -25 -5 -25 -25 0 -15 -6 -25 -14 -25 -9 0 -17 -15 -21 -40 -5 -30
-11 -40 -26 -40 -16 0 -19 -7 -19 -45 0 -41 -2 -45 -25 -45 -18 0 -25 -5 -25
-20 0 -11 -6 -20 -14 -20 -9 0 -17 -15 -21 -40 -5 -30 -11 -40 -26 -40 -16 0
-19 -7 -19 -45 0 -38 -3 -45 -20 -45 -17 0 -20 -7 -20 -45 0 -41 -2 -45 -25
-45 -18 0 -25 -5 -25 -20 0 -11 -6 -20 -14 -20 -9 0 -17 -15 -21 -40 -5 -30
-11 -40 -26 -40 -16 0 -19 -7 -19 -45 0 -38 -3 -45 -20 -45 -17 0 -20 -7 -20
-40 0 -36 -2 -40 -25 -40 -20 0 -25 -5 -25 -25 0 -18 -5 -25 -20 -25 -17 0
-20 -7 -20 -40 0 -33 -3 -40 -20 -40 -17 0 -20 -7 -20 -45 0 -41 -2 -45 -25
-45 -22 0 -25 -4 -25 -40 0 -33 -3 -40 -20 -40 -15 0 -20 -7 -20 -25 0 -18 -5
-25 -20 -25 -17 0 -20 -7 -20 -40 0 -33 -3 -40 -20 -40 -17 0 -20 -7 -20 -45
0 -41 -2 -45 -25 -45 -22 0 -25 -4 -25 -40 0 -33 -3 -40 -20 -40 -15 0 -20 -7
-20 -25 0 -18 -5 -25 -20 -25 -17 0 -20 -7 -20 -39 0 -33 -4 -40 -22 -43 -19
-2 -24 -10 -26 -45 -3 -35 -7 -43 -23 -43 -16 0 -19 -7 -19 -40 0 -33 -3 -40
-20 -40 -15 0 -20 -7 -20 -25 0 -18 -5 -25 -20 -25 -17 0 -20 -7 -20 -39 0
-33 -4 -40 -22 -43 -19 -2 -24 -10 -26 -45 -3 -35 -7 -43 -23 -43 -16 0 -19
-7 -19 -40 0 -33 -3 -40 -20 -40 -15 0 -20 -7 -20 -25 0 -18 -5 -25 -20 -25
-17 0 -20 -7 -20 -39 0 -33 -4 -40 -22 -43 -19 -2 -24 -10 -26 -45 -3 -35 -7
-43 -23 -43 -16 0 -19 -7 -19 -40 0 -33 -3 -40 -20 -40 -15 0 -20 -7 -20 -25
0 -18 -5 -25 -19 -25 -15 0 -21 -10 -26 -39 -4 -27 -13 -41 -26 -44 -15 -4
-19 -14 -19 -46 0 -34 -3 -41 -20 -41 -13 0 -20 -7 -20 -20 0 -13 -7 -20 -20
-20 -17 0 -20 -7 -20 -39 0 -33 -4 -40 -22 -43 -19 -2 -24 -10 -26 -45 -3 -35
-7 -43 -23 -43 -16 0 -19 -7 -19 -45 0 -38 -3 -45 -20 -45 -13 0 -20 -7 -20
-20 0 -13 -7 -20 -19 -20 -15 0 -21 -10 -26 -39 -4 -27 -13 -41 -26 -44 -15
-4 -19 -14 -19 -46 0 -34 -3 -41 -20 -41 -17 0 -20 -7 -20 -40 0 -33 -3 -40
-20 -40 -15 0 -20 -7 -20 -25 0 -18 -5 -25 -19 -25 -15 0 -21 -10 -26 -39 -4
-27 -13 -41 -26 -44 -15 -4 -19 -14 -19 -46 0 -34 -3 -41 -20 -41 -17 0 -20
-7 -20 -40 0 -33 -3 -40 -20 -40 -15 0 -20 -7 -20 -25 0 -18 -5 -25 -19 -25
-15 0 -21 -10 -26 -40 -5 -30 -11 -40 -26 -40 -16 0 -19 -7 -19 -45 0 -38 -3
-45 -20 -45 -17 0 -20 -7 -20 -40 0 -36 -2 -40 -25 -40 -20 0 -25 -5 -25 -25
0 -15 -6 -25 -14 -25 -9 0 -17 -15 -21 -40 -5 -30 -11 -40 -26 -40 -16 0 -19
-7 -19 -45 0 -38 -3 -45 -20 -45 -17 0 -20 -7 -20 -40 0 -36 -2 -40 -25 -40
-20 0 -25 -5 -25 -25 0 -15 -6 -25 -14 -25 -9 0 -17 -15 -21 -40 -5 -30 -11
-40 -26 -40 -16 0 -19 -7 -19 -45 0 -41 -2 -45 -25 -45 -22 0 -25 -4 -25 -40
0 -33 -3 -40 -20 -40 -15 0 -20 -7 -20 -25 0 -18 -5 -25 -20 -25 -17 0 -20 -7
-20 -40 0 -33 -3 -40 -20 -40 -17 0 -20 -7 -20 -45 0 -41 -2 -45 -25 -45 -22
0 -25 -4 -25 -40 0 -33 -3 -40 -20 -40 -15 0 -20 -7 -20 -25 0 -18 -5 -25 -20
-25 -17 0 -20 -7 -20 -40 0 -33 -3 -40 -20 -40 -17 0 -20 -7 -20 -45 0 -41 -2
-45 -25 -45 -18 0 -25 -5 -25 -20 0 -13 -7 -20 -20 -20 -17 0 -20 -7 -20 -40
0 -33 -3 -40 -20 -40 -17 0 -20 -7 -20 -45 0 -41 -2 -45 -25 -45 -22 0 -25 -4
-25 -40 0 -33 -3 -40 -20 -40 -15 0 -20 -7 -20 -25 0 -18 -5 -25 -20 -25 -17
0 -20 -7 -20 -40 0 -33 -3 -40 -20 -40 -17 0 -20 -7 -20 -45 0 -41 -2 -45 -25
-45 -23 0 -25 -4 -25 -45 l0 -45 6140 0 6140 0 0 45 c0 38 -3 45 -20 45 -18 0
-20 7 -20 85 0 78 -2 85 -20 85 -18 0 -20 7 -20 74 0 91 -8 136 -26 136 -10 0
-14 23 -16 88 -3 82 -4 87 -25 90 -22 3 -23 8 -23 88 0 77 -2 84 -20 84 -19 0
-20 7 -20 105 0 98 -1 105 -20 105 -18 0 -20 7 -20 85 0 84 0 85 -25 85 l-25
0 0 105 c0 98 -1 105 -20 105 -19 0 -20 7 -20 90 0 83 -1 90 -20 90 -18 0 -20
7 -20 74 0 92 -8 136 -26 136 -10 0 -14 15 -14 54 0 81 -9 116 -31 116 -17 0
-19 9 -19 85 0 78 -2 85 -20 85 -19 0 -20 7 -20 105 0 98 -1 105 -20 105 -18
0 -20 7 -20 86 0 77 -2 86 -20 91 -18 5 -20 14 -20 78 0 100 -8 135 -31 135
-17 0 -19 9 -19 85 0 78 -2 85 -20 85 -18 0 -20 7 -20 86 0 77 -2 86 -20 91
-18 5 -20 14 -20 82 0 95 -7 121 -31 121 -17 0 -19 9 -19 90 0 83 -1 90 -20
90 -19 0 -20 7 -20 105 0 98 -1 105 -20 105 -18 0 -20 7 -20 86 0 77 -2 86
-20 91 -18 5 -20 14 -20 82 0 95 -7 121 -31 121 -17 0 -19 9 -19 90 0 83 -1
90 -20 90 -18 0 -20 7 -20 85 0 78 -2 85 -20 85 -18 0 -20 7 -20 74 0 101 -8
136 -31 136 -17 0 -19 9 -19 90 0 83 -1 90 -20 90 -19 0 -20 7 -20 105 0 98
-1 105 -20 105 -18 0 -20 7 -20 85 0 78 -2 85 -20 85 -18 0 -20 7 -20 85 0 84
0 85 -25 85 l-25 0 0 105 c0 98 -1 105 -20 105 -19 0 -20 7 -20 90 0 83 -1 90
-20 90 -18 0 -20 7 -20 74 0 92 -8 136 -26 136 -11 0 -14 20 -14 85 0 84 0 85
-25 85 l-25 0 0 105 c0 98 -1 105 -20 105 -18 0 -20 7 -20 54 0 72 -10 116
-26 116 -10 0 -14 23 -16 88 -3 82 -4 87 -25 90 -22 3 -23 7 -23 108 0 97 -1
104 -20 104 -18 0 -20 7 -20 85 0 78 -2 85 -20 85 -18 0 -20 7 -20 74 0 91 -8
136 -26 136 -10 0 -14 23 -16 88 -3 82 -4 87 -25 90 -22 3 -23 8 -23 88 0 77
-2 84 -20 84 -19 0 -20 7 -20 105 0 98 -1 105 -20 105 -18 0 -20 7 -20 85 0
84 0 85 -25 85 l-25 0 0 105 c0 98 -1 105 -20 105 -19 0 -20 7 -20 90 0 83 -1
90 -20 90 -18 0 -20 7 -20 74 0 92 -8 136 -26 136 -10 0 -14 15 -14 54 0 81
-9 116 -31 116 -17 0 -19 9 -19 90 0 83 -1 90 -20 90 -19 0 -20 7 -20 100 0
93 -1 100 -20 100 -19 0 -20 7 -20 90 0 83 -1 90 -20 90 -18 0 -20 7 -20 74 0
101 -8 136 -31 136 -17 0 -19 9 -19 90 0 83 -1 90 -20 90 -18 0 -20 7 -20 81
0 72 -2 81 -20 86 -18 5 -20 14 -20 78 0 100 -8 135 -31 135 -17 0 -19 9 -19
85 0 78 -2 85 -20 85 -19 0 -20 7 -20 105 0 98 -1 105 -20 105 -18 0 -20 7
-20 86 0 77 -2 86 -20 91 -17 4 -20 15 -22 87 -3 75 -5 81 -25 84 -22 3 -23 7
-23 108 0 97 -1 104 -20 104 -18 0 -20 7 -20 85 0 78 -2 85 -20 85 -18 0 -20
7 -20 74 0 101 -8 136 -31 136 -17 0 -19 9 -19 90 0 83 -1 90 -20 90 -19 0
-20 7 -20 105 0 98 -1 105 -20 105 -18 0 -20 7 -20 54 0 73 -10 116 -26 116
-11 0 -14 20 -14 85 0 84 0 85 -25 85 l-25 0 0 105 c0 98 -1 105 -20 105 -19
0 -20 7 -20 90 0 83 -1 90 -20 90 -18 0 -20 7 -20 74 0 92 -8 136 -26 136 -11
0 -14 20 -14 85 0 84 0 85 -25 85 -25 0 -25 1 -25 85 0 78 -2 85 -20 85 -18 0
-20 7 -20 83 0 95 -7 127 -26 127 -10 0 -14 22 -16 88 -3 82 -4 87 -25 90 -22
3 -23 7 -23 108 0 97 -1 104 -20 104 -18 0 -20 7 -20 85 0 78 -2 85 -20 85
-18 0 -20 7 -20 83 0 95 -7 127 -26 127 -10 0 -14 16 -14 63 0 81 -8 107 -31
107 -17 0 -19 9 -19 90 0 83 -1 90 -20 90 -19 0 -20 7 -20 105 0 98 -1 105
-20 105 -17 0 -19 8 -22 88 -3 82 -4 87 -25 90 -22 3 -23 7 -23 103 0 92 -1
99 -20 99 -19 0 -20 7 -20 90 0 83 -1 90 -20 90 -18 0 -20 7 -20 85 0 78 -2
85 -20 85 -18 0 -20 7 -20 74 0 101 -8 136 -31 136 -17 0 -19 9 -19 90 0 83
-1 90 -20 90 -19 0 -20 7 -20 100 0 93 -1 100 -20 100 -19 0 -20 7 -20 90 0
83 -1 90 -20 90 -18 0 -20 7 -20 74 0 101 -8 136 -31 136 -17 0 -19 9 -19 85
0 78 -2 85 -20 85 -18 0 -20 7 -20 86 0 77 -2 86 -20 91 -18 5 -20 14 -20 78
0 100 -8 135 -31 135 -17 0 -19 9 -19 85 0 78 -2 85 -20 85 -19 0 -20 7 -20
105 0 98 -1 105 -20 105 -18 0 -20 7 -20 86 0 77 -2 86 -20 91 -17 4 -20 15
-22 87 -3 75 -5 81 -25 84 -21 3 -23 9 -23 68 l0 64 -4130 0 -4130 0 0 -25z
m4920 -2825 c0 -17 7 -20 45 -20 l45 0 0 -39 c0 -40 0 -40 -42 -43 -36 -2 -44
-7 -46 -25 -3 -21 -9 -23 -68 -23 -57 0 -64 -2 -64 -20 0 -19 -7 -20 -190 -20
-183 0 -190 1 -190 20 0 13 -7 20 -20 20 -17 0 -20 7 -20 40 l0 40 45 0 c41 0
45 2 45 25 0 25 1 25 80 25 73 0 80 2 80 20 0 19 7 20 150 20 143 0 150 -1
150 -20z m2100 -1240 c0 -13 7 -20 20 -20 15 0 20 -7 20 -25 0 -18 5 -25 20
-25 17 0 20 -7 20 -40 0 -36 3 -40 25 -40 23 0 25 -4 25 -45 0 -38 3 -45 20
-45 18 0 20 -7 20 -85 0 -78 2 -85 20 -85 18 0 20 -7 20 -60 0 -53 -2 -60 -20
-60 -15 0 -20 -7 -20 -25 0 -18 -5 -25 -20 -25 -15 0 -20 7 -20 25 0 18 -5 25
-20 25 -12 0 -20 7 -20 16 0 9 -9 18 -20 21 -11 3 -20 14 -20 24 0 14 -7 19
-25 19 -23 0 -25 4 -25 45 0 38 -3 45 -20 45 -18 0 -20 7 -20 65 0 58 -2 65
-20 65 -17 0 -20 7 -20 48 0 82 -10 122 -31 122 -12 0 -19 7 -19 20 0 15 7 20
25 20 18 0 25 5 25 20 0 17 7 20 40 20 33 0 40 -3 40 -20z m-6460 -5430 c0
-17 -7 -20 -40 -20 -33 0 -40 3 -40 20 0 17 7 20 40 20 33 0 40 -3 40 -20z
m80 -645 c0 -8 -7 -15 -15 -15 -8 0 -15 7 -15 15 0 8 7 15 15 15 8 0 15 -7 15
-15z m2660 -1005 c0 -33 -3 -40 -20 -40 -11 0 -20 4 -20 9 0 5 -3 23 -6 40 -6
28 -4 31 20 31 24 0 26 -3 26 -40z m-600 -190 c0 -13 -7 -20 -20 -20 -13 0
-20 7 -20 20 0 13 7 20 20 20 13 0 20 -7 20 -20z"/>
<path d="M25206 7119 c-3 -17 -6 -47 -6 -65 0 -22 -5 -34 -14 -34 -18 0 -26
-44 -26 -136 0 -67 -2 -74 -20 -74 -19 0 -20 -7 -20 -105 0 -98 -1 -105 -20
-105 -19 0 -20 -7 -20 -90 0 -81 -2 -90 -19 -90 -21 0 -31 -35 -31 -111 0 -42
-3 -49 -20 -49 -11 0 -20 6 -20 14 0 18 -44 26 -136 26 -67 0 -74 2 -74 20 0
19 -7 20 -195 20 -188 0 -195 1 -195 20 0 19 -7 20 -105 20 -98 0 -105 -1
-105 -20 0 -19 -7 -20 -170 -20 -163 0 -170 -1 -170 -20 0 -18 -7 -20 -54 -20
-73 0 -116 -10 -116 -26 0 -9 -12 -14 -34 -14 -62 0 -96 -11 -96 -31 0 -16 -8
-19 -45 -19 -38 0 -45 -3 -45 -19 0 -15 -10 -21 -40 -26 -25 -4 -40 -12 -40
-21 0 -8 -10 -14 -25 -14 -20 0 -25 -5 -25 -25 0 -22 -4 -25 -40 -25 -33 0
-40 -3 -40 -20 0 -15 -7 -20 -25 -20 -18 0 -25 -5 -25 -20 0 -13 -7 -20 -20
-20 -13 0 -20 -7 -20 -20 0 -13 -7 -20 -20 -20 -15 0 -20 -7 -20 -25 0 -20 -5
-25 -25 -25 -18 0 -25 -5 -25 -20 0 -13 -7 -20 -20 -20 -13 0 -20 -7 -20 -20
0 -13 -7 -20 -20 -20 -15 0 -20 -7 -20 -25 0 -18 -5 -25 -20 -25 -17 0 -20 -7
-20 -40 0 -36 -2 -40 -25 -40 -20 0 -25 -5 -25 -25 0 -15 -6 -25 -14 -25 -14
0 -26 -42 -26 -91 0 -22 -5 -29 -20 -29 -18 0 -20 -7 -20 -65 0 -58 -2 -65
-20 -65 -19 0 -20 -7 -20 -150 l0 -150 -25 0 c-27 0 -29 -8 -19 -59 5 -21 12
-31 25 -31 17 0 19 -9 19 -105 0 -98 1 -105 20 -105 18 0 20 -7 20 -65 0 -58
2 -65 20 -65 13 0 20 -7 20 -20 0 -13 7 -20 20 -20 15 0 20 -7 20 -25 0 -20 5
-25 25 -25 18 0 25 -5 25 -20 0 -13 7 -20 20 -20 13 0 20 -7 20 -20 0 -13 7
-20 20 -20 15 0 20 -7 20 -25 0 -18 5 -25 19 -25 10 0 21 -9 24 -20 4 -16 14
-20 46 -20 34 0 41 -3 41 -20 0 -17 7 -20 45 -20 38 0 45 -3 45 -20 0 -18 7
-20 60 -20 57 0 60 -1 60 -25 0 -25 1 -25 90 -25 83 0 90 -1 90 -20 0 -19 7
-20 145 -20 138 0 145 -1 145 -20 0 -20 7 -20 325 -20 318 0 325 0 325 20 0
19 7 20 211 20 201 0 211 1 216 20 5 18 15 20 132 22 122 3 126 4 129 26 3 21
7 22 103 22 92 0 99 1 99 20 0 19 7 20 90 20 81 0 90 2 90 19 0 15 9 19 55 23
30 3 58 8 62 12 4 4 9 41 11 82 4 65 7 74 23 74 17 0 19 9 19 110 0 103 1 110
20 110 18 0 20 7 20 85 0 76 2 85 19 85 23 0 31 35 31 135 0 64 2 73 20 78 18
5 20 14 20 106 0 94 1 101 20 101 19 0 20 7 20 90 0 81 2 90 19 90 23 0 31 35
31 136 0 56 3 74 14 74 18 0 26 44 26 136 0 67 2 74 20 74 19 0 20 7 20 90 0
83 1 90 20 90 19 0 20 7 20 105 0 96 2 105 19 105 23 0 31 35 31 135 0 64 2
73 20 78 18 5 20 14 20 111 0 99 1 106 20 106 18 0 20 7 20 85 0 78 2 85 20
85 18 0 20 7 20 85 l0 85 -509 0 -508 0 -7 -31z m-606 -1319 c0 -19 7 -20 90
-20 83 0 90 -1 90 -20 0 -18 7 -20 60 -20 l60 0 0 -65 c0 -48 -3 -65 -14 -65
-18 0 -26 -44 -26 -141 0 -72 -2 -79 -20 -79 -19 0 -20 -7 -20 -100 0 -93 -1
-100 -20 -100 -19 0 -20 -7 -20 -90 0 -81 -2 -90 -19 -90 -22 0 -31 -35 -31
-116 l0 -54 -40 0 c-33 0 -40 -3 -40 -20 0 -18 -7 -20 -85 -20 -78 0 -85 -2
-85 -20 0 -19 -7 -20 -215 -20 -208 0 -215 1 -215 20 0 17 -7 20 -45 20 -38 0
-45 3 -45 20 0 17 -7 20 -40 20 l-40 0 0 40 c0 33 -4 40 -19 40 -15 0 -20 10
-25 45 -5 29 -12 45 -22 45 -11 0 -14 24 -14 130 0 104 3 130 14 130 16 0 26
43 26 116 0 47 2 54 20 54 17 0 20 7 20 40 0 36 3 40 25 40 20 0 25 5 25 25 0
15 6 25 14 25 9 0 17 15 21 39 6 37 9 40 46 46 23 4 39 12 39 20 0 8 10 15 23
17 14 2 23 11 25 26 3 18 10 22 43 22 32 0 39 3 39 20 0 18 7 20 65 20 58 0
65 2 65 20 0 19 7 20 145 20 138 0 145 -1 145 -20z"/>
<path d="M26660 7045 c0 -63 -1 -65 -25 -65 l-25 0 0 -104 c0 -95 -2 -104 -20
-109 -18 -5 -20 -14 -20 -111 l0 -106 515 0 515 0 0 90 c0 81 2 90 19 90 24 0
31 26 31 121 0 68 2 77 20 82 18 5 20 14 20 91 l0 86 -515 0 -515 0 0 -65z"/>
<path d="M15580 7005 l0 -25 -190 0 c-183 0 -190 -1 -190 -20 0 -18 -7 -20
-86 -20 -77 0 -86 -2 -91 -20 -5 -17 -14 -20 -64 -20 -56 0 -59 -1 -59 -25 0
-24 -2 -25 -65 -25 -58 0 -65 -2 -65 -20 0 -17 -7 -20 -45 -20 -38 0 -45 -3
-45 -19 0 -15 -10 -21 -40 -26 -25 -4 -40 -12 -40 -21 0 -8 -10 -14 -25 -14
-20 0 -25 -5 -25 -25 0 -18 -5 -25 -20 -25 -13 0 -20 -7 -20 -20 0 -13 -7 -20
-20 -20 -13 0 -20 -7 -20 -20 0 -15 -7 -20 -25 -20 -20 0 -25 -5 -25 -25 0
-18 -5 -25 -20 -25 -13 0 -20 -7 -20 -20 0 -13 -7 -20 -20 -20 -17 0 -20 -7
-20 -40 0 -33 -3 -40 -20 -40 -17 0 -20 -7 -20 -45 0 -41 -2 -45 -25 -45 l-25
0 0 -104 c0 -95 -2 -104 -20 -109 -14 -4 -20 -14 -20 -35 0 -50 12 -92 26 -92
10 0 14 -15 14 -54 0 -81 9 -116 31 -116 16 0 19 -8 19 -45 0 -38 3 -45 20
-45 15 0 20 -7 20 -25 0 -18 5 -25 20 -25 13 0 20 -7 20 -20 0 -13 7 -20 20
-20 13 0 20 -7 20 -20 0 -15 7 -20 25 -20 18 0 25 -5 25 -20 0 -15 7 -20 25
-20 18 0 25 -5 25 -20 0 -15 9 -21 40 -26 30 -5 40 -11 40 -25 0 -15 8 -19 40
-19 33 0 40 -3 40 -20 0 -17 7 -20 45 -20 41 0 45 -2 45 -25 0 -24 2 -25 65
-25 58 0 65 -2 65 -20 0 -18 7 -20 60 -20 53 0 60 -2 60 -20 0 -18 7 -20 70
-20 63 0 70 -2 70 -20 0 -19 7 -20 105 -20 l105 0 0 -25 c0 -25 1 -25 85 -25
78 0 85 -2 85 -20 0 -18 7 -20 65 -20 58 0 65 -2 65 -20 0 -18 7 -20 65 -20
58 0 65 -2 65 -20 0 -17 7 -20 40 -20 36 0 40 -2 40 -25 0 -18 5 -25 20 -25
13 0 20 -7 20 -20 0 -13 -7 -20 -20 -20 -17 0 -20 -7 -20 -40 0 -33 -3 -40
-20 -40 -13 0 -20 -7 -20 -19 0 -14 -10 -20 -40 -25 -31 -5 -40 -11 -40 -26 0
-18 -7 -20 -70 -20 -63 0 -70 -2 -70 -20 0 -20 -7 -20 -450 -20 -443 0 -450 0
-450 20 0 19 -7 20 -125 20 -116 0 -125 1 -125 19 0 22 -35 31 -116 31 -39 0
-54 4 -54 14 0 16 -43 26 -116 26 -47 0 -54 2 -54 20 0 17 -7 20 -45 20 -38 0
-45 3 -45 20 0 13 -7 20 -20 20 -17 0 -20 -7 -20 -39 0 -33 -4 -40 -22 -43
-22 -3 -23 -8 -26 -90 -2 -66 -6 -88 -16 -88 -19 0 -26 -32 -26 -127 0 -76 -2
-83 -20 -83 -18 0 -20 -7 -20 -65 0 -58 2 -65 20 -65 13 0 20 -7 20 -20 0 -18
7 -20 65 -20 58 0 65 -2 65 -20 0 -19 7 -20 110 -20 101 0 110 -2 110 -19 0
-24 35 -31 161 -31 77 0 99 -3 99 -14 0 -21 47 -26 241 -26 172 0 179 -1 179
-20 0 -20 7 -20 340 -20 333 0 340 0 340 20 0 19 7 20 158 20 178 0 232 6 232
26 0 11 20 14 85 14 84 0 85 0 85 25 0 24 2 25 65 25 58 0 65 2 65 20 0 18 7
20 65 20 58 0 65 2 65 20 0 17 7 20 41 20 32 0 42 4 46 19 3 13 17 22 44 26
29 5 39 11 39 26 0 12 7 19 20 19 13 0 20 7 20 20 0 15 7 20 25 20 18 0 25 5
25 20 0 13 7 20 20 20 15 0 20 7 20 25 0 18 5 25 20 25 13 0 20 7 20 20 0 13
7 20 20 20 13 0 20 7 20 19 0 13 8 21 23 23 18 2 23 10 25 46 3 34 7 42 23 42
12 0 19 7 19 20 0 13 7 20 20 20 18 0 20 7 20 65 0 63 1 65 25 65 l25 0 0 104
c0 95 2 104 20 109 16 4 20 14 20 46 0 34 -3 41 -20 41 -18 0 -20 7 -20 85 0
84 0 85 -25 85 -22 0 -25 4 -25 40 0 33 -3 40 -20 40 -15 0 -20 7 -20 25 0 18
-5 25 -20 25 -13 0 -20 7 -20 20 0 15 -7 20 -25 20 -20 0 -25 5 -25 25 0 18
-5 25 -20 25 -11 0 -20 6 -20 14 0 9 -15 17 -40 21 -30 5 -40 11 -40 26 0 16
-7 19 -45 19 -38 0 -45 3 -45 20 0 17 -7 20 -40 20 -36 0 -40 3 -40 25 0 23
-4 25 -45 25 -38 0 -45 3 -45 20 0 18 -7 20 -65 20 -58 0 -65 2 -65 20 0 18
-7 20 -65 20 -63 0 -65 1 -65 25 0 24 -2 25 -65 25 -48 0 -65 3 -65 14 0 16
-43 26 -116 26 -47 0 -54 2 -54 20 0 18 -7 20 -85 20 -78 0 -85 2 -85 20 0 18
-7 20 -65 20 -57 0 -65 2 -65 19 0 19 -34 31 -90 31 -19 0 -29 6 -33 20 -3 12
-14 20 -26 20 -14 0 -21 6 -21 20 0 13 -7 20 -20 20 -18 0 -20 7 -20 65 0 58
2 65 20 65 13 0 20 7 20 20 0 18 7 20 65 20 58 0 65 2 65 20 0 20 7 20 425 20
418 0 425 0 425 -20 0 -19 7 -20 130 -20 123 0 130 -1 130 -20 0 -18 7 -20 85
-20 84 0 85 0 85 -25 0 -24 2 -25 65 -25 48 0 65 -3 65 -14 0 -16 43 -26 116
-26 l54 0 0 84 c0 80 1 85 23 88 21 3 22 8 25 91 2 64 6 87 16 87 17 0 26 44
26 125 0 34 -3 77 -6 94 l-6 31 -84 0 c-76 0 -84 2 -84 19 0 24 -26 31 -127
31 -64 0 -83 3 -83 14 0 19 -45 26 -161 26 -92 0 -99 1 -99 20 0 19 -7 20
-210 20 l-210 0 0 25 0 25 -280 0 -280 0 0 -25z"/>
<path d="M3050 6920 c0 -15 -7 -20 -25 -20 -20 0 -25 -5 -25 -25 0 -15 -6 -25
-14 -25 -9 0 -17 -15 -21 -40 -5 -30 -11 -40 -26 -40 -14 0 -19 -7 -19 -25 0
-18 -5 -25 -20 -25 -17 0 -20 -7 -20 -40 0 -36 -2 -40 -25 -40 -20 0 -25 -5
-25 -25 0 -15 -6 -25 -14 -25 -9 0 -17 -15 -21 -40 -5 -30 -11 -40 -26 -40
-16 0 -19 -7 -19 -40 0 -33 -3 -40 -20 -40 -15 0 -20 -7 -20 -25 0 -20 -5 -25
-25 -25 -22 0 -25 -4 -25 -40 0 -33 -3 -40 -20 -40 -13 0 -20 -7 -20 -20 0
-13 -7 -20 -20 -20 -17 0 -20 -7 -20 -45 0 -41 -2 -45 -25 -45 -18 0 -25 -5
-25 -19 0 -10 -9 -21 -20 -24 -16 -4 -20 -14 -20 -46 0 -34 -3 -41 -20 -41
-15 0 -20 -7 -20 -25 0 -18 -5 -25 -20 -25 -17 0 -20 -7 -20 -40 0 -36 -2 -40
-25 -40 -18 0 -25 -5 -25 -20 0 -11 -6 -20 -14 -20 -10 0 -17 -16 -22 -45 -5
-35 -10 -45 -25 -45 -12 0 -19 -7 -19 -20 0 -13 -7 -20 -19 -20 -15 0 -21 -10
-26 -39 -4 -27 -13 -41 -26 -44 -15 -4 -19 -14 -19 -46 0 -34 -3 -41 -20 -41
-13 0 -20 -7 -20 -20 0 -13 -7 -20 -20 -20 -17 0 -20 -7 -20 -45 0 -41 -2 -45
-25 -45 -18 0 -25 -5 -25 -19 0 -10 -9 -21 -20 -24 -16 -4 -20 -14 -20 -46 0
-34 -3 -41 -20 -41 -13 0 -20 -7 -20 -20 0 -13 -7 -20 -20 -20 -17 0 -20 -7
-20 -40 0 -36 -2 -40 -25 -40 -20 0 -25 -5 -25 -25 0 -18 -5 -25 -20 -25 -17
0 -20 -7 -20 -40 0 -33 -3 -40 -20 -40 -15 0 -20 -7 -20 -25 0 -18 -5 -25 -19
-25 -15 0 -21 -10 -26 -40 -5 -30 -11 -40 -26 -40 -14 0 -19 -7 -19 -25 0 -18
-5 -25 -20 -25 -17 0 -20 -7 -20 -40 0 -33 -3 -40 -20 -40 -17 0 -20 -7 -20
-40 0 -36 -2 -40 -25 -40 -20 0 -25 -5 -25 -25 0 -18 -5 -25 -20 -25 -17 0
-20 -7 -20 -40 0 -33 -3 -40 -20 -40 -15 0 -20 -7 -20 -25 0 -20 -5 -25 -25
-25 -22 0 -25 -4 -25 -40 0 -33 -3 -40 -20 -40 -15 0 -20 -7 -20 -25 0 -18 -5
-25 -20 -25 -17 0 -20 -7 -20 -40 0 -33 -3 -40 -20 -40 -15 0 -20 -7 -20 -25
0 -18 -5 -25 -20 -25 -17 0 -20 -7 -20 -40 l0 -40 575 0 c568 0 575 0 575 20
0 15 7 20 25 20 18 0 25 5 25 19 0 10 9 21 20 24 16 4 20 14 20 46 0 34 3 41
20 41 13 0 20 7 20 20 0 13 7 20 20 20 17 0 20 7 20 45 0 41 2 45 25 45 18 0
25 5 25 20 0 13 7 20 20 20 17 0 20 7 20 45 0 38 3 45 20 45 13 0 20 7 20 20
0 13 7 20 19 20 15 0 21 10 26 40 5 30 11 40 26 40 14 0 19 7 19 25 0 18 5 25
20 25 17 0 20 7 20 40 0 33 3 40 20 40 15 0 20 7 20 25 0 18 5 25 19 25 15 0
21 10 26 40 5 30 11 40 26 40 16 0 19 7 19 45 0 38 3 45 20 45 13 0 20 7 20
20 0 15 7 20 25 20 23 0 25 4 25 40 0 33 3 40 20 40 15 0 20 7 20 25 0 18 5
25 20 25 17 0 20 7 20 40 0 33 3 40 20 40 15 0 20 7 20 25 0 18 5 25 19 25 15
0 21 10 26 40 5 30 11 40 26 40 14 0 19 7 19 25 0 18 5 25 20 25 17 0 20 7 20
40 0 33 3 40 20 40 15 0 20 7 20 25 0 18 5 25 20 25 15 0 21 9 26 40 5 30 11
40 25 40 15 0 19 8 19 40 0 33 3 40 20 40 15 0 20 7 20 25 0 18 5 25 20 25 16
0 20 -7 20 -34 0 -54 11 -96 26 -96 11 0 14 -24 14 -112 0 -148 7 -188 31
-188 18 0 19 -10 19 -150 0 -143 1 -150 20 -150 19 0 20 -7 20 -130 0 -123 1
-130 20 -130 19 0 20 -7 20 -146 0 -137 1 -146 20 -151 18 -5 20 -15 22 -152
3 -143 3 -146 26 -149 18 -3 22 -10 22 -43 l0 -39 555 0 555 0 0 65 c0 58 -2
65 -20 65 -19 0 -20 7 -20 105 0 98 -1 105 -20 105 -18 0 -20 7 -20 86 0 77
-2 86 -20 91 -18 5 -20 14 -20 82 0 95 -7 121 -31 121 -17 0 -19 9 -19 90 0
83 -1 90 -20 90 -19 0 -20 7 -20 105 0 98 -1 105 -20 105 -18 0 -20 7 -20 54
0 81 -9 116 -31 116 -17 0 -19 9 -19 90 0 83 -1 90 -20 90 -19 0 -20 7 -20
105 0 98 -1 105 -20 105 -18 0 -20 7 -20 85 0 78 -2 85 -20 85 -18 0 -20 7
-20 74 0 101 -8 136 -31 136 -17 0 -19 9 -19 90 0 83 -1 90 -20 90 -18 0 -20
7 -20 85 0 78 -2 85 -20 85 -18 0 -20 7 -20 74 0 90 -8 136 -25 136 -8 0 -14
20 -17 55 -3 30 -8 58 -12 62 -4 5 -293 9 -642 11 -631 3 -634 2 -634 -18z"/>
<path d="M8820 6725 c0 -38 -3 -45 -20 -45 -19 0 -20 -7 -20 -105 0 -98 -1
-105 -20 -105 -19 0 -20 -7 -20 -90 0 -81 -2 -90 -19 -90 -24 0 -31 -26 -31
-127 0 -76 -2 -83 -20 -83 -19 0 -20 -7 -20 -105 0 -98 -1 -105 -20 -105 -19
0 -20 -7 -20 -90 0 -81 -2 -90 -19 -90 -24 0 -31 -26 -31 -127 0 -64 -3 -83
-14 -83 -18 0 -26 -44 -26 -136 0 -67 -2 -74 -20 -74 -18 0 -20 -7 -20 -85 0
-78 -2 -85 -20 -85 -19 0 -20 -7 -20 -110 0 -101 -2 -110 -19 -110 -22 0 -31
-35 -31 -125 0 -90 9 -125 31 -125 16 0 19 -8 19 -45 0 -38 3 -45 20 -45 17 0
20 -7 20 -45 0 -38 3 -45 20 -45 12 0 20 -7 20 -16 0 -9 9 -18 20 -21 11 -3
20 -14 20 -24 0 -16 8 -19 45 -19 38 0 45 -3 45 -20 0 -17 7 -20 45 -20 41 0
45 -2 45 -25 0 -24 3 -25 59 -25 50 0 59 -3 64 -20 5 -19 14 -20 131 -20 119
0 126 -1 126 -20 0 -19 7 -20 195 -20 188 0 195 1 195 20 0 19 8 20 278 22
l277 3 3 23 c2 12 9 22 16 22 18 0 26 45 26 136 0 67 2 74 20 74 19 0 20 7 20
110 0 101 2 110 19 110 18 0 31 25 31 63 0 15 -13 17 -135 17 -128 0 -135 -1
-135 -20 0 -19 -7 -20 -170 -20 -163 0 -170 1 -170 20 0 17 -7 20 -40 20 -33
0 -40 3 -40 20 0 13 -7 20 -20 20 -19 0 -20 7 -20 130 0 123 1 130 20 130 18
0 20 7 20 85 0 78 2 85 20 85 19 0 20 7 20 110 0 101 2 110 19 110 24 0 31 26
31 121 0 68 2 77 20 82 16 4 20 14 20 46 l0 41 340 0 340 0 0 25 c0 18 5 25
19 25 23 0 31 35 31 136 0 56 3 74 14 74 18 0 26 44 26 136 0 67 2 74 20 74
15 0 20 7 20 25 l0 25 -340 0 -340 0 0 85 c0 78 2 85 20 85 19 0 20 7 20 105
0 98 1 105 20 105 17 0 20 7 20 45 l0 45 -515 0 -515 0 0 -45z"/>
<path d="M17720 6660 c0 -103 -1 -110 -20 -110 -18 0 -20 -7 -20 -85 0 -76 -2
-85 -19 -85 -23 0 -31 -35 -31 -141 0 -72 -2 -79 -20 -79 -19 0 -20 -7 -20
-100 0 -93 -1 -100 -20 -100 -19 0 -20 -7 -20 -90 0 -81 -2 -90 -19 -90 -23 0
-31 -35 -31 -136 0 -56 -3 -74 -14 -74 -18 0 -26 -44 -26 -136 0 -67 -2 -74
-20 -74 -19 0 -20 -7 -20 -90 0 -83 -1 -90 -20 -90 -19 0 -20 -7 -20 -105 0
-97 -1 -105 -19 -105 -27 0 -33 -48 -29 -235 3 -147 3 -150 26 -153 18 -3 22
-10 22 -43 0 -32 3 -39 20 -39 15 0 20 -7 20 -25 0 -18 5 -25 20 -25 13 0 20
-7 20 -20 0 -13 7 -20 20 -20 13 0 20 -7 20 -20 0 -15 7 -20 25 -20 18 0 25
-5 25 -20 0 -17 7 -20 45 -20 37 0 45 -3 45 -19 0 -20 34 -31 96 -31 22 0 34
-5 34 -14 0 -20 32 -26 148 -26 95 0 102 -1 102 -20 0 -19 7 -20 215 -20 206
0 215 1 215 19 0 19 10 20 269 23 148 2 273 6 277 11 4 4 9 32 12 62 3 35 9
55 17 55 17 0 25 46 25 141 0 72 2 79 20 79 19 0 20 7 20 105 l0 105 -125 0
c-118 0 -125 -1 -125 -20 0 -19 -7 -20 -175 -20 -168 0 -175 1 -175 20 0 17
-7 20 -39 20 -38 0 -39 1 -46 40 -5 30 -11 40 -26 40 -16 0 -19 7 -19 45 0 41
2 45 25 45 l25 0 0 105 c0 98 1 105 20 105 19 0 20 7 20 90 0 83 1 90 20 90
19 0 20 7 20 105 l0 105 25 0 25 0 0 105 0 105 360 0 360 0 0 65 c0 57 2 65
19 65 23 0 31 35 31 141 0 61 3 79 14 79 18 0 26 31 26 108 l0 62 -345 0 -345
0 0 40 c0 36 3 40 25 40 25 0 25 1 25 85 0 65 3 85 14 85 18 0 26 44 26 141
l0 79 -515 0 -515 0 0 -110z"/>
<path d="M12210 6360 c0 -19 -7 -20 -235 -20 -228 0 -235 -1 -235 -20 0 -19
-7 -20 -90 -20 -83 0 -90 -1 -90 -20 0 -18 -7 -20 -54 -20 -81 0 -116 -9 -116
-31 0 -17 -8 -19 -65 -19 -57 0 -65 -2 -65 -19 0 -15 -10 -21 -40 -26 -23 -4
-40 -12 -40 -20 0 -7 -18 -15 -45 -19 -36 -6 -45 -11 -45 -27 0 -12 -7 -19
-20 -19 -13 0 -20 -7 -20 -20 0 -17 -7 -20 -40 -20 -33 0 -40 -3 -40 -20 0
-15 -7 -20 -25 -20 -18 0 -25 -5 -25 -19 0 -13 -8 -21 -22 -23 -15 -2 -24 -11
-26 -25 -2 -15 -10 -23 -23 -23 -12 0 -19 -7 -19 -20 0 -13 -7 -20 -20 -20
-15 0 -20 -7 -20 -25 0 -18 -5 -25 -20 -25 -17 0 -20 -7 -20 -40 0 -36 -2 -40
-25 -40 -18 0 -25 -5 -25 -19 0 -10 -9 -21 -20 -24 -16 -4 -20 -14 -20 -46 0
-34 -3 -41 -20 -41 -18 0 -20 -7 -20 -60 0 -53 -2 -60 -20 -60 -18 0 -20 -7
-20 -70 0 -62 -2 -70 -19 -70 -27 0 -31 -34 -31 -275 0 -241 4 -275 31 -275
16 0 19 -8 19 -45 0 -38 3 -45 20 -45 17 0 20 -7 20 -40 0 -33 3 -40 20 -40
15 0 20 -7 20 -25 0 -18 5 -25 20 -25 13 0 20 -7 20 -20 0 -15 7 -20 25 -20
18 0 25 -5 25 -20 0 -13 7 -20 20 -20 15 0 20 -7 20 -25 0 -20 5 -25 25 -25
15 0 25 -6 25 -15 0 -10 14 -17 40 -21 30 -5 40 -11 40 -25 0 -16 8 -19 45
-19 38 0 45 -3 45 -20 0 -18 7 -20 65 -20 57 0 65 -2 65 -19 0 -23 26 -31 108
-31 46 0 62 -4 62 -14 0 -20 46 -26 196 -26 127 0 134 -1 134 -20 0 -20 7 -20
305 -20 298 0 305 0 305 20 0 19 7 20 159 20 174 0 221 6 221 26 0 11 20 14
85 14 84 0 85 0 85 25 0 24 2 25 65 25 58 0 65 2 65 20 0 18 7 20 65 20 58 0
65 2 65 20 0 17 7 20 41 20 32 0 42 4 46 20 4 16 14 20 44 20 35 0 39 3 39 25
0 18 5 25 20 25 13 0 20 7 20 20 0 17 7 20 45 20 38 0 45 3 45 20 0 13 7 20
20 20 15 0 20 7 20 25 0 20 5 25 25 25 18 0 25 5 25 20 0 13 7 20 20 20 15 0
20 7 20 25 0 18 5 25 20 25 17 0 20 7 20 40 0 33 3 40 20 40 13 0 20 7 20 20
0 15 7 20 25 20 23 0 25 4 25 40 0 33 3 40 20 40 17 0 20 7 20 45 0 38 3 45
20 45 17 0 20 7 20 45 0 37 3 45 19 45 22 0 31 35 31 116 0 47 2 54 20 54 19
0 20 7 20 244 0 255 -4 306 -25 306 -7 0 -16 19 -19 45 -6 36 -11 45 -27 45
-14 0 -19 7 -19 25 0 18 -5 25 -20 25 -13 0 -20 7 -20 20 0 13 -7 20 -20 20
-13 0 -20 7 -20 20 0 15 -7 20 -25 20 -18 0 -25 5 -25 20 0 13 -7 20 -20 20
-15 0 -20 7 -20 25 0 20 -5 25 -25 25 -15 0 -25 6 -25 15 0 10 -14 17 -40 21
-30 5 -40 11 -40 25 0 17 -8 19 -65 19 -63 0 -65 1 -65 25 0 24 -3 25 -59 25
-50 0 -59 3 -64 20 -5 18 -14 20 -91 20 -79 0 -86 2 -86 20 0 19 -7 20 -215
20 -208 0 -215 1 -215 20 0 19 -7 20 -165 20 -158 0 -165 -1 -165 -20z m250
-560 c0 -18 7 -20 65 -20 58 0 65 -2 65 -20 0 -13 7 -20 20 -20 13 0 20 -7 20
-20 0 -14 7 -20 21 -20 12 0 23 -8 26 -20 3 -11 12 -20 19 -20 10 0 14 -13 14
-45 0 -41 2 -45 25 -45 25 0 25 -1 25 -84 0 -80 -1 -85 -22 -88 -22 -3 -23 -8
-26 -90 -2 -66 -6 -88 -16 -88 -16 0 -26 -31 -26 -82 0 -31 -4 -38 -20 -38
-15 0 -20 -7 -20 -25 0 -18 -5 -25 -20 -25 -17 0 -20 -7 -20 -40 0 -36 -2 -40
-25 -40 -18 0 -25 -5 -25 -20 0 -13 -7 -20 -20 -20 -13 0 -20 -7 -20 -20 0
-13 -7 -20 -20 -20 -15 0 -20 -7 -20 -25 0 -23 -4 -25 -45 -25 -38 0 -45 -3
-45 -20 0 -18 -7 -20 -65 -20 -58 0 -65 -2 -65 -20 0 -19 -7 -20 -190 -20
-183 0 -190 1 -190 20 0 18 -7 20 -60 20 -53 0 -60 2 -60 20 0 15 -7 20 -25
20 -20 0 -25 5 -25 25 0 18 -5 25 -20 25 -13 0 -20 7 -20 20 0 13 -7 20 -20
20 -19 0 -20 7 -20 235 0 193 2 235 14 235 14 0 26 42 26 91 0 22 5 29 20 29
15 0 20 7 20 25 0 20 5 25 25 25 18 0 25 5 25 20 0 11 7 20 15 20 8 0 15 9 15
20 0 15 7 20 25 20 18 0 25 5 25 20 0 13 7 20 20 20 15 0 20 7 20 25 0 23 4
25 45 25 38 0 45 3 45 20 0 18 7 20 80 20 73 0 80 2 80 20 0 19 7 20 175 20
168 0 175 -1 175 -20z"/>
<path d="M29350 6360 c0 -19 -7 -20 -235 -20 -228 0 -235 -1 -235 -20 0 -19
-7 -20 -105 -20 -98 0 -105 -1 -105 -20 0 -18 -7 -20 -54 -20 -81 0 -116 -9
-116 -31 0 -16 -8 -19 -45 -19 -38 0 -45 -3 -45 -20 0 -15 -7 -20 -29 -20 -49
0 -91 -12 -91 -26 0 -8 -10 -14 -25 -14 -20 0 -25 -5 -25 -25 0 -23 -4 -25
-45 -25 -38 0 -45 -3 -45 -20 0 -13 -7 -20 -20 -20 -13 0 -20 -7 -20 -19 0
-15 -10 -21 -40 -26 -23 -4 -40 -12 -40 -20 0 -8 -10 -15 -22 -17 -15 -2 -24
-11 -26 -25 -2 -15 -10 -23 -23 -23 -12 0 -19 -7 -19 -20 0 -13 -7 -20 -20
-20 -17 0 -20 -7 -20 -45 0 -38 -3 -45 -20 -45 -13 0 -20 -7 -20 -20 0 -15 -7
-20 -25 -20 -22 0 -25 -4 -25 -40 0 -33 -3 -40 -20 -40 -17 0 -20 -7 -20 -45
0 -38 -3 -45 -20 -45 -17 0 -20 -7 -20 -45 0 -37 -3 -45 -19 -45 -22 0 -31
-35 -31 -116 0 -39 -4 -54 -14 -54 -21 0 -26 -47 -26 -235 0 -188 5 -235 26
-235 9 0 14 -12 14 -37 0 -57 10 -83 31 -83 14 0 19 -7 19 -25 0 -18 5 -25 20
-25 17 0 20 -7 20 -45 0 -38 3 -45 20 -45 13 0 20 -7 20 -20 0 -15 7 -20 25
-20 18 0 25 -5 25 -20 0 -13 7 -20 20 -20 13 0 20 -7 20 -19 0 -15 10 -21 40
-26 30 -5 40 -11 40 -26 0 -14 7 -19 25 -19 18 0 25 -5 25 -20 0 -18 7 -20 60
-20 53 0 60 -2 60 -20 0 -17 7 -20 50 -20 42 0 50 -3 50 -19 0 -23 26 -31 108
-31 46 0 62 -4 62 -14 0 -21 33 -26 193 -26 140 0 147 -1 147 -20 0 -20 7 -20
320 -20 313 0 320 0 320 20 0 19 7 20 170 20 163 0 170 1 170 20 0 18 7 20 74
20 101 0 136 8 136 31 0 17 8 19 65 19 58 0 65 2 65 20 0 17 7 20 45 20 38 0
45 3 45 20 0 17 7 20 45 20 38 0 45 3 45 20 0 17 7 20 40 20 36 0 40 3 40 25
0 23 4 25 40 25 33 0 40 3 40 20 0 15 7 20 25 20 18 0 25 5 25 20 0 13 7 20
20 20 15 0 20 7 20 25 0 18 5 25 20 25 13 0 20 7 20 20 0 15 7 20 25 20 18 0
25 5 25 20 0 13 7 20 20 20 15 0 20 7 20 25 0 18 5 25 20 25 17 0 20 7 20 40
0 36 3 40 25 40 20 0 25 5 25 25 0 15 6 25 15 25 10 0 17 14 21 40 5 30 11 40
25 40 17 0 19 8 19 65 0 58 2 65 20 65 18 0 20 7 20 59 0 54 2 60 23 63 21 3
22 8 25 111 2 99 4 107 22 107 19 0 20 7 20 106 0 97 -2 106 -20 111 -17 4
-20 15 -22 87 -3 75 -5 81 -25 84 -19 3 -23 10 -23 43 0 32 -3 39 -20 39 -15
0 -20 7 -20 25 0 18 -5 25 -19 25 -15 0 -21 10 -26 40 -5 30 -11 40 -26 40
-12 0 -19 7 -19 20 0 17 -7 20 -40 20 -36 0 -40 3 -40 25 0 18 -5 25 -19 25
-10 0 -21 9 -24 20 -4 16 -14 20 -46 20 -34 0 -41 3 -41 20 0 17 -7 20 -45 20
-37 0 -45 3 -45 19 0 20 -34 31 -96 31 -22 0 -34 5 -34 14 0 19 -32 26 -127
26 -76 0 -83 2 -83 20 0 19 -7 20 -215 20 -208 0 -215 1 -215 20 0 19 -7 20
-150 20 -143 0 -150 -1 -150 -20z m220 -560 c0 -18 7 -20 60 -20 53 0 60 -2
60 -20 0 -17 7 -20 45 -20 41 0 45 -2 45 -25 0 -18 5 -25 20 -25 17 0 20 -7
20 -40 0 -36 3 -40 25 -40 l25 0 0 -124 c0 -122 -1 -125 -22 -128 -21 -3 -23
-9 -26 -85 -3 -75 -5 -83 -22 -83 -17 0 -20 -7 -20 -45 0 -38 -3 -45 -20 -45
-17 0 -20 -7 -20 -45 0 -41 -2 -45 -25 -45 -18 0 -25 -5 -25 -20 0 -13 -7 -20
-20 -20 -13 0 -20 -7 -20 -20 0 -13 -7 -20 -20 -20 -13 0 -20 -7 -20 -20 0
-13 -7 -20 -20 -20 -15 0 -20 -7 -20 -25 0 -23 -4 -25 -45 -25 -38 0 -45 -3
-45 -20 0 -18 -7 -20 -65 -20 -58 0 -65 -2 -65 -20 0 -19 -7 -20 -190 -20
-183 0 -190 1 -190 20 0 18 -7 20 -65 20 -58 0 -65 2 -65 20 0 13 -7 20 -20
20 -15 0 -20 7 -20 25 0 18 -5 25 -20 25 -17 0 -20 7 -20 40 0 33 -3 40 -20
40 -19 0 -20 7 -20 195 0 159 3 195 14 195 16 0 26 30 26 83 0 30 4 37 20 37
17 0 20 7 20 45 0 38 3 45 20 45 13 0 20 7 20 20 0 15 7 20 25 20 18 0 25 5
25 20 0 12 7 20 16 20 9 0 18 9 21 20 3 11 14 20 24 20 14 0 19 7 19 25 0 23
4 25 45 25 38 0 45 3 45 20 0 18 7 20 85 20 78 0 85 2 85 20 0 19 7 20 170 20
163 0 170 -1 170 -20z"/>
<path d="M5400 6230 c0 -63 -2 -70 -20 -70 -19 0 -20 -7 -20 -99 0 -96 -1
-100 -22 -103 -22 -3 -23 -8 -26 -110 -2 -100 -4 -108 -22 -108 -18 0 -20 -7
-20 -85 0 -78 -2 -85 -20 -85 -19 0 -20 -7 -20 -110 0 -103 -1 -110 -20 -110
-19 0 -20 -7 -20 -105 l0 -105 -25 0 -25 0 0 -104 c0 -95 -2 -104 -20 -109
-18 -5 -20 -14 -20 -100 0 -111 7 -157 26 -157 8 0 14 -16 16 -42 2 -36 7 -44
26 -46 14 -2 22 -10 22 -23 0 -12 7 -19 20 -19 13 0 20 -7 20 -20 0 -13 7 -20
20 -20 15 0 20 -7 20 -25 0 -18 5 -25 20 -25 13 0 20 -7 20 -20 0 -17 7 -20
45 -20 38 0 45 -3 45 -20 0 -17 7 -20 45 -20 38 0 45 -3 45 -20 0 -17 7 -20
45 -20 37 0 45 -3 45 -19 0 -23 26 -31 108 -31 46 0 62 -4 62 -14 0 -21 33
-26 188 -26 135 0 142 -1 142 -20 0 -20 7 -20 305 -20 298 0 305 0 305 20 0
19 7 20 208 20 218 0 252 4 252 26 0 11 26 14 128 14 146 0 172 5 172 31 0 17
9 19 110 19 103 0 110 1 110 20 0 18 7 20 85 20 78 0 85 2 85 20 0 15 7 20 25
20 18 0 25 5 25 19 0 10 9 21 20 24 18 5 20 14 20 91 0 79 2 86 20 86 19 0 20
7 20 105 0 98 1 105 20 105 19 0 20 7 20 104 0 101 1 105 23 108 21 3 22 8 25
91 2 64 6 87 16 87 18 0 26 45 26 136 0 67 2 74 20 74 19 0 20 7 20 105 0 98
1 105 20 105 19 0 20 7 20 90 0 81 2 90 19 90 23 0 31 35 31 136 0 67 2 74 20
74 19 0 20 7 20 105 0 98 1 105 20 105 15 0 20 7 20 25 l0 25 -515 0 c-508 0
-515 0 -515 -20 0 -13 -7 -20 -20 -20 -19 0 -20 -7 -20 -110 0 -103 -1 -110
-20 -110 -18 0 -20 -7 -20 -85 0 -76 -2 -85 -19 -85 -23 0 -31 -35 -31 -135 0
-64 -2 -73 -20 -78 -18 -5 -20 -14 -20 -111 0 -99 -1 -106 -20 -106 -18 0 -20
-7 -20 -85 0 -78 -2 -85 -20 -85 -19 0 -20 -7 -20 -110 0 -101 -2 -110 -19
-110 -23 0 -31 -35 -31 -136 l0 -74 -40 0 c-33 0 -40 -3 -40 -20 0 -19 -7 -20
-125 -20 -118 0 -125 -1 -125 -20 0 -19 -7 -20 -130 -20 -123 0 -130 1 -130
20 0 18 -7 20 -65 20 -58 0 -65 2 -65 20 0 13 -7 20 -19 20 -16 0 -20 8 -23
43 -2 35 -7 43 -25 45 -22 3 -23 7 -23 108 l0 104 25 0 25 0 0 105 c0 98 1
105 20 105 19 0 20 7 20 90 0 83 1 90 20 90 19 0 20 7 20 105 0 96 2 105 19
105 23 0 31 35 31 135 0 64 2 73 20 78 18 5 20 14 20 106 0 94 1 101 20 101
18 0 20 7 20 70 l0 70 -515 0 -515 0 0 -70z"/>
<path d="M19730 6190 c0 -103 -1 -110 -20 -110 -18 0 -20 -7 -20 -85 0 -76 -2
-85 -19 -85 -23 0 -31 -35 -31 -141 0 -61 -3 -79 -14 -79 -19 0 -26 -32 -26
-122 0 -71 -2 -78 -20 -78 -19 0 -20 -7 -20 -110 l0 -110 -25 0 c-25 0 -25 -1
-25 -85 0 -65 -3 -85 -14 -85 -18 0 -26 -44 -26 -141 0 -72 -2 -79 -20 -79
-18 0 -20 -7 -20 -65 0 -58 2 -65 20 -65 18 0 20 -7 20 -60 0 -53 2 -60 20
-60 17 0 20 -7 20 -45 0 -41 2 -45 25 -45 18 0 25 -5 25 -20 0 -13 7 -20 19
-20 13 0 21 -8 23 -22 2 -15 11 -24 26 -26 12 -2 22 -9 22 -17 0 -8 17 -16 40
-20 30 -5 40 -11 40 -26 0 -16 7 -19 40 -19 33 0 40 -3 40 -20 0 -18 7 -20 65
-20 63 0 65 -1 65 -25 0 -25 1 -25 84 -25 75 0 84 -2 89 -20 5 -19 14 -20 156
-20 144 0 151 -1 151 -20 0 -20 7 -20 315 -20 308 0 315 0 315 20 0 19 7 20
216 20 207 0 216 1 221 20 5 18 15 20 152 22 143 3 146 3 149 26 3 21 7 22
108 22 97 0 104 1 104 20 0 19 7 20 105 20 97 0 105 1 105 19 0 13 8 21 23 23
20 3 22 9 25 84 2 72 5 83 22 87 18 5 20 14 20 91 0 79 2 86 20 86 19 0 20 7
20 105 0 96 2 105 19 105 23 0 31 35 31 135 0 64 2 73 20 78 18 5 20 14 20
106 0 94 1 101 20 101 19 0 20 7 20 90 0 83 1 90 20 90 19 0 20 7 20 105 0 96
2 105 19 105 23 0 31 35 31 135 0 64 2 73 20 78 18 5 20 14 20 91 0 79 2 86
20 86 18 0 20 7 20 65 l0 65 -515 0 -515 0 0 -45 c0 -38 -3 -45 -20 -45 -19 0
-20 -7 -20 -104 0 -101 -1 -105 -22 -108 -22 -3 -23 -8 -26 -110 -2 -100 -4
-108 -22 -108 -18 0 -20 -7 -20 -85 0 -78 -2 -85 -20 -85 -19 0 -20 -7 -20
-110 0 -103 -1 -110 -20 -110 -19 0 -20 -7 -20 -99 0 -96 -1 -100 -22 -103
-22 -3 -23 -8 -26 -90 -2 -65 -6 -88 -16 -88 -16 0 -26 -44 -26 -116 l0 -54
-40 0 c-33 0 -40 -3 -40 -20 0 -19 -7 -20 -130 -20 -123 0 -130 -1 -130 -20 0
-19 -7 -20 -105 -20 -98 0 -105 1 -105 20 0 18 -7 20 -65 20 -58 0 -65 2 -65
20 0 15 -7 20 -25 20 -18 0 -25 5 -25 20 0 11 -7 20 -15 20 -13 0 -15 28 -15
195 0 159 3 195 14 195 18 0 26 44 26 136 0 67 2 74 20 74 19 0 20 7 20 105 0
98 1 105 20 105 19 0 20 7 20 90 0 81 2 90 19 90 23 0 31 35 31 136 0 67 2 74
20 74 19 0 20 7 20 110 l0 110 -515 0 -515 0 0 -110z"/>
<path d="M26490 6230 c0 -62 -2 -70 -19 -70 -24 0 -31 -26 -31 -121 0 -68 -2
-77 -20 -82 -18 -5 -20 -14 -20 -111 0 -99 -1 -106 -20 -106 -18 0 -20 -7 -20
-85 0 -78 -2 -85 -20 -85 -19 0 -20 -7 -20 -104 0 -101 -1 -105 -22 -108 -22
-3 -23 -8 -26 -110 -2 -100 -4 -108 -22 -108 -18 0 -20 -7 -20 -85 0 -78 -2
-85 -20 -85 -19 0 -20 -7 -20 -110 0 -101 -2 -110 -19 -110 -24 0 -31 -26 -31
-127 0 -76 -2 -83 -20 -83 -18 0 -20 -7 -20 -85 0 -78 -2 -85 -20 -85 -18 0
-20 -7 -20 -59 l0 -58 38 -7 c49 -8 920 -8 961 0 28 6 31 10 31 45 0 32 3 39
20 39 19 0 20 7 20 105 l0 105 25 0 c25 0 25 1 25 90 0 70 3 90 14 90 19 0 26
32 26 128 0 75 2 82 20 82 19 0 20 7 20 105 0 98 1 105 20 105 19 0 20 7 20
104 0 101 1 105 23 108 21 3 22 8 25 91 2 64 6 87 16 87 18 0 26 45 26 136 0
67 2 74 20 74 19 0 20 7 20 104 0 101 1 105 23 108 21 3 22 8 25 104 2 92 5
102 22 107 17 4 20 14 20 71 l0 66 -515 0 -515 0 0 -70z"/>
</g>
</svg>
