<?xml version="1.0" standalone="no"?>
<!DOCTYPE svg PUBLIC "-//W3C//DTD SVG 20010904//EN"
 "http://www.w3.org/TR/2001/REC-SVG-20010904/DTD/svg10.dtd">
<svg version="1.0" xmlns="http://www.w3.org/2000/svg"
 width="297.000000pt" height="297.000000pt" viewBox="0 0 297.000000 297.000000"
 preserveAspectRatio="xMidYMid meet">
<metadata>
Created by potrace 1.11, written by Peter Selinger 2001-2013
</metadata>
<g transform="translate(0.000000,297.000000) scale(0.100000,-0.100000)"
fill="#000000" stroke="none">
<path d="M1403 2348 c-19 -24 -1123 -1718 -1123 -1723 0 -3 152 -5 338 -5
l337 0 234 404 c187 326 235 403 246 393 7 -7 11 -15 8 -19 -2 -5 1 -8 6 -8 6
0 11 -7 11 -15 0 -28 195 -147 210 -127 8 11 59 9 53 -2 -4 -5 5 -6 20 -2 23
5 7 -27 -153 -306 l-180 -313 597 -3 c328 -1 598 0 600 2 3 3 -105 486 -327
1462 -33 144 -60 265 -60 268 0 3 -182 6 -404 6 -311 0 -406 -3 -413 -12z
m495 -270 c-5 -15 -58 -24 -58 -10 0 15 12 22 38 22 14 0 22 -5 20 -12z m222
-160 c0 -24 -6 -23 -26 7 -19 30 -8 58 13 30 7 -11 13 -27 13 -37z m-643 -540
c-3 -8 -6 -5 -6 6 -1 11 2 17 5 13 3 -3 4 -12 1 -19z"/>
</g>
</svg>
